<?xml version="1.0" encoding="utf-8" standalone="no"?>
<!DOCTYPE svg PUBLIC "-//W3C//DTD SVG 1.1//EN"
  "http://www.w3.org/Graphics/SVG/1.1/DTD/svg11.dtd">
<svg height="258.890937pt" version="1.1" viewBox="0 0 616.997187 258.890937" width="616.997187pt" xmlns="http://www.w3.org/2000/svg" xmlns:xlink="http://www.w3.org/1999/xlink">
 <metadata>
  <rdf:RDF xmlns:cc="http://creativecommons.org/ns#" xmlns:dc="http://purl.org/dc/elements/1.1/" xmlns:rdf="http://www.w3.org/1999/02/22-rdf-syntax-ns#">
   <cc:Work>
    <dc:type rdf:resource="http://purl.org/dc/dcmitype/StillImage"/>
    <dc:date>2022-02-09T18:25:29.404113</dc:date>
    <dc:format>image/svg+xml</dc:format>
    <dc:creator>
     <cc:Agent>
      <dc:title>Matplotlib v3.4.1, https://matplotlib.org/</dc:title>
     </cc:Agent>
    </dc:creator>
   </cc:Work>
  </rdf:RDF>
 </metadata>
 <defs>
  <style type="text/css">*{stroke-linecap:butt;stroke-linejoin:round;}</style>
 </defs>
 <g id="figure_1">
  <g id="patch_1">
   <path d="M 0 258.890937 
L 616.997187 258.890937 
L 616.997187 0 
L 0 0 
z
" style="fill:#ffffff;"/>
  </g>
  <g id="axes_1">
   <g id="patch_2">
    <path d="M 58.997188 221.76 
L 616.997187 221.76 
L 616.997187 -0 
L 58.997188 -0 
z
" style="fill:#ffffff;"/>
   </g>
   <g id="matplotlib.axis_1">
    <g id="xtick_1">
     <g id="line2d_1">
      <path clip-path="url(#pf6774c2a3a)" d="M 83.410875 221.76 
L 83.410875 -0 
" style="fill:none;stroke:#cccccc;stroke-linecap:square;"/>
     </g>
     <g id="line2d_2">
      <defs>
       <path d="M 0 0 
L 0 3.5 
" id="mae87990047" style="stroke:#000000;stroke-width:0.8;"/>
      </defs>
      <g>
       <use style="stroke:#000000;stroke-width:0.8;" x="83.410875" xlink:href="#mae87990047" y="221.76"/>
      </g>
     </g>
     <g id="text_1">
      <!-- 0 -->
      <g transform="translate(79.593375 237.878125)scale(0.12 -0.12)">
       <defs>
        <path d="M 2034 4250 
Q 1547 4250 1301 3770 
Q 1056 3291 1056 2328 
Q 1056 1369 1301 889 
Q 1547 409 2034 409 
Q 2525 409 2770 889 
Q 3016 1369 3016 2328 
Q 3016 3291 2770 3770 
Q 2525 4250 2034 4250 
z
M 2034 4750 
Q 2819 4750 3233 4129 
Q 3647 3509 3647 2328 
Q 3647 1150 3233 529 
Q 2819 -91 2034 -91 
Q 1250 -91 836 529 
Q 422 1150 422 2328 
Q 422 3509 836 4129 
Q 1250 4750 2034 4750 
z
" id="DejaVuSans-30" transform="scale(0.015625)"/>
       </defs>
       <use xlink:href="#DejaVuSans-30"/>
      </g>
     </g>
    </g>
    <g id="xtick_2">
     <g id="line2d_3">
      <path clip-path="url(#pf6774c2a3a)" d="M 178.405768 221.76 
L 178.405768 -0 
" style="fill:none;stroke:#cccccc;stroke-linecap:square;"/>
     </g>
     <g id="line2d_4">
      <g>
       <use style="stroke:#000000;stroke-width:0.8;" x="178.405768" xlink:href="#mae87990047" y="221.76"/>
      </g>
     </g>
     <g id="text_2">
      <!-- 1 -->
      <g transform="translate(174.588268 237.878125)scale(0.12 -0.12)">
       <defs>
        <path d="M 794 531 
L 1825 531 
L 1825 4091 
L 703 3866 
L 703 4441 
L 1819 4666 
L 2450 4666 
L 2450 531 
L 3481 531 
L 3481 0 
L 794 0 
L 794 531 
z
" id="DejaVuSans-31" transform="scale(0.015625)"/>
       </defs>
       <use xlink:href="#DejaVuSans-31"/>
      </g>
     </g>
    </g>
    <g id="xtick_3">
     <g id="line2d_5">
      <path clip-path="url(#pf6774c2a3a)" d="M 273.40066 221.76 
L 273.40066 -0 
" style="fill:none;stroke:#cccccc;stroke-linecap:square;"/>
     </g>
     <g id="line2d_6">
      <g>
       <use style="stroke:#000000;stroke-width:0.8;" x="273.40066" xlink:href="#mae87990047" y="221.76"/>
      </g>
     </g>
     <g id="text_3">
      <!-- 2 -->
      <g transform="translate(269.58316 237.878125)scale(0.12 -0.12)">
       <defs>
        <path d="M 1228 531 
L 3431 531 
L 3431 0 
L 469 0 
L 469 531 
Q 828 903 1448 1529 
Q 2069 2156 2228 2338 
Q 2531 2678 2651 2914 
Q 2772 3150 2772 3378 
Q 2772 3750 2511 3984 
Q 2250 4219 1831 4219 
Q 1534 4219 1204 4116 
Q 875 4013 500 3803 
L 500 4441 
Q 881 4594 1212 4672 
Q 1544 4750 1819 4750 
Q 2544 4750 2975 4387 
Q 3406 4025 3406 3419 
Q 3406 3131 3298 2873 
Q 3191 2616 2906 2266 
Q 2828 2175 2409 1742 
Q 1991 1309 1228 531 
z
" id="DejaVuSans-32" transform="scale(0.015625)"/>
       </defs>
       <use xlink:href="#DejaVuSans-32"/>
      </g>
     </g>
    </g>
    <g id="xtick_4">
     <g id="line2d_7">
      <path clip-path="url(#pf6774c2a3a)" d="M 368.395553 221.76 
L 368.395553 -0 
" style="fill:none;stroke:#cccccc;stroke-linecap:square;"/>
     </g>
     <g id="line2d_8">
      <g>
       <use style="stroke:#000000;stroke-width:0.8;" x="368.395553" xlink:href="#mae87990047" y="221.76"/>
      </g>
     </g>
     <g id="text_4">
      <!-- 3 -->
      <g transform="translate(364.578053 237.878125)scale(0.12 -0.12)">
       <defs>
        <path d="M 2597 2516 
Q 3050 2419 3304 2112 
Q 3559 1806 3559 1356 
Q 3559 666 3084 287 
Q 2609 -91 1734 -91 
Q 1441 -91 1130 -33 
Q 819 25 488 141 
L 488 750 
Q 750 597 1062 519 
Q 1375 441 1716 441 
Q 2309 441 2620 675 
Q 2931 909 2931 1356 
Q 2931 1769 2642 2001 
Q 2353 2234 1838 2234 
L 1294 2234 
L 1294 2753 
L 1863 2753 
Q 2328 2753 2575 2939 
Q 2822 3125 2822 3475 
Q 2822 3834 2567 4026 
Q 2313 4219 1838 4219 
Q 1578 4219 1281 4162 
Q 984 4106 628 3988 
L 628 4550 
Q 988 4650 1302 4700 
Q 1616 4750 1894 4750 
Q 2613 4750 3031 4423 
Q 3450 4097 3450 3541 
Q 3450 3153 3228 2886 
Q 3006 2619 2597 2516 
z
" id="DejaVuSans-33" transform="scale(0.015625)"/>
       </defs>
       <use xlink:href="#DejaVuSans-33"/>
      </g>
     </g>
    </g>
    <g id="xtick_5">
     <g id="line2d_9">
      <path clip-path="url(#pf6774c2a3a)" d="M 463.390446 221.76 
L 463.390446 -0 
" style="fill:none;stroke:#cccccc;stroke-linecap:square;"/>
     </g>
     <g id="line2d_10">
      <g>
       <use style="stroke:#000000;stroke-width:0.8;" x="463.390446" xlink:href="#mae87990047" y="221.76"/>
      </g>
     </g>
     <g id="text_5">
      <!-- 4 -->
      <g transform="translate(459.572946 237.878125)scale(0.12 -0.12)">
       <defs>
        <path d="M 2419 4116 
L 825 1625 
L 2419 1625 
L 2419 4116 
z
M 2253 4666 
L 3047 4666 
L 3047 1625 
L 3713 1625 
L 3713 1100 
L 3047 1100 
L 3047 0 
L 2419 0 
L 2419 1100 
L 313 1100 
L 313 1709 
L 2253 4666 
z
" id="DejaVuSans-34" transform="scale(0.015625)"/>
       </defs>
       <use xlink:href="#DejaVuSans-34"/>
      </g>
     </g>
    </g>
    <g id="xtick_6">
     <g id="line2d_11">
      <path clip-path="url(#pf6774c2a3a)" d="M 558.385339 221.76 
L 558.385339 -0 
" style="fill:none;stroke:#cccccc;stroke-linecap:square;"/>
     </g>
     <g id="line2d_12">
      <g>
       <use style="stroke:#000000;stroke-width:0.8;" x="558.385339" xlink:href="#mae87990047" y="221.76"/>
      </g>
     </g>
     <g id="text_6">
      <!-- 5 -->
      <g transform="translate(554.567839 237.878125)scale(0.12 -0.12)">
       <defs>
        <path d="M 691 4666 
L 3169 4666 
L 3169 4134 
L 1269 4134 
L 1269 2991 
Q 1406 3038 1543 3061 
Q 1681 3084 1819 3084 
Q 2600 3084 3056 2656 
Q 3513 2228 3513 1497 
Q 3513 744 3044 326 
Q 2575 -91 1722 -91 
Q 1428 -91 1123 -41 
Q 819 9 494 109 
L 494 744 
Q 775 591 1075 516 
Q 1375 441 1709 441 
Q 2250 441 2565 725 
Q 2881 1009 2881 1497 
Q 2881 1984 2565 2268 
Q 2250 2553 1709 2553 
Q 1456 2553 1204 2497 
Q 953 2441 691 2322 
L 691 4666 
z
" id="DejaVuSans-35" transform="scale(0.015625)"/>
       </defs>
       <use xlink:href="#DejaVuSans-35"/>
      </g>
     </g>
    </g>
    <g id="text_7">
     <!-- Vector size -->
     <g transform="translate(297.171406 255.771406)scale(0.15 -0.15)">
      <defs>
       <path d="M 1831 0 
L 50 4666 
L 709 4666 
L 2188 738 
L 3669 4666 
L 4325 4666 
L 2547 0 
L 1831 0 
z
" id="DejaVuSans-56" transform="scale(0.015625)"/>
       <path d="M 3597 1894 
L 3597 1613 
L 953 1613 
Q 991 1019 1311 708 
Q 1631 397 2203 397 
Q 2534 397 2845 478 
Q 3156 559 3463 722 
L 3463 178 
Q 3153 47 2828 -22 
Q 2503 -91 2169 -91 
Q 1331 -91 842 396 
Q 353 884 353 1716 
Q 353 2575 817 3079 
Q 1281 3584 2069 3584 
Q 2775 3584 3186 3129 
Q 3597 2675 3597 1894 
z
M 3022 2063 
Q 3016 2534 2758 2815 
Q 2500 3097 2075 3097 
Q 1594 3097 1305 2825 
Q 1016 2553 972 2059 
L 3022 2063 
z
" id="DejaVuSans-65" transform="scale(0.015625)"/>
       <path d="M 3122 3366 
L 3122 2828 
Q 2878 2963 2633 3030 
Q 2388 3097 2138 3097 
Q 1578 3097 1268 2742 
Q 959 2388 959 1747 
Q 959 1106 1268 751 
Q 1578 397 2138 397 
Q 2388 397 2633 464 
Q 2878 531 3122 666 
L 3122 134 
Q 2881 22 2623 -34 
Q 2366 -91 2075 -91 
Q 1284 -91 818 406 
Q 353 903 353 1747 
Q 353 2603 823 3093 
Q 1294 3584 2113 3584 
Q 2378 3584 2631 3529 
Q 2884 3475 3122 3366 
z
" id="DejaVuSans-63" transform="scale(0.015625)"/>
       <path d="M 1172 4494 
L 1172 3500 
L 2356 3500 
L 2356 3053 
L 1172 3053 
L 1172 1153 
Q 1172 725 1289 603 
Q 1406 481 1766 481 
L 2356 481 
L 2356 0 
L 1766 0 
Q 1100 0 847 248 
Q 594 497 594 1153 
L 594 3053 
L 172 3053 
L 172 3500 
L 594 3500 
L 594 4494 
L 1172 4494 
z
" id="DejaVuSans-74" transform="scale(0.015625)"/>
       <path d="M 1959 3097 
Q 1497 3097 1228 2736 
Q 959 2375 959 1747 
Q 959 1119 1226 758 
Q 1494 397 1959 397 
Q 2419 397 2687 759 
Q 2956 1122 2956 1747 
Q 2956 2369 2687 2733 
Q 2419 3097 1959 3097 
z
M 1959 3584 
Q 2709 3584 3137 3096 
Q 3566 2609 3566 1747 
Q 3566 888 3137 398 
Q 2709 -91 1959 -91 
Q 1206 -91 779 398 
Q 353 888 353 1747 
Q 353 2609 779 3096 
Q 1206 3584 1959 3584 
z
" id="DejaVuSans-6f" transform="scale(0.015625)"/>
       <path d="M 2631 2963 
Q 2534 3019 2420 3045 
Q 2306 3072 2169 3072 
Q 1681 3072 1420 2755 
Q 1159 2438 1159 1844 
L 1159 0 
L 581 0 
L 581 3500 
L 1159 3500 
L 1159 2956 
Q 1341 3275 1631 3429 
Q 1922 3584 2338 3584 
Q 2397 3584 2469 3576 
Q 2541 3569 2628 3553 
L 2631 2963 
z
" id="DejaVuSans-72" transform="scale(0.015625)"/>
       <path id="DejaVuSans-20" transform="scale(0.015625)"/>
       <path d="M 2834 3397 
L 2834 2853 
Q 2591 2978 2328 3040 
Q 2066 3103 1784 3103 
Q 1356 3103 1142 2972 
Q 928 2841 928 2578 
Q 928 2378 1081 2264 
Q 1234 2150 1697 2047 
L 1894 2003 
Q 2506 1872 2764 1633 
Q 3022 1394 3022 966 
Q 3022 478 2636 193 
Q 2250 -91 1575 -91 
Q 1294 -91 989 -36 
Q 684 19 347 128 
L 347 722 
Q 666 556 975 473 
Q 1284 391 1588 391 
Q 1994 391 2212 530 
Q 2431 669 2431 922 
Q 2431 1156 2273 1281 
Q 2116 1406 1581 1522 
L 1381 1569 
Q 847 1681 609 1914 
Q 372 2147 372 2553 
Q 372 3047 722 3315 
Q 1072 3584 1716 3584 
Q 2034 3584 2315 3537 
Q 2597 3491 2834 3397 
z
" id="DejaVuSans-73" transform="scale(0.015625)"/>
       <path d="M 603 3500 
L 1178 3500 
L 1178 0 
L 603 0 
L 603 3500 
z
M 603 4863 
L 1178 4863 
L 1178 4134 
L 603 4134 
L 603 4863 
z
" id="DejaVuSans-69" transform="scale(0.015625)"/>
       <path d="M 353 3500 
L 3084 3500 
L 3084 2975 
L 922 459 
L 3084 459 
L 3084 0 
L 275 0 
L 275 525 
L 2438 3041 
L 353 3041 
L 353 3500 
z
" id="DejaVuSans-7a" transform="scale(0.015625)"/>
      </defs>
      <use xlink:href="#DejaVuSans-56"/>
      <use x="60.658203" xlink:href="#DejaVuSans-65"/>
      <use x="122.181641" xlink:href="#DejaVuSans-63"/>
      <use x="177.162109" xlink:href="#DejaVuSans-74"/>
      <use x="216.371094" xlink:href="#DejaVuSans-6f"/>
      <use x="277.552734" xlink:href="#DejaVuSans-72"/>
      <use x="318.666016" xlink:href="#DejaVuSans-20"/>
      <use x="350.453125" xlink:href="#DejaVuSans-73"/>
      <use x="402.552734" xlink:href="#DejaVuSans-69"/>
      <use x="430.335938" xlink:href="#DejaVuSans-7a"/>
      <use x="482.826172" xlink:href="#DejaVuSans-65"/>
     </g>
    </g>
    <g id="text_8">
     <!-- 1e8 -->
     <g transform="translate(598.119063 250.972187)scale(0.1 -0.1)">
      <defs>
       <path d="M 2034 2216 
Q 1584 2216 1326 1975 
Q 1069 1734 1069 1313 
Q 1069 891 1326 650 
Q 1584 409 2034 409 
Q 2484 409 2743 651 
Q 3003 894 3003 1313 
Q 3003 1734 2745 1975 
Q 2488 2216 2034 2216 
z
M 1403 2484 
Q 997 2584 770 2862 
Q 544 3141 544 3541 
Q 544 4100 942 4425 
Q 1341 4750 2034 4750 
Q 2731 4750 3128 4425 
Q 3525 4100 3525 3541 
Q 3525 3141 3298 2862 
Q 3072 2584 2669 2484 
Q 3125 2378 3379 2068 
Q 3634 1759 3634 1313 
Q 3634 634 3220 271 
Q 2806 -91 2034 -91 
Q 1263 -91 848 271 
Q 434 634 434 1313 
Q 434 1759 690 2068 
Q 947 2378 1403 2484 
z
M 1172 3481 
Q 1172 3119 1398 2916 
Q 1625 2713 2034 2713 
Q 2441 2713 2670 2916 
Q 2900 3119 2900 3481 
Q 2900 3844 2670 4047 
Q 2441 4250 2034 4250 
Q 1625 4250 1398 4047 
Q 1172 3844 1172 3481 
z
" id="DejaVuSans-38" transform="scale(0.015625)"/>
      </defs>
      <use xlink:href="#DejaVuSans-31"/>
      <use x="63.623047" xlink:href="#DejaVuSans-65"/>
      <use x="125.146484" xlink:href="#DejaVuSans-38"/>
     </g>
    </g>
   </g>
   <g id="matplotlib.axis_2">
    <g id="ytick_1">
     <g id="line2d_13">
      <path clip-path="url(#pf6774c2a3a)" d="M 58.997188 186.31413 
L 616.997187 186.31413 
" style="fill:none;stroke:#cccccc;stroke-linecap:square;"/>
     </g>
     <g id="line2d_14">
      <defs>
       <path d="M 0 0 
L -3.5 0 
" id="me61757de02" style="stroke:#000000;stroke-width:0.8;"/>
      </defs>
      <g>
       <use style="stroke:#000000;stroke-width:0.8;" x="58.997188" xlink:href="#me61757de02" y="186.31413"/>
      </g>
     </g>
     <g id="text_9">
      <!-- $\mathdefault{10^{-14}}$ -->
      <g transform="translate(18.517188 190.873193)scale(0.12 -0.12)">
       <defs>
        <path d="M 678 2272 
L 4684 2272 
L 4684 1741 
L 678 1741 
L 678 2272 
z
" id="DejaVuSans-2212" transform="scale(0.015625)"/>
       </defs>
       <use transform="translate(0 0.684375)" xlink:href="#DejaVuSans-31"/>
       <use transform="translate(63.623047 0.684375)" xlink:href="#DejaVuSans-30"/>
       <use transform="translate(128.203125 38.965625)scale(0.7)" xlink:href="#DejaVuSans-2212"/>
       <use transform="translate(186.855469 38.965625)scale(0.7)" xlink:href="#DejaVuSans-31"/>
       <use transform="translate(231.391602 38.965625)scale(0.7)" xlink:href="#DejaVuSans-34"/>
      </g>
     </g>
    </g>
    <g id="ytick_2">
     <g id="line2d_15">
      <path clip-path="url(#pf6774c2a3a)" d="M 58.997188 148.633663 
L 616.997187 148.633663 
" style="fill:none;stroke:#cccccc;stroke-linecap:square;"/>
     </g>
     <g id="line2d_16">
      <g>
       <use style="stroke:#000000;stroke-width:0.8;" x="58.997188" xlink:href="#me61757de02" y="148.633663"/>
      </g>
     </g>
     <g id="text_10">
      <!-- $\mathdefault{10^{-12}}$ -->
      <g transform="translate(18.517188 153.192726)scale(0.12 -0.12)">
       <use transform="translate(0 0.765625)" xlink:href="#DejaVuSans-31"/>
       <use transform="translate(63.623047 0.765625)" xlink:href="#DejaVuSans-30"/>
       <use transform="translate(128.203125 39.046875)scale(0.7)" xlink:href="#DejaVuSans-2212"/>
       <use transform="translate(186.855469 39.046875)scale(0.7)" xlink:href="#DejaVuSans-31"/>
       <use transform="translate(231.391602 39.046875)scale(0.7)" xlink:href="#DejaVuSans-32"/>
      </g>
     </g>
    </g>
    <g id="ytick_3">
     <g id="line2d_17">
      <path clip-path="url(#pf6774c2a3a)" d="M 58.997188 110.953196 
L 616.997187 110.953196 
" style="fill:none;stroke:#cccccc;stroke-linecap:square;"/>
     </g>
     <g id="line2d_18">
      <g>
       <use style="stroke:#000000;stroke-width:0.8;" x="58.997188" xlink:href="#me61757de02" y="110.953196"/>
      </g>
     </g>
     <g id="text_11">
      <!-- $\mathdefault{10^{-10}}$ -->
      <g transform="translate(18.517188 115.512259)scale(0.12 -0.12)">
       <use transform="translate(0 0.765625)" xlink:href="#DejaVuSans-31"/>
       <use transform="translate(63.623047 0.765625)" xlink:href="#DejaVuSans-30"/>
       <use transform="translate(128.203125 39.046875)scale(0.7)" xlink:href="#DejaVuSans-2212"/>
       <use transform="translate(186.855469 39.046875)scale(0.7)" xlink:href="#DejaVuSans-31"/>
       <use transform="translate(231.391602 39.046875)scale(0.7)" xlink:href="#DejaVuSans-30"/>
      </g>
     </g>
    </g>
    <g id="ytick_4">
     <g id="line2d_19">
      <path clip-path="url(#pf6774c2a3a)" d="M 58.997188 73.272729 
L 616.997187 73.272729 
" style="fill:none;stroke:#cccccc;stroke-linecap:square;"/>
     </g>
     <g id="line2d_20">
      <g>
       <use style="stroke:#000000;stroke-width:0.8;" x="58.997188" xlink:href="#me61757de02" y="73.272729"/>
      </g>
     </g>
     <g id="text_12">
      <!-- $\mathdefault{10^{-8}}$ -->
      <g transform="translate(23.797188 77.831792)scale(0.12 -0.12)">
       <use transform="translate(0 0.765625)" xlink:href="#DejaVuSans-31"/>
       <use transform="translate(63.623047 0.765625)" xlink:href="#DejaVuSans-30"/>
       <use transform="translate(128.203125 39.046875)scale(0.7)" xlink:href="#DejaVuSans-2212"/>
       <use transform="translate(186.855469 39.046875)scale(0.7)" xlink:href="#DejaVuSans-38"/>
      </g>
     </g>
    </g>
    <g id="ytick_5">
     <g id="line2d_21">
      <path clip-path="url(#pf6774c2a3a)" d="M 58.997188 35.592263 
L 616.997187 35.592263 
" style="fill:none;stroke:#cccccc;stroke-linecap:square;"/>
     </g>
     <g id="line2d_22">
      <g>
       <use style="stroke:#000000;stroke-width:0.8;" x="58.997188" xlink:href="#me61757de02" y="35.592263"/>
      </g>
     </g>
     <g id="text_13">
      <!-- $\mathdefault{10^{-6}}$ -->
      <g transform="translate(23.797188 40.151325)scale(0.12 -0.12)">
       <defs>
        <path d="M 2113 2584 
Q 1688 2584 1439 2293 
Q 1191 2003 1191 1497 
Q 1191 994 1439 701 
Q 1688 409 2113 409 
Q 2538 409 2786 701 
Q 3034 994 3034 1497 
Q 3034 2003 2786 2293 
Q 2538 2584 2113 2584 
z
M 3366 4563 
L 3366 3988 
Q 3128 4100 2886 4159 
Q 2644 4219 2406 4219 
Q 1781 4219 1451 3797 
Q 1122 3375 1075 2522 
Q 1259 2794 1537 2939 
Q 1816 3084 2150 3084 
Q 2853 3084 3261 2657 
Q 3669 2231 3669 1497 
Q 3669 778 3244 343 
Q 2819 -91 2113 -91 
Q 1303 -91 875 529 
Q 447 1150 447 2328 
Q 447 3434 972 4092 
Q 1497 4750 2381 4750 
Q 2619 4750 2861 4703 
Q 3103 4656 3366 4563 
z
" id="DejaVuSans-36" transform="scale(0.015625)"/>
       </defs>
       <use transform="translate(0 0.765625)" xlink:href="#DejaVuSans-31"/>
       <use transform="translate(63.623047 0.765625)" xlink:href="#DejaVuSans-30"/>
       <use transform="translate(128.203125 39.046875)scale(0.7)" xlink:href="#DejaVuSans-2212"/>
       <use transform="translate(186.855469 39.046875)scale(0.7)" xlink:href="#DejaVuSans-36"/>
      </g>
     </g>
    </g>
    <g id="text_14">
     <!-- Relative error -->
     <g transform="translate(11.397656 161.663203)rotate(-90)scale(0.15 -0.15)">
      <defs>
       <path d="M 2841 2188 
Q 3044 2119 3236 1894 
Q 3428 1669 3622 1275 
L 4263 0 
L 3584 0 
L 2988 1197 
Q 2756 1666 2539 1819 
Q 2322 1972 1947 1972 
L 1259 1972 
L 1259 0 
L 628 0 
L 628 4666 
L 2053 4666 
Q 2853 4666 3247 4331 
Q 3641 3997 3641 3322 
Q 3641 2881 3436 2590 
Q 3231 2300 2841 2188 
z
M 1259 4147 
L 1259 2491 
L 2053 2491 
Q 2509 2491 2742 2702 
Q 2975 2913 2975 3322 
Q 2975 3731 2742 3939 
Q 2509 4147 2053 4147 
L 1259 4147 
z
" id="DejaVuSans-52" transform="scale(0.015625)"/>
       <path d="M 603 4863 
L 1178 4863 
L 1178 0 
L 603 0 
L 603 4863 
z
" id="DejaVuSans-6c" transform="scale(0.015625)"/>
       <path d="M 2194 1759 
Q 1497 1759 1228 1600 
Q 959 1441 959 1056 
Q 959 750 1161 570 
Q 1363 391 1709 391 
Q 2188 391 2477 730 
Q 2766 1069 2766 1631 
L 2766 1759 
L 2194 1759 
z
M 3341 1997 
L 3341 0 
L 2766 0 
L 2766 531 
Q 2569 213 2275 61 
Q 1981 -91 1556 -91 
Q 1019 -91 701 211 
Q 384 513 384 1019 
Q 384 1609 779 1909 
Q 1175 2209 1959 2209 
L 2766 2209 
L 2766 2266 
Q 2766 2663 2505 2880 
Q 2244 3097 1772 3097 
Q 1472 3097 1187 3025 
Q 903 2953 641 2809 
L 641 3341 
Q 956 3463 1253 3523 
Q 1550 3584 1831 3584 
Q 2591 3584 2966 3190 
Q 3341 2797 3341 1997 
z
" id="DejaVuSans-61" transform="scale(0.015625)"/>
       <path d="M 191 3500 
L 800 3500 
L 1894 563 
L 2988 3500 
L 3597 3500 
L 2284 0 
L 1503 0 
L 191 3500 
z
" id="DejaVuSans-76" transform="scale(0.015625)"/>
      </defs>
      <use xlink:href="#DejaVuSans-52"/>
      <use x="64.982422" xlink:href="#DejaVuSans-65"/>
      <use x="126.505859" xlink:href="#DejaVuSans-6c"/>
      <use x="154.289062" xlink:href="#DejaVuSans-61"/>
      <use x="215.568359" xlink:href="#DejaVuSans-74"/>
      <use x="254.777344" xlink:href="#DejaVuSans-69"/>
      <use x="282.560547" xlink:href="#DejaVuSans-76"/>
      <use x="341.740234" xlink:href="#DejaVuSans-65"/>
      <use x="403.263672" xlink:href="#DejaVuSans-20"/>
      <use x="435.050781" xlink:href="#DejaVuSans-65"/>
      <use x="496.574219" xlink:href="#DejaVuSans-72"/>
      <use x="535.9375" xlink:href="#DejaVuSans-72"/>
      <use x="574.800781" xlink:href="#DejaVuSans-6f"/>
      <use x="635.982422" xlink:href="#DejaVuSans-72"/>
     </g>
    </g>
   </g>
   <g id="patch_3">
    <path d="M 58.997188 221.76 
L 58.997188 -0 
" style="fill:none;stroke:#000000;stroke-linecap:square;stroke-linejoin:miter;stroke-width:0.8;"/>
   </g>
   <g id="patch_4">
    <path d="M 616.997187 221.76 
L 616.997187 -0 
" style="fill:none;stroke:#000000;stroke-linecap:square;stroke-linejoin:miter;stroke-width:0.8;"/>
   </g>
   <g id="patch_5">
    <path d="M 58.997187 221.76 
L 616.997187 221.76 
" style="fill:none;stroke:#000000;stroke-linecap:square;stroke-linejoin:miter;stroke-width:0.8;"/>
   </g>
   <g id="patch_6">
    <path d="M 58.997187 -0 
L 616.997187 -0 
" style="fill:none;stroke:#000000;stroke-linecap:square;stroke-linejoin:miter;stroke-width:0.8;"/>
   </g>
   <g id="line2d_23">
    <path clip-path="url(#pf6774c2a3a)" d="M 84.360824 35.11873 
L 86.260722 33.671157 
L 88.16062 38.792599 
L 90.060517 39.370294 
L 91.960415 37.842475 
L 93.860313 39.886855 
L 95.760211 42.672871 
L 97.660109 36.99598 
L 99.560007 38.425465 
L 101.459905 38.527708 
L 103.359802 38.884035 
L 105.2597 35.991799 
L 107.159598 30.98111 
L 109.059496 41.532741 
L 110.959394 35.557562 
L 112.859292 41.412015 
L 114.75919 43.173394 
L 116.659087 39.606069 
L 118.558985 34.960681 
L 120.458883 36.890808 
L 122.358781 37.542049 
L 124.258679 35.541327 
L 126.158577 38.002124 
L 128.058475 37.310531 
L 129.958372 36.130455 
L 131.85827 37.649247 
L 133.758168 32.136778 
L 135.658066 36.698546 
L 137.557964 28.345005 
L 139.457862 30.547488 
L 141.35776 33.226541 
L 143.257657 30.175074 
L 145.157555 32.866429 
L 147.057453 30.637151 
L 148.957351 28.094738 
L 150.857249 31.109507 
L 152.757147 33.376128 
L 154.657044 34.69434 
L 156.556942 40.726504 
L 158.45684 38.804245 
L 160.356738 34.183472 
L 162.256636 43.420115 
L 164.156534 43.282256 
L 166.056432 43.84011 
L 167.956329 39.88355 
L 169.856227 35.115424 
L 171.756125 36.977994 
L 173.656023 35.044358 
L 175.555921 38.126892 
L 177.455819 42.741882 
L 179.355717 40.238993 
L 181.255614 37.301016 
L 183.155512 41.725925 
L 185.05541 36.69989 
L 186.955308 38.61749 
L 188.855206 36.068916 
L 190.755104 37.41735 
L 192.655002 33.846256 
L 194.554899 40.214416 
L 196.454797 40.088722 
L 198.354695 35.353055 
L 200.254593 33.634739 
L 202.154491 36.669013 
L 204.054389 39.277315 
L 205.954287 35.044143 
L 207.854184 35.806553 
L 209.754082 35.11371 
L 211.65398 31.999761 
L 213.553878 28.096117 
L 215.453776 34.126102 
L 217.353674 31.045086 
L 219.253572 40.133077 
L 221.153469 26.497529 
L 223.053367 28.637859 
L 224.953265 25.969258 
L 226.853163 27.615326 
L 228.753061 28.655855 
L 230.652959 32.691019 
L 232.552857 34.461327 
L 234.452754 38.18214 
L 236.352652 38.301822 
L 238.25255 39.795576 
L 240.152448 34.822842 
L 242.052346 43.088215 
L 243.952244 31.733811 
L 245.852142 34.9001 
L 247.752039 34.621674 
L 249.651937 31.252166 
L 251.551835 38.849339 
L 253.451733 35.539787 
L 255.351631 30.572288 
L 257.251529 35.965296 
L 259.151427 33.431491 
L 261.051324 24.115278 
L 262.951222 24.239424 
L 264.85112 29.885893 
L 266.751018 19.565459 
L 268.650916 28.003 
L 270.550814 15.18683 
L 272.450712 25.832423 
L 274.350609 23.67066 
L 276.250507 28.49392 
L 278.150405 32.527984 
L 280.050303 30.403792 
L 281.950201 30.287648 
L 283.850099 35.426721 
L 285.749996 31.235383 
L 287.649894 42.438582 
L 289.549792 33.423548 
L 291.44969 31.826824 
L 293.349588 35.182108 
L 295.249486 36.613423 
L 297.149384 38.999951 
L 299.049281 36.41682 
L 300.949179 33.442111 
L 302.849077 32.729569 
L 304.748975 33.947006 
L 306.648873 36.908214 
L 308.548771 34.114776 
L 310.448669 30.42026 
L 312.348566 33.485028 
L 314.248464 31.447875 
L 316.148362 30.864596 
L 318.04826 35.056308 
L 319.948158 35.681557 
L 321.848056 38.723162 
L 323.747954 33.549198 
L 325.647851 35.714346 
L 327.547749 35.424092 
L 329.447647 32.243218 
L 331.347545 40.493956 
L 333.247443 37.516331 
L 335.147341 41.836408 
L 337.047239 33.705625 
L 338.947136 37.181414 
L 340.847034 39.50628 
L 342.746932 36.68905 
L 344.64683 41.385312 
L 346.546728 37.83433 
L 348.446626 34.641458 
L 350.346524 35.926026 
L 352.246421 38.735289 
L 354.146319 34.308355 
L 356.046217 37.433416 
L 357.946115 32.999203 
L 359.846013 38.615157 
L 361.745911 39.760221 
L 365.545706 33.611324 
L 367.445604 34.290034 
L 371.2454 37.478679 
L 373.145298 37.593895 
L 375.045196 32.204042 
L 376.945094 34.803319 
L 380.744889 33.585096 
L 382.644787 36.957117 
L 384.544685 35.358754 
L 386.444583 35.246222 
L 388.344481 33.425274 
L 390.244379 34.334498 
L 392.144276 38.389177 
L 394.044174 33.657446 
L 395.944072 36.808269 
L 397.84397 35.66606 
L 399.743868 34.725562 
L 401.643766 32.97225 
L 403.543663 34.069273 
L 405.443561 36.94289 
L 407.343459 34.223791 
L 409.243357 32.370346 
L 411.143255 36.980598 
L 413.043153 32.578836 
L 414.943051 35.956859 
L 416.842948 30.292337 
L 418.742846 31.297303 
L 420.642744 26.977951 
L 422.542642 34.618673 
L 424.44254 32.024708 
L 426.342438 31.141089 
L 428.242336 27.794959 
L 430.142233 24.687443 
L 432.042131 27.986518 
L 433.942029 25.203261 
L 435.841927 29.923152 
L 437.741825 25.393758 
L 439.641723 22.786449 
L 441.541621 10.08 
L 443.441518 19.913129 
L 445.341416 24.147482 
L 447.241314 21.828611 
L 449.141212 20.980047 
L 451.04111 19.59299 
L 452.941008 23.582314 
L 454.840906 24.349627 
L 456.740803 33.569813 
L 458.640701 31.906494 
L 460.540599 23.622546 
L 462.440497 30.128136 
L 464.340395 29.809697 
L 466.240293 33.543447 
L 468.140191 29.013654 
L 470.040088 29.403824 
L 471.939986 29.606631 
L 473.839884 28.353305 
L 475.739782 29.412007 
L 477.63968 35.744251 
L 479.539578 25.700838 
L 481.439476 28.769453 
L 483.339373 34.910624 
L 485.239271 26.725333 
L 487.139169 28.324934 
L 489.039067 28.852872 
L 490.938965 24.355102 
L 492.838863 32.907896 
L 494.738761 29.131027 
L 496.638658 23.651945 
L 498.538556 28.85017 
L 500.438454 28.931578 
L 502.338352 30.451912 
L 504.23825 32.36147 
L 506.138148 33.595372 
L 508.038046 27.000145 
L 509.937943 30.342867 
L 511.837841 28.090338 
L 513.737739 26.465147 
L 515.637637 27.798308 
L 517.537535 27.157721 
L 519.437433 24.572474 
L 521.337331 22.681863 
L 523.237228 35.262035 
L 525.137126 25.630576 
L 527.037024 29.952117 
L 528.936922 30.515639 
L 530.83682 26.997575 
L 532.736718 28.24105 
L 534.636615 28.558649 
L 536.536513 30.319672 
L 538.436411 30.469371 
L 540.336309 26.214439 
L 542.236207 28.253704 
L 544.136105 29.668103 
L 546.036003 32.327857 
L 547.9359 27.602763 
L 549.835798 26.653122 
L 551.735696 32.213889 
L 553.635594 26.071478 
L 555.535492 25.537101 
L 557.43539 29.649568 
L 559.335288 27.722812 
L 561.235185 22.66935 
L 563.135083 23.023341 
L 565.034981 26.196436 
L 566.934879 19.431009 
L 568.834777 24.682458 
L 570.734675 21.775599 
L 572.634573 32.940234 
L 574.53447 26.148888 
L 576.434368 24.003529 
L 578.334266 25.033072 
L 580.234164 20.125519 
L 582.134062 18.70536 
L 584.03396 16.210417 
L 585.933858 22.788813 
L 587.833755 11.894688 
L 589.733653 20.201734 
L 591.633551 18.847749 
L 591.633551 18.847749 
" style="fill:none;stroke:#77ac30;stroke-linecap:square;stroke-width:3;"/>
    <defs>
     <path d="M -1.666667 5 
L 1.666667 5 
L 1.666667 1.666667 
L 5 1.666667 
L 5 -1.666667 
L 1.666667 -1.666667 
L 1.666667 -5 
L -1.666667 -5 
L -1.666667 -1.666667 
L -5 -1.666667 
L -5 1.666667 
L -1.666667 1.666667 
z
" id="md16efbc6a6" style="stroke:#77ac30;stroke-linejoin:miter;"/>
    </defs>
    <g clip-path="url(#pf6774c2a3a)">
     <use style="fill:#77ac30;stroke:#77ac30;stroke-linejoin:miter;" x="84.360824" xlink:href="#md16efbc6a6" y="35.11873"/>
     <use style="fill:#77ac30;stroke:#77ac30;stroke-linejoin:miter;" x="185.05541" xlink:href="#md16efbc6a6" y="36.69989"/>
     <use style="fill:#77ac30;stroke:#77ac30;stroke-linejoin:miter;" x="285.749996" xlink:href="#md16efbc6a6" y="31.235383"/>
     <use style="fill:#77ac30;stroke:#77ac30;stroke-linejoin:miter;" x="386.444583" xlink:href="#md16efbc6a6" y="35.246222"/>
     <use style="fill:#77ac30;stroke:#77ac30;stroke-linejoin:miter;" x="487.139169" xlink:href="#md16efbc6a6" y="28.324934"/>
     <use style="fill:#77ac30;stroke:#77ac30;stroke-linejoin:miter;" x="587.833755" xlink:href="#md16efbc6a6" y="11.894688"/>
    </g>
   </g>
   <g id="line2d_24">
    <path clip-path="url(#pf6774c2a3a)" d="M 84.360824 57.500885 
L 86.260722 61.375101 
L 88.16062 57.733362 
L 90.060517 65.153017 
L 91.960415 62.163445 
L 93.860313 63.518768 
L 95.760211 57.775756 
L 97.660109 57.721838 
L 99.560007 60.4637 
L 101.459905 58.04534 
L 103.359802 59.086365 
L 105.2597 57.627131 
L 107.159598 59.642217 
L 109.059496 59.179873 
L 110.959394 60.512932 
L 112.859292 59.767781 
L 114.75919 60.354387 
L 116.659087 62.699262 
L 118.558985 60.29652 
L 120.458883 59.296819 
L 122.358781 60.186414 
L 124.258679 65.288439 
L 126.158577 61.915851 
L 128.058475 65.824881 
L 129.958372 61.607637 
L 131.85827 66.091262 
L 133.758168 62.06009 
L 135.658066 63.195289 
L 137.557964 68.69106 
L 139.457862 62.202264 
L 141.35776 67.49154 
L 143.257657 60.926961 
L 145.157555 66.422262 
L 147.057453 70.265266 
L 148.957351 64.563797 
L 150.857249 63.47025 
L 152.757147 65.718909 
L 154.657044 76.300759 
L 156.556942 62.293517 
L 158.45684 69.248257 
L 160.356738 64.387703 
L 162.256636 63.309876 
L 164.156534 65.818517 
L 166.056432 69.424301 
L 167.956329 71.34388 
L 169.856227 63.783433 
L 171.756125 75.790073 
L 173.656023 65.760313 
L 175.555921 62.473601 
L 177.455819 65.946605 
L 179.355717 66.916187 
L 181.255614 67.630614 
L 183.155512 67.347809 
L 185.05541 65.315877 
L 186.955308 64.730793 
L 188.855206 64.829806 
L 190.755104 66.972383 
L 192.655002 65.153176 
L 194.554899 69.360595 
L 196.454797 67.882113 
L 198.354695 60.772094 
L 200.254593 61.283755 
L 202.154491 60.090879 
L 204.054389 66.717514 
L 205.954287 65.938277 
L 207.854184 67.141312 
L 209.754082 63.03872 
L 211.65398 59.61813 
L 213.553878 57.426088 
L 215.453776 60.82099 
L 217.353674 61.653276 
L 219.253572 59.161359 
L 221.153469 58.654469 
L 223.053367 67.512327 
L 224.953265 56.891248 
L 226.853163 57.31494 
L 228.753061 67.099769 
L 230.652959 63.287938 
L 232.552857 65.309761 
L 234.452754 64.019151 
L 236.352652 66.63669 
L 238.25255 67.752133 
L 240.152448 66.772662 
L 242.052346 62.787801 
L 243.952244 63.398546 
L 245.852142 59.099503 
L 247.752039 62.866259 
L 251.551835 63.040136 
L 253.451733 60.568692 
L 255.351631 71.625947 
L 257.251529 70.15217 
L 259.151427 63.294895 
L 261.051324 63.515033 
L 262.951222 60.277604 
L 264.85112 57.456759 
L 266.751018 55.705318 
L 268.650916 56.458334 
L 272.450712 52.744053 
L 274.350609 59.455296 
L 278.150405 60.588416 
L 280.050303 62.977408 
L 281.950201 65.579068 
L 283.850099 64.098156 
L 285.749996 67.366092 
L 287.649894 66.094523 
L 289.549792 64.601283 
L 291.44969 67.082336 
L 293.349588 62.980155 
L 295.249486 66.015378 
L 297.149384 79.736051 
L 299.049281 64.596223 
L 300.949179 65.757424 
L 302.849077 62.803758 
L 304.748975 65.411319 
L 306.648873 63.658195 
L 308.548771 66.840303 
L 310.448669 68.724632 
L 312.348566 67.556624 
L 314.248464 63.572667 
L 316.148362 63.059123 
L 318.04826 65.302002 
L 319.948158 67.007025 
L 323.747954 63.940649 
L 325.647851 63.609467 
L 327.547749 67.696739 
L 329.447647 66.650376 
L 331.347545 66.666145 
L 333.247443 70.053037 
L 335.147341 66.713919 
L 337.047239 67.589357 
L 338.947136 72.902587 
L 340.847034 64.812706 
L 342.746932 69.356959 
L 344.64683 68.250069 
L 346.546728 67.50567 
L 348.446626 67.62701 
L 350.346524 67.518125 
L 352.246421 65.857308 
L 354.146319 67.558055 
L 356.046217 64.78414 
L 357.946115 70.102957 
L 359.846013 65.30744 
L 361.745911 65.716019 
L 363.645809 65.525075 
L 365.545706 66.482605 
L 367.445604 65.491185 
L 369.345502 66.284612 
L 371.2454 70.37437 
L 373.145298 65.651635 
L 375.045196 66.739198 
L 376.945094 69.421911 
L 378.844991 65.208773 
L 380.744889 70.555009 
L 382.644787 64.789615 
L 384.544685 72.510494 
L 386.444583 62.386543 
L 388.344481 62.216965 
L 390.244379 63.630028 
L 392.144276 60.607752 
L 394.044174 61.163296 
L 395.944072 58.433658 
L 397.84397 62.47952 
L 399.743868 63.4313 
L 401.643766 64.223276 
L 403.543663 65.972506 
L 405.443561 64.764338 
L 407.343459 61.474868 
L 409.243357 64.300594 
L 411.143255 61.090164 
L 413.043153 60.89817 
L 414.943051 60.244589 
L 416.842948 59.470699 
L 418.742846 69.814268 
L 420.642744 67.91766 
L 422.542642 64.161028 
L 424.44254 57.588533 
L 426.342438 57.56016 
L 428.242336 56.323238 
L 430.142233 54.559807 
L 432.042131 54.396611 
L 433.942029 52.049949 
L 437.741825 50.082255 
L 439.641723 47.716734 
L 441.541621 40.608289 
L 443.441518 45.825594 
L 445.341416 43.849474 
L 447.241314 45.129497 
L 449.141212 46.855898 
L 451.04111 47.241973 
L 452.941008 49.621237 
L 454.840906 47.208468 
L 456.740803 49.67897 
L 458.640701 51.47538 
L 460.540599 52.378517 
L 462.440497 55.441117 
L 464.340395 56.93363 
L 466.240293 54.962471 
L 468.140191 55.381443 
L 470.040088 54.575406 
L 471.939986 55.145325 
L 473.839884 57.468072 
L 475.739782 57.404811 
L 477.63968 57.032578 
L 479.539578 55.610456 
L 481.439476 56.911976 
L 483.339373 57.137084 
L 485.239271 56.150122 
L 487.139169 57.917345 
L 489.039067 54.965621 
L 490.938965 58.317417 
L 492.838863 58.326671 
L 494.738761 57.173651 
L 496.638658 57.720486 
L 498.538556 58.793582 
L 500.438454 62.322403 
L 502.338352 57.044527 
L 504.23825 57.282881 
L 506.138148 55.388236 
L 508.038046 55.887683 
L 509.937943 57.901743 
L 511.837841 55.315949 
L 513.737739 56.449413 
L 515.637637 57.841568 
L 517.537535 55.122673 
L 519.437433 58.138757 
L 521.337331 55.131278 
L 523.237228 57.922864 
L 525.137126 52.197505 
L 527.037024 58.345451 
L 528.936922 57.136695 
L 530.83682 56.196117 
L 532.736718 56.018111 
L 534.636615 57.145003 
L 536.536513 57.797553 
L 538.436411 56.45017 
L 540.336309 56.256863 
L 542.236207 54.159163 
L 546.036003 60.257399 
L 547.9359 57.019183 
L 549.835798 54.720824 
L 551.735696 56.366328 
L 553.635594 57.014844 
L 555.535492 57.084926 
L 557.43539 55.084323 
L 559.335288 53.792026 
L 561.235185 54.504164 
L 563.135083 51.299476 
L 565.034981 52.57296 
L 566.934879 52.076572 
L 568.834777 52.948569 
L 570.734675 51.033339 
L 572.634573 54.003247 
L 574.53447 54.985879 
L 576.434368 54.82717 
L 578.334266 53.215748 
L 580.234164 53.541685 
L 582.134062 49.980434 
L 584.03396 53.911773 
L 585.933858 51.942797 
L 587.833755 46.605262 
L 589.733653 52.608768 
L 591.633551 50.931827 
L 591.633551 50.931827 
" style="fill:none;stroke:#0072bd;stroke-linecap:square;stroke-width:3;"/>
    <defs>
     <path d="M -5 5 
L 5 -5 
M -5 -5 
L 5 5 
" id="m51075418d3" style="stroke:#0072bd;"/>
    </defs>
    <g clip-path="url(#pf6774c2a3a)">
     <use style="fill:#0072bd;stroke:#0072bd;" x="109.059496" xlink:href="#m51075418d3" y="59.179873"/>
     <use style="fill:#0072bd;stroke:#0072bd;" x="209.754082" xlink:href="#m51075418d3" y="63.03872"/>
     <use style="fill:#0072bd;stroke:#0072bd;" x="310.448669" xlink:href="#m51075418d3" y="68.724632"/>
     <use style="fill:#0072bd;stroke:#0072bd;" x="411.143255" xlink:href="#m51075418d3" y="61.090164"/>
     <use style="fill:#0072bd;stroke:#0072bd;" x="511.837841" xlink:href="#m51075418d3" y="55.315949"/>
    </g>
   </g>
   <g id="line2d_25">
    <path clip-path="url(#pf6774c2a3a)" d="M 84.360824 202.981361 
L 86.260722 201.432371 
L 88.16062 203.659244 
L 90.060517 204.678837 
L 91.960415 207.760963 
L 93.860313 204.697866 
L 95.760211 200.579013 
L 97.660109 201.929851 
L 99.560007 202.740934 
L 103.359802 205.092355 
L 105.2597 200.032164 
L 107.159598 202.059272 
L 109.059496 210.0584 
L 110.959394 201.116156 
L 112.859292 196.889726 
L 114.75919 201.876323 
L 116.659087 203.177611 
L 118.558985 200.762066 
L 120.458883 203.808786 
L 122.358781 204.688342 
L 124.258679 198.054736 
L 126.158577 204.21632 
L 128.058475 204.177208 
L 129.958372 206.009825 
L 131.85827 197.947788 
L 133.758168 204.815506 
L 135.658066 194.225995 
L 137.557964 198.277597 
L 139.457862 195.047311 
L 141.35776 204.823384 
L 143.257657 191.152819 
L 145.157555 201.809482 
L 147.057453 193.266536 
L 148.957351 194.627098 
L 150.857249 199.046226 
L 154.657044 194.556626 
L 156.556942 201.635267 
L 158.45684 196.806123 
L 160.356738 200.944961 
L 162.256636 200.92289 
L 164.156534 201.467835 
L 166.056432 211.68 
L 167.956329 199.809979 
L 169.856227 199.90443 
L 171.756125 197.339543 
L 173.656023 204.151442 
L 175.555921 203.845186 
L 177.455819 202.532251 
L 179.355717 199.839979 
L 181.255614 201.730351 
L 183.155512 199.114214 
L 185.05541 201.346062 
L 186.955308 197.829155 
L 188.855206 198.870037 
L 190.755104 197.714216 
L 192.655002 200.059627 
L 194.554899 198.172561 
L 196.454797 194.459179 
L 198.354695 198.373241 
L 200.254593 195.382221 
L 202.154491 199.781597 
L 204.054389 198.303628 
L 205.954287 200.684068 
L 207.854184 195.274076 
L 209.754082 193.53597 
L 211.65398 195.772575 
L 213.553878 192.30648 
L 215.453776 201.317795 
L 217.353674 194.273619 
L 219.253572 191.664034 
L 221.153469 189.987059 
L 223.053367 199.217433 
L 224.953265 184.75455 
L 226.853163 183.805449 
L 228.753061 191.70878 
L 230.652959 192.914072 
L 232.552857 199.495533 
L 234.452754 191.750472 
L 236.352652 192.911892 
L 238.25255 193.57268 
L 240.152448 197.457103 
L 242.052346 199.178632 
L 243.952244 195.158104 
L 245.852142 193.502732 
L 247.752039 194.749602 
L 249.651937 198.888048 
L 251.551835 193.057162 
L 253.451733 194.6783 
L 255.351631 195.061785 
L 257.251529 192.732209 
L 259.151427 191.250669 
L 261.051324 195.295528 
L 262.951222 189.966057 
L 264.85112 189.00341 
L 266.751018 178.158448 
L 268.650916 188.377835 
L 270.550814 175.89234 
L 272.450712 184.275664 
L 274.350609 193.456533 
L 276.250507 190.124106 
L 278.150405 191.400733 
L 280.050303 191.443346 
L 281.950201 193.27922 
L 283.850099 194.624713 
L 285.749996 195.519634 
L 287.649894 197.577221 
L 289.549792 196.688784 
L 291.44969 199.449641 
L 293.349588 197.914795 
L 295.249486 197.333178 
L 297.149384 203.169309 
L 299.049281 205.18232 
L 300.949179 196.293851 
L 302.849077 197.919911 
L 304.748975 195.012725 
L 306.648873 199.898834 
L 308.548771 194.466962 
L 310.448669 195.941024 
L 312.348566 195.33731 
L 314.248464 199.063177 
L 316.148362 198.07897 
L 318.04826 195.594013 
L 321.848056 194.981997 
L 323.747954 198.872307 
L 325.647851 191.980941 
L 327.547749 192.587155 
L 329.447647 194.980648 
L 331.347545 196.326461 
L 333.247443 195.164477 
L 335.147341 196.995749 
L 337.047239 194.189525 
L 338.947136 196.323438 
L 340.847034 200.41026 
L 342.746932 202.115754 
L 344.64683 196.95821 
L 346.546728 198.471088 
L 348.446626 196.584742 
L 350.346524 196.948399 
L 352.246421 199.88061 
L 354.146319 201.868431 
L 356.046217 198.988245 
L 357.946115 198.149434 
L 359.846013 196.946735 
L 361.745911 195.298831 
L 363.645809 201.116109 
L 365.545706 203.15466 
L 367.445604 197.935463 
L 369.345502 198.1718 
L 371.2454 199.979596 
L 373.145298 198.466644 
L 375.045196 197.634378 
L 376.945094 195.394966 
L 378.844991 196.446701 
L 380.744889 200.802785 
L 382.644787 198.875126 
L 384.544685 198.211594 
L 386.444583 196.496532 
L 388.344481 199.33617 
L 390.244379 199.03676 
L 392.144276 195.279358 
L 394.044174 197.895484 
L 395.944072 194.211995 
L 397.84397 199.413224 
L 399.743868 195.875129 
L 401.643766 194.409012 
L 403.543663 197.519995 
L 405.443561 194.818244 
L 407.343459 191.546178 
L 409.243357 196.70209 
L 411.143255 193.489233 
L 413.043153 194.736108 
L 414.943051 191.703277 
L 416.842948 194.115063 
L 418.742846 194.621337 
L 420.642744 192.30626 
L 422.542642 194.201962 
L 424.44254 194.076144 
L 426.342438 193.456661 
L 428.242336 193.683515 
L 430.142233 191.148824 
L 432.042131 183.559765 
L 433.942029 184.493061 
L 435.841927 184.60555 
L 437.741825 191.312825 
L 439.641723 181.10107 
L 441.541621 175.221267 
L 443.441518 178.92381 
L 445.341416 177.56112 
L 447.241314 182.069684 
L 449.141212 183.019497 
L 451.04111 184.592938 
L 452.941008 190.972102 
L 454.840906 188.548985 
L 456.740803 190.601612 
L 458.640701 190.051141 
L 460.540599 194.153066 
L 462.440497 190.351764 
L 464.340395 187.227499 
L 466.240293 195.263114 
L 468.140191 195.981093 
L 470.040088 193.882279 
L 471.939986 195.208376 
L 473.839884 194.550974 
L 475.739782 188.906542 
L 477.63968 190.737227 
L 479.539578 195.107824 
L 481.439476 191.028437 
L 483.339373 192.941822 
L 485.239271 193.220684 
L 487.139169 193.140083 
L 489.039067 195.428864 
L 490.938965 188.889411 
L 492.838863 192.546852 
L 494.738761 190.660855 
L 496.638658 189.468033 
L 498.538556 187.789412 
L 500.438454 188.546097 
L 502.338352 185.935597 
L 504.23825 186.640528 
L 506.138148 189.442992 
L 508.038046 189.266993 
L 509.937943 186.156858 
L 513.737739 187.315154 
L 515.637637 185.1681 
L 517.537535 185.493997 
L 519.437433 185.156403 
L 523.237228 183.255633 
L 525.137126 181.469591 
L 527.037024 185.555586 
L 528.936922 186.80971 
L 530.83682 191.337383 
L 532.736718 184.390051 
L 534.636615 187.740655 
L 536.536513 188.544976 
L 538.436411 187.394681 
L 540.336309 185.077091 
L 542.236207 185.54454 
L 544.136105 184.78397 
L 546.036003 185.532433 
L 547.9359 189.346434 
L 549.835798 186.061711 
L 551.735696 185.698365 
L 553.635594 189.453244 
L 555.535492 188.357699 
L 557.43539 184.790314 
L 559.335288 184.235466 
L 561.235185 181.945172 
L 563.135083 184.537568 
L 565.034981 182.179585 
L 566.934879 182.675251 
L 568.834777 180.37264 
L 572.634573 180.251712 
L 574.53447 181.540703 
L 576.434368 181.781441 
L 578.334266 179.786324 
L 580.234164 183.896897 
L 582.134062 172.46648 
L 584.03396 174.844114 
L 585.933858 176.685258 
L 587.833755 169.907824 
L 589.733653 179.905388 
L 591.633551 180.181426 
L 591.633551 180.181426 
" style="fill:none;stroke:#d95319;stroke-linecap:square;stroke-width:3;"/>
    <defs>
     <path d="M -0 7.071068 
L 4.242641 0 
L -0 -7.071068 
L -4.242641 -0 
z
" id="mfb92f44d93" style="stroke:#d95319;stroke-linejoin:miter;"/>
    </defs>
    <g clip-path="url(#pf6774c2a3a)">
     <use style="fill:#d95319;stroke:#d95319;stroke-linejoin:miter;" x="133.758168" xlink:href="#mfb92f44d93" y="204.815506"/>
     <use style="fill:#d95319;stroke:#d95319;stroke-linejoin:miter;" x="234.452754" xlink:href="#mfb92f44d93" y="191.750472"/>
     <use style="fill:#d95319;stroke:#d95319;stroke-linejoin:miter;" x="335.147341" xlink:href="#mfb92f44d93" y="196.995749"/>
     <use style="fill:#d95319;stroke:#d95319;stroke-linejoin:miter;" x="435.841927" xlink:href="#mfb92f44d93" y="184.60555"/>
     <use style="fill:#d95319;stroke:#d95319;stroke-linejoin:miter;" x="536.536513" xlink:href="#mfb92f44d93" y="188.544976"/>
    </g>
   </g>
   <g id="line2d_26">
    <path clip-path="url(#pf6774c2a3a)" d="M 84.360824 39.792801 
L 86.260722 49.6686 
L 88.16062 49.443663 
L 90.060517 46.859473 
L 91.960415 47.546005 
L 93.860313 52.558765 
L 95.760211 47.696157 
L 97.660109 50.633954 
L 99.560007 45.249164 
L 101.459905 47.826784 
L 103.359802 44.921456 
L 105.2597 42.49238 
L 107.159598 42.205625 
L 109.059496 42.578322 
L 110.959394 45.221676 
L 112.859292 42.174167 
L 114.75919 42.700049 
L 116.659087 44.336382 
L 118.558985 42.316696 
L 120.458883 43.336445 
L 122.358781 42.717871 
L 124.258679 42.450179 
L 126.158577 41.832512 
L 128.058475 41.995169 
L 129.958372 46.271997 
L 131.85827 39.580609 
L 133.758168 41.07357 
L 135.658066 37.268902 
L 137.557964 42.336097 
L 139.457862 42.69477 
L 141.35776 38.565788 
L 143.257657 37.684227 
L 145.157555 40.024776 
L 147.057453 41.308728 
L 148.957351 40.396264 
L 150.857249 40.18744 
L 152.757147 40.398922 
L 154.657044 42.955773 
L 156.556942 41.097714 
L 158.45684 44.668734 
L 160.356738 44.134894 
L 162.256636 46.828087 
L 164.156534 44.7011 
L 166.056432 44.048075 
L 167.956329 43.093062 
L 169.856227 45.40382 
L 171.756125 49.08174 
L 173.656023 47.111033 
L 175.555921 46.435201 
L 177.455819 44.76768 
L 179.355717 45.640635 
L 181.255614 45.4327 
L 183.155512 46.071021 
L 185.05541 45.237158 
L 186.955308 46.343001 
L 188.855206 45.310909 
L 190.755104 50.796934 
L 192.655002 54.027658 
L 194.554899 43.359938 
L 196.454797 44.953751 
L 198.354695 45.538639 
L 200.254593 47.904545 
L 202.154491 44.930428 
L 204.054389 45.411404 
L 205.954287 43.36168 
L 207.854184 45.014241 
L 209.754082 42.553397 
L 211.65398 41.959315 
L 213.553878 37.384318 
L 215.453776 42.774235 
L 217.353674 36.25449 
L 219.253572 37.230384 
L 221.153469 42.249217 
L 223.053367 39.255729 
L 224.953265 36.888008 
L 226.853163 41.654544 
L 228.753061 38.765417 
L 230.652959 37.157655 
L 232.552857 44.586244 
L 234.452754 44.440547 
L 236.352652 40.642288 
L 238.25255 39.85733 
L 240.152448 44.464114 
L 242.052346 38.860756 
L 243.952244 40.693569 
L 245.852142 41.325916 
L 247.752039 41.063204 
L 249.651937 40.381868 
L 251.551835 40.560804 
L 253.451733 41.240783 
L 255.351631 42.356166 
L 257.251529 41.558339 
L 259.151427 43.362628 
L 261.051324 37.323946 
L 262.951222 35.471076 
L 264.85112 30.105429 
L 266.751018 26.26826 
L 268.650916 31.002061 
L 270.550814 23.636576 
L 272.450712 24.966625 
L 274.350609 31.165975 
L 276.250507 30.68295 
L 280.050303 34.776235 
L 281.950201 37.056735 
L 283.850099 36.33363 
L 285.749996 36.607802 
L 287.649894 40.552916 
L 289.549792 38.499522 
L 291.44969 38.194103 
L 293.349588 37.343004 
L 295.249486 37.993524 
L 297.149384 39.960667 
L 299.049281 36.270765 
L 300.949179 38.60629 
L 302.849077 39.845057 
L 304.748975 37.410601 
L 306.648873 39.902579 
L 308.548771 38.027004 
L 310.448669 42.238773 
L 312.348566 39.512134 
L 314.248464 38.181247 
L 316.148362 40.178723 
L 318.04826 39.745474 
L 319.948158 40.393354 
L 321.848056 41.208993 
L 323.747954 40.842158 
L 325.647851 37.963333 
L 327.547749 40.0481 
L 329.447647 43.860287 
L 331.347545 40.134491 
L 333.247443 38.54691 
L 335.147341 38.474229 
L 337.047239 38.283541 
L 338.947136 38.683723 
L 340.847034 39.762162 
L 342.746932 37.396296 
L 344.64683 36.044109 
L 346.546728 38.302575 
L 348.446626 37.622569 
L 350.346524 36.355507 
L 352.246421 36.986228 
L 354.146319 35.509087 
L 356.046217 37.130146 
L 357.946115 37.055279 
L 359.846013 35.745417 
L 361.745911 35.905491 
L 363.645809 35.615359 
L 365.545706 34.537382 
L 367.445604 34.496335 
L 369.345502 36.123795 
L 371.2454 35.047602 
L 373.145298 34.830728 
L 375.045196 35.2997 
L 376.945094 34.17166 
L 378.844991 34.692561 
L 380.744889 34.820236 
L 382.644787 34.785532 
L 384.544685 36.149204 
L 386.444583 34.743679 
L 388.344481 34.759585 
L 390.244379 35.209165 
L 392.144276 37.440744 
L 394.044174 37.187823 
L 395.944072 38.639418 
L 397.84397 35.967588 
L 399.743868 37.29834 
L 401.643766 34.952344 
L 405.443561 33.788519 
L 407.343459 36.75286 
L 409.243357 36.138307 
L 413.043153 33.302993 
L 414.943051 33.972905 
L 416.842948 32.99073 
L 418.742846 32.518097 
L 420.642744 30.473197 
L 422.542642 32.600914 
L 424.44254 31.025849 
L 426.342438 30.445107 
L 428.242336 27.954254 
L 430.142233 28.271116 
L 432.042131 24.624856 
L 433.942029 23.034831 
L 435.841927 22.682067 
L 437.741825 20.146513 
L 439.641723 19.599922 
L 441.541621 17.040245 
L 443.441518 23.888704 
L 445.341416 18.662598 
L 449.141212 19.937515 
L 451.04111 20.708674 
L 452.941008 24.859574 
L 454.840906 23.309105 
L 456.740803 28.665977 
L 458.640701 28.346391 
L 460.540599 28.922423 
L 462.440497 28.888618 
L 464.340395 28.458287 
L 466.240293 31.299246 
L 468.140191 33.184148 
L 470.040088 30.450536 
L 471.939986 29.118082 
L 473.839884 30.248642 
L 475.739782 28.886744 
L 477.63968 28.59305 
L 479.539578 29.531032 
L 481.439476 31.575065 
L 483.339373 31.000611 
L 485.239271 28.983333 
L 487.139169 31.102276 
L 489.039067 29.206637 
L 492.838863 28.301424 
L 494.738761 27.619603 
L 496.638658 25.914643 
L 498.538556 26.853454 
L 500.438454 28.825543 
L 502.338352 28.720685 
L 504.23825 27.93535 
L 506.138148 27.484396 
L 508.038046 26.416052 
L 509.937943 25.598587 
L 511.837841 25.854497 
L 513.737739 24.687471 
L 515.637637 24.221072 
L 517.537535 23.31747 
L 519.437433 23.662221 
L 521.337331 22.748276 
L 523.237228 23.484468 
L 525.137126 19.862545 
L 527.037024 22.437295 
L 528.936922 22.162344 
L 530.83682 19.828114 
L 532.736718 24.297441 
L 534.636615 24.458687 
L 536.536513 24.945581 
L 538.436411 25.311144 
L 540.336309 27.507985 
L 542.236207 27.734357 
L 544.136105 26.926451 
L 546.036003 27.141335 
L 549.835798 28.332005 
L 551.735696 27.539242 
L 555.535492 26.197843 
L 557.43539 25.846093 
L 559.335288 24.430486 
L 561.235185 23.97498 
L 563.135083 20.313936 
L 565.034981 23.016671 
L 566.934879 21.477757 
L 568.834777 22.583211 
L 570.734675 21.050336 
L 572.634573 24.590323 
L 574.53447 24.633659 
L 576.434368 19.673642 
L 578.334266 21.710653 
L 582.134062 18.651814 
L 584.03396 15.077116 
L 585.933858 23.714072 
L 587.833755 15.515456 
L 589.733653 20.218319 
L 591.633551 20.290623 
L 591.633551 20.290623 
" style="fill:none;stroke:#7e2f8e;stroke-linecap:square;stroke-width:3;"/>
    <defs>
     <path d="M -5 0 
L 5 0 
M 0 5 
L 0 -5 
" id="m1fc2afb97d" style="stroke:#7e2f8e;"/>
    </defs>
    <g clip-path="url(#pf6774c2a3a)">
     <use style="fill:#7e2f8e;stroke:#7e2f8e;" x="158.45684" xlink:href="#m1fc2afb97d" y="44.668734"/>
     <use style="fill:#7e2f8e;stroke:#7e2f8e;" x="259.151427" xlink:href="#m1fc2afb97d" y="43.362628"/>
     <use style="fill:#7e2f8e;stroke:#7e2f8e;" x="359.846013" xlink:href="#m1fc2afb97d" y="35.745417"/>
     <use style="fill:#7e2f8e;stroke:#7e2f8e;" x="460.540599" xlink:href="#m1fc2afb97d" y="28.922423"/>
     <use style="fill:#7e2f8e;stroke:#7e2f8e;" x="561.235185" xlink:href="#m1fc2afb97d" y="23.97498"/>
    </g>
   </g>
   <g id="legend_1">
    <g id="patch_7">
     <path d="M 352.059687 157.164375 
L 606.497187 157.164375 
Q 609.497187 157.164375 609.497187 154.164375 
L 609.497187 67.595625 
Q 609.497187 64.595625 606.497187 64.595625 
L 352.059687 64.595625 
Q 349.059687 64.595625 349.059687 67.595625 
L 349.059687 154.164375 
Q 349.059687 157.164375 352.059687 157.164375 
z
" style="fill:#ffffff;opacity:0.8;stroke:#cccccc;stroke-linejoin:miter;"/>
    </g>
    <g id="line2d_27">
     <path d="M 355.059687 76.743281 
L 385.059687 76.743281 
" style="fill:none;stroke:#77ac30;stroke-linecap:square;stroke-width:3;"/>
    </g>
    <g id="line2d_28">
     <g>
      <use style="fill:#77ac30;stroke:#77ac30;stroke-linejoin:miter;" x="370.059687" xlink:href="#md16efbc6a6" y="76.743281"/>
     </g>
    </g>
    <g id="text_15">
     <!-- DOT fp32 -->
     <g transform="translate(397.059687 81.993281)scale(0.15 -0.15)">
      <defs>
       <path d="M 1259 4147 
L 1259 519 
L 2022 519 
Q 2988 519 3436 956 
Q 3884 1394 3884 2338 
Q 3884 3275 3436 3711 
Q 2988 4147 2022 4147 
L 1259 4147 
z
M 628 4666 
L 1925 4666 
Q 3281 4666 3915 4102 
Q 4550 3538 4550 2338 
Q 4550 1131 3912 565 
Q 3275 0 1925 0 
L 628 0 
L 628 4666 
z
" id="DejaVuSans-44" transform="scale(0.015625)"/>
       <path d="M 2522 4238 
Q 1834 4238 1429 3725 
Q 1025 3213 1025 2328 
Q 1025 1447 1429 934 
Q 1834 422 2522 422 
Q 3209 422 3611 934 
Q 4013 1447 4013 2328 
Q 4013 3213 3611 3725 
Q 3209 4238 2522 4238 
z
M 2522 4750 
Q 3503 4750 4090 4092 
Q 4678 3434 4678 2328 
Q 4678 1225 4090 567 
Q 3503 -91 2522 -91 
Q 1538 -91 948 565 
Q 359 1222 359 2328 
Q 359 3434 948 4092 
Q 1538 4750 2522 4750 
z
" id="DejaVuSans-4f" transform="scale(0.015625)"/>
       <path d="M -19 4666 
L 3928 4666 
L 3928 4134 
L 2272 4134 
L 2272 0 
L 1638 0 
L 1638 4134 
L -19 4134 
L -19 4666 
z
" id="DejaVuSans-54" transform="scale(0.015625)"/>
       <path d="M 2375 4863 
L 2375 4384 
L 1825 4384 
Q 1516 4384 1395 4259 
Q 1275 4134 1275 3809 
L 1275 3500 
L 2222 3500 
L 2222 3053 
L 1275 3053 
L 1275 0 
L 697 0 
L 697 3053 
L 147 3053 
L 147 3500 
L 697 3500 
L 697 3744 
Q 697 4328 969 4595 
Q 1241 4863 1831 4863 
L 2375 4863 
z
" id="DejaVuSans-66" transform="scale(0.015625)"/>
       <path d="M 1159 525 
L 1159 -1331 
L 581 -1331 
L 581 3500 
L 1159 3500 
L 1159 2969 
Q 1341 3281 1617 3432 
Q 1894 3584 2278 3584 
Q 2916 3584 3314 3078 
Q 3713 2572 3713 1747 
Q 3713 922 3314 415 
Q 2916 -91 2278 -91 
Q 1894 -91 1617 61 
Q 1341 213 1159 525 
z
M 3116 1747 
Q 3116 2381 2855 2742 
Q 2594 3103 2138 3103 
Q 1681 3103 1420 2742 
Q 1159 2381 1159 1747 
Q 1159 1113 1420 752 
Q 1681 391 2138 391 
Q 2594 391 2855 752 
Q 3116 1113 3116 1747 
z
" id="DejaVuSans-70" transform="scale(0.015625)"/>
      </defs>
      <use xlink:href="#DejaVuSans-44"/>
      <use x="77.001953" xlink:href="#DejaVuSans-4f"/>
      <use x="155.712891" xlink:href="#DejaVuSans-54"/>
      <use x="216.796875" xlink:href="#DejaVuSans-20"/>
      <use x="248.583984" xlink:href="#DejaVuSans-66"/>
      <use x="283.789062" xlink:href="#DejaVuSans-70"/>
      <use x="347.265625" xlink:href="#DejaVuSans-33"/>
      <use x="410.888672" xlink:href="#DejaVuSans-32"/>
     </g>
    </g>
    <g id="line2d_29">
     <path d="M 355.059687 98.760469 
L 385.059687 98.760469 
" style="fill:none;stroke:#0072bd;stroke-linecap:square;stroke-width:3;"/>
    </g>
    <g id="line2d_30">
     <g>
      <use style="fill:#0072bd;stroke:#0072bd;" x="370.059687" xlink:href="#m51075418d3" y="98.760469"/>
     </g>
    </g>
    <g id="text_16">
     <!-- DOT Accessor&lt;fp64, fp32&gt; -->
     <g transform="translate(397.059687 104.010469)scale(0.15 -0.15)">
      <defs>
       <path d="M 2188 4044 
L 1331 1722 
L 3047 1722 
L 2188 4044 
z
M 1831 4666 
L 2547 4666 
L 4325 0 
L 3669 0 
L 3244 1197 
L 1141 1197 
L 716 0 
L 50 0 
L 1831 4666 
z
" id="DejaVuSans-41" transform="scale(0.015625)"/>
       <path d="M 4684 3150 
L 1459 2003 
L 4684 863 
L 4684 294 
L 678 1747 
L 678 2266 
L 4684 3719 
L 4684 3150 
z
" id="DejaVuSans-3c" transform="scale(0.015625)"/>
       <path d="M 750 794 
L 1409 794 
L 1409 256 
L 897 -744 
L 494 -744 
L 750 256 
L 750 794 
z
" id="DejaVuSans-2c" transform="scale(0.015625)"/>
       <path d="M 678 3150 
L 678 3719 
L 4684 2266 
L 4684 1747 
L 678 294 
L 678 863 
L 3897 2003 
L 678 3150 
z
" id="DejaVuSans-3e" transform="scale(0.015625)"/>
      </defs>
      <use xlink:href="#DejaVuSans-44"/>
      <use x="77.001953" xlink:href="#DejaVuSans-4f"/>
      <use x="155.712891" xlink:href="#DejaVuSans-54"/>
      <use x="216.796875" xlink:href="#DejaVuSans-20"/>
      <use x="248.583984" xlink:href="#DejaVuSans-41"/>
      <use x="315.242188" xlink:href="#DejaVuSans-63"/>
      <use x="370.222656" xlink:href="#DejaVuSans-63"/>
      <use x="425.203125" xlink:href="#DejaVuSans-65"/>
      <use x="486.726562" xlink:href="#DejaVuSans-73"/>
      <use x="538.826172" xlink:href="#DejaVuSans-73"/>
      <use x="590.925781" xlink:href="#DejaVuSans-6f"/>
      <use x="652.107422" xlink:href="#DejaVuSans-72"/>
      <use x="693.220703" xlink:href="#DejaVuSans-3c"/>
      <use x="777.009766" xlink:href="#DejaVuSans-66"/>
      <use x="812.214844" xlink:href="#DejaVuSans-70"/>
      <use x="875.691406" xlink:href="#DejaVuSans-36"/>
      <use x="939.314453" xlink:href="#DejaVuSans-34"/>
      <use x="1002.9375" xlink:href="#DejaVuSans-2c"/>
      <use x="1034.724609" xlink:href="#DejaVuSans-20"/>
      <use x="1066.511719" xlink:href="#DejaVuSans-66"/>
      <use x="1101.716797" xlink:href="#DejaVuSans-70"/>
      <use x="1165.193359" xlink:href="#DejaVuSans-33"/>
      <use x="1228.816406" xlink:href="#DejaVuSans-32"/>
      <use x="1292.439453" xlink:href="#DejaVuSans-3e"/>
     </g>
    </g>
    <g id="line2d_31">
     <path d="M 355.059687 120.777656 
L 385.059687 120.777656 
" style="fill:none;stroke:#d95319;stroke-linecap:square;stroke-width:3;"/>
    </g>
    <g id="line2d_32">
     <g>
      <use style="fill:#d95319;stroke:#d95319;stroke-linejoin:miter;" x="370.059687" xlink:href="#mfb92f44d93" y="120.777656"/>
     </g>
    </g>
    <g id="text_17">
     <!-- DOT cuBLAS fp64 -->
     <g transform="translate(397.059687 126.027656)scale(0.15 -0.15)">
      <defs>
       <path d="M 544 1381 
L 544 3500 
L 1119 3500 
L 1119 1403 
Q 1119 906 1312 657 
Q 1506 409 1894 409 
Q 2359 409 2629 706 
Q 2900 1003 2900 1516 
L 2900 3500 
L 3475 3500 
L 3475 0 
L 2900 0 
L 2900 538 
Q 2691 219 2414 64 
Q 2138 -91 1772 -91 
Q 1169 -91 856 284 
Q 544 659 544 1381 
z
M 1991 3584 
L 1991 3584 
z
" id="DejaVuSans-75" transform="scale(0.015625)"/>
       <path d="M 1259 2228 
L 1259 519 
L 2272 519 
Q 2781 519 3026 730 
Q 3272 941 3272 1375 
Q 3272 1813 3026 2020 
Q 2781 2228 2272 2228 
L 1259 2228 
z
M 1259 4147 
L 1259 2741 
L 2194 2741 
Q 2656 2741 2882 2914 
Q 3109 3088 3109 3444 
Q 3109 3797 2882 3972 
Q 2656 4147 2194 4147 
L 1259 4147 
z
M 628 4666 
L 2241 4666 
Q 2963 4666 3353 4366 
Q 3744 4066 3744 3513 
Q 3744 3084 3544 2831 
Q 3344 2578 2956 2516 
Q 3422 2416 3680 2098 
Q 3938 1781 3938 1306 
Q 3938 681 3513 340 
Q 3088 0 2303 0 
L 628 0 
L 628 4666 
z
" id="DejaVuSans-42" transform="scale(0.015625)"/>
       <path d="M 628 4666 
L 1259 4666 
L 1259 531 
L 3531 531 
L 3531 0 
L 628 0 
L 628 4666 
z
" id="DejaVuSans-4c" transform="scale(0.015625)"/>
       <path d="M 3425 4513 
L 3425 3897 
Q 3066 4069 2747 4153 
Q 2428 4238 2131 4238 
Q 1616 4238 1336 4038 
Q 1056 3838 1056 3469 
Q 1056 3159 1242 3001 
Q 1428 2844 1947 2747 
L 2328 2669 
Q 3034 2534 3370 2195 
Q 3706 1856 3706 1288 
Q 3706 609 3251 259 
Q 2797 -91 1919 -91 
Q 1588 -91 1214 -16 
Q 841 59 441 206 
L 441 856 
Q 825 641 1194 531 
Q 1563 422 1919 422 
Q 2459 422 2753 634 
Q 3047 847 3047 1241 
Q 3047 1584 2836 1778 
Q 2625 1972 2144 2069 
L 1759 2144 
Q 1053 2284 737 2584 
Q 422 2884 422 3419 
Q 422 4038 858 4394 
Q 1294 4750 2059 4750 
Q 2388 4750 2728 4690 
Q 3069 4631 3425 4513 
z
" id="DejaVuSans-53" transform="scale(0.015625)"/>
      </defs>
      <use xlink:href="#DejaVuSans-44"/>
      <use x="77.001953" xlink:href="#DejaVuSans-4f"/>
      <use x="155.712891" xlink:href="#DejaVuSans-54"/>
      <use x="216.796875" xlink:href="#DejaVuSans-20"/>
      <use x="248.583984" xlink:href="#DejaVuSans-63"/>
      <use x="303.564453" xlink:href="#DejaVuSans-75"/>
      <use x="366.943359" xlink:href="#DejaVuSans-42"/>
      <use x="435.546875" xlink:href="#DejaVuSans-4c"/>
      <use x="493.509766" xlink:href="#DejaVuSans-41"/>
      <use x="561.917969" xlink:href="#DejaVuSans-53"/>
      <use x="625.394531" xlink:href="#DejaVuSans-20"/>
      <use x="657.181641" xlink:href="#DejaVuSans-66"/>
      <use x="692.386719" xlink:href="#DejaVuSans-70"/>
      <use x="755.863281" xlink:href="#DejaVuSans-36"/>
      <use x="819.486328" xlink:href="#DejaVuSans-34"/>
     </g>
    </g>
    <g id="line2d_33">
     <path d="M 355.059687 142.794844 
L 385.059687 142.794844 
" style="fill:none;stroke:#7e2f8e;stroke-linecap:square;stroke-width:3;"/>
    </g>
    <g id="line2d_34">
     <g>
      <use style="fill:#7e2f8e;stroke:#7e2f8e;" x="370.059687" xlink:href="#m1fc2afb97d" y="142.794844"/>
     </g>
    </g>
    <g id="text_18">
     <!-- DOT cuBLAS fp32 -->
     <g transform="translate(397.059687 148.044844)scale(0.15 -0.15)">
      <use xlink:href="#DejaVuSans-44"/>
      <use x="77.001953" xlink:href="#DejaVuSans-4f"/>
      <use x="155.712891" xlink:href="#DejaVuSans-54"/>
      <use x="216.796875" xlink:href="#DejaVuSans-20"/>
      <use x="248.583984" xlink:href="#DejaVuSans-63"/>
      <use x="303.564453" xlink:href="#DejaVuSans-75"/>
      <use x="366.943359" xlink:href="#DejaVuSans-42"/>
      <use x="435.546875" xlink:href="#DejaVuSans-4c"/>
      <use x="493.509766" xlink:href="#DejaVuSans-41"/>
      <use x="561.917969" xlink:href="#DejaVuSans-53"/>
      <use x="625.394531" xlink:href="#DejaVuSans-20"/>
      <use x="657.181641" xlink:href="#DejaVuSans-66"/>
      <use x="692.386719" xlink:href="#DejaVuSans-70"/>
      <use x="755.863281" xlink:href="#DejaVuSans-33"/>
      <use x="819.486328" xlink:href="#DejaVuSans-32"/>
     </g>
    </g>
   </g>
  </g>
 </g>
 <defs>
  <clipPath id="pf6774c2a3a">
   <rect height="221.76" width="558" x="58.997188" y="-0"/>
  </clipPath>
 </defs>
</svg>
