<?xml version="1.0" encoding="utf-8" standalone="no"?>
<!DOCTYPE svg PUBLIC "-//W3C//DTD SVG 1.1//EN"
  "http://www.w3.org/Graphics/SVG/1.1/DTD/svg11.dtd">
<svg height="258.890937pt" version="1.1" viewBox="0 0 610.540984 258.890937" width="610.540984pt" xmlns="http://www.w3.org/2000/svg" xmlns:xlink="http://www.w3.org/1999/xlink">
 <metadata>
  <rdf:RDF xmlns:cc="http://creativecommons.org/ns#" xmlns:dc="http://purl.org/dc/elements/1.1/" xmlns:rdf="http://www.w3.org/1999/02/22-rdf-syntax-ns#">
   <cc:Work>
    <dc:type rdf:resource="http://purl.org/dc/dcmitype/StillImage"/>
    <dc:date>2022-02-09T18:25:23.631605</dc:date>
    <dc:format>image/svg+xml</dc:format>
    <dc:creator>
     <cc:Agent>
      <dc:title>Matplotlib v3.4.1, https://matplotlib.org/</dc:title>
     </cc:Agent>
    </dc:creator>
   </cc:Work>
  </rdf:RDF>
 </metadata>
 <defs>
  <style type="text/css">*{stroke-linecap:butt;stroke-linejoin:round;}</style>
 </defs>
 <g id="figure_1">
  <g id="patch_1">
   <path d="M 0 258.890937 
L 610.540984 258.890937 
L 610.540984 0 
L 0 0 
z
" style="fill:#ffffff;"/>
  </g>
  <g id="axes_1">
   <g id="patch_2">
    <path d="M 48.422187 221.76 
L 606.422187 221.76 
L 606.422187 -0 
L 48.422187 -0 
z
" style="fill:#ffffff;"/>
   </g>
   <g id="matplotlib.axis_1">
    <g id="xtick_1">
     <g id="line2d_1">
      <path clip-path="url(#p92ceca2dff)" d="M 71.706837 221.76 
L 71.706837 -0 
" style="fill:none;stroke:#cccccc;stroke-linecap:square;"/>
     </g>
     <g id="line2d_2">
      <defs>
       <path d="M 0 0 
L 0 3.5 
" id="m2efde8f124" style="stroke:#000000;stroke-width:0.8;"/>
      </defs>
      <g>
       <use style="stroke:#000000;stroke-width:0.8;" x="71.706837" xlink:href="#m2efde8f124" y="221.76"/>
      </g>
     </g>
     <g id="text_1">
      <!-- 0 -->
      <g transform="translate(67.889337 237.878125)scale(0.12 -0.12)">
       <defs>
        <path d="M 2034 4250 
Q 1547 4250 1301 3770 
Q 1056 3291 1056 2328 
Q 1056 1369 1301 889 
Q 1547 409 2034 409 
Q 2525 409 2770 889 
Q 3016 1369 3016 2328 
Q 3016 3291 2770 3770 
Q 2525 4250 2034 4250 
z
M 2034 4750 
Q 2819 4750 3233 4129 
Q 3647 3509 3647 2328 
Q 3647 1150 3233 529 
Q 2819 -91 2034 -91 
Q 1250 -91 836 529 
Q 422 1150 422 2328 
Q 422 3509 836 4129 
Q 1250 4750 2034 4750 
z
" id="DejaVuSans-30" transform="scale(0.015625)"/>
       </defs>
       <use xlink:href="#DejaVuSans-30"/>
      </g>
     </g>
    </g>
    <g id="xtick_2">
     <g id="line2d_3">
      <path clip-path="url(#p92ceca2dff)" d="M 175.656167 221.76 
L 175.656167 -0 
" style="fill:none;stroke:#cccccc;stroke-linecap:square;"/>
     </g>
     <g id="line2d_4">
      <g>
       <use style="stroke:#000000;stroke-width:0.8;" x="175.656167" xlink:href="#m2efde8f124" y="221.76"/>
      </g>
     </g>
     <g id="text_2">
      <!-- 5000 -->
      <g transform="translate(160.386167 237.878125)scale(0.12 -0.12)">
       <defs>
        <path d="M 691 4666 
L 3169 4666 
L 3169 4134 
L 1269 4134 
L 1269 2991 
Q 1406 3038 1543 3061 
Q 1681 3084 1819 3084 
Q 2600 3084 3056 2656 
Q 3513 2228 3513 1497 
Q 3513 744 3044 326 
Q 2575 -91 1722 -91 
Q 1428 -91 1123 -41 
Q 819 9 494 109 
L 494 744 
Q 775 591 1075 516 
Q 1375 441 1709 441 
Q 2250 441 2565 725 
Q 2881 1009 2881 1497 
Q 2881 1984 2565 2268 
Q 2250 2553 1709 2553 
Q 1456 2553 1204 2497 
Q 953 2441 691 2322 
L 691 4666 
z
" id="DejaVuSans-35" transform="scale(0.015625)"/>
       </defs>
       <use xlink:href="#DejaVuSans-35"/>
       <use x="63.623047" xlink:href="#DejaVuSans-30"/>
       <use x="127.246094" xlink:href="#DejaVuSans-30"/>
       <use x="190.869141" xlink:href="#DejaVuSans-30"/>
      </g>
     </g>
    </g>
    <g id="xtick_3">
     <g id="line2d_5">
      <path clip-path="url(#p92ceca2dff)" d="M 279.605496 221.76 
L 279.605496 -0 
" style="fill:none;stroke:#cccccc;stroke-linecap:square;"/>
     </g>
     <g id="line2d_6">
      <g>
       <use style="stroke:#000000;stroke-width:0.8;" x="279.605496" xlink:href="#m2efde8f124" y="221.76"/>
      </g>
     </g>
     <g id="text_3">
      <!-- 10000 -->
      <g transform="translate(260.517996 237.878125)scale(0.12 -0.12)">
       <defs>
        <path d="M 794 531 
L 1825 531 
L 1825 4091 
L 703 3866 
L 703 4441 
L 1819 4666 
L 2450 4666 
L 2450 531 
L 3481 531 
L 3481 0 
L 794 0 
L 794 531 
z
" id="DejaVuSans-31" transform="scale(0.015625)"/>
       </defs>
       <use xlink:href="#DejaVuSans-31"/>
       <use x="63.623047" xlink:href="#DejaVuSans-30"/>
       <use x="127.246094" xlink:href="#DejaVuSans-30"/>
       <use x="190.869141" xlink:href="#DejaVuSans-30"/>
       <use x="254.492188" xlink:href="#DejaVuSans-30"/>
      </g>
     </g>
    </g>
    <g id="xtick_4">
     <g id="line2d_7">
      <path clip-path="url(#p92ceca2dff)" d="M 383.554825 221.76 
L 383.554825 -0 
" style="fill:none;stroke:#cccccc;stroke-linecap:square;"/>
     </g>
     <g id="line2d_8">
      <g>
       <use style="stroke:#000000;stroke-width:0.8;" x="383.554825" xlink:href="#m2efde8f124" y="221.76"/>
      </g>
     </g>
     <g id="text_4">
      <!-- 15000 -->
      <g transform="translate(364.467325 237.878125)scale(0.12 -0.12)">
       <use xlink:href="#DejaVuSans-31"/>
       <use x="63.623047" xlink:href="#DejaVuSans-35"/>
       <use x="127.246094" xlink:href="#DejaVuSans-30"/>
       <use x="190.869141" xlink:href="#DejaVuSans-30"/>
       <use x="254.492188" xlink:href="#DejaVuSans-30"/>
      </g>
     </g>
    </g>
    <g id="xtick_5">
     <g id="line2d_9">
      <path clip-path="url(#p92ceca2dff)" d="M 487.504155 221.76 
L 487.504155 -0 
" style="fill:none;stroke:#cccccc;stroke-linecap:square;"/>
     </g>
     <g id="line2d_10">
      <g>
       <use style="stroke:#000000;stroke-width:0.8;" x="487.504155" xlink:href="#m2efde8f124" y="221.76"/>
      </g>
     </g>
     <g id="text_5">
      <!-- 20000 -->
      <g transform="translate(468.416655 237.878125)scale(0.12 -0.12)">
       <defs>
        <path d="M 1228 531 
L 3431 531 
L 3431 0 
L 469 0 
L 469 531 
Q 828 903 1448 1529 
Q 2069 2156 2228 2338 
Q 2531 2678 2651 2914 
Q 2772 3150 2772 3378 
Q 2772 3750 2511 3984 
Q 2250 4219 1831 4219 
Q 1534 4219 1204 4116 
Q 875 4013 500 3803 
L 500 4441 
Q 881 4594 1212 4672 
Q 1544 4750 1819 4750 
Q 2544 4750 2975 4387 
Q 3406 4025 3406 3419 
Q 3406 3131 3298 2873 
Q 3191 2616 2906 2266 
Q 2828 2175 2409 1742 
Q 1991 1309 1228 531 
z
" id="DejaVuSans-32" transform="scale(0.015625)"/>
       </defs>
       <use xlink:href="#DejaVuSans-32"/>
       <use x="63.623047" xlink:href="#DejaVuSans-30"/>
       <use x="127.246094" xlink:href="#DejaVuSans-30"/>
       <use x="190.869141" xlink:href="#DejaVuSans-30"/>
       <use x="254.492188" xlink:href="#DejaVuSans-30"/>
      </g>
     </g>
    </g>
    <g id="xtick_6">
     <g id="line2d_11">
      <path clip-path="url(#p92ceca2dff)" d="M 591.453484 221.76 
L 591.453484 -0 
" style="fill:none;stroke:#cccccc;stroke-linecap:square;"/>
     </g>
     <g id="line2d_12">
      <g>
       <use style="stroke:#000000;stroke-width:0.8;" x="591.453484" xlink:href="#m2efde8f124" y="221.76"/>
      </g>
     </g>
     <g id="text_6">
      <!-- 25000 -->
      <g transform="translate(572.365984 237.878125)scale(0.12 -0.12)">
       <use xlink:href="#DejaVuSans-32"/>
       <use x="63.623047" xlink:href="#DejaVuSans-35"/>
       <use x="127.246094" xlink:href="#DejaVuSans-30"/>
       <use x="190.869141" xlink:href="#DejaVuSans-30"/>
       <use x="254.492188" xlink:href="#DejaVuSans-30"/>
      </g>
     </g>
    </g>
    <g id="text_7">
     <!-- Number of rows -->
     <g transform="translate(267.752656 255.771406)scale(0.15 -0.15)">
      <defs>
       <path d="M 628 4666 
L 1478 4666 
L 3547 763 
L 3547 4666 
L 4159 4666 
L 4159 0 
L 3309 0 
L 1241 3903 
L 1241 0 
L 628 0 
L 628 4666 
z
" id="DejaVuSans-4e" transform="scale(0.015625)"/>
       <path d="M 544 1381 
L 544 3500 
L 1119 3500 
L 1119 1403 
Q 1119 906 1312 657 
Q 1506 409 1894 409 
Q 2359 409 2629 706 
Q 2900 1003 2900 1516 
L 2900 3500 
L 3475 3500 
L 3475 0 
L 2900 0 
L 2900 538 
Q 2691 219 2414 64 
Q 2138 -91 1772 -91 
Q 1169 -91 856 284 
Q 544 659 544 1381 
z
M 1991 3584 
L 1991 3584 
z
" id="DejaVuSans-75" transform="scale(0.015625)"/>
       <path d="M 3328 2828 
Q 3544 3216 3844 3400 
Q 4144 3584 4550 3584 
Q 5097 3584 5394 3201 
Q 5691 2819 5691 2113 
L 5691 0 
L 5113 0 
L 5113 2094 
Q 5113 2597 4934 2840 
Q 4756 3084 4391 3084 
Q 3944 3084 3684 2787 
Q 3425 2491 3425 1978 
L 3425 0 
L 2847 0 
L 2847 2094 
Q 2847 2600 2669 2842 
Q 2491 3084 2119 3084 
Q 1678 3084 1418 2786 
Q 1159 2488 1159 1978 
L 1159 0 
L 581 0 
L 581 3500 
L 1159 3500 
L 1159 2956 
Q 1356 3278 1631 3431 
Q 1906 3584 2284 3584 
Q 2666 3584 2933 3390 
Q 3200 3197 3328 2828 
z
" id="DejaVuSans-6d" transform="scale(0.015625)"/>
       <path d="M 3116 1747 
Q 3116 2381 2855 2742 
Q 2594 3103 2138 3103 
Q 1681 3103 1420 2742 
Q 1159 2381 1159 1747 
Q 1159 1113 1420 752 
Q 1681 391 2138 391 
Q 2594 391 2855 752 
Q 3116 1113 3116 1747 
z
M 1159 2969 
Q 1341 3281 1617 3432 
Q 1894 3584 2278 3584 
Q 2916 3584 3314 3078 
Q 3713 2572 3713 1747 
Q 3713 922 3314 415 
Q 2916 -91 2278 -91 
Q 1894 -91 1617 61 
Q 1341 213 1159 525 
L 1159 0 
L 581 0 
L 581 4863 
L 1159 4863 
L 1159 2969 
z
" id="DejaVuSans-62" transform="scale(0.015625)"/>
       <path d="M 3597 1894 
L 3597 1613 
L 953 1613 
Q 991 1019 1311 708 
Q 1631 397 2203 397 
Q 2534 397 2845 478 
Q 3156 559 3463 722 
L 3463 178 
Q 3153 47 2828 -22 
Q 2503 -91 2169 -91 
Q 1331 -91 842 396 
Q 353 884 353 1716 
Q 353 2575 817 3079 
Q 1281 3584 2069 3584 
Q 2775 3584 3186 3129 
Q 3597 2675 3597 1894 
z
M 3022 2063 
Q 3016 2534 2758 2815 
Q 2500 3097 2075 3097 
Q 1594 3097 1305 2825 
Q 1016 2553 972 2059 
L 3022 2063 
z
" id="DejaVuSans-65" transform="scale(0.015625)"/>
       <path d="M 2631 2963 
Q 2534 3019 2420 3045 
Q 2306 3072 2169 3072 
Q 1681 3072 1420 2755 
Q 1159 2438 1159 1844 
L 1159 0 
L 581 0 
L 581 3500 
L 1159 3500 
L 1159 2956 
Q 1341 3275 1631 3429 
Q 1922 3584 2338 3584 
Q 2397 3584 2469 3576 
Q 2541 3569 2628 3553 
L 2631 2963 
z
" id="DejaVuSans-72" transform="scale(0.015625)"/>
       <path id="DejaVuSans-20" transform="scale(0.015625)"/>
       <path d="M 1959 3097 
Q 1497 3097 1228 2736 
Q 959 2375 959 1747 
Q 959 1119 1226 758 
Q 1494 397 1959 397 
Q 2419 397 2687 759 
Q 2956 1122 2956 1747 
Q 2956 2369 2687 2733 
Q 2419 3097 1959 3097 
z
M 1959 3584 
Q 2709 3584 3137 3096 
Q 3566 2609 3566 1747 
Q 3566 888 3137 398 
Q 2709 -91 1959 -91 
Q 1206 -91 779 398 
Q 353 888 353 1747 
Q 353 2609 779 3096 
Q 1206 3584 1959 3584 
z
" id="DejaVuSans-6f" transform="scale(0.015625)"/>
       <path d="M 2375 4863 
L 2375 4384 
L 1825 4384 
Q 1516 4384 1395 4259 
Q 1275 4134 1275 3809 
L 1275 3500 
L 2222 3500 
L 2222 3053 
L 1275 3053 
L 1275 0 
L 697 0 
L 697 3053 
L 147 3053 
L 147 3500 
L 697 3500 
L 697 3744 
Q 697 4328 969 4595 
Q 1241 4863 1831 4863 
L 2375 4863 
z
" id="DejaVuSans-66" transform="scale(0.015625)"/>
       <path d="M 269 3500 
L 844 3500 
L 1563 769 
L 2278 3500 
L 2956 3500 
L 3675 769 
L 4391 3500 
L 4966 3500 
L 4050 0 
L 3372 0 
L 2619 2869 
L 1863 0 
L 1184 0 
L 269 3500 
z
" id="DejaVuSans-77" transform="scale(0.015625)"/>
       <path d="M 2834 3397 
L 2834 2853 
Q 2591 2978 2328 3040 
Q 2066 3103 1784 3103 
Q 1356 3103 1142 2972 
Q 928 2841 928 2578 
Q 928 2378 1081 2264 
Q 1234 2150 1697 2047 
L 1894 2003 
Q 2506 1872 2764 1633 
Q 3022 1394 3022 966 
Q 3022 478 2636 193 
Q 2250 -91 1575 -91 
Q 1294 -91 989 -36 
Q 684 19 347 128 
L 347 722 
Q 666 556 975 473 
Q 1284 391 1588 391 
Q 1994 391 2212 530 
Q 2431 669 2431 922 
Q 2431 1156 2273 1281 
Q 2116 1406 1581 1522 
L 1381 1569 
Q 847 1681 609 1914 
Q 372 2147 372 2553 
Q 372 3047 722 3315 
Q 1072 3584 1716 3584 
Q 2034 3584 2315 3537 
Q 2597 3491 2834 3397 
z
" id="DejaVuSans-73" transform="scale(0.015625)"/>
      </defs>
      <use xlink:href="#DejaVuSans-4e"/>
      <use x="74.804688" xlink:href="#DejaVuSans-75"/>
      <use x="138.183594" xlink:href="#DejaVuSans-6d"/>
      <use x="235.595703" xlink:href="#DejaVuSans-62"/>
      <use x="299.072266" xlink:href="#DejaVuSans-65"/>
      <use x="360.595703" xlink:href="#DejaVuSans-72"/>
      <use x="401.708984" xlink:href="#DejaVuSans-20"/>
      <use x="433.496094" xlink:href="#DejaVuSans-6f"/>
      <use x="494.677734" xlink:href="#DejaVuSans-66"/>
      <use x="529.882812" xlink:href="#DejaVuSans-20"/>
      <use x="561.669922" xlink:href="#DejaVuSans-72"/>
      <use x="600.533203" xlink:href="#DejaVuSans-6f"/>
      <use x="661.714844" xlink:href="#DejaVuSans-77"/>
      <use x="743.501953" xlink:href="#DejaVuSans-73"/>
     </g>
    </g>
   </g>
   <g id="matplotlib.axis_2">
    <g id="ytick_1">
     <g id="line2d_13">
      <path clip-path="url(#p92ceca2dff)" d="M 48.422187 212.212579 
L 606.422187 212.212579 
" style="fill:none;stroke:#cccccc;stroke-linecap:square;"/>
     </g>
     <g id="line2d_14">
      <defs>
       <path d="M 0 0 
L -3.5 0 
" id="m45fd5d1641" style="stroke:#000000;stroke-width:0.8;"/>
      </defs>
      <g>
       <use style="stroke:#000000;stroke-width:0.8;" x="48.422187" xlink:href="#m45fd5d1641" y="212.212579"/>
      </g>
     </g>
     <g id="text_8">
      <!-- 0 -->
      <g transform="translate(33.787188 216.771642)scale(0.12 -0.12)">
       <use xlink:href="#DejaVuSans-30"/>
      </g>
     </g>
    </g>
    <g id="ytick_2">
     <g id="line2d_15">
      <path clip-path="url(#p92ceca2dff)" d="M 48.422187 183.091342 
L 606.422187 183.091342 
" style="fill:none;stroke:#cccccc;stroke-linecap:square;"/>
     </g>
     <g id="line2d_16">
      <g>
       <use style="stroke:#000000;stroke-width:0.8;" x="48.422187" xlink:href="#m45fd5d1641" y="183.091342"/>
      </g>
     </g>
     <g id="text_9">
      <!-- 50 -->
      <g transform="translate(26.152188 187.650404)scale(0.12 -0.12)">
       <use xlink:href="#DejaVuSans-35"/>
       <use x="63.623047" xlink:href="#DejaVuSans-30"/>
      </g>
     </g>
    </g>
    <g id="ytick_3">
     <g id="line2d_17">
      <path clip-path="url(#p92ceca2dff)" d="M 48.422187 153.970104 
L 606.422187 153.970104 
" style="fill:none;stroke:#cccccc;stroke-linecap:square;"/>
     </g>
     <g id="line2d_18">
      <g>
       <use style="stroke:#000000;stroke-width:0.8;" x="48.422187" xlink:href="#m45fd5d1641" y="153.970104"/>
      </g>
     </g>
     <g id="text_10">
      <!-- 100 -->
      <g transform="translate(18.517188 158.529166)scale(0.12 -0.12)">
       <use xlink:href="#DejaVuSans-31"/>
       <use x="63.623047" xlink:href="#DejaVuSans-30"/>
       <use x="127.246094" xlink:href="#DejaVuSans-30"/>
      </g>
     </g>
    </g>
    <g id="ytick_4">
     <g id="line2d_19">
      <path clip-path="url(#p92ceca2dff)" d="M 48.422187 124.848866 
L 606.422187 124.848866 
" style="fill:none;stroke:#cccccc;stroke-linecap:square;"/>
     </g>
     <g id="line2d_20">
      <g>
       <use style="stroke:#000000;stroke-width:0.8;" x="48.422187" xlink:href="#m45fd5d1641" y="124.848866"/>
      </g>
     </g>
     <g id="text_11">
      <!-- 150 -->
      <g transform="translate(18.517188 129.407929)scale(0.12 -0.12)">
       <use xlink:href="#DejaVuSans-31"/>
       <use x="63.623047" xlink:href="#DejaVuSans-35"/>
       <use x="127.246094" xlink:href="#DejaVuSans-30"/>
      </g>
     </g>
    </g>
    <g id="ytick_5">
     <g id="line2d_21">
      <path clip-path="url(#p92ceca2dff)" d="M 48.422187 95.727628 
L 606.422187 95.727628 
" style="fill:none;stroke:#cccccc;stroke-linecap:square;"/>
     </g>
     <g id="line2d_22">
      <g>
       <use style="stroke:#000000;stroke-width:0.8;" x="48.422187" xlink:href="#m45fd5d1641" y="95.727628"/>
      </g>
     </g>
     <g id="text_12">
      <!-- 200 -->
      <g transform="translate(18.517188 100.286691)scale(0.12 -0.12)">
       <use xlink:href="#DejaVuSans-32"/>
       <use x="63.623047" xlink:href="#DejaVuSans-30"/>
       <use x="127.246094" xlink:href="#DejaVuSans-30"/>
      </g>
     </g>
    </g>
    <g id="ytick_6">
     <g id="line2d_23">
      <path clip-path="url(#p92ceca2dff)" d="M 48.422187 66.606391 
L 606.422187 66.606391 
" style="fill:none;stroke:#cccccc;stroke-linecap:square;"/>
     </g>
     <g id="line2d_24">
      <g>
       <use style="stroke:#000000;stroke-width:0.8;" x="48.422187" xlink:href="#m45fd5d1641" y="66.606391"/>
      </g>
     </g>
     <g id="text_13">
      <!-- 250 -->
      <g transform="translate(18.517188 71.165453)scale(0.12 -0.12)">
       <use xlink:href="#DejaVuSans-32"/>
       <use x="63.623047" xlink:href="#DejaVuSans-35"/>
       <use x="127.246094" xlink:href="#DejaVuSans-30"/>
      </g>
     </g>
    </g>
    <g id="ytick_7">
     <g id="line2d_25">
      <path clip-path="url(#p92ceca2dff)" d="M 48.422187 37.485153 
L 606.422187 37.485153 
" style="fill:none;stroke:#cccccc;stroke-linecap:square;"/>
     </g>
     <g id="line2d_26">
      <g>
       <use style="stroke:#000000;stroke-width:0.8;" x="48.422187" xlink:href="#m45fd5d1641" y="37.485153"/>
      </g>
     </g>
     <g id="text_14">
      <!-- 300 -->
      <g transform="translate(18.517188 42.044215)scale(0.12 -0.12)">
       <defs>
        <path d="M 2597 2516 
Q 3050 2419 3304 2112 
Q 3559 1806 3559 1356 
Q 3559 666 3084 287 
Q 2609 -91 1734 -91 
Q 1441 -91 1130 -33 
Q 819 25 488 141 
L 488 750 
Q 750 597 1062 519 
Q 1375 441 1716 441 
Q 2309 441 2620 675 
Q 2931 909 2931 1356 
Q 2931 1769 2642 2001 
Q 2353 2234 1838 2234 
L 1294 2234 
L 1294 2753 
L 1863 2753 
Q 2328 2753 2575 2939 
Q 2822 3125 2822 3475 
Q 2822 3834 2567 4026 
Q 2313 4219 1838 4219 
Q 1578 4219 1281 4162 
Q 984 4106 628 3988 
L 628 4550 
Q 988 4650 1302 4700 
Q 1616 4750 1894 4750 
Q 2613 4750 3031 4423 
Q 3450 4097 3450 3541 
Q 3450 3153 3228 2886 
Q 3006 2619 2597 2516 
z
" id="DejaVuSans-33" transform="scale(0.015625)"/>
       </defs>
       <use xlink:href="#DejaVuSans-33"/>
       <use x="63.623047" xlink:href="#DejaVuSans-30"/>
       <use x="127.246094" xlink:href="#DejaVuSans-30"/>
      </g>
     </g>
    </g>
    <g id="ytick_8">
     <g id="line2d_27">
      <path clip-path="url(#p92ceca2dff)" d="M 48.422187 8.363915 
L 606.422187 8.363915 
" style="fill:none;stroke:#cccccc;stroke-linecap:square;"/>
     </g>
     <g id="line2d_28">
      <g>
       <use style="stroke:#000000;stroke-width:0.8;" x="48.422187" xlink:href="#m45fd5d1641" y="8.363915"/>
      </g>
     </g>
     <g id="text_15">
      <!-- 350 -->
      <g transform="translate(18.517188 12.922978)scale(0.12 -0.12)">
       <use xlink:href="#DejaVuSans-33"/>
       <use x="63.623047" xlink:href="#DejaVuSans-35"/>
       <use x="127.246094" xlink:href="#DejaVuSans-30"/>
      </g>
     </g>
    </g>
    <g id="text_16">
     <!-- GFLOP/s -->
     <g transform="translate(11.397656 141.771797)rotate(-90)scale(0.15 -0.15)">
      <defs>
       <path d="M 3809 666 
L 3809 1919 
L 2778 1919 
L 2778 2438 
L 4434 2438 
L 4434 434 
Q 4069 175 3628 42 
Q 3188 -91 2688 -91 
Q 1594 -91 976 548 
Q 359 1188 359 2328 
Q 359 3472 976 4111 
Q 1594 4750 2688 4750 
Q 3144 4750 3555 4637 
Q 3966 4525 4313 4306 
L 4313 3634 
Q 3963 3931 3569 4081 
Q 3175 4231 2741 4231 
Q 1884 4231 1454 3753 
Q 1025 3275 1025 2328 
Q 1025 1384 1454 906 
Q 1884 428 2741 428 
Q 3075 428 3337 486 
Q 3600 544 3809 666 
z
" id="DejaVuSans-47" transform="scale(0.015625)"/>
       <path d="M 628 4666 
L 3309 4666 
L 3309 4134 
L 1259 4134 
L 1259 2759 
L 3109 2759 
L 3109 2228 
L 1259 2228 
L 1259 0 
L 628 0 
L 628 4666 
z
" id="DejaVuSans-46" transform="scale(0.015625)"/>
       <path d="M 628 4666 
L 1259 4666 
L 1259 531 
L 3531 531 
L 3531 0 
L 628 0 
L 628 4666 
z
" id="DejaVuSans-4c" transform="scale(0.015625)"/>
       <path d="M 2522 4238 
Q 1834 4238 1429 3725 
Q 1025 3213 1025 2328 
Q 1025 1447 1429 934 
Q 1834 422 2522 422 
Q 3209 422 3611 934 
Q 4013 1447 4013 2328 
Q 4013 3213 3611 3725 
Q 3209 4238 2522 4238 
z
M 2522 4750 
Q 3503 4750 4090 4092 
Q 4678 3434 4678 2328 
Q 4678 1225 4090 567 
Q 3503 -91 2522 -91 
Q 1538 -91 948 565 
Q 359 1222 359 2328 
Q 359 3434 948 4092 
Q 1538 4750 2522 4750 
z
" id="DejaVuSans-4f" transform="scale(0.015625)"/>
       <path d="M 1259 4147 
L 1259 2394 
L 2053 2394 
Q 2494 2394 2734 2622 
Q 2975 2850 2975 3272 
Q 2975 3691 2734 3919 
Q 2494 4147 2053 4147 
L 1259 4147 
z
M 628 4666 
L 2053 4666 
Q 2838 4666 3239 4311 
Q 3641 3956 3641 3272 
Q 3641 2581 3239 2228 
Q 2838 1875 2053 1875 
L 1259 1875 
L 1259 0 
L 628 0 
L 628 4666 
z
" id="DejaVuSans-50" transform="scale(0.015625)"/>
       <path d="M 1625 4666 
L 2156 4666 
L 531 -594 
L 0 -594 
L 1625 4666 
z
" id="DejaVuSans-2f" transform="scale(0.015625)"/>
      </defs>
      <use xlink:href="#DejaVuSans-47"/>
      <use x="77.490234" xlink:href="#DejaVuSans-46"/>
      <use x="135.009766" xlink:href="#DejaVuSans-4c"/>
      <use x="187.097656" xlink:href="#DejaVuSans-4f"/>
      <use x="265.808594" xlink:href="#DejaVuSans-50"/>
      <use x="326.111328" xlink:href="#DejaVuSans-2f"/>
      <use x="359.802734" xlink:href="#DejaVuSans-73"/>
     </g>
    </g>
   </g>
   <g id="patch_3">
    <path d="M 48.422187 221.76 
L 48.422187 0 
" style="fill:none;stroke:#000000;stroke-linecap:square;stroke-linejoin:miter;stroke-width:0.8;"/>
   </g>
   <g id="patch_4">
    <path d="M 606.422187 221.76 
L 606.422187 0 
" style="fill:none;stroke:#000000;stroke-linecap:square;stroke-linejoin:miter;stroke-width:0.8;"/>
   </g>
   <g id="patch_5">
    <path d="M 48.422188 221.76 
L 606.422187 221.76 
" style="fill:none;stroke:#000000;stroke-linecap:square;stroke-linejoin:miter;stroke-width:0.8;"/>
   </g>
   <g id="patch_6">
    <path d="M 48.422188 -0 
L 606.422187 -0 
" style="fill:none;stroke:#000000;stroke-linecap:square;stroke-linejoin:miter;stroke-width:0.8;"/>
   </g>
   <g id="line2d_29">
    <path clip-path="url(#p92ceca2dff)" d="M 73.785824 211.236184 
L 75.86481 208.363874 
L 77.943797 204.826641 
L 80.022784 199.114523 
L 84.180757 189.347858 
L 86.259743 184.223202 
L 88.33873 175.674526 
L 90.417717 170.19051 
L 92.496703 160.350716 
L 96.654676 149.052394 
L 98.733663 138.101304 
L 104.970623 121.038079 
L 107.049609 125.546359 
L 109.128596 124.312593 
L 111.207582 129.951906 
L 113.286569 133.643294 
L 115.365556 128.483331 
L 117.444542 133.451984 
L 119.523529 132.929946 
L 121.602515 132.206861 
L 123.681502 131.323844 
L 125.760489 133.654416 
L 127.839475 130.820994 
L 129.918462 129.54652 
L 131.997448 126.706524 
L 134.076435 125.363658 
L 136.155421 128.040127 
L 138.234408 126.481584 
L 140.313395 123.64713 
L 144.471368 122.809297 
L 146.550354 130.240847 
L 152.787314 127.333069 
L 154.866301 120.220535 
L 156.945287 121.087914 
L 159.024274 120.936735 
L 163.182247 118.831431 
L 165.261234 119.266163 
L 167.34022 118.125777 
L 169.419207 119.084863 
L 173.57718 116.655732 
L 175.656167 116.078219 
L 177.735153 116.092325 
L 181.893126 117.058352 
L 183.972113 115.167735 
L 188.130086 113.61416 
L 190.209073 114.386129 
L 192.288059 116.014289 
L 194.367046 116.051916 
L 196.446033 116.483102 
L 198.525019 115.964873 
L 200.604006 112.784133 
L 202.682992 111.384916 
L 204.761979 111.312532 
L 206.840965 111.619274 
L 208.919952 111.452158 
L 210.998939 112.432481 
L 215.156912 111.126342 
L 217.235898 110.823929 
L 219.314885 110.134208 
L 221.393872 111.193615 
L 223.472858 111.4736 
L 225.551845 110.386761 
L 227.630831 110.281547 
L 229.709818 110.462221 
L 231.788804 116.643858 
L 233.867791 115.784918 
L 235.946778 113.020744 
L 238.025764 109.344786 
L 240.104751 115.749804 
L 242.183737 109.643227 
L 244.262724 109.870504 
L 246.341711 109.534733 
L 248.420697 109.441482 
L 250.499684 109.575478 
L 252.57867 109.431282 
L 254.657657 109.98314 
L 256.736644 110.249254 
L 258.81563 110.25226 
L 260.894617 110.009286 
L 262.973603 109.968962 
L 267.131576 110.239106 
L 269.210563 109.721398 
L 271.28955 109.801234 
L 273.368536 109.659875 
L 275.447523 110.647911 
L 277.526509 110.641631 
L 279.605496 110.433546 
L 281.684483 110.924817 
L 283.763469 110.855272 
L 285.842456 109.211164 
L 287.921442 109.1366 
L 290.000429 109.384267 
L 292.079416 109.106849 
L 294.158402 109.147366 
L 296.237389 109.804787 
L 302.474348 109.880304 
L 304.553335 109.379518 
L 306.632322 110.181603 
L 308.711308 110.089174 
L 310.790295 109.845224 
L 314.948268 109.874257 
L 317.027255 111.428544 
L 319.106241 111.254667 
L 321.185228 109.679463 
L 323.264214 110.880613 
L 325.343201 111.526295 
L 327.422188 110.11195 
L 331.580161 109.683985 
L 333.659147 109.924821 
L 335.738134 109.688271 
L 337.81712 109.218326 
L 339.896107 109.864772 
L 341.975094 109.712559 
L 344.05408 109.767993 
L 346.133067 109.597948 
L 348.212053 109.734825 
L 350.29104 109.444013 
L 354.449013 109.153148 
L 356.528 109.443954 
L 358.606986 109.22693 
L 360.685973 109.486807 
L 364.843946 109.017272 
L 369.001919 109.626134 
L 371.080906 108.0027 
L 373.159892 108.474932 
L 375.238879 108.478781 
L 377.317866 108.297542 
L 379.396852 108.371294 
L 381.475839 108.688824 
L 383.554825 108.569027 
L 385.633812 107.942515 
L 387.712799 107.898677 
L 389.791785 108.17316 
L 391.870772 108.110138 
L 393.949758 108.435479 
L 396.028745 108.041396 
L 398.107731 108.343 
L 400.186718 107.865963 
L 402.265705 109.116575 
L 404.344691 107.364853 
L 406.423678 109.667778 
L 408.502664 109.814272 
L 410.581651 110.156249 
L 412.660638 107.629196 
L 414.739624 107.636668 
L 416.818611 107.775714 
L 418.897597 107.490517 
L 420.976584 107.545379 
L 423.055571 108.260931 
L 425.134557 108.093048 
L 427.213544 108.117185 
L 429.29253 107.940271 
L 431.371517 108.142933 
L 433.450503 107.956067 
L 435.52949 108.264515 
L 437.608477 107.696852 
L 439.687463 108.111257 
L 445.924423 108.13943 
L 448.00341 108.213143 
L 450.082396 108.106608 
L 452.161383 108.393501 
L 454.240369 107.597927 
L 456.319356 107.874676 
L 458.398342 107.695931 
L 460.477329 108.007995 
L 462.556316 107.766021 
L 464.635302 108.271877 
L 466.714289 108.074707 
L 468.793275 108.084585 
L 470.872262 107.725443 
L 472.951249 108.240237 
L 481.267195 108.37006 
L 487.504155 108.073547 
L 491.662128 109.278172 
L 493.741114 108.806852 
L 495.820101 109.283943 
L 497.899088 108.72239 
L 499.978074 108.562878 
L 502.057061 108.179555 
L 504.136047 107.928704 
L 506.215034 108.462307 
L 508.294021 108.634859 
L 512.451994 108.409879 
L 514.53098 108.439563 
L 516.609967 108.629148 
L 518.688954 108.278763 
L 520.76794 108.050834 
L 522.846927 108.307579 
L 524.925913 108.27508 
L 527.0049 108.397073 
L 529.083886 108.198885 
L 533.24186 108.108405 
L 535.320846 108.211197 
L 537.399833 107.545785 
L 539.478819 108.211016 
L 541.557806 108.074352 
L 549.873752 108.159746 
L 551.952739 107.866412 
L 554.031726 107.928997 
L 556.110712 108.232254 
L 558.189699 108.108997 
L 560.268685 108.294075 
L 562.347672 108.165045 
L 564.426658 108.27139 
L 568.584632 108.101629 
L 570.663618 107.797383 
L 572.742605 108.803866 
L 574.821591 109.041873 
L 578.979565 108.644681 
L 581.058551 108.931121 
L 581.058551 108.931121 
" style="fill:none;stroke:#a2142f;stroke-linecap:square;stroke-width:3;"/>
    <defs>
     <path d="M -2.5 5 
L 0 2.5 
L 2.5 5 
L 5 2.5 
L 2.5 0 
L 5 -2.5 
L 2.5 -5 
L 0 -2.5 
L -2.5 -5 
L -5 -2.5 
L -2.5 0 
L -5 2.5 
z
" id="m88410415ad" style="stroke:#a2142f;stroke-linejoin:miter;"/>
    </defs>
    <g clip-path="url(#p92ceca2dff)">
     <use style="fill:#a2142f;stroke:#a2142f;stroke-linejoin:miter;" x="73.785824" xlink:href="#m88410415ad" y="211.236184"/>
     <use style="fill:#a2142f;stroke:#a2142f;stroke-linejoin:miter;" x="175.656167" xlink:href="#m88410415ad" y="116.078219"/>
     <use style="fill:#a2142f;stroke:#a2142f;stroke-linejoin:miter;" x="277.526509" xlink:href="#m88410415ad" y="110.641631"/>
     <use style="fill:#a2142f;stroke:#a2142f;stroke-linejoin:miter;" x="379.396852" xlink:href="#m88410415ad" y="108.371294"/>
     <use style="fill:#a2142f;stroke:#a2142f;stroke-linejoin:miter;" x="481.267195" xlink:href="#m88410415ad" y="108.37006"/>
    </g>
   </g>
   <g id="line2d_30">
    <path clip-path="url(#p92ceca2dff)" d="M 73.785824 211.236184 
L 75.86481 208.363874 
L 77.943797 203.595651 
L 80.022784 199.114523 
L 84.180757 189.347858 
L 86.259743 181.113273 
L 88.33873 175.674526 
L 90.417717 165.988301 
L 94.57569 154.704773 
L 96.654676 143.789049 
L 100.812649 132.413564 
L 102.891636 120.619625 
L 111.207582 97.961651 
L 113.286569 85.628731 
L 115.365556 64.455089 
L 119.523529 53.647313 
L 121.602515 56.010939 
L 123.681502 63.916568 
L 125.760489 64.16066 
L 127.839475 69.075659 
L 129.918462 72.713603 
L 131.997448 75.402893 
L 134.076435 77.368191 
L 136.155421 87.866912 
L 140.313395 83.054633 
L 142.392381 83.176676 
L 144.471368 83.07451 
L 146.550354 91.270674 
L 148.629341 86.521741 
L 150.708328 83.781593 
L 152.787314 74.788612 
L 154.866301 69.91239 
L 156.945287 57.888548 
L 167.34022 44.94716 
L 169.419207 51.029994 
L 171.498193 48.303234 
L 173.57718 49.538424 
L 175.656167 48.673661 
L 177.735153 45.892148 
L 179.81414 50.228094 
L 181.893126 49.091043 
L 183.972113 46.265884 
L 188.130086 43.85113 
L 190.209073 48.591352 
L 192.288059 47.182757 
L 194.367046 42.904068 
L 196.446033 45.658861 
L 198.525019 44.161026 
L 200.604006 31.43358 
L 202.682992 30.07228 
L 206.840965 30.077732 
L 208.919952 31.285093 
L 210.998939 32.327338 
L 213.077925 31.995321 
L 215.156912 30.393035 
L 217.235898 31.161411 
L 219.314885 30.668137 
L 221.393872 32.349535 
L 225.551845 31.057343 
L 227.630831 32.401656 
L 229.709818 30.635976 
L 231.788804 37.415898 
L 233.867791 35.592522 
L 235.946778 31.035654 
L 238.025764 28.297434 
L 240.104751 43.293594 
L 242.183737 22.814717 
L 244.262724 21.935803 
L 246.341711 21.942258 
L 248.420697 22.772768 
L 250.499684 20.934343 
L 254.657657 22.294965 
L 258.81563 23.33526 
L 260.894617 22.229847 
L 262.973603 20.353033 
L 265.05259 22.946629 
L 267.131576 21.784833 
L 269.210563 22.73627 
L 273.368536 21.705405 
L 275.447523 23.140621 
L 277.526509 22.544382 
L 281.684483 23.777873 
L 283.763469 24.893999 
L 285.842456 18.754793 
L 287.921442 17.477256 
L 290.000429 18.616066 
L 292.079416 17.317597 
L 294.158402 17.773132 
L 296.237389 19.304882 
L 300.395362 17.74804 
L 302.474348 17.497009 
L 304.553335 16.688907 
L 306.632322 18.489766 
L 308.711308 18.151305 
L 310.790295 17.29028 
L 312.869281 17.912971 
L 314.948268 17.513923 
L 317.027255 19.472304 
L 319.106241 17.612545 
L 321.185228 16.690004 
L 323.264214 18.953009 
L 325.343201 20.635278 
L 327.422188 16.597052 
L 329.501174 15.194844 
L 331.580161 15.11215 
L 333.659147 15.864567 
L 335.738134 14.455565 
L 337.81712 14.734192 
L 339.896107 15.79822 
L 341.975094 15.597 
L 344.05408 16.169031 
L 346.133067 15.143518 
L 348.212053 15.278803 
L 350.29104 16.14357 
L 352.370027 15.472296 
L 354.449013 15.899751 
L 358.606986 15.942835 
L 360.685973 16.631473 
L 362.764959 16.592173 
L 366.922933 17.12439 
L 369.001919 18.000514 
L 371.080906 14.945721 
L 373.159892 14.51091 
L 375.238879 15.034026 
L 377.317866 13.935978 
L 379.396852 14.419652 
L 381.475839 15.178289 
L 383.554825 14.37674 
L 385.633812 13.876233 
L 387.712799 13.669489 
L 389.791785 15.214875 
L 391.870772 14.965861 
L 393.949758 14.991154 
L 396.028745 14.436141 
L 400.186718 14.968492 
L 402.265705 15.469852 
L 404.344691 12.987553 
L 406.423678 17.93139 
L 408.502664 18.068572 
L 410.581651 18.436396 
L 412.660638 14.275342 
L 414.739624 13.14198 
L 416.818611 12.518643 
L 418.897597 12.898605 
L 420.976584 12.263029 
L 423.055571 14.311941 
L 425.134557 13.17536 
L 427.213544 13.235988 
L 429.29253 13.750903 
L 431.371517 12.37932 
L 433.450503 12.175688 
L 435.52949 13.107498 
L 437.608477 12.424013 
L 441.76645 12.389096 
L 445.924423 12.739043 
L 448.00341 12.676188 
L 452.161383 12.93642 
L 454.240369 13.660433 
L 456.319356 12.730477 
L 458.398342 12.815557 
L 460.477329 12.487132 
L 462.556316 11.554262 
L 464.635302 11.616265 
L 466.714289 12.446148 
L 468.793275 11.315089 
L 470.872262 10.378437 
L 472.951249 11.173086 
L 475.030235 11.371156 
L 477.109222 12.111136 
L 481.267195 10.964457 
L 483.346182 11.297244 
L 485.425168 11.25432 
L 489.583141 10.08 
L 491.662128 11.2454 
L 493.741114 11.852922 
L 495.820101 13.107554 
L 497.899088 11.825047 
L 502.057061 10.933172 
L 504.136047 10.648326 
L 506.215034 11.662209 
L 508.294021 12.000892 
L 510.373007 11.372022 
L 512.451994 11.059129 
L 514.53098 10.58484 
L 516.609967 10.577635 
L 518.688954 10.407097 
L 520.76794 10.537706 
L 522.846927 10.201188 
L 524.925913 10.765901 
L 527.0049 10.267989 
L 529.083886 10.657505 
L 531.162873 11.175897 
L 533.24186 10.229474 
L 535.320846 10.584806 
L 537.399833 10.497836 
L 539.478819 12.918234 
L 541.557806 11.974356 
L 543.636793 11.718471 
L 545.715779 11.594899 
L 547.794766 10.651806 
L 549.873752 10.793041 
L 551.952739 11.589311 
L 554.031726 10.382261 
L 556.110712 11.025896 
L 558.189699 10.347436 
L 560.268685 10.708001 
L 562.347672 11.309136 
L 566.505645 10.195622 
L 568.584632 10.392536 
L 570.663618 10.081256 
L 572.742605 11.732691 
L 574.821591 10.310638 
L 576.900578 10.956185 
L 578.979565 12.172985 
L 581.058551 12.884791 
L 581.058551 12.884791 
" style="fill:none;stroke:#77ac30;stroke-linecap:square;stroke-width:3;"/>
    <defs>
     <path d="M -1.666667 5 
L 1.666667 5 
L 1.666667 1.666667 
L 5 1.666667 
L 5 -1.666667 
L 1.666667 -1.666667 
L 1.666667 -5 
L -1.666667 -5 
L -1.666667 -1.666667 
L -5 -1.666667 
L -5 1.666667 
L -1.666667 1.666667 
z
" id="maaad4e31af" style="stroke:#77ac30;stroke-linejoin:miter;"/>
    </defs>
    <g clip-path="url(#p92ceca2dff)">
     <use style="fill:#77ac30;stroke:#77ac30;stroke-linejoin:miter;" x="92.496703" xlink:href="#maaad4e31af" y="160.350716"/>
     <use style="fill:#77ac30;stroke:#77ac30;stroke-linejoin:miter;" x="194.367046" xlink:href="#maaad4e31af" y="42.904068"/>
     <use style="fill:#77ac30;stroke:#77ac30;stroke-linejoin:miter;" x="296.237389" xlink:href="#maaad4e31af" y="19.304882"/>
     <use style="fill:#77ac30;stroke:#77ac30;stroke-linejoin:miter;" x="398.107731" xlink:href="#maaad4e31af" y="14.714077"/>
     <use style="fill:#77ac30;stroke:#77ac30;stroke-linejoin:miter;" x="499.978074" xlink:href="#maaad4e31af" y="11.380493"/>
    </g>
   </g>
   <g id="line2d_31">
    <path clip-path="url(#p92ceca2dff)" d="M 73.785824 211.236184 
L 75.86481 208.913689 
L 77.943797 204.826641 
L 80.022784 199.114523 
L 84.180757 189.347858 
L 86.259743 181.113273 
L 88.33873 171.614744 
L 90.417717 170.19051 
L 92.496703 160.350716 
L 94.57569 154.704773 
L 96.654676 143.789049 
L 98.733663 138.101304 
L 100.812649 126.275176 
L 102.891636 126.725819 
L 104.970623 114.959777 
L 107.049609 115.350339 
L 109.128596 103.630246 
L 113.286569 92.29103 
L 115.365556 72.663841 
L 117.444542 67.127262 
L 119.523529 68.748772 
L 121.602515 69.593695 
L 123.681502 69.8484 
L 125.760489 74.735801 
L 127.839475 73.846882 
L 129.918462 72.713603 
L 131.997448 82.798014 
L 134.076435 84.110413 
L 136.155421 87.866912 
L 138.234408 88.176247 
L 140.313395 85.690501 
L 142.392381 85.658136 
L 144.471368 85.422475 
L 146.550354 96.939828 
L 148.629341 90.449582 
L 150.708328 87.673442 
L 154.866301 69.91239 
L 156.945287 57.888548 
L 159.024274 55.33222 
L 161.103261 55.138377 
L 163.182247 54.798643 
L 165.261234 52.138203 
L 167.34022 51.637779 
L 169.419207 53.070281 
L 171.498193 52.301024 
L 173.57718 55.14788 
L 177.735153 49.547544 
L 179.81414 51.915433 
L 181.893126 50.738736 
L 183.972113 51.099285 
L 188.130086 48.484933 
L 190.209073 50.026627 
L 192.288059 51.343164 
L 194.367046 47.136772 
L 196.446033 49.624418 
L 198.525019 49.331844 
L 200.604006 32.915375 
L 202.682992 34.374818 
L 204.761979 32.920959 
L 208.919952 32.596172 
L 210.998939 36.049094 
L 213.077925 36.801115 
L 215.156912 35.146488 
L 217.235898 35.744987 
L 219.314885 34.050962 
L 221.393872 35.580617 
L 223.472858 36.938399 
L 225.551845 36.174717 
L 227.630831 36.353546 
L 229.709818 35.517076 
L 231.788804 44.372982 
L 233.867791 42.518801 
L 235.946778 35.542551 
L 238.025764 31.939319 
L 240.104751 47.030747 
L 242.183737 25.586401 
L 244.262724 24.667056 
L 246.341711 24.609594 
L 248.420697 23.641764 
L 252.57867 23.329415 
L 254.657657 26.301661 
L 258.81563 25.629312 
L 260.894617 24.500552 
L 262.973603 24.100296 
L 265.05259 26.517691 
L 267.131576 26.016552 
L 269.210563 26.168818 
L 271.28955 25.612539 
L 273.368536 25.688144 
L 275.447523 26.986163 
L 277.526509 25.716097 
L 279.605496 25.673295 
L 281.684483 26.193703 
L 283.763469 25.484914 
L 285.842456 19.987017 
L 287.921442 19.911448 
L 290.000429 20.392177 
L 292.079416 19.66573 
L 294.158402 19.498939 
L 296.237389 21.522212 
L 298.316375 20.7263 
L 304.553335 19.851008 
L 306.632322 21.540512 
L 310.790295 20.762177 
L 312.869281 20.827459 
L 314.948268 20.391251 
L 317.027255 23.602457 
L 319.106241 21.301646 
L 321.185228 18.538918 
L 323.264214 22.04163 
L 325.343201 22.778204 
L 327.422188 17.921759 
L 329.501174 16.517108 
L 331.580161 16.844901 
L 333.659147 16.714553 
L 335.738134 16.145796 
L 337.81712 16.393663 
L 339.896107 17.414799 
L 344.05408 17.73112 
L 346.133067 17.083189 
L 348.212053 17.187069 
L 350.29104 17.637419 
L 356.528 17.719677 
L 358.606986 17.704675 
L 360.685973 18.356187 
L 362.764959 18.629901 
L 364.843946 18.212494 
L 366.922933 18.769309 
L 369.001919 19.608223 
L 371.080906 15.930403 
L 373.159892 15.16232 
L 375.238879 15.991192 
L 377.317866 14.890768 
L 379.396852 15.045566 
L 381.475839 15.485198 
L 383.554825 16.194541 
L 385.633812 15.381073 
L 387.712799 15.452823 
L 391.870772 16.681047 
L 393.949758 16.403926 
L 396.028745 15.838822 
L 398.107731 16.642234 
L 400.186718 16.328791 
L 402.265705 17.335974 
L 404.344691 14.87722 
L 406.423678 19.957792 
L 408.502664 20.314457 
L 410.581651 20.159944 
L 412.660638 15.040554 
L 416.818611 13.782538 
L 418.897597 14.389729 
L 420.976584 13.254098 
L 423.055571 15.032444 
L 425.134557 14.84794 
L 427.213544 14.888224 
L 429.29253 14.217875 
L 431.371517 14.238221 
L 433.450503 14.017225 
L 435.52949 14.687696 
L 437.608477 14.663787 
L 439.687463 14.84662 
L 441.76645 14.363205 
L 443.845436 14.306531 
L 445.924423 14.874737 
L 448.00341 14.160517 
L 450.082396 14.694954 
L 452.161383 14.590165 
L 454.240369 14.272623 
L 456.319356 14.55317 
L 458.398342 14.020382 
L 460.477329 13.881016 
L 462.556316 12.946352 
L 466.714289 13.797213 
L 468.793275 13.241254 
L 470.872262 12.872582 
L 472.951249 12.875199 
L 475.030235 13.237726 
L 477.109222 13.94526 
L 479.188208 13.002245 
L 481.267195 13.14207 
L 483.346182 13.091145 
L 485.425168 13.382734 
L 487.504155 12.787685 
L 489.583141 12.711934 
L 491.662128 13.311916 
L 493.741114 13.719114 
L 495.820101 14.438258 
L 497.899088 13.325445 
L 499.978074 13.037536 
L 502.057061 12.908109 
L 504.136047 12.610018 
L 506.215034 12.948811 
L 508.294021 12.796651 
L 510.373007 12.952193 
L 512.451994 12.629407 
L 514.53098 13.074072 
L 516.609967 12.126302 
L 518.688954 12.248665 
L 520.76794 12.209459 
L 522.846927 12.758296 
L 524.925913 12.403692 
L 527.0049 12.192678 
L 529.083886 12.412698 
L 531.162873 12.763404 
L 533.24186 12.388951 
L 535.320846 12.85827 
L 537.399833 11.772728 
L 539.478819 13.879026 
L 541.557806 13.344906 
L 543.636793 13.485551 
L 545.715779 13.482429 
L 547.794766 12.272935 
L 551.952739 12.775645 
L 554.031726 11.966276 
L 556.110712 12.972863 
L 558.189699 12.290938 
L 560.268685 12.374386 
L 562.347672 12.323153 
L 564.426658 12.640304 
L 566.505645 12.201999 
L 570.663618 11.812043 
L 572.742605 12.821607 
L 574.821591 12.369628 
L 576.900578 13.103559 
L 578.979565 14.508536 
L 581.058551 15.2988 
L 581.058551 15.2988 
" style="fill:none;stroke:#0072bd;stroke-linecap:square;stroke-width:3;"/>
    <defs>
     <path d="M -5 5 
L 5 -5 
M -5 -5 
L 5 5 
" id="md8101b9ede" style="stroke:#0072bd;"/>
    </defs>
    <g clip-path="url(#p92ceca2dff)">
     <use style="fill:#0072bd;stroke:#0072bd;" x="111.207582" xlink:href="#md8101b9ede" y="97.961651"/>
     <use style="fill:#0072bd;stroke:#0072bd;" x="213.077925" xlink:href="#md8101b9ede" y="36.801115"/>
     <use style="fill:#0072bd;stroke:#0072bd;" x="314.948268" xlink:href="#md8101b9ede" y="20.391251"/>
     <use style="fill:#0072bd;stroke:#0072bd;" x="416.818611" xlink:href="#md8101b9ede" y="13.782538"/>
     <use style="fill:#0072bd;stroke:#0072bd;" x="518.688954" xlink:href="#md8101b9ede" y="12.248665"/>
    </g>
   </g>
   <g id="line2d_32">
    <path clip-path="url(#p92ceca2dff)" d="M 73.785824 211.68 
L 75.86481 208.913689 
L 77.943797 204.826641 
L 80.022784 199.114523 
L 82.10177 194.331741 
L 84.180757 186.489767 
L 86.259743 181.113273 
L 88.33873 171.614744 
L 90.417717 165.988301 
L 92.496703 155.164528 
L 94.57569 149.476788 
L 96.654676 137.568726 
L 98.733663 124.626528 
L 100.812649 119.11373 
L 102.891636 120.619625 
L 104.970623 108.013152 
L 107.049609 109.296447 
L 109.128596 103.630246 
L 111.207582 103.974849 
L 113.286569 108.643974 
L 115.365556 125.59612 
L 117.444542 133.451984 
L 119.523529 134.962835 
L 121.602515 134.111759 
L 123.681502 134.840746 
L 125.760489 132.017794 
L 127.839475 130.820994 
L 129.918462 127.986782 
L 131.997448 128.206631 
L 134.076435 126.811135 
L 136.155421 126.724932 
L 140.313395 123.64713 
L 142.392381 123.282435 
L 144.471368 121.648215 
L 146.550354 122.243602 
L 148.629341 122.6398 
L 150.708328 120.88388 
L 154.866301 119.281841 
L 156.945287 118.407776 
L 159.024274 118.377598 
L 161.103261 119.080088 
L 163.182247 117.221411 
L 165.261234 118.510506 
L 167.34022 118.125777 
L 169.419207 116.968328 
L 171.498193 116.499092 
L 173.57718 115.300315 
L 175.656167 115.424239 
L 177.735153 114.182655 
L 179.81414 114.816839 
L 181.893126 115.911915 
L 183.972113 115.731945 
L 188.130086 114.155914 
L 190.209073 113.865779 
L 192.288059 114.04099 
L 194.367046 113.659863 
L 196.446033 113.721673 
L 198.525019 117.683582 
L 200.604006 119.130628 
L 202.682992 119.26856 
L 204.761979 115.499258 
L 206.840965 119.387094 
L 208.919952 117.242986 
L 210.998939 116.183609 
L 213.077925 116.184398 
L 215.156912 116.484269 
L 217.235898 114.381421 
L 221.393872 114.214109 
L 223.472858 113.442446 
L 225.551845 112.98105 
L 229.709818 114.398994 
L 231.788804 112.402644 
L 233.867791 112.450243 
L 235.946778 112.182505 
L 238.025764 112.988607 
L 244.262724 111.96446 
L 246.341711 112.592139 
L 248.420697 111.456602 
L 250.499684 111.539825 
L 252.57867 111.356928 
L 254.657657 111.616943 
L 256.736644 111.389786 
L 260.894617 110.450773 
L 262.973603 110.185582 
L 265.05259 111.167105 
L 267.131576 111.059812 
L 269.210563 110.331469 
L 271.28955 109.399618 
L 273.368536 111.398058 
L 275.447523 109.887121 
L 277.526509 111.920401 
L 279.605496 109.699997 
L 281.684483 111.101278 
L 283.763469 111.028524 
L 285.842456 111.278088 
L 287.921442 110.834724 
L 292.079416 110.90425 
L 294.158402 111.224656 
L 296.237389 109.962582 
L 298.316375 110.105841 
L 300.395362 109.923657 
L 304.553335 110.115096 
L 306.632322 109.749875 
L 308.711308 109.521826 
L 310.790295 109.845224 
L 314.948268 109.060974 
L 317.027255 108.79711 
L 319.106241 108.659344 
L 323.264214 109.124863 
L 325.343201 108.695262 
L 327.422188 108.387694 
L 329.501174 108.445232 
L 331.580161 108.72912 
L 333.659147 108.515578 
L 335.738134 108.763586 
L 337.81712 107.717284 
L 339.896107 108.519568 
L 341.975094 108.830838 
L 344.05408 108.681628 
L 346.133067 108.415997 
L 348.212053 108.467055 
L 350.29104 108.399621 
L 352.370027 108.114058 
L 354.449013 107.616476 
L 356.528 108.243155 
L 358.606986 108.338276 
L 362.764959 108.391701 
L 366.922933 107.929075 
L 369.001919 108.343804 
L 371.080906 107.447403 
L 373.159892 107.932273 
L 377.317866 108.033349 
L 379.396852 108.371294 
L 381.475839 107.83326 
L 383.554825 108.063044 
L 385.633812 107.437163 
L 387.712799 107.815822 
L 389.791785 108.577986 
L 391.870772 107.625947 
L 396.028745 107.805713 
L 398.107731 108.266002 
L 400.186718 108.019078 
L 402.265705 108.297164 
L 404.344691 108.188654 
L 406.423678 108.367912 
L 408.502664 107.882222 
L 414.739624 107.918356 
L 418.897597 107.352087 
L 420.976584 107.203103 
L 423.055571 107.65889 
L 425.134557 107.562836 
L 427.213544 107.593438 
L 429.29253 107.810907 
L 433.450503 107.257214 
L 435.52949 107.640579 
L 437.608477 107.634824 
L 441.76645 107.299438 
L 448.00341 107.688184 
L 450.082396 107.702422 
L 452.161383 107.595332 
L 454.240369 107.768119 
L 456.319356 107.369002 
L 458.398342 107.529148 
L 460.477329 107.459264 
L 462.556316 107.602992 
L 466.714289 107.543928 
L 468.793275 107.770155 
L 470.872262 106.938649 
L 475.030235 108.181023 
L 477.109222 107.664652 
L 481.267195 107.681717 
L 483.346182 107.362545 
L 485.425168 107.628454 
L 487.504155 107.353687 
L 493.741114 107.466921 
L 495.820101 107.369411 
L 497.899088 107.727295 
L 502.057061 107.778407 
L 504.136047 107.440355 
L 506.215034 107.544543 
L 508.294021 107.423425 
L 510.373007 107.559707 
L 512.451994 107.388453 
L 514.53098 107.385808 
L 518.688954 107.073614 
L 520.76794 106.851672 
L 522.846927 107.576991 
L 524.925913 107.550781 
L 527.0049 107.399999 
L 531.162873 107.29086 
L 533.24186 107.172288 
L 541.557806 107.360299 
L 543.636793 106.999954 
L 545.715779 107.089767 
L 547.794766 107.062793 
L 549.873752 107.215793 
L 551.952739 107.071259 
L 554.031726 107.141683 
L 556.110712 107.385166 
L 558.189699 107.161006 
L 562.347672 107.199407 
L 564.426658 107.315923 
L 568.584632 107.09117 
L 570.663618 106.958843 
L 574.821591 107.320198 
L 578.979565 107.394556 
L 581.058551 107.312889 
L 581.058551 107.312889 
" style="fill:none;stroke:#d95319;stroke-linecap:square;stroke-width:3;"/>
    <defs>
     <path d="M -0 7.071068 
L 4.242641 0 
L -0 -7.071068 
L -4.242641 -0 
z
" id="m2987d67f1d" style="stroke:#d95319;stroke-linejoin:miter;"/>
    </defs>
    <g clip-path="url(#p92ceca2dff)">
     <use style="fill:#d95319;stroke:#d95319;stroke-linejoin:miter;" x="129.918462" xlink:href="#m2987d67f1d" y="127.986782"/>
     <use style="fill:#d95319;stroke:#d95319;stroke-linejoin:miter;" x="231.788804" xlink:href="#m2987d67f1d" y="112.402644"/>
     <use style="fill:#d95319;stroke:#d95319;stroke-linejoin:miter;" x="333.659147" xlink:href="#m2987d67f1d" y="108.515578"/>
     <use style="fill:#d95319;stroke:#d95319;stroke-linejoin:miter;" x="435.52949" xlink:href="#m2987d67f1d" y="107.640579"/>
     <use style="fill:#d95319;stroke:#d95319;stroke-linejoin:miter;" x="537.399833" xlink:href="#m2987d67f1d" y="107.314986"/>
    </g>
   </g>
   <g id="line2d_33">
    <path clip-path="url(#p92ceca2dff)" d="M 73.785824 211.236184 
L 75.86481 208.363874 
L 77.943797 203.595651 
L 80.022784 203.877453 
L 82.10177 191.777336 
L 84.180757 186.489767 
L 86.259743 177.225858 
L 88.33873 166.540013 
L 90.417717 154.432233 
L 94.57569 143.203207 
L 96.654676 120.981205 
L 98.733663 115.86792 
L 100.812649 100.493953 
L 102.891636 113.574011 
L 104.970623 99.997809 
L 107.049609 85.546569 
L 111.207582 75.111457 
L 115.365556 44.754083 
L 119.523529 34.992587 
L 123.681502 24.891287 
L 125.760489 28.910204 
L 127.839475 31.735592 
L 129.918462 33.653886 
L 131.997448 52.601271 
L 134.076435 56.937231 
L 136.155421 60.234545 
L 138.234408 66.469881 
L 140.313395 68.036262 
L 142.392381 62.648241 
L 144.471368 63.841184 
L 146.550354 58.515583 
L 148.629341 59.411952 
L 150.708328 59.998078 
L 152.787314 54.799674 
L 154.866301 52.436932 
L 156.945287 47.245518 
L 159.024274 52.842054 
L 161.103261 47.775522 
L 163.182247 47.750255 
L 165.261234 52.138203 
L 167.34022 47.238468 
L 169.419207 48.936713 
L 171.498193 48.303234 
L 173.57718 45.570761 
L 175.656167 44.825685 
L 179.81414 39.307789 
L 181.893126 43.939847 
L 183.972113 42.879216 
L 188.130086 37.248718 
L 190.209073 39.416327 
L 192.288059 41.288833 
L 194.367046 39.959572 
L 198.525019 40.062216 
L 200.604006 35.807267 
L 202.682992 32.963397 
L 204.761979 32.920959 
L 206.840965 34.125165 
L 208.919952 31.285093 
L 210.998939 32.327338 
L 213.077925 31.995321 
L 215.156912 29.164533 
L 217.235898 29.978078 
L 219.314885 28.340643 
L 221.393872 25.519291 
L 223.472858 26.185394 
L 225.551845 25.63354 
L 227.630831 26.12918 
L 231.788804 24.791696 
L 233.867791 25.090792 
L 238.025764 23.532798 
L 240.104751 23.671691 
L 242.183737 21.872446 
L 244.262724 22.855021 
L 246.341711 21.942258 
L 248.420697 23.641764 
L 250.499684 22.657571 
L 252.57867 20.810966 
L 256.736644 23.644427 
L 262.973603 22.619108 
L 267.131576 21.784833 
L 269.210563 22.73627 
L 271.28955 21.541274 
L 275.447523 21.823056 
L 279.605496 20.648666 
L 281.684483 21.92442 
L 283.763469 22.492478 
L 285.842456 21.203626 
L 287.921442 20.510521 
L 290.000429 20.392177 
L 292.079416 20.818714 
L 294.158402 20.067403 
L 296.237389 19.864039 
L 298.316375 19.084976 
L 302.474348 19.636742 
L 304.553335 18.80839 
L 306.632322 19.00499 
L 308.711308 18.151305 
L 310.790295 17.793959 
L 312.869281 17.912971 
L 314.948268 18.48258 
L 317.027255 17.098665 
L 321.185228 17.155537 
L 323.264214 18.052038 
L 325.343201 17.998898 
L 327.422188 17.482184 
L 329.501174 17.821742 
L 331.580161 17.273342 
L 335.738134 16.980117 
L 337.81712 15.151685 
L 339.896107 18.213145 
L 341.975094 18.76184 
L 344.05408 18.117766 
L 346.133067 18.607626 
L 348.212053 17.940069 
L 350.29104 18.37585 
L 352.370027 16.954343 
L 354.449013 18.072951 
L 356.528 18.425645 
L 358.606986 16.651396 
L 360.685973 16.978867 
L 362.764959 17.616371 
L 364.843946 16.53428 
L 369.001919 17.022929 
L 371.080906 15.930403 
L 373.159892 16.131409 
L 375.238879 15.991192 
L 377.317866 16.461795 
L 379.396852 17.510154 
L 381.475839 16.096157 
L 383.554825 16.194541 
L 385.633812 15.081935 
L 387.712799 16.040153 
L 389.791785 15.795976 
L 391.870772 16.397254 
L 393.949758 15.841253 
L 396.028745 14.153214 
L 398.107731 15.820519 
L 400.186718 15.242064 
L 402.265705 15.469852 
L 404.344691 15.144252 
L 406.423678 14.545783 
L 408.502664 15.769511 
L 410.581651 15.408649 
L 412.660638 15.294317 
L 414.739624 15.668262 
L 416.818611 14.782179 
L 418.897597 14.636085 
L 420.976584 15.207066 
L 423.055571 15.271452 
L 425.134557 15.08459 
L 427.213544 14.653871 
L 429.29253 14.914214 
L 431.371517 14.926434 
L 435.52949 14.463489 
L 437.608477 13.997151 
L 441.76645 14.796613 
L 445.924423 14.238843 
L 448.00341 12.676188 
L 450.082396 12.390937 
L 452.161383 13.973232 
L 454.240369 14.068979 
L 456.319356 13.138419 
L 458.398342 13.620394 
L 460.477329 12.887386 
L 462.556316 13.733194 
L 464.635302 14.15793 
L 466.714289 13.60532 
L 468.793275 13.241254 
L 470.872262 12.111736 
L 472.951249 13.622486 
L 475.030235 13.790929 
L 477.109222 13.032421 
L 479.188208 13.183677 
L 481.267195 11.877568 
L 483.346182 13.091145 
L 485.425168 13.207088 
L 487.504155 13.136637 
L 489.583141 12.884963 
L 491.662128 12.456055 
L 493.741114 13.382397 
L 495.820101 13.441906 
L 497.899088 13.820604 
L 499.978074 13.037536 
L 502.057061 12.08994 
L 504.136047 12.610018 
L 506.215034 13.902994 
L 508.294021 14.213174 
L 510.373007 13.421413 
L 512.451994 12.940529 
L 514.53098 12.920296 
L 516.609967 13.196273 
L 520.76794 13.109705 
L 522.846927 12.460823 
L 524.925913 12.698598 
L 527.0049 13.648421 
L 529.083886 13.565936 
L 531.162873 12.763404 
L 533.24186 12.815321 
L 535.320846 12.29472 
L 537.399833 12.474062 
L 539.478819 13.605461 
L 541.557806 13.072312 
L 543.636793 12.673862 
L 545.715779 12.543117 
L 547.794766 12.940741 
L 549.873752 13.977548 
L 551.952739 12.775645 
L 554.031726 12.358406 
L 556.110712 12.068982 
L 558.189699 12.930487 
L 560.268685 13.260312 
L 562.347672 12.82634 
L 564.426658 12.140447 
L 566.505645 11.20381 
L 568.584632 12.50129 
L 570.663618 12.544774 
L 572.742605 12.7012 
L 574.821591 12.369628 
L 576.900578 11.317294 
L 578.979565 12.291073 
L 581.058551 12.41825 
L 581.058551 12.41825 
" style="fill:none;stroke:#7e2f8e;stroke-linecap:square;stroke-width:3;"/>
    <defs>
     <path d="M -5 0 
L 5 0 
M 0 5 
L 0 -5 
" id="m2166dbb825" style="stroke:#7e2f8e;"/>
    </defs>
    <g clip-path="url(#p92ceca2dff)">
     <use style="fill:#7e2f8e;stroke:#7e2f8e;" x="148.629341" xlink:href="#m2166dbb825" y="59.411952"/>
     <use style="fill:#7e2f8e;stroke:#7e2f8e;" x="250.499684" xlink:href="#m2166dbb825" y="22.657571"/>
     <use style="fill:#7e2f8e;stroke:#7e2f8e;" x="352.370027" xlink:href="#m2166dbb825" y="16.954343"/>
     <use style="fill:#7e2f8e;stroke:#7e2f8e;" x="454.240369" xlink:href="#m2166dbb825" y="14.068979"/>
     <use style="fill:#7e2f8e;stroke:#7e2f8e;" x="556.110712" xlink:href="#m2166dbb825" y="12.068982"/>
    </g>
   </g>
   <g id="legend_1">
    <g id="patch_7">
     <path d="M 329.700313 214.26 
L 595.922188 214.26 
Q 598.922188 214.26 598.922188 211.26 
L 598.922188 102.674062 
Q 598.922188 99.674062 595.922188 99.674062 
L 329.700313 99.674062 
Q 326.700313 99.674062 326.700313 102.674062 
L 326.700313 211.26 
Q 326.700313 214.26 329.700313 214.26 
z
" style="fill:#ffffff;opacity:0.8;stroke:#cccccc;stroke-linejoin:miter;"/>
    </g>
    <g id="line2d_34">
     <path d="M 332.700313 111.821719 
L 362.700313 111.821719 
" style="fill:none;stroke:#a2142f;stroke-linecap:square;stroke-width:3;"/>
    </g>
    <g id="line2d_35">
     <g>
      <use style="fill:#a2142f;stroke:#a2142f;stroke-linejoin:miter;" x="347.700313" xlink:href="#m88410415ad" y="111.821719"/>
     </g>
    </g>
    <g id="text_17">
     <!-- GEMV fp64 -->
     <g transform="translate(374.700313 117.071719)scale(0.15 -0.15)">
      <defs>
       <path d="M 628 4666 
L 3578 4666 
L 3578 4134 
L 1259 4134 
L 1259 2753 
L 3481 2753 
L 3481 2222 
L 1259 2222 
L 1259 531 
L 3634 531 
L 3634 0 
L 628 0 
L 628 4666 
z
" id="DejaVuSans-45" transform="scale(0.015625)"/>
       <path d="M 628 4666 
L 1569 4666 
L 2759 1491 
L 3956 4666 
L 4897 4666 
L 4897 0 
L 4281 0 
L 4281 4097 
L 3078 897 
L 2444 897 
L 1241 4097 
L 1241 0 
L 628 0 
L 628 4666 
z
" id="DejaVuSans-4d" transform="scale(0.015625)"/>
       <path d="M 1831 0 
L 50 4666 
L 709 4666 
L 2188 738 
L 3669 4666 
L 4325 4666 
L 2547 0 
L 1831 0 
z
" id="DejaVuSans-56" transform="scale(0.015625)"/>
       <path d="M 1159 525 
L 1159 -1331 
L 581 -1331 
L 581 3500 
L 1159 3500 
L 1159 2969 
Q 1341 3281 1617 3432 
Q 1894 3584 2278 3584 
Q 2916 3584 3314 3078 
Q 3713 2572 3713 1747 
Q 3713 922 3314 415 
Q 2916 -91 2278 -91 
Q 1894 -91 1617 61 
Q 1341 213 1159 525 
z
M 3116 1747 
Q 3116 2381 2855 2742 
Q 2594 3103 2138 3103 
Q 1681 3103 1420 2742 
Q 1159 2381 1159 1747 
Q 1159 1113 1420 752 
Q 1681 391 2138 391 
Q 2594 391 2855 752 
Q 3116 1113 3116 1747 
z
" id="DejaVuSans-70" transform="scale(0.015625)"/>
       <path d="M 2113 2584 
Q 1688 2584 1439 2293 
Q 1191 2003 1191 1497 
Q 1191 994 1439 701 
Q 1688 409 2113 409 
Q 2538 409 2786 701 
Q 3034 994 3034 1497 
Q 3034 2003 2786 2293 
Q 2538 2584 2113 2584 
z
M 3366 4563 
L 3366 3988 
Q 3128 4100 2886 4159 
Q 2644 4219 2406 4219 
Q 1781 4219 1451 3797 
Q 1122 3375 1075 2522 
Q 1259 2794 1537 2939 
Q 1816 3084 2150 3084 
Q 2853 3084 3261 2657 
Q 3669 2231 3669 1497 
Q 3669 778 3244 343 
Q 2819 -91 2113 -91 
Q 1303 -91 875 529 
Q 447 1150 447 2328 
Q 447 3434 972 4092 
Q 1497 4750 2381 4750 
Q 2619 4750 2861 4703 
Q 3103 4656 3366 4563 
z
" id="DejaVuSans-36" transform="scale(0.015625)"/>
       <path d="M 2419 4116 
L 825 1625 
L 2419 1625 
L 2419 4116 
z
M 2253 4666 
L 3047 4666 
L 3047 1625 
L 3713 1625 
L 3713 1100 
L 3047 1100 
L 3047 0 
L 2419 0 
L 2419 1100 
L 313 1100 
L 313 1709 
L 2253 4666 
z
" id="DejaVuSans-34" transform="scale(0.015625)"/>
      </defs>
      <use xlink:href="#DejaVuSans-47"/>
      <use x="77.490234" xlink:href="#DejaVuSans-45"/>
      <use x="140.673828" xlink:href="#DejaVuSans-4d"/>
      <use x="226.953125" xlink:href="#DejaVuSans-56"/>
      <use x="295.361328" xlink:href="#DejaVuSans-20"/>
      <use x="327.148438" xlink:href="#DejaVuSans-66"/>
      <use x="362.353516" xlink:href="#DejaVuSans-70"/>
      <use x="425.830078" xlink:href="#DejaVuSans-36"/>
      <use x="489.453125" xlink:href="#DejaVuSans-34"/>
     </g>
    </g>
    <g id="line2d_36">
     <path d="M 332.700313 133.838906 
L 362.700313 133.838906 
" style="fill:none;stroke:#77ac30;stroke-linecap:square;stroke-width:3;"/>
    </g>
    <g id="line2d_37">
     <g>
      <use style="fill:#77ac30;stroke:#77ac30;stroke-linejoin:miter;" x="347.700313" xlink:href="#maaad4e31af" y="133.838906"/>
     </g>
    </g>
    <g id="text_18">
     <!-- GEMV fp32 -->
     <g transform="translate(374.700313 139.088906)scale(0.15 -0.15)">
      <use xlink:href="#DejaVuSans-47"/>
      <use x="77.490234" xlink:href="#DejaVuSans-45"/>
      <use x="140.673828" xlink:href="#DejaVuSans-4d"/>
      <use x="226.953125" xlink:href="#DejaVuSans-56"/>
      <use x="295.361328" xlink:href="#DejaVuSans-20"/>
      <use x="327.148438" xlink:href="#DejaVuSans-66"/>
      <use x="362.353516" xlink:href="#DejaVuSans-70"/>
      <use x="425.830078" xlink:href="#DejaVuSans-33"/>
      <use x="489.453125" xlink:href="#DejaVuSans-32"/>
     </g>
    </g>
    <g id="line2d_38">
     <path d="M 332.700313 155.856094 
L 362.700313 155.856094 
" style="fill:none;stroke:#0072bd;stroke-linecap:square;stroke-width:3;"/>
    </g>
    <g id="line2d_39">
     <g>
      <use style="fill:#0072bd;stroke:#0072bd;" x="347.700313" xlink:href="#md8101b9ede" y="155.856094"/>
     </g>
    </g>
    <g id="text_19">
     <!-- GEMV Accessor&lt;fp64, fp32&gt; -->
     <g transform="translate(374.700313 161.106094)scale(0.15 -0.15)">
      <defs>
       <path d="M 2188 4044 
L 1331 1722 
L 3047 1722 
L 2188 4044 
z
M 1831 4666 
L 2547 4666 
L 4325 0 
L 3669 0 
L 3244 1197 
L 1141 1197 
L 716 0 
L 50 0 
L 1831 4666 
z
" id="DejaVuSans-41" transform="scale(0.015625)"/>
       <path d="M 3122 3366 
L 3122 2828 
Q 2878 2963 2633 3030 
Q 2388 3097 2138 3097 
Q 1578 3097 1268 2742 
Q 959 2388 959 1747 
Q 959 1106 1268 751 
Q 1578 397 2138 397 
Q 2388 397 2633 464 
Q 2878 531 3122 666 
L 3122 134 
Q 2881 22 2623 -34 
Q 2366 -91 2075 -91 
Q 1284 -91 818 406 
Q 353 903 353 1747 
Q 353 2603 823 3093 
Q 1294 3584 2113 3584 
Q 2378 3584 2631 3529 
Q 2884 3475 3122 3366 
z
" id="DejaVuSans-63" transform="scale(0.015625)"/>
       <path d="M 4684 3150 
L 1459 2003 
L 4684 863 
L 4684 294 
L 678 1747 
L 678 2266 
L 4684 3719 
L 4684 3150 
z
" id="DejaVuSans-3c" transform="scale(0.015625)"/>
       <path d="M 750 794 
L 1409 794 
L 1409 256 
L 897 -744 
L 494 -744 
L 750 256 
L 750 794 
z
" id="DejaVuSans-2c" transform="scale(0.015625)"/>
       <path d="M 678 3150 
L 678 3719 
L 4684 2266 
L 4684 1747 
L 678 294 
L 678 863 
L 3897 2003 
L 678 3150 
z
" id="DejaVuSans-3e" transform="scale(0.015625)"/>
      </defs>
      <use xlink:href="#DejaVuSans-47"/>
      <use x="77.490234" xlink:href="#DejaVuSans-45"/>
      <use x="140.673828" xlink:href="#DejaVuSans-4d"/>
      <use x="226.953125" xlink:href="#DejaVuSans-56"/>
      <use x="295.361328" xlink:href="#DejaVuSans-20"/>
      <use x="327.148438" xlink:href="#DejaVuSans-41"/>
      <use x="393.806641" xlink:href="#DejaVuSans-63"/>
      <use x="448.787109" xlink:href="#DejaVuSans-63"/>
      <use x="503.767578" xlink:href="#DejaVuSans-65"/>
      <use x="565.291016" xlink:href="#DejaVuSans-73"/>
      <use x="617.390625" xlink:href="#DejaVuSans-73"/>
      <use x="669.490234" xlink:href="#DejaVuSans-6f"/>
      <use x="730.671875" xlink:href="#DejaVuSans-72"/>
      <use x="771.785156" xlink:href="#DejaVuSans-3c"/>
      <use x="855.574219" xlink:href="#DejaVuSans-66"/>
      <use x="890.779297" xlink:href="#DejaVuSans-70"/>
      <use x="954.255859" xlink:href="#DejaVuSans-36"/>
      <use x="1017.878906" xlink:href="#DejaVuSans-34"/>
      <use x="1081.501953" xlink:href="#DejaVuSans-2c"/>
      <use x="1113.289062" xlink:href="#DejaVuSans-20"/>
      <use x="1145.076172" xlink:href="#DejaVuSans-66"/>
      <use x="1180.28125" xlink:href="#DejaVuSans-70"/>
      <use x="1243.757812" xlink:href="#DejaVuSans-33"/>
      <use x="1307.380859" xlink:href="#DejaVuSans-32"/>
      <use x="1371.003906" xlink:href="#DejaVuSans-3e"/>
     </g>
    </g>
    <g id="line2d_40">
     <path d="M 332.700313 177.873281 
L 362.700313 177.873281 
" style="fill:none;stroke:#d95319;stroke-linecap:square;stroke-width:3;"/>
    </g>
    <g id="line2d_41">
     <g>
      <use style="fill:#d95319;stroke:#d95319;stroke-linejoin:miter;" x="347.700313" xlink:href="#m2987d67f1d" y="177.873281"/>
     </g>
    </g>
    <g id="text_20">
     <!-- GEMV cuBLAS fp64 -->
     <g transform="translate(374.700313 183.123281)scale(0.15 -0.15)">
      <defs>
       <path d="M 1259 2228 
L 1259 519 
L 2272 519 
Q 2781 519 3026 730 
Q 3272 941 3272 1375 
Q 3272 1813 3026 2020 
Q 2781 2228 2272 2228 
L 1259 2228 
z
M 1259 4147 
L 1259 2741 
L 2194 2741 
Q 2656 2741 2882 2914 
Q 3109 3088 3109 3444 
Q 3109 3797 2882 3972 
Q 2656 4147 2194 4147 
L 1259 4147 
z
M 628 4666 
L 2241 4666 
Q 2963 4666 3353 4366 
Q 3744 4066 3744 3513 
Q 3744 3084 3544 2831 
Q 3344 2578 2956 2516 
Q 3422 2416 3680 2098 
Q 3938 1781 3938 1306 
Q 3938 681 3513 340 
Q 3088 0 2303 0 
L 628 0 
L 628 4666 
z
" id="DejaVuSans-42" transform="scale(0.015625)"/>
       <path d="M 3425 4513 
L 3425 3897 
Q 3066 4069 2747 4153 
Q 2428 4238 2131 4238 
Q 1616 4238 1336 4038 
Q 1056 3838 1056 3469 
Q 1056 3159 1242 3001 
Q 1428 2844 1947 2747 
L 2328 2669 
Q 3034 2534 3370 2195 
Q 3706 1856 3706 1288 
Q 3706 609 3251 259 
Q 2797 -91 1919 -91 
Q 1588 -91 1214 -16 
Q 841 59 441 206 
L 441 856 
Q 825 641 1194 531 
Q 1563 422 1919 422 
Q 2459 422 2753 634 
Q 3047 847 3047 1241 
Q 3047 1584 2836 1778 
Q 2625 1972 2144 2069 
L 1759 2144 
Q 1053 2284 737 2584 
Q 422 2884 422 3419 
Q 422 4038 858 4394 
Q 1294 4750 2059 4750 
Q 2388 4750 2728 4690 
Q 3069 4631 3425 4513 
z
" id="DejaVuSans-53" transform="scale(0.015625)"/>
      </defs>
      <use xlink:href="#DejaVuSans-47"/>
      <use x="77.490234" xlink:href="#DejaVuSans-45"/>
      <use x="140.673828" xlink:href="#DejaVuSans-4d"/>
      <use x="226.953125" xlink:href="#DejaVuSans-56"/>
      <use x="295.361328" xlink:href="#DejaVuSans-20"/>
      <use x="327.148438" xlink:href="#DejaVuSans-63"/>
      <use x="382.128906" xlink:href="#DejaVuSans-75"/>
      <use x="445.507812" xlink:href="#DejaVuSans-42"/>
      <use x="514.111328" xlink:href="#DejaVuSans-4c"/>
      <use x="572.074219" xlink:href="#DejaVuSans-41"/>
      <use x="640.482422" xlink:href="#DejaVuSans-53"/>
      <use x="703.958984" xlink:href="#DejaVuSans-20"/>
      <use x="735.746094" xlink:href="#DejaVuSans-66"/>
      <use x="770.951172" xlink:href="#DejaVuSans-70"/>
      <use x="834.427734" xlink:href="#DejaVuSans-36"/>
      <use x="898.050781" xlink:href="#DejaVuSans-34"/>
     </g>
    </g>
    <g id="line2d_42">
     <path d="M 332.700313 199.890469 
L 362.700313 199.890469 
" style="fill:none;stroke:#7e2f8e;stroke-linecap:square;stroke-width:3;"/>
    </g>
    <g id="line2d_43">
     <g>
      <use style="fill:#7e2f8e;stroke:#7e2f8e;" x="347.700313" xlink:href="#m2166dbb825" y="199.890469"/>
     </g>
    </g>
    <g id="text_21">
     <!-- GEMV cuBLAS fp32 -->
     <g transform="translate(374.700313 205.140469)scale(0.15 -0.15)">
      <use xlink:href="#DejaVuSans-47"/>
      <use x="77.490234" xlink:href="#DejaVuSans-45"/>
      <use x="140.673828" xlink:href="#DejaVuSans-4d"/>
      <use x="226.953125" xlink:href="#DejaVuSans-56"/>
      <use x="295.361328" xlink:href="#DejaVuSans-20"/>
      <use x="327.148438" xlink:href="#DejaVuSans-63"/>
      <use x="382.128906" xlink:href="#DejaVuSans-75"/>
      <use x="445.507812" xlink:href="#DejaVuSans-42"/>
      <use x="514.111328" xlink:href="#DejaVuSans-4c"/>
      <use x="572.074219" xlink:href="#DejaVuSans-41"/>
      <use x="640.482422" xlink:href="#DejaVuSans-53"/>
      <use x="703.958984" xlink:href="#DejaVuSans-20"/>
      <use x="735.746094" xlink:href="#DejaVuSans-66"/>
      <use x="770.951172" xlink:href="#DejaVuSans-70"/>
      <use x="834.427734" xlink:href="#DejaVuSans-33"/>
      <use x="898.050781" xlink:href="#DejaVuSans-32"/>
     </g>
    </g>
   </g>
  </g>
 </g>
 <defs>
  <clipPath id="p92ceca2dff">
   <rect height="221.76" width="558" x="48.422187" y="-0"/>
  </clipPath>
 </defs>
</svg>
