<?xml version="1.0" encoding="utf-8" standalone="no"?>
<!DOCTYPE svg PUBLIC "-//W3C//DTD SVG 1.1//EN"
  "http://www.w3.org/Graphics/SVG/1.1/DTD/svg11.dtd">
<svg height="258.890938pt" version="1.1" viewBox="0 0 621.115984 258.890938" width="621.115984pt" xmlns="http://www.w3.org/2000/svg" xmlns:xlink="http://www.w3.org/1999/xlink">
 <metadata>
  <rdf:RDF xmlns:cc="http://creativecommons.org/ns#" xmlns:dc="http://purl.org/dc/elements/1.1/" xmlns:rdf="http://www.w3.org/1999/02/22-rdf-syntax-ns#">
   <cc:Work>
    <dc:type rdf:resource="http://purl.org/dc/dcmitype/StillImage"/>
    <dc:date>2022-02-09T18:25:24.040070</dc:date>
    <dc:format>image/svg+xml</dc:format>
    <dc:creator>
     <cc:Agent>
      <dc:title>Matplotlib v3.4.1, https://matplotlib.org/</dc:title>
     </cc:Agent>
    </dc:creator>
   </cc:Work>
  </rdf:RDF>
 </metadata>
 <defs>
  <style type="text/css">*{stroke-linecap:butt;stroke-linejoin:round;}</style>
 </defs>
 <g id="figure_1">
  <g id="patch_1">
   <path d="M 0 258.890938 
L 621.115984 258.890938 
L 621.115984 0 
L 0 0 
z
" style="fill:#ffffff;"/>
  </g>
  <g id="axes_1">
   <g id="patch_2">
    <path d="M 58.997188 221.76 
L 616.997187 221.76 
L 616.997187 0 
L 58.997188 0 
z
" style="fill:#ffffff;"/>
   </g>
   <g id="matplotlib.axis_1">
    <g id="xtick_1">
     <g id="line2d_1">
      <path clip-path="url(#pdab144259a)" d="M 82.281837 221.76 
L 82.281837 0 
" style="fill:none;stroke:#cccccc;stroke-linecap:square;"/>
     </g>
     <g id="line2d_2">
      <defs>
       <path d="M 0 0 
L 0 3.5 
" id="m5adcc75f39" style="stroke:#000000;stroke-width:0.8;"/>
      </defs>
      <g>
       <use style="stroke:#000000;stroke-width:0.8;" x="82.281837" xlink:href="#m5adcc75f39" y="221.76"/>
      </g>
     </g>
     <g id="text_1">
      <!-- 0 -->
      <g transform="translate(78.464337 237.878125)scale(0.12 -0.12)">
       <defs>
        <path d="M 2034 4250 
Q 1547 4250 1301 3770 
Q 1056 3291 1056 2328 
Q 1056 1369 1301 889 
Q 1547 409 2034 409 
Q 2525 409 2770 889 
Q 3016 1369 3016 2328 
Q 3016 3291 2770 3770 
Q 2525 4250 2034 4250 
z
M 2034 4750 
Q 2819 4750 3233 4129 
Q 3647 3509 3647 2328 
Q 3647 1150 3233 529 
Q 2819 -91 2034 -91 
Q 1250 -91 836 529 
Q 422 1150 422 2328 
Q 422 3509 836 4129 
Q 1250 4750 2034 4750 
z
" id="DejaVuSans-30" transform="scale(0.015625)"/>
       </defs>
       <use xlink:href="#DejaVuSans-30"/>
      </g>
     </g>
    </g>
    <g id="xtick_2">
     <g id="line2d_3">
      <path clip-path="url(#pdab144259a)" d="M 186.231167 221.76 
L 186.231167 0 
" style="fill:none;stroke:#cccccc;stroke-linecap:square;"/>
     </g>
     <g id="line2d_4">
      <g>
       <use style="stroke:#000000;stroke-width:0.8;" x="186.231167" xlink:href="#m5adcc75f39" y="221.76"/>
      </g>
     </g>
     <g id="text_2">
      <!-- 5000 -->
      <g transform="translate(170.961167 237.878125)scale(0.12 -0.12)">
       <defs>
        <path d="M 691 4666 
L 3169 4666 
L 3169 4134 
L 1269 4134 
L 1269 2991 
Q 1406 3038 1543 3061 
Q 1681 3084 1819 3084 
Q 2600 3084 3056 2656 
Q 3513 2228 3513 1497 
Q 3513 744 3044 326 
Q 2575 -91 1722 -91 
Q 1428 -91 1123 -41 
Q 819 9 494 109 
L 494 744 
Q 775 591 1075 516 
Q 1375 441 1709 441 
Q 2250 441 2565 725 
Q 2881 1009 2881 1497 
Q 2881 1984 2565 2268 
Q 2250 2553 1709 2553 
Q 1456 2553 1204 2497 
Q 953 2441 691 2322 
L 691 4666 
z
" id="DejaVuSans-35" transform="scale(0.015625)"/>
       </defs>
       <use xlink:href="#DejaVuSans-35"/>
       <use x="63.623047" xlink:href="#DejaVuSans-30"/>
       <use x="127.246094" xlink:href="#DejaVuSans-30"/>
       <use x="190.869141" xlink:href="#DejaVuSans-30"/>
      </g>
     </g>
    </g>
    <g id="xtick_3">
     <g id="line2d_5">
      <path clip-path="url(#pdab144259a)" d="M 290.180496 221.76 
L 290.180496 0 
" style="fill:none;stroke:#cccccc;stroke-linecap:square;"/>
     </g>
     <g id="line2d_6">
      <g>
       <use style="stroke:#000000;stroke-width:0.8;" x="290.180496" xlink:href="#m5adcc75f39" y="221.76"/>
      </g>
     </g>
     <g id="text_3">
      <!-- 10000 -->
      <g transform="translate(271.092996 237.878125)scale(0.12 -0.12)">
       <defs>
        <path d="M 794 531 
L 1825 531 
L 1825 4091 
L 703 3866 
L 703 4441 
L 1819 4666 
L 2450 4666 
L 2450 531 
L 3481 531 
L 3481 0 
L 794 0 
L 794 531 
z
" id="DejaVuSans-31" transform="scale(0.015625)"/>
       </defs>
       <use xlink:href="#DejaVuSans-31"/>
       <use x="63.623047" xlink:href="#DejaVuSans-30"/>
       <use x="127.246094" xlink:href="#DejaVuSans-30"/>
       <use x="190.869141" xlink:href="#DejaVuSans-30"/>
       <use x="254.492188" xlink:href="#DejaVuSans-30"/>
      </g>
     </g>
    </g>
    <g id="xtick_4">
     <g id="line2d_7">
      <path clip-path="url(#pdab144259a)" d="M 394.129825 221.76 
L 394.129825 0 
" style="fill:none;stroke:#cccccc;stroke-linecap:square;"/>
     </g>
     <g id="line2d_8">
      <g>
       <use style="stroke:#000000;stroke-width:0.8;" x="394.129825" xlink:href="#m5adcc75f39" y="221.76"/>
      </g>
     </g>
     <g id="text_4">
      <!-- 15000 -->
      <g transform="translate(375.042325 237.878125)scale(0.12 -0.12)">
       <use xlink:href="#DejaVuSans-31"/>
       <use x="63.623047" xlink:href="#DejaVuSans-35"/>
       <use x="127.246094" xlink:href="#DejaVuSans-30"/>
       <use x="190.869141" xlink:href="#DejaVuSans-30"/>
       <use x="254.492188" xlink:href="#DejaVuSans-30"/>
      </g>
     </g>
    </g>
    <g id="xtick_5">
     <g id="line2d_9">
      <path clip-path="url(#pdab144259a)" d="M 498.079155 221.76 
L 498.079155 0 
" style="fill:none;stroke:#cccccc;stroke-linecap:square;"/>
     </g>
     <g id="line2d_10">
      <g>
       <use style="stroke:#000000;stroke-width:0.8;" x="498.079155" xlink:href="#m5adcc75f39" y="221.76"/>
      </g>
     </g>
     <g id="text_5">
      <!-- 20000 -->
      <g transform="translate(478.991655 237.878125)scale(0.12 -0.12)">
       <defs>
        <path d="M 1228 531 
L 3431 531 
L 3431 0 
L 469 0 
L 469 531 
Q 828 903 1448 1529 
Q 2069 2156 2228 2338 
Q 2531 2678 2651 2914 
Q 2772 3150 2772 3378 
Q 2772 3750 2511 3984 
Q 2250 4219 1831 4219 
Q 1534 4219 1204 4116 
Q 875 4013 500 3803 
L 500 4441 
Q 881 4594 1212 4672 
Q 1544 4750 1819 4750 
Q 2544 4750 2975 4387 
Q 3406 4025 3406 3419 
Q 3406 3131 3298 2873 
Q 3191 2616 2906 2266 
Q 2828 2175 2409 1742 
Q 1991 1309 1228 531 
z
" id="DejaVuSans-32" transform="scale(0.015625)"/>
       </defs>
       <use xlink:href="#DejaVuSans-32"/>
       <use x="63.623047" xlink:href="#DejaVuSans-30"/>
       <use x="127.246094" xlink:href="#DejaVuSans-30"/>
       <use x="190.869141" xlink:href="#DejaVuSans-30"/>
       <use x="254.492188" xlink:href="#DejaVuSans-30"/>
      </g>
     </g>
    </g>
    <g id="xtick_6">
     <g id="line2d_11">
      <path clip-path="url(#pdab144259a)" d="M 602.028484 221.76 
L 602.028484 0 
" style="fill:none;stroke:#cccccc;stroke-linecap:square;"/>
     </g>
     <g id="line2d_12">
      <g>
       <use style="stroke:#000000;stroke-width:0.8;" x="602.028484" xlink:href="#m5adcc75f39" y="221.76"/>
      </g>
     </g>
     <g id="text_6">
      <!-- 25000 -->
      <g transform="translate(582.940984 237.878125)scale(0.12 -0.12)">
       <use xlink:href="#DejaVuSans-32"/>
       <use x="63.623047" xlink:href="#DejaVuSans-35"/>
       <use x="127.246094" xlink:href="#DejaVuSans-30"/>
       <use x="190.869141" xlink:href="#DejaVuSans-30"/>
       <use x="254.492188" xlink:href="#DejaVuSans-30"/>
      </g>
     </g>
    </g>
    <g id="text_7">
     <!-- Number of rows -->
     <g transform="translate(278.327656 255.771406)scale(0.15 -0.15)">
      <defs>
       <path d="M 628 4666 
L 1478 4666 
L 3547 763 
L 3547 4666 
L 4159 4666 
L 4159 0 
L 3309 0 
L 1241 3903 
L 1241 0 
L 628 0 
L 628 4666 
z
" id="DejaVuSans-4e" transform="scale(0.015625)"/>
       <path d="M 544 1381 
L 544 3500 
L 1119 3500 
L 1119 1403 
Q 1119 906 1312 657 
Q 1506 409 1894 409 
Q 2359 409 2629 706 
Q 2900 1003 2900 1516 
L 2900 3500 
L 3475 3500 
L 3475 0 
L 2900 0 
L 2900 538 
Q 2691 219 2414 64 
Q 2138 -91 1772 -91 
Q 1169 -91 856 284 
Q 544 659 544 1381 
z
M 1991 3584 
L 1991 3584 
z
" id="DejaVuSans-75" transform="scale(0.015625)"/>
       <path d="M 3328 2828 
Q 3544 3216 3844 3400 
Q 4144 3584 4550 3584 
Q 5097 3584 5394 3201 
Q 5691 2819 5691 2113 
L 5691 0 
L 5113 0 
L 5113 2094 
Q 5113 2597 4934 2840 
Q 4756 3084 4391 3084 
Q 3944 3084 3684 2787 
Q 3425 2491 3425 1978 
L 3425 0 
L 2847 0 
L 2847 2094 
Q 2847 2600 2669 2842 
Q 2491 3084 2119 3084 
Q 1678 3084 1418 2786 
Q 1159 2488 1159 1978 
L 1159 0 
L 581 0 
L 581 3500 
L 1159 3500 
L 1159 2956 
Q 1356 3278 1631 3431 
Q 1906 3584 2284 3584 
Q 2666 3584 2933 3390 
Q 3200 3197 3328 2828 
z
" id="DejaVuSans-6d" transform="scale(0.015625)"/>
       <path d="M 3116 1747 
Q 3116 2381 2855 2742 
Q 2594 3103 2138 3103 
Q 1681 3103 1420 2742 
Q 1159 2381 1159 1747 
Q 1159 1113 1420 752 
Q 1681 391 2138 391 
Q 2594 391 2855 752 
Q 3116 1113 3116 1747 
z
M 1159 2969 
Q 1341 3281 1617 3432 
Q 1894 3584 2278 3584 
Q 2916 3584 3314 3078 
Q 3713 2572 3713 1747 
Q 3713 922 3314 415 
Q 2916 -91 2278 -91 
Q 1894 -91 1617 61 
Q 1341 213 1159 525 
L 1159 0 
L 581 0 
L 581 4863 
L 1159 4863 
L 1159 2969 
z
" id="DejaVuSans-62" transform="scale(0.015625)"/>
       <path d="M 3597 1894 
L 3597 1613 
L 953 1613 
Q 991 1019 1311 708 
Q 1631 397 2203 397 
Q 2534 397 2845 478 
Q 3156 559 3463 722 
L 3463 178 
Q 3153 47 2828 -22 
Q 2503 -91 2169 -91 
Q 1331 -91 842 396 
Q 353 884 353 1716 
Q 353 2575 817 3079 
Q 1281 3584 2069 3584 
Q 2775 3584 3186 3129 
Q 3597 2675 3597 1894 
z
M 3022 2063 
Q 3016 2534 2758 2815 
Q 2500 3097 2075 3097 
Q 1594 3097 1305 2825 
Q 1016 2553 972 2059 
L 3022 2063 
z
" id="DejaVuSans-65" transform="scale(0.015625)"/>
       <path d="M 2631 2963 
Q 2534 3019 2420 3045 
Q 2306 3072 2169 3072 
Q 1681 3072 1420 2755 
Q 1159 2438 1159 1844 
L 1159 0 
L 581 0 
L 581 3500 
L 1159 3500 
L 1159 2956 
Q 1341 3275 1631 3429 
Q 1922 3584 2338 3584 
Q 2397 3584 2469 3576 
Q 2541 3569 2628 3553 
L 2631 2963 
z
" id="DejaVuSans-72" transform="scale(0.015625)"/>
       <path id="DejaVuSans-20" transform="scale(0.015625)"/>
       <path d="M 1959 3097 
Q 1497 3097 1228 2736 
Q 959 2375 959 1747 
Q 959 1119 1226 758 
Q 1494 397 1959 397 
Q 2419 397 2687 759 
Q 2956 1122 2956 1747 
Q 2956 2369 2687 2733 
Q 2419 3097 1959 3097 
z
M 1959 3584 
Q 2709 3584 3137 3096 
Q 3566 2609 3566 1747 
Q 3566 888 3137 398 
Q 2709 -91 1959 -91 
Q 1206 -91 779 398 
Q 353 888 353 1747 
Q 353 2609 779 3096 
Q 1206 3584 1959 3584 
z
" id="DejaVuSans-6f" transform="scale(0.015625)"/>
       <path d="M 2375 4863 
L 2375 4384 
L 1825 4384 
Q 1516 4384 1395 4259 
Q 1275 4134 1275 3809 
L 1275 3500 
L 2222 3500 
L 2222 3053 
L 1275 3053 
L 1275 0 
L 697 0 
L 697 3053 
L 147 3053 
L 147 3500 
L 697 3500 
L 697 3744 
Q 697 4328 969 4595 
Q 1241 4863 1831 4863 
L 2375 4863 
z
" id="DejaVuSans-66" transform="scale(0.015625)"/>
       <path d="M 269 3500 
L 844 3500 
L 1563 769 
L 2278 3500 
L 2956 3500 
L 3675 769 
L 4391 3500 
L 4966 3500 
L 4050 0 
L 3372 0 
L 2619 2869 
L 1863 0 
L 1184 0 
L 269 3500 
z
" id="DejaVuSans-77" transform="scale(0.015625)"/>
       <path d="M 2834 3397 
L 2834 2853 
Q 2591 2978 2328 3040 
Q 2066 3103 1784 3103 
Q 1356 3103 1142 2972 
Q 928 2841 928 2578 
Q 928 2378 1081 2264 
Q 1234 2150 1697 2047 
L 1894 2003 
Q 2506 1872 2764 1633 
Q 3022 1394 3022 966 
Q 3022 478 2636 193 
Q 2250 -91 1575 -91 
Q 1294 -91 989 -36 
Q 684 19 347 128 
L 347 722 
Q 666 556 975 473 
Q 1284 391 1588 391 
Q 1994 391 2212 530 
Q 2431 669 2431 922 
Q 2431 1156 2273 1281 
Q 2116 1406 1581 1522 
L 1381 1569 
Q 847 1681 609 1914 
Q 372 2147 372 2553 
Q 372 3047 722 3315 
Q 1072 3584 1716 3584 
Q 2034 3584 2315 3537 
Q 2597 3491 2834 3397 
z
" id="DejaVuSans-73" transform="scale(0.015625)"/>
      </defs>
      <use xlink:href="#DejaVuSans-4e"/>
      <use x="74.804688" xlink:href="#DejaVuSans-75"/>
      <use x="138.183594" xlink:href="#DejaVuSans-6d"/>
      <use x="235.595703" xlink:href="#DejaVuSans-62"/>
      <use x="299.072266" xlink:href="#DejaVuSans-65"/>
      <use x="360.595703" xlink:href="#DejaVuSans-72"/>
      <use x="401.708984" xlink:href="#DejaVuSans-20"/>
      <use x="433.496094" xlink:href="#DejaVuSans-6f"/>
      <use x="494.677734" xlink:href="#DejaVuSans-66"/>
      <use x="529.882812" xlink:href="#DejaVuSans-20"/>
      <use x="561.669922" xlink:href="#DejaVuSans-72"/>
      <use x="600.533203" xlink:href="#DejaVuSans-6f"/>
      <use x="661.714844" xlink:href="#DejaVuSans-77"/>
      <use x="743.501953" xlink:href="#DejaVuSans-73"/>
     </g>
    </g>
   </g>
   <g id="matplotlib.axis_2">
    <g id="ytick_1">
     <g id="line2d_13">
      <path clip-path="url(#pdab144259a)" d="M 58.997188 192.035892 
L 616.997187 192.035892 
" style="fill:none;stroke:#cccccc;stroke-linecap:square;"/>
     </g>
     <g id="line2d_14">
      <defs>
       <path d="M 0 0 
L -3.5 0 
" id="m914552353f" style="stroke:#000000;stroke-width:0.8;"/>
      </defs>
      <g>
       <use style="stroke:#000000;stroke-width:0.8;" x="58.997188" xlink:href="#m914552353f" y="192.035892"/>
      </g>
     </g>
     <g id="text_8">
      <!-- $\mathdefault{10^{-15}}$ -->
      <g transform="translate(18.517188 196.594955)scale(0.12 -0.12)">
       <defs>
        <path d="M 678 2272 
L 4684 2272 
L 4684 1741 
L 678 1741 
L 678 2272 
z
" id="DejaVuSans-2212" transform="scale(0.015625)"/>
       </defs>
       <use transform="translate(0 0.684375)" xlink:href="#DejaVuSans-31"/>
       <use transform="translate(63.623047 0.684375)" xlink:href="#DejaVuSans-30"/>
       <use transform="translate(128.203125 38.965625)scale(0.7)" xlink:href="#DejaVuSans-2212"/>
       <use transform="translate(186.855469 38.965625)scale(0.7)" xlink:href="#DejaVuSans-31"/>
       <use transform="translate(231.391602 38.965625)scale(0.7)" xlink:href="#DejaVuSans-35"/>
      </g>
     </g>
    </g>
    <g id="ytick_2">
     <g id="line2d_15">
      <path clip-path="url(#pdab144259a)" d="M 58.997188 147.765159 
L 616.997187 147.765159 
" style="fill:none;stroke:#cccccc;stroke-linecap:square;"/>
     </g>
     <g id="line2d_16">
      <g>
       <use style="stroke:#000000;stroke-width:0.8;" x="58.997188" xlink:href="#m914552353f" y="147.765159"/>
      </g>
     </g>
     <g id="text_9">
      <!-- $\mathdefault{10^{-13}}$ -->
      <g transform="translate(18.517188 152.324221)scale(0.12 -0.12)">
       <defs>
        <path d="M 2597 2516 
Q 3050 2419 3304 2112 
Q 3559 1806 3559 1356 
Q 3559 666 3084 287 
Q 2609 -91 1734 -91 
Q 1441 -91 1130 -33 
Q 819 25 488 141 
L 488 750 
Q 750 597 1062 519 
Q 1375 441 1716 441 
Q 2309 441 2620 675 
Q 2931 909 2931 1356 
Q 2931 1769 2642 2001 
Q 2353 2234 1838 2234 
L 1294 2234 
L 1294 2753 
L 1863 2753 
Q 2328 2753 2575 2939 
Q 2822 3125 2822 3475 
Q 2822 3834 2567 4026 
Q 2313 4219 1838 4219 
Q 1578 4219 1281 4162 
Q 984 4106 628 3988 
L 628 4550 
Q 988 4650 1302 4700 
Q 1616 4750 1894 4750 
Q 2613 4750 3031 4423 
Q 3450 4097 3450 3541 
Q 3450 3153 3228 2886 
Q 3006 2619 2597 2516 
z
" id="DejaVuSans-33" transform="scale(0.015625)"/>
       </defs>
       <use transform="translate(0 0.765625)" xlink:href="#DejaVuSans-31"/>
       <use transform="translate(63.623047 0.765625)" xlink:href="#DejaVuSans-30"/>
       <use transform="translate(128.203125 39.046875)scale(0.7)" xlink:href="#DejaVuSans-2212"/>
       <use transform="translate(186.855469 39.046875)scale(0.7)" xlink:href="#DejaVuSans-31"/>
       <use transform="translate(231.391602 39.046875)scale(0.7)" xlink:href="#DejaVuSans-33"/>
      </g>
     </g>
    </g>
    <g id="ytick_3">
     <g id="line2d_17">
      <path clip-path="url(#pdab144259a)" d="M 58.997188 103.494425 
L 616.997187 103.494425 
" style="fill:none;stroke:#cccccc;stroke-linecap:square;"/>
     </g>
     <g id="line2d_18">
      <g>
       <use style="stroke:#000000;stroke-width:0.8;" x="58.997188" xlink:href="#m914552353f" y="103.494425"/>
      </g>
     </g>
     <g id="text_10">
      <!-- $\mathdefault{10^{-11}}$ -->
      <g transform="translate(18.517188 108.053487)scale(0.12 -0.12)">
       <use transform="translate(0 0.684375)" xlink:href="#DejaVuSans-31"/>
       <use transform="translate(63.623047 0.684375)" xlink:href="#DejaVuSans-30"/>
       <use transform="translate(128.203125 38.965625)scale(0.7)" xlink:href="#DejaVuSans-2212"/>
       <use transform="translate(186.855469 38.965625)scale(0.7)" xlink:href="#DejaVuSans-31"/>
       <use transform="translate(231.391602 38.965625)scale(0.7)" xlink:href="#DejaVuSans-31"/>
      </g>
     </g>
    </g>
    <g id="ytick_4">
     <g id="line2d_19">
      <path clip-path="url(#pdab144259a)" d="M 58.997188 59.223691 
L 616.997187 59.223691 
" style="fill:none;stroke:#cccccc;stroke-linecap:square;"/>
     </g>
     <g id="line2d_20">
      <g>
       <use style="stroke:#000000;stroke-width:0.8;" x="58.997188" xlink:href="#m914552353f" y="59.223691"/>
      </g>
     </g>
     <g id="text_11">
      <!-- $\mathdefault{10^{-9}}$ -->
      <g transform="translate(23.797188 63.782754)scale(0.12 -0.12)">
       <defs>
        <path d="M 703 97 
L 703 672 
Q 941 559 1184 500 
Q 1428 441 1663 441 
Q 2288 441 2617 861 
Q 2947 1281 2994 2138 
Q 2813 1869 2534 1725 
Q 2256 1581 1919 1581 
Q 1219 1581 811 2004 
Q 403 2428 403 3163 
Q 403 3881 828 4315 
Q 1253 4750 1959 4750 
Q 2769 4750 3195 4129 
Q 3622 3509 3622 2328 
Q 3622 1225 3098 567 
Q 2575 -91 1691 -91 
Q 1453 -91 1209 -44 
Q 966 3 703 97 
z
M 1959 2075 
Q 2384 2075 2632 2365 
Q 2881 2656 2881 3163 
Q 2881 3666 2632 3958 
Q 2384 4250 1959 4250 
Q 1534 4250 1286 3958 
Q 1038 3666 1038 3163 
Q 1038 2656 1286 2365 
Q 1534 2075 1959 2075 
z
" id="DejaVuSans-39" transform="scale(0.015625)"/>
       </defs>
       <use transform="translate(0 0.765625)" xlink:href="#DejaVuSans-31"/>
       <use transform="translate(63.623047 0.765625)" xlink:href="#DejaVuSans-30"/>
       <use transform="translate(128.203125 39.046875)scale(0.7)" xlink:href="#DejaVuSans-2212"/>
       <use transform="translate(186.855469 39.046875)scale(0.7)" xlink:href="#DejaVuSans-39"/>
      </g>
     </g>
    </g>
    <g id="ytick_5">
     <g id="line2d_21">
      <path clip-path="url(#pdab144259a)" d="M 58.997188 14.952958 
L 616.997187 14.952958 
" style="fill:none;stroke:#cccccc;stroke-linecap:square;"/>
     </g>
     <g id="line2d_22">
      <g>
       <use style="stroke:#000000;stroke-width:0.8;" x="58.997188" xlink:href="#m914552353f" y="14.952958"/>
      </g>
     </g>
     <g id="text_12">
      <!-- $\mathdefault{10^{-7}}$ -->
      <g transform="translate(23.797188 19.51202)scale(0.12 -0.12)">
       <defs>
        <path d="M 525 4666 
L 3525 4666 
L 3525 4397 
L 1831 0 
L 1172 0 
L 2766 4134 
L 525 4134 
L 525 4666 
z
" id="DejaVuSans-37" transform="scale(0.015625)"/>
       </defs>
       <use transform="translate(0 0.684375)" xlink:href="#DejaVuSans-31"/>
       <use transform="translate(63.623047 0.684375)" xlink:href="#DejaVuSans-30"/>
       <use transform="translate(128.203125 38.965625)scale(0.7)" xlink:href="#DejaVuSans-2212"/>
       <use transform="translate(186.855469 38.965625)scale(0.7)" xlink:href="#DejaVuSans-37"/>
      </g>
     </g>
    </g>
    <g id="text_13">
     <!-- Relative error -->
     <g transform="translate(11.397656 161.663203)rotate(-90)scale(0.15 -0.15)">
      <defs>
       <path d="M 2841 2188 
Q 3044 2119 3236 1894 
Q 3428 1669 3622 1275 
L 4263 0 
L 3584 0 
L 2988 1197 
Q 2756 1666 2539 1819 
Q 2322 1972 1947 1972 
L 1259 1972 
L 1259 0 
L 628 0 
L 628 4666 
L 2053 4666 
Q 2853 4666 3247 4331 
Q 3641 3997 3641 3322 
Q 3641 2881 3436 2590 
Q 3231 2300 2841 2188 
z
M 1259 4147 
L 1259 2491 
L 2053 2491 
Q 2509 2491 2742 2702 
Q 2975 2913 2975 3322 
Q 2975 3731 2742 3939 
Q 2509 4147 2053 4147 
L 1259 4147 
z
" id="DejaVuSans-52" transform="scale(0.015625)"/>
       <path d="M 603 4863 
L 1178 4863 
L 1178 0 
L 603 0 
L 603 4863 
z
" id="DejaVuSans-6c" transform="scale(0.015625)"/>
       <path d="M 2194 1759 
Q 1497 1759 1228 1600 
Q 959 1441 959 1056 
Q 959 750 1161 570 
Q 1363 391 1709 391 
Q 2188 391 2477 730 
Q 2766 1069 2766 1631 
L 2766 1759 
L 2194 1759 
z
M 3341 1997 
L 3341 0 
L 2766 0 
L 2766 531 
Q 2569 213 2275 61 
Q 1981 -91 1556 -91 
Q 1019 -91 701 211 
Q 384 513 384 1019 
Q 384 1609 779 1909 
Q 1175 2209 1959 2209 
L 2766 2209 
L 2766 2266 
Q 2766 2663 2505 2880 
Q 2244 3097 1772 3097 
Q 1472 3097 1187 3025 
Q 903 2953 641 2809 
L 641 3341 
Q 956 3463 1253 3523 
Q 1550 3584 1831 3584 
Q 2591 3584 2966 3190 
Q 3341 2797 3341 1997 
z
" id="DejaVuSans-61" transform="scale(0.015625)"/>
       <path d="M 1172 4494 
L 1172 3500 
L 2356 3500 
L 2356 3053 
L 1172 3053 
L 1172 1153 
Q 1172 725 1289 603 
Q 1406 481 1766 481 
L 2356 481 
L 2356 0 
L 1766 0 
Q 1100 0 847 248 
Q 594 497 594 1153 
L 594 3053 
L 172 3053 
L 172 3500 
L 594 3500 
L 594 4494 
L 1172 4494 
z
" id="DejaVuSans-74" transform="scale(0.015625)"/>
       <path d="M 603 3500 
L 1178 3500 
L 1178 0 
L 603 0 
L 603 3500 
z
M 603 4863 
L 1178 4863 
L 1178 4134 
L 603 4134 
L 603 4863 
z
" id="DejaVuSans-69" transform="scale(0.015625)"/>
       <path d="M 191 3500 
L 800 3500 
L 1894 563 
L 2988 3500 
L 3597 3500 
L 2284 0 
L 1503 0 
L 191 3500 
z
" id="DejaVuSans-76" transform="scale(0.015625)"/>
      </defs>
      <use xlink:href="#DejaVuSans-52"/>
      <use x="64.982422" xlink:href="#DejaVuSans-65"/>
      <use x="126.505859" xlink:href="#DejaVuSans-6c"/>
      <use x="154.289062" xlink:href="#DejaVuSans-61"/>
      <use x="215.568359" xlink:href="#DejaVuSans-74"/>
      <use x="254.777344" xlink:href="#DejaVuSans-69"/>
      <use x="282.560547" xlink:href="#DejaVuSans-76"/>
      <use x="341.740234" xlink:href="#DejaVuSans-65"/>
      <use x="403.263672" xlink:href="#DejaVuSans-20"/>
      <use x="435.050781" xlink:href="#DejaVuSans-65"/>
      <use x="496.574219" xlink:href="#DejaVuSans-72"/>
      <use x="535.9375" xlink:href="#DejaVuSans-72"/>
      <use x="574.800781" xlink:href="#DejaVuSans-6f"/>
      <use x="635.982422" xlink:href="#DejaVuSans-72"/>
     </g>
    </g>
   </g>
   <g id="patch_3">
    <path d="M 58.997188 221.76 
L 58.997188 -0 
" style="fill:none;stroke:#000000;stroke-linecap:square;stroke-linejoin:miter;stroke-width:0.8;"/>
   </g>
   <g id="patch_4">
    <path d="M 616.997187 221.76 
L 616.997187 -0 
" style="fill:none;stroke:#000000;stroke-linecap:square;stroke-linejoin:miter;stroke-width:0.8;"/>
   </g>
   <g id="patch_5">
    <path d="M 58.997188 221.76 
L 616.997187 221.76 
" style="fill:none;stroke:#000000;stroke-linecap:square;stroke-linejoin:miter;stroke-width:0.8;"/>
   </g>
   <g id="patch_6">
    <path d="M 58.997188 0 
L 616.997187 0 
" style="fill:none;stroke:#000000;stroke-linecap:square;stroke-linejoin:miter;stroke-width:0.8;"/>
   </g>
   <g id="line2d_23">
    <path clip-path="url(#pdab144259a)" d="M 84.360824 16.627901 
L 86.43981 15.384296 
L 88.518797 15.768607 
L 90.597784 15.212268 
L 92.67677 15.818605 
L 94.755757 15.835719 
L 96.834743 15.711455 
L 98.91373 15.790922 
L 100.992717 15.400103 
L 103.071703 15.461062 
L 107.229676 15.174439 
L 109.308663 15.776258 
L 111.387649 15.214013 
L 113.466636 15.366237 
L 115.545623 15.259388 
L 117.624609 15.016695 
L 119.703596 15.24091 
L 121.782582 15.041362 
L 123.861569 15.047023 
L 125.940556 14.64535 
L 128.019542 15.001602 
L 132.177515 14.694613 
L 140.493462 14.883038 
L 142.572448 14.401304 
L 144.651435 14.774316 
L 146.730421 14.73341 
L 148.809408 14.4317 
L 150.888395 14.336749 
L 152.967381 14.366854 
L 155.046368 14.217008 
L 157.125354 14.682023 
L 161.283328 14.29896 
L 165.441301 14.527867 
L 167.520287 14.492456 
L 169.599274 14.085636 
L 173.757247 14.489755 
L 175.836234 14.249811 
L 179.994207 14.311042 
L 182.073193 14.442104 
L 186.231167 14.121574 
L 188.310153 14.034014 
L 192.468126 14.247992 
L 196.6261 14.034873 
L 204.942046 13.887232 
L 211.179006 13.718248 
L 213.257992 13.879847 
L 215.336979 13.767083 
L 219.494952 13.789093 
L 221.573939 13.490705 
L 223.652925 13.796246 
L 225.731912 13.740893 
L 227.810898 13.815711 
L 229.889885 13.729513 
L 231.968872 13.451455 
L 234.047858 13.536228 
L 236.126845 13.348005 
L 238.205831 13.681281 
L 244.442791 13.362684 
L 246.521778 13.584213 
L 248.600764 13.525113 
L 250.679751 13.313431 
L 256.916711 13.495539 
L 258.995697 13.380039 
L 263.15367 13.49871 
L 265.232657 13.278138 
L 273.548603 13.394952 
L 275.62759 13.172321 
L 277.706576 13.097404 
L 279.785563 13.245341 
L 283.943536 13.162405 
L 286.022523 13.008256 
L 288.101509 13.082481 
L 290.180496 13.030468 
L 292.259483 13.09405 
L 296.417456 12.888593 
L 298.496442 12.970104 
L 300.575429 12.875952 
L 306.812389 12.953011 
L 313.049348 12.794999 
L 317.207322 12.864652 
L 319.286308 12.835192 
L 321.365295 12.617887 
L 323.444281 12.742955 
L 329.681241 12.699843 
L 331.760228 12.764243 
L 333.839214 12.563498 
L 335.918201 12.657881 
L 337.997187 12.539202 
L 340.076174 12.664583 
L 352.550094 12.529901 
L 367.103 12.296544 
L 371.260973 12.390538 
L 375.418946 12.314765 
L 377.497933 12.252818 
L 379.576919 12.35779 
L 381.655906 12.224335 
L 389.971852 12.188687 
L 394.129825 12.188304 
L 583.317605 10.889771 
L 587.475578 10.870218 
L 589.554565 10.801769 
L 591.633551 10.866968 
L 591.633551 10.866968 
" style="fill:none;stroke:#77ac30;stroke-linecap:square;stroke-width:3;"/>
    <defs>
     <path d="M -1.666667 5 
L 1.666667 5 
L 1.666667 1.666667 
L 5 1.666667 
L 5 -1.666667 
L 1.666667 -1.666667 
L 1.666667 -5 
L -1.666667 -5 
L -1.666667 -1.666667 
L -5 -1.666667 
L -5 1.666667 
L -1.666667 1.666667 
z
" id="mce8c2906a4" style="stroke:#77ac30;stroke-linejoin:miter;"/>
    </defs>
    <g clip-path="url(#pdab144259a)">
     <use style="fill:#77ac30;stroke:#77ac30;stroke-linejoin:miter;" x="84.360824" xlink:href="#mce8c2906a4" y="16.627901"/>
     <use style="fill:#77ac30;stroke:#77ac30;stroke-linejoin:miter;" x="186.231167" xlink:href="#mce8c2906a4" y="14.121574"/>
     <use style="fill:#77ac30;stroke:#77ac30;stroke-linejoin:miter;" x="288.101509" xlink:href="#mce8c2906a4" y="13.082481"/>
     <use style="fill:#77ac30;stroke:#77ac30;stroke-linejoin:miter;" x="389.971852" xlink:href="#mce8c2906a4" y="12.188687"/>
     <use style="fill:#77ac30;stroke:#77ac30;stroke-linejoin:miter;" x="491.842195" xlink:href="#mce8c2906a4" y="11.44803"/>
    </g>
   </g>
   <g id="line2d_24">
    <path clip-path="url(#pdab144259a)" d="M 84.360824 23.586819 
L 86.43981 24.143002 
L 88.518797 24.210042 
L 90.597784 23.249348 
L 92.67677 23.939982 
L 94.755757 24.351584 
L 96.834743 24.093727 
L 98.91373 24.170702 
L 103.071703 23.891401 
L 105.15069 24.141955 
L 107.229676 23.958509 
L 109.308663 24.034357 
L 111.387649 23.778977 
L 117.624609 23.748117 
L 119.703596 23.855616 
L 121.782582 23.583226 
L 125.940556 23.813842 
L 128.019542 23.555031 
L 130.098529 23.762506 
L 136.335489 23.508532 
L 138.414475 23.794832 
L 142.572448 23.574295 
L 148.809408 23.754418 
L 152.967381 23.533713 
L 155.046368 23.741192 
L 159.204341 23.61834 
L 161.283328 23.797007 
L 163.362314 23.60529 
L 165.441301 23.728933 
L 175.836234 23.753061 
L 177.91522 23.972787 
L 179.994207 23.707229 
L 182.073193 23.882737 
L 184.15218 23.906633 
L 186.231167 23.773729 
L 196.6261 23.819816 
L 200.784073 23.673682 
L 202.863059 23.835981 
L 207.021033 23.746166 
L 209.100019 23.820179 
L 211.179006 23.683396 
L 213.257992 23.70473 
L 215.336979 23.594584 
L 217.415965 23.81876 
L 219.494952 23.667339 
L 244.442791 23.658847 
L 246.521778 23.750262 
L 248.600764 23.609371 
L 252.758737 23.743431 
L 261.074684 23.643623 
L 265.232657 23.857088 
L 267.311644 23.68352 
L 273.548603 23.717795 
L 275.62759 23.623537 
L 277.706576 23.850482 
L 286.022523 23.636565 
L 288.101509 23.840918 
L 296.417456 23.674304 
L 298.496442 23.865357 
L 300.575429 23.700355 
L 302.654416 23.800144 
L 306.812389 23.600694 
L 308.891375 23.810087 
L 313.049348 23.683647 
L 315.128335 23.776575 
L 325.523268 23.691956 
L 340.076174 23.756367 
L 344.234147 23.724228 
L 350.471107 23.65618 
L 352.550094 23.839811 
L 354.62908 23.673579 
L 381.655906 23.744734 
L 387.892866 23.687643 
L 389.971852 23.805494 
L 392.050839 23.702784 
L 394.129825 23.800004 
L 398.287799 23.669998 
L 406.603745 23.752782 
L 410.761718 23.70799 
L 416.998678 23.780745 
L 425.314624 23.707727 
L 439.86753 23.776381 
L 444.025503 23.702936 
L 450.262463 23.797452 
L 452.34145 23.71414 
L 454.420436 23.794752 
L 458.57841 23.757426 
L 471.052329 23.745619 
L 516.790034 23.798726 
L 518.869021 23.697077 
L 523.026994 23.846816 
L 525.10598 23.723722 
L 531.34294 23.799428 
L 566.685712 23.811779 
L 568.764699 23.740872 
L 572.922672 23.859824 
L 575.001658 23.7975 
L 579.159632 23.834228 
L 591.633551 23.808277 
L 591.633551 23.808277 
" style="fill:none;stroke:#0072bd;stroke-linecap:square;stroke-width:3;"/>
    <defs>
     <path d="M -5 5 
L 5 -5 
M -5 -5 
L 5 5 
" id="m82491f5f4e" style="stroke:#0072bd;"/>
    </defs>
    <g clip-path="url(#pdab144259a)">
     <use style="fill:#0072bd;stroke:#0072bd;" x="109.308663" xlink:href="#m82491f5f4e" y="24.034357"/>
     <use style="fill:#0072bd;stroke:#0072bd;" x="211.179006" xlink:href="#m82491f5f4e" y="23.683396"/>
     <use style="fill:#0072bd;stroke:#0072bd;" x="313.049348" xlink:href="#m82491f5f4e" y="23.683647"/>
     <use style="fill:#0072bd;stroke:#0072bd;" x="414.919691" xlink:href="#m82491f5f4e" y="23.783647"/>
     <use style="fill:#0072bd;stroke:#0072bd;" x="516.790034" xlink:href="#m82491f5f4e" y="23.798726"/>
    </g>
   </g>
   <g id="line2d_25">
    <path clip-path="url(#pdab144259a)" d="M 84.360824 211.68 
L 86.43981 205.634862 
L 88.518797 204.729868 
L 90.597784 205.327795 
L 92.67677 204.505325 
L 94.755757 204.168606 
L 98.91373 205.119241 
L 103.071703 204.151503 
L 105.15069 204.125681 
L 107.229676 203.925478 
L 109.308663 203.963526 
L 111.387649 204.135728 
L 113.466636 204.024984 
L 115.545623 203.748378 
L 117.624609 204.111284 
L 121.782582 203.877061 
L 123.861569 204.19607 
L 125.940556 203.875555 
L 132.177515 203.54933 
L 134.256502 203.622852 
L 136.335489 203.188125 
L 140.493462 203.466934 
L 142.572448 203.557116 
L 144.651435 203.534706 
L 146.730421 203.304257 
L 148.809408 203.402776 
L 150.888395 203.311489 
L 152.967381 203.537445 
L 155.046368 203.441769 
L 157.125354 203.221774 
L 159.204341 203.554717 
L 161.283328 203.380447 
L 167.520287 203.168149 
L 169.599274 203.087111 
L 171.678261 203.304613 
L 173.757247 203.081196 
L 175.836234 203.254365 
L 182.073193 203.03501 
L 188.310153 203.163806 
L 190.38914 202.984737 
L 196.6261 203.043654 
L 198.705086 202.802765 
L 200.784073 202.947584 
L 202.863059 202.80519 
L 207.021033 203.108492 
L 211.179006 202.795434 
L 215.336979 202.548464 
L 217.415965 202.747819 
L 219.494952 202.804191 
L 221.573939 202.620859 
L 223.652925 202.599723 
L 225.731912 202.798939 
L 231.968872 202.54529 
L 234.047858 203.243023 
L 238.205831 203.148963 
L 240.284818 203.284555 
L 242.363804 203.198562 
L 244.442791 203.322882 
L 246.521778 203.019812 
L 248.600764 203.221255 
L 250.679751 203.163041 
L 252.758737 202.992885 
L 256.916711 203.227263 
L 258.995697 203.016453 
L 261.074684 203.039026 
L 263.15367 202.899716 
L 267.311644 203.021895 
L 269.39063 202.885152 
L 271.469617 203.094165 
L 277.706576 202.90274 
L 279.785563 203.068681 
L 281.86455 202.816392 
L 283.943536 202.775034 
L 286.022523 202.951748 
L 288.101509 202.767028 
L 290.180496 202.851721 
L 292.259483 202.661028 
L 294.338469 202.977994 
L 296.417456 202.729055 
L 298.496442 202.888724 
L 302.654416 202.648354 
L 304.733402 202.791505 
L 315.128335 202.844318 
L 317.207322 202.747728 
L 319.286308 202.86709 
L 325.523268 202.704862 
L 327.602255 202.770134 
L 329.681241 202.630783 
L 352.550094 202.392325 
L 356.708067 202.442045 
L 358.787053 202.317449 
L 360.86604 202.484578 
L 375.418946 202.401788 
L 379.576919 202.240397 
L 383.734892 202.204112 
L 385.813879 202.353099 
L 389.971852 202.133617 
L 396.208812 202.205923 
L 398.287799 202.090867 
L 400.366785 202.195149 
L 402.445772 202.156056 
L 404.524758 201.976598 
L 419.077664 202.100596 
L 425.314624 201.904042 
L 437.788544 201.959108 
L 439.86753 201.877907 
L 441.946517 201.938433 
L 444.025503 201.875733 
L 448.183477 201.943954 
L 452.34145 201.910225 
L 458.57841 202.023606 
L 460.657396 201.862848 
L 464.815369 201.941146 
L 466.894356 201.726016 
L 468.973342 201.795299 
L 471.052329 201.723008 
L 475.210302 201.7549 
L 477.289289 201.653412 
L 479.368275 201.877348 
L 485.605235 201.81294 
L 487.684222 201.619502 
L 496.000168 201.768539 
L 498.079155 201.682523 
L 500.158141 201.734319 
L 506.395101 201.599082 
L 510.553074 201.593661 
L 512.632061 201.6735 
L 516.790034 201.527458 
L 518.869021 201.592405 
L 520.948007 201.42859 
L 523.026994 201.517684 
L 525.10598 201.488111 
L 529.263954 201.649529 
L 531.34294 201.464257 
L 533.421927 201.481964 
L 535.500913 201.37985 
L 539.658886 201.445516 
L 547.974833 201.466666 
L 550.053819 201.37429 
L 554.211793 201.430067 
L 556.290779 201.401617 
L 558.369766 201.155277 
L 562.527739 201.064745 
L 564.606726 201.191972 
L 577.080645 201.087558 
L 579.159632 201.166508 
L 585.396591 201.073732 
L 591.633551 201.097807 
L 591.633551 201.097807 
" style="fill:none;stroke:#d95319;stroke-linecap:square;stroke-width:3;"/>
    <defs>
     <path d="M -0 7.071068 
L 4.242641 0 
L -0 -7.071068 
L -4.242641 -0 
z
" id="me53b209d18" style="stroke:#d95319;stroke-linejoin:miter;"/>
    </defs>
    <g clip-path="url(#pdab144259a)">
     <use style="fill:#d95319;stroke:#d95319;stroke-linejoin:miter;" x="134.256502" xlink:href="#me53b209d18" y="203.622852"/>
     <use style="fill:#d95319;stroke:#d95319;stroke-linejoin:miter;" x="236.126845" xlink:href="#me53b209d18" y="203.21409"/>
     <use style="fill:#d95319;stroke:#d95319;stroke-linejoin:miter;" x="337.997187" xlink:href="#me53b209d18" y="202.419632"/>
     <use style="fill:#d95319;stroke:#d95319;stroke-linejoin:miter;" x="439.86753" xlink:href="#me53b209d18" y="201.877907"/>
     <use style="fill:#d95319;stroke:#d95319;stroke-linejoin:miter;" x="541.737873" xlink:href="#me53b209d18" y="201.471262"/>
    </g>
   </g>
   <g id="line2d_26">
    <path clip-path="url(#pdab144259a)" d="M 84.360824 15.777604 
L 86.43981 14.141444 
L 88.518797 12.954776 
L 90.597784 14.647119 
L 92.67677 12.163183 
L 96.834743 12.537763 
L 98.91373 12.91907 
L 100.992717 12.764385 
L 103.071703 11.961194 
L 107.229676 12.281235 
L 111.387649 12.556747 
L 115.545623 12.181201 
L 117.624609 12.158295 
L 119.703596 12.368821 
L 121.782582 12.018832 
L 123.861569 12.133343 
L 125.940556 11.919322 
L 132.177515 11.896051 
L 134.256502 11.427371 
L 138.414475 11.472944 
L 140.493462 11.788311 
L 142.572448 11.599342 
L 144.651435 11.570142 
L 146.730421 11.191913 
L 148.809408 11.310535 
L 152.967381 11.352228 
L 155.046368 11.380115 
L 157.125354 11.218709 
L 159.204341 11.273954 
L 161.283328 11.175629 
L 163.362314 11.275724 
L 165.441301 11.219351 
L 167.520287 11.337606 
L 169.599274 11.140337 
L 171.678261 11.348142 
L 173.757247 11.430234 
L 186.231167 11.239938 
L 188.310153 11.284666 
L 192.468126 11.183468 
L 194.547113 11.157144 
L 196.6261 11.275567 
L 200.784073 11.029008 
L 202.863059 11.646451 
L 217.415965 11.440037 
L 219.494952 11.523801 
L 221.573939 11.267642 
L 223.652925 11.405055 
L 231.968872 11.362957 
L 238.205831 11.532853 
L 240.284818 11.365259 
L 244.442791 11.599897 
L 248.600764 11.324503 
L 250.679751 11.176894 
L 252.758737 11.302783 
L 254.837724 11.150666 
L 256.916711 11.326316 
L 258.995697 11.239787 
L 265.232657 11.470498 
L 269.39063 11.319927 
L 273.548603 11.368358 
L 275.62759 11.240041 
L 279.785563 11.419284 
L 281.86455 11.289803 
L 283.943536 11.411263 
L 286.022523 11.366191 
L 288.101509 11.444886 
L 296.417456 11.014841 
L 302.654416 11.247877 
L 304.733402 11.186538 
L 308.891375 11.254562 
L 310.970362 11.157055 
L 325.523268 11.290508 
L 327.602255 11.170723 
L 329.681241 11.187886 
L 331.760228 11.355179 
L 333.839214 11.210414 
L 337.997187 11.26064 
L 340.076174 10.943222 
L 342.155161 11.09412 
L 344.234147 10.27475 
L 348.39212 10.235499 
L 350.471107 10.985534 
L 352.550094 11.184679 
L 356.708067 11.229732 
L 358.787053 11.056156 
L 362.945027 11.207981 
L 367.103 11.092647 
L 375.418946 11.193743 
L 377.497933 11.110502 
L 379.576919 11.141696 
L 381.655906 11.037034 
L 383.734892 11.18847 
L 385.813879 10.639262 
L 389.971852 10.764299 
L 402.445772 10.612225 
L 404.524758 10.714691 
L 419.077664 10.671403 
L 421.156651 10.731201 
L 427.393611 10.631997 
L 439.86753 10.655944 
L 441.946517 10.718948 
L 446.10449 10.56862 
L 448.183477 10.424592 
L 450.262463 10.573226 
L 452.34145 10.520559 
L 454.420436 10.615118 
L 479.368275 10.419496 
L 483.526249 10.511242 
L 487.684222 10.275386 
L 489.763208 10.370403 
L 491.842195 10.305936 
L 493.921182 10.432258 
L 496.000168 10.340288 
L 500.158141 10.412039 
L 506.395101 10.36712 
L 508.474088 10.2256 
L 512.632061 10.291741 
L 514.711047 10.208061 
L 518.869021 10.404944 
L 533.421927 10.282115 
L 556.290779 10.236763 
L 558.369766 10.107698 
L 560.448752 10.223181 
L 568.764699 10.187861 
L 570.843685 10.23461 
L 572.922672 10.08 
L 577.080645 10.17158 
L 579.159632 10.09469 
L 581.238618 10.217685 
L 591.633551 10.24042 
L 591.633551 10.24042 
" style="fill:none;stroke:#7e2f8e;stroke-linecap:square;stroke-width:3;"/>
    <defs>
     <path d="M -5 0 
L 5 0 
M 0 5 
L 0 -5 
" id="me3985ff517" style="stroke:#7e2f8e;"/>
    </defs>
    <g clip-path="url(#pdab144259a)">
     <use style="fill:#7e2f8e;stroke:#7e2f8e;" x="159.204341" xlink:href="#me3985ff517" y="11.273954"/>
     <use style="fill:#7e2f8e;stroke:#7e2f8e;" x="261.074684" xlink:href="#me3985ff517" y="11.321777"/>
     <use style="fill:#7e2f8e;stroke:#7e2f8e;" x="362.945027" xlink:href="#me3985ff517" y="11.207981"/>
     <use style="fill:#7e2f8e;stroke:#7e2f8e;" x="464.815369" xlink:href="#me3985ff517" y="10.51534"/>
     <use style="fill:#7e2f8e;stroke:#7e2f8e;" x="566.685712" xlink:href="#me3985ff517" y="10.196199"/>
    </g>
   </g>
   <g id="legend_1">
    <g id="patch_7">
     <path d="M 340.275313 157.164375 
L 606.497187 157.164375 
Q 609.497187 157.164375 609.497187 154.164375 
L 609.497187 67.595625 
Q 609.497187 64.595625 606.497187 64.595625 
L 340.275313 64.595625 
Q 337.275313 64.595625 337.275313 67.595625 
L 337.275313 154.164375 
Q 337.275313 157.164375 340.275313 157.164375 
z
" style="fill:#ffffff;opacity:0.8;stroke:#cccccc;stroke-linejoin:miter;"/>
    </g>
    <g id="line2d_27">
     <path d="M 343.275313 76.743281 
L 373.275313 76.743281 
" style="fill:none;stroke:#77ac30;stroke-linecap:square;stroke-width:3;"/>
    </g>
    <g id="line2d_28">
     <g>
      <use style="fill:#77ac30;stroke:#77ac30;stroke-linejoin:miter;" x="358.275313" xlink:href="#mce8c2906a4" y="76.743281"/>
     </g>
    </g>
    <g id="text_14">
     <!-- GEMV fp32 -->
     <g transform="translate(385.275313 81.993281)scale(0.15 -0.15)">
      <defs>
       <path d="M 3809 666 
L 3809 1919 
L 2778 1919 
L 2778 2438 
L 4434 2438 
L 4434 434 
Q 4069 175 3628 42 
Q 3188 -91 2688 -91 
Q 1594 -91 976 548 
Q 359 1188 359 2328 
Q 359 3472 976 4111 
Q 1594 4750 2688 4750 
Q 3144 4750 3555 4637 
Q 3966 4525 4313 4306 
L 4313 3634 
Q 3963 3931 3569 4081 
Q 3175 4231 2741 4231 
Q 1884 4231 1454 3753 
Q 1025 3275 1025 2328 
Q 1025 1384 1454 906 
Q 1884 428 2741 428 
Q 3075 428 3337 486 
Q 3600 544 3809 666 
z
" id="DejaVuSans-47" transform="scale(0.015625)"/>
       <path d="M 628 4666 
L 3578 4666 
L 3578 4134 
L 1259 4134 
L 1259 2753 
L 3481 2753 
L 3481 2222 
L 1259 2222 
L 1259 531 
L 3634 531 
L 3634 0 
L 628 0 
L 628 4666 
z
" id="DejaVuSans-45" transform="scale(0.015625)"/>
       <path d="M 628 4666 
L 1569 4666 
L 2759 1491 
L 3956 4666 
L 4897 4666 
L 4897 0 
L 4281 0 
L 4281 4097 
L 3078 897 
L 2444 897 
L 1241 4097 
L 1241 0 
L 628 0 
L 628 4666 
z
" id="DejaVuSans-4d" transform="scale(0.015625)"/>
       <path d="M 1831 0 
L 50 4666 
L 709 4666 
L 2188 738 
L 3669 4666 
L 4325 4666 
L 2547 0 
L 1831 0 
z
" id="DejaVuSans-56" transform="scale(0.015625)"/>
       <path d="M 1159 525 
L 1159 -1331 
L 581 -1331 
L 581 3500 
L 1159 3500 
L 1159 2969 
Q 1341 3281 1617 3432 
Q 1894 3584 2278 3584 
Q 2916 3584 3314 3078 
Q 3713 2572 3713 1747 
Q 3713 922 3314 415 
Q 2916 -91 2278 -91 
Q 1894 -91 1617 61 
Q 1341 213 1159 525 
z
M 3116 1747 
Q 3116 2381 2855 2742 
Q 2594 3103 2138 3103 
Q 1681 3103 1420 2742 
Q 1159 2381 1159 1747 
Q 1159 1113 1420 752 
Q 1681 391 2138 391 
Q 2594 391 2855 752 
Q 3116 1113 3116 1747 
z
" id="DejaVuSans-70" transform="scale(0.015625)"/>
      </defs>
      <use xlink:href="#DejaVuSans-47"/>
      <use x="77.490234" xlink:href="#DejaVuSans-45"/>
      <use x="140.673828" xlink:href="#DejaVuSans-4d"/>
      <use x="226.953125" xlink:href="#DejaVuSans-56"/>
      <use x="295.361328" xlink:href="#DejaVuSans-20"/>
      <use x="327.148438" xlink:href="#DejaVuSans-66"/>
      <use x="362.353516" xlink:href="#DejaVuSans-70"/>
      <use x="425.830078" xlink:href="#DejaVuSans-33"/>
      <use x="489.453125" xlink:href="#DejaVuSans-32"/>
     </g>
    </g>
    <g id="line2d_29">
     <path d="M 343.275313 98.760469 
L 373.275313 98.760469 
" style="fill:none;stroke:#0072bd;stroke-linecap:square;stroke-width:3;"/>
    </g>
    <g id="line2d_30">
     <g>
      <use style="fill:#0072bd;stroke:#0072bd;" x="358.275313" xlink:href="#m82491f5f4e" y="98.760469"/>
     </g>
    </g>
    <g id="text_15">
     <!-- GEMV Accessor&lt;fp64, fp32&gt; -->
     <g transform="translate(385.275313 104.010469)scale(0.15 -0.15)">
      <defs>
       <path d="M 2188 4044 
L 1331 1722 
L 3047 1722 
L 2188 4044 
z
M 1831 4666 
L 2547 4666 
L 4325 0 
L 3669 0 
L 3244 1197 
L 1141 1197 
L 716 0 
L 50 0 
L 1831 4666 
z
" id="DejaVuSans-41" transform="scale(0.015625)"/>
       <path d="M 3122 3366 
L 3122 2828 
Q 2878 2963 2633 3030 
Q 2388 3097 2138 3097 
Q 1578 3097 1268 2742 
Q 959 2388 959 1747 
Q 959 1106 1268 751 
Q 1578 397 2138 397 
Q 2388 397 2633 464 
Q 2878 531 3122 666 
L 3122 134 
Q 2881 22 2623 -34 
Q 2366 -91 2075 -91 
Q 1284 -91 818 406 
Q 353 903 353 1747 
Q 353 2603 823 3093 
Q 1294 3584 2113 3584 
Q 2378 3584 2631 3529 
Q 2884 3475 3122 3366 
z
" id="DejaVuSans-63" transform="scale(0.015625)"/>
       <path d="M 4684 3150 
L 1459 2003 
L 4684 863 
L 4684 294 
L 678 1747 
L 678 2266 
L 4684 3719 
L 4684 3150 
z
" id="DejaVuSans-3c" transform="scale(0.015625)"/>
       <path d="M 2113 2584 
Q 1688 2584 1439 2293 
Q 1191 2003 1191 1497 
Q 1191 994 1439 701 
Q 1688 409 2113 409 
Q 2538 409 2786 701 
Q 3034 994 3034 1497 
Q 3034 2003 2786 2293 
Q 2538 2584 2113 2584 
z
M 3366 4563 
L 3366 3988 
Q 3128 4100 2886 4159 
Q 2644 4219 2406 4219 
Q 1781 4219 1451 3797 
Q 1122 3375 1075 2522 
Q 1259 2794 1537 2939 
Q 1816 3084 2150 3084 
Q 2853 3084 3261 2657 
Q 3669 2231 3669 1497 
Q 3669 778 3244 343 
Q 2819 -91 2113 -91 
Q 1303 -91 875 529 
Q 447 1150 447 2328 
Q 447 3434 972 4092 
Q 1497 4750 2381 4750 
Q 2619 4750 2861 4703 
Q 3103 4656 3366 4563 
z
" id="DejaVuSans-36" transform="scale(0.015625)"/>
       <path d="M 2419 4116 
L 825 1625 
L 2419 1625 
L 2419 4116 
z
M 2253 4666 
L 3047 4666 
L 3047 1625 
L 3713 1625 
L 3713 1100 
L 3047 1100 
L 3047 0 
L 2419 0 
L 2419 1100 
L 313 1100 
L 313 1709 
L 2253 4666 
z
" id="DejaVuSans-34" transform="scale(0.015625)"/>
       <path d="M 750 794 
L 1409 794 
L 1409 256 
L 897 -744 
L 494 -744 
L 750 256 
L 750 794 
z
" id="DejaVuSans-2c" transform="scale(0.015625)"/>
       <path d="M 678 3150 
L 678 3719 
L 4684 2266 
L 4684 1747 
L 678 294 
L 678 863 
L 3897 2003 
L 678 3150 
z
" id="DejaVuSans-3e" transform="scale(0.015625)"/>
      </defs>
      <use xlink:href="#DejaVuSans-47"/>
      <use x="77.490234" xlink:href="#DejaVuSans-45"/>
      <use x="140.673828" xlink:href="#DejaVuSans-4d"/>
      <use x="226.953125" xlink:href="#DejaVuSans-56"/>
      <use x="295.361328" xlink:href="#DejaVuSans-20"/>
      <use x="327.148438" xlink:href="#DejaVuSans-41"/>
      <use x="393.806641" xlink:href="#DejaVuSans-63"/>
      <use x="448.787109" xlink:href="#DejaVuSans-63"/>
      <use x="503.767578" xlink:href="#DejaVuSans-65"/>
      <use x="565.291016" xlink:href="#DejaVuSans-73"/>
      <use x="617.390625" xlink:href="#DejaVuSans-73"/>
      <use x="669.490234" xlink:href="#DejaVuSans-6f"/>
      <use x="730.671875" xlink:href="#DejaVuSans-72"/>
      <use x="771.785156" xlink:href="#DejaVuSans-3c"/>
      <use x="855.574219" xlink:href="#DejaVuSans-66"/>
      <use x="890.779297" xlink:href="#DejaVuSans-70"/>
      <use x="954.255859" xlink:href="#DejaVuSans-36"/>
      <use x="1017.878906" xlink:href="#DejaVuSans-34"/>
      <use x="1081.501953" xlink:href="#DejaVuSans-2c"/>
      <use x="1113.289062" xlink:href="#DejaVuSans-20"/>
      <use x="1145.076172" xlink:href="#DejaVuSans-66"/>
      <use x="1180.28125" xlink:href="#DejaVuSans-70"/>
      <use x="1243.757812" xlink:href="#DejaVuSans-33"/>
      <use x="1307.380859" xlink:href="#DejaVuSans-32"/>
      <use x="1371.003906" xlink:href="#DejaVuSans-3e"/>
     </g>
    </g>
    <g id="line2d_31">
     <path d="M 343.275313 120.777656 
L 373.275313 120.777656 
" style="fill:none;stroke:#d95319;stroke-linecap:square;stroke-width:3;"/>
    </g>
    <g id="line2d_32">
     <g>
      <use style="fill:#d95319;stroke:#d95319;stroke-linejoin:miter;" x="358.275313" xlink:href="#me53b209d18" y="120.777656"/>
     </g>
    </g>
    <g id="text_16">
     <!-- GEMV cuBLAS fp64 -->
     <g transform="translate(385.275313 126.027656)scale(0.15 -0.15)">
      <defs>
       <path d="M 1259 2228 
L 1259 519 
L 2272 519 
Q 2781 519 3026 730 
Q 3272 941 3272 1375 
Q 3272 1813 3026 2020 
Q 2781 2228 2272 2228 
L 1259 2228 
z
M 1259 4147 
L 1259 2741 
L 2194 2741 
Q 2656 2741 2882 2914 
Q 3109 3088 3109 3444 
Q 3109 3797 2882 3972 
Q 2656 4147 2194 4147 
L 1259 4147 
z
M 628 4666 
L 2241 4666 
Q 2963 4666 3353 4366 
Q 3744 4066 3744 3513 
Q 3744 3084 3544 2831 
Q 3344 2578 2956 2516 
Q 3422 2416 3680 2098 
Q 3938 1781 3938 1306 
Q 3938 681 3513 340 
Q 3088 0 2303 0 
L 628 0 
L 628 4666 
z
" id="DejaVuSans-42" transform="scale(0.015625)"/>
       <path d="M 628 4666 
L 1259 4666 
L 1259 531 
L 3531 531 
L 3531 0 
L 628 0 
L 628 4666 
z
" id="DejaVuSans-4c" transform="scale(0.015625)"/>
       <path d="M 3425 4513 
L 3425 3897 
Q 3066 4069 2747 4153 
Q 2428 4238 2131 4238 
Q 1616 4238 1336 4038 
Q 1056 3838 1056 3469 
Q 1056 3159 1242 3001 
Q 1428 2844 1947 2747 
L 2328 2669 
Q 3034 2534 3370 2195 
Q 3706 1856 3706 1288 
Q 3706 609 3251 259 
Q 2797 -91 1919 -91 
Q 1588 -91 1214 -16 
Q 841 59 441 206 
L 441 856 
Q 825 641 1194 531 
Q 1563 422 1919 422 
Q 2459 422 2753 634 
Q 3047 847 3047 1241 
Q 3047 1584 2836 1778 
Q 2625 1972 2144 2069 
L 1759 2144 
Q 1053 2284 737 2584 
Q 422 2884 422 3419 
Q 422 4038 858 4394 
Q 1294 4750 2059 4750 
Q 2388 4750 2728 4690 
Q 3069 4631 3425 4513 
z
" id="DejaVuSans-53" transform="scale(0.015625)"/>
      </defs>
      <use xlink:href="#DejaVuSans-47"/>
      <use x="77.490234" xlink:href="#DejaVuSans-45"/>
      <use x="140.673828" xlink:href="#DejaVuSans-4d"/>
      <use x="226.953125" xlink:href="#DejaVuSans-56"/>
      <use x="295.361328" xlink:href="#DejaVuSans-20"/>
      <use x="327.148438" xlink:href="#DejaVuSans-63"/>
      <use x="382.128906" xlink:href="#DejaVuSans-75"/>
      <use x="445.507812" xlink:href="#DejaVuSans-42"/>
      <use x="514.111328" xlink:href="#DejaVuSans-4c"/>
      <use x="572.074219" xlink:href="#DejaVuSans-41"/>
      <use x="640.482422" xlink:href="#DejaVuSans-53"/>
      <use x="703.958984" xlink:href="#DejaVuSans-20"/>
      <use x="735.746094" xlink:href="#DejaVuSans-66"/>
      <use x="770.951172" xlink:href="#DejaVuSans-70"/>
      <use x="834.427734" xlink:href="#DejaVuSans-36"/>
      <use x="898.050781" xlink:href="#DejaVuSans-34"/>
     </g>
    </g>
    <g id="line2d_33">
     <path d="M 343.275313 142.794844 
L 373.275313 142.794844 
" style="fill:none;stroke:#7e2f8e;stroke-linecap:square;stroke-width:3;"/>
    </g>
    <g id="line2d_34">
     <g>
      <use style="fill:#7e2f8e;stroke:#7e2f8e;" x="358.275313" xlink:href="#me3985ff517" y="142.794844"/>
     </g>
    </g>
    <g id="text_17">
     <!-- GEMV cuBLAS fp32 -->
     <g transform="translate(385.275313 148.044844)scale(0.15 -0.15)">
      <use xlink:href="#DejaVuSans-47"/>
      <use x="77.490234" xlink:href="#DejaVuSans-45"/>
      <use x="140.673828" xlink:href="#DejaVuSans-4d"/>
      <use x="226.953125" xlink:href="#DejaVuSans-56"/>
      <use x="295.361328" xlink:href="#DejaVuSans-20"/>
      <use x="327.148438" xlink:href="#DejaVuSans-63"/>
      <use x="382.128906" xlink:href="#DejaVuSans-75"/>
      <use x="445.507812" xlink:href="#DejaVuSans-42"/>
      <use x="514.111328" xlink:href="#DejaVuSans-4c"/>
      <use x="572.074219" xlink:href="#DejaVuSans-41"/>
      <use x="640.482422" xlink:href="#DejaVuSans-53"/>
      <use x="703.958984" xlink:href="#DejaVuSans-20"/>
      <use x="735.746094" xlink:href="#DejaVuSans-66"/>
      <use x="770.951172" xlink:href="#DejaVuSans-70"/>
      <use x="834.427734" xlink:href="#DejaVuSans-33"/>
      <use x="898.050781" xlink:href="#DejaVuSans-32"/>
     </g>
    </g>
   </g>
  </g>
 </g>
 <defs>
  <clipPath id="pdab144259a">
   <rect height="221.76" width="558" x="58.997188" y="0"/>
  </clipPath>
 </defs>
</svg>
