<?xml version="1.0" encoding="utf-8" standalone="no"?>
<!DOCTYPE svg PUBLIC "-//W3C//DTD SVG 1.1//EN"
  "http://www.w3.org/Graphics/SVG/1.1/DTD/svg11.dtd">
<svg height="258.890937pt" version="1.1" viewBox="0 0 606.422187 258.890937" width="606.422187pt" xmlns="http://www.w3.org/2000/svg" xmlns:xlink="http://www.w3.org/1999/xlink">
 <metadata>
  <rdf:RDF xmlns:cc="http://creativecommons.org/ns#" xmlns:dc="http://purl.org/dc/elements/1.1/" xmlns:rdf="http://www.w3.org/1999/02/22-rdf-syntax-ns#">
   <cc:Work>
    <dc:type rdf:resource="http://purl.org/dc/dcmitype/StillImage"/>
    <dc:date>2022-02-09T18:25:28.998248</dc:date>
    <dc:format>image/svg+xml</dc:format>
    <dc:creator>
     <cc:Agent>
      <dc:title>Matplotlib v3.4.1, https://matplotlib.org/</dc:title>
     </cc:Agent>
    </dc:creator>
   </cc:Work>
  </rdf:RDF>
 </metadata>
 <defs>
  <style type="text/css">*{stroke-linecap:butt;stroke-linejoin:round;}</style>
 </defs>
 <g id="figure_1">
  <g id="patch_1">
   <path d="M 0 258.890937 
L 606.422187 258.890937 
L 606.422187 0 
L 0 0 
z
" style="fill:#ffffff;"/>
  </g>
  <g id="axes_1">
   <g id="patch_2">
    <path d="M 48.422187 221.76 
L 606.422187 221.76 
L 606.422187 -0 
L 48.422187 -0 
z
" style="fill:#ffffff;"/>
   </g>
   <g id="matplotlib.axis_1">
    <g id="xtick_1">
     <g id="line2d_1">
      <path clip-path="url(#p9c316f39c6)" d="M 72.835875 221.76 
L 72.835875 -0 
" style="fill:none;stroke:#cccccc;stroke-linecap:square;"/>
     </g>
     <g id="line2d_2">
      <defs>
       <path d="M 0 0 
L 0 3.5 
" id="mb5d67e1a2c" style="stroke:#000000;stroke-width:0.8;"/>
      </defs>
      <g>
       <use style="stroke:#000000;stroke-width:0.8;" x="72.835875" xlink:href="#mb5d67e1a2c" y="221.76"/>
      </g>
     </g>
     <g id="text_1">
      <!-- 0 -->
      <g transform="translate(69.018375 237.878125)scale(0.12 -0.12)">
       <defs>
        <path d="M 2034 4250 
Q 1547 4250 1301 3770 
Q 1056 3291 1056 2328 
Q 1056 1369 1301 889 
Q 1547 409 2034 409 
Q 2525 409 2770 889 
Q 3016 1369 3016 2328 
Q 3016 3291 2770 3770 
Q 2525 4250 2034 4250 
z
M 2034 4750 
Q 2819 4750 3233 4129 
Q 3647 3509 3647 2328 
Q 3647 1150 3233 529 
Q 2819 -91 2034 -91 
Q 1250 -91 836 529 
Q 422 1150 422 2328 
Q 422 3509 836 4129 
Q 1250 4750 2034 4750 
z
" id="DejaVuSans-30" transform="scale(0.015625)"/>
       </defs>
       <use xlink:href="#DejaVuSans-30"/>
      </g>
     </g>
    </g>
    <g id="xtick_2">
     <g id="line2d_3">
      <path clip-path="url(#p9c316f39c6)" d="M 167.830768 221.76 
L 167.830768 -0 
" style="fill:none;stroke:#cccccc;stroke-linecap:square;"/>
     </g>
     <g id="line2d_4">
      <g>
       <use style="stroke:#000000;stroke-width:0.8;" x="167.830768" xlink:href="#mb5d67e1a2c" y="221.76"/>
      </g>
     </g>
     <g id="text_2">
      <!-- 1 -->
      <g transform="translate(164.013268 237.878125)scale(0.12 -0.12)">
       <defs>
        <path d="M 794 531 
L 1825 531 
L 1825 4091 
L 703 3866 
L 703 4441 
L 1819 4666 
L 2450 4666 
L 2450 531 
L 3481 531 
L 3481 0 
L 794 0 
L 794 531 
z
" id="DejaVuSans-31" transform="scale(0.015625)"/>
       </defs>
       <use xlink:href="#DejaVuSans-31"/>
      </g>
     </g>
    </g>
    <g id="xtick_3">
     <g id="line2d_5">
      <path clip-path="url(#p9c316f39c6)" d="M 262.82566 221.76 
L 262.82566 -0 
" style="fill:none;stroke:#cccccc;stroke-linecap:square;"/>
     </g>
     <g id="line2d_6">
      <g>
       <use style="stroke:#000000;stroke-width:0.8;" x="262.82566" xlink:href="#mb5d67e1a2c" y="221.76"/>
      </g>
     </g>
     <g id="text_3">
      <!-- 2 -->
      <g transform="translate(259.00816 237.878125)scale(0.12 -0.12)">
       <defs>
        <path d="M 1228 531 
L 3431 531 
L 3431 0 
L 469 0 
L 469 531 
Q 828 903 1448 1529 
Q 2069 2156 2228 2338 
Q 2531 2678 2651 2914 
Q 2772 3150 2772 3378 
Q 2772 3750 2511 3984 
Q 2250 4219 1831 4219 
Q 1534 4219 1204 4116 
Q 875 4013 500 3803 
L 500 4441 
Q 881 4594 1212 4672 
Q 1544 4750 1819 4750 
Q 2544 4750 2975 4387 
Q 3406 4025 3406 3419 
Q 3406 3131 3298 2873 
Q 3191 2616 2906 2266 
Q 2828 2175 2409 1742 
Q 1991 1309 1228 531 
z
" id="DejaVuSans-32" transform="scale(0.015625)"/>
       </defs>
       <use xlink:href="#DejaVuSans-32"/>
      </g>
     </g>
    </g>
    <g id="xtick_4">
     <g id="line2d_7">
      <path clip-path="url(#p9c316f39c6)" d="M 357.820553 221.76 
L 357.820553 -0 
" style="fill:none;stroke:#cccccc;stroke-linecap:square;"/>
     </g>
     <g id="line2d_8">
      <g>
       <use style="stroke:#000000;stroke-width:0.8;" x="357.820553" xlink:href="#mb5d67e1a2c" y="221.76"/>
      </g>
     </g>
     <g id="text_4">
      <!-- 3 -->
      <g transform="translate(354.003053 237.878125)scale(0.12 -0.12)">
       <defs>
        <path d="M 2597 2516 
Q 3050 2419 3304 2112 
Q 3559 1806 3559 1356 
Q 3559 666 3084 287 
Q 2609 -91 1734 -91 
Q 1441 -91 1130 -33 
Q 819 25 488 141 
L 488 750 
Q 750 597 1062 519 
Q 1375 441 1716 441 
Q 2309 441 2620 675 
Q 2931 909 2931 1356 
Q 2931 1769 2642 2001 
Q 2353 2234 1838 2234 
L 1294 2234 
L 1294 2753 
L 1863 2753 
Q 2328 2753 2575 2939 
Q 2822 3125 2822 3475 
Q 2822 3834 2567 4026 
Q 2313 4219 1838 4219 
Q 1578 4219 1281 4162 
Q 984 4106 628 3988 
L 628 4550 
Q 988 4650 1302 4700 
Q 1616 4750 1894 4750 
Q 2613 4750 3031 4423 
Q 3450 4097 3450 3541 
Q 3450 3153 3228 2886 
Q 3006 2619 2597 2516 
z
" id="DejaVuSans-33" transform="scale(0.015625)"/>
       </defs>
       <use xlink:href="#DejaVuSans-33"/>
      </g>
     </g>
    </g>
    <g id="xtick_5">
     <g id="line2d_9">
      <path clip-path="url(#p9c316f39c6)" d="M 452.815446 221.76 
L 452.815446 -0 
" style="fill:none;stroke:#cccccc;stroke-linecap:square;"/>
     </g>
     <g id="line2d_10">
      <g>
       <use style="stroke:#000000;stroke-width:0.8;" x="452.815446" xlink:href="#mb5d67e1a2c" y="221.76"/>
      </g>
     </g>
     <g id="text_5">
      <!-- 4 -->
      <g transform="translate(448.997946 237.878125)scale(0.12 -0.12)">
       <defs>
        <path d="M 2419 4116 
L 825 1625 
L 2419 1625 
L 2419 4116 
z
M 2253 4666 
L 3047 4666 
L 3047 1625 
L 3713 1625 
L 3713 1100 
L 3047 1100 
L 3047 0 
L 2419 0 
L 2419 1100 
L 313 1100 
L 313 1709 
L 2253 4666 
z
" id="DejaVuSans-34" transform="scale(0.015625)"/>
       </defs>
       <use xlink:href="#DejaVuSans-34"/>
      </g>
     </g>
    </g>
    <g id="xtick_6">
     <g id="line2d_11">
      <path clip-path="url(#p9c316f39c6)" d="M 547.810339 221.76 
L 547.810339 -0 
" style="fill:none;stroke:#cccccc;stroke-linecap:square;"/>
     </g>
     <g id="line2d_12">
      <g>
       <use style="stroke:#000000;stroke-width:0.8;" x="547.810339" xlink:href="#mb5d67e1a2c" y="221.76"/>
      </g>
     </g>
     <g id="text_6">
      <!-- 5 -->
      <g transform="translate(543.992839 237.878125)scale(0.12 -0.12)">
       <defs>
        <path d="M 691 4666 
L 3169 4666 
L 3169 4134 
L 1269 4134 
L 1269 2991 
Q 1406 3038 1543 3061 
Q 1681 3084 1819 3084 
Q 2600 3084 3056 2656 
Q 3513 2228 3513 1497 
Q 3513 744 3044 326 
Q 2575 -91 1722 -91 
Q 1428 -91 1123 -41 
Q 819 9 494 109 
L 494 744 
Q 775 591 1075 516 
Q 1375 441 1709 441 
Q 2250 441 2565 725 
Q 2881 1009 2881 1497 
Q 2881 1984 2565 2268 
Q 2250 2553 1709 2553 
Q 1456 2553 1204 2497 
Q 953 2441 691 2322 
L 691 4666 
z
" id="DejaVuSans-35" transform="scale(0.015625)"/>
       </defs>
       <use xlink:href="#DejaVuSans-35"/>
      </g>
     </g>
    </g>
    <g id="text_7">
     <!-- Vector size -->
     <g transform="translate(286.596406 255.771406)scale(0.15 -0.15)">
      <defs>
       <path d="M 1831 0 
L 50 4666 
L 709 4666 
L 2188 738 
L 3669 4666 
L 4325 4666 
L 2547 0 
L 1831 0 
z
" id="DejaVuSans-56" transform="scale(0.015625)"/>
       <path d="M 3597 1894 
L 3597 1613 
L 953 1613 
Q 991 1019 1311 708 
Q 1631 397 2203 397 
Q 2534 397 2845 478 
Q 3156 559 3463 722 
L 3463 178 
Q 3153 47 2828 -22 
Q 2503 -91 2169 -91 
Q 1331 -91 842 396 
Q 353 884 353 1716 
Q 353 2575 817 3079 
Q 1281 3584 2069 3584 
Q 2775 3584 3186 3129 
Q 3597 2675 3597 1894 
z
M 3022 2063 
Q 3016 2534 2758 2815 
Q 2500 3097 2075 3097 
Q 1594 3097 1305 2825 
Q 1016 2553 972 2059 
L 3022 2063 
z
" id="DejaVuSans-65" transform="scale(0.015625)"/>
       <path d="M 3122 3366 
L 3122 2828 
Q 2878 2963 2633 3030 
Q 2388 3097 2138 3097 
Q 1578 3097 1268 2742 
Q 959 2388 959 1747 
Q 959 1106 1268 751 
Q 1578 397 2138 397 
Q 2388 397 2633 464 
Q 2878 531 3122 666 
L 3122 134 
Q 2881 22 2623 -34 
Q 2366 -91 2075 -91 
Q 1284 -91 818 406 
Q 353 903 353 1747 
Q 353 2603 823 3093 
Q 1294 3584 2113 3584 
Q 2378 3584 2631 3529 
Q 2884 3475 3122 3366 
z
" id="DejaVuSans-63" transform="scale(0.015625)"/>
       <path d="M 1172 4494 
L 1172 3500 
L 2356 3500 
L 2356 3053 
L 1172 3053 
L 1172 1153 
Q 1172 725 1289 603 
Q 1406 481 1766 481 
L 2356 481 
L 2356 0 
L 1766 0 
Q 1100 0 847 248 
Q 594 497 594 1153 
L 594 3053 
L 172 3053 
L 172 3500 
L 594 3500 
L 594 4494 
L 1172 4494 
z
" id="DejaVuSans-74" transform="scale(0.015625)"/>
       <path d="M 1959 3097 
Q 1497 3097 1228 2736 
Q 959 2375 959 1747 
Q 959 1119 1226 758 
Q 1494 397 1959 397 
Q 2419 397 2687 759 
Q 2956 1122 2956 1747 
Q 2956 2369 2687 2733 
Q 2419 3097 1959 3097 
z
M 1959 3584 
Q 2709 3584 3137 3096 
Q 3566 2609 3566 1747 
Q 3566 888 3137 398 
Q 2709 -91 1959 -91 
Q 1206 -91 779 398 
Q 353 888 353 1747 
Q 353 2609 779 3096 
Q 1206 3584 1959 3584 
z
" id="DejaVuSans-6f" transform="scale(0.015625)"/>
       <path d="M 2631 2963 
Q 2534 3019 2420 3045 
Q 2306 3072 2169 3072 
Q 1681 3072 1420 2755 
Q 1159 2438 1159 1844 
L 1159 0 
L 581 0 
L 581 3500 
L 1159 3500 
L 1159 2956 
Q 1341 3275 1631 3429 
Q 1922 3584 2338 3584 
Q 2397 3584 2469 3576 
Q 2541 3569 2628 3553 
L 2631 2963 
z
" id="DejaVuSans-72" transform="scale(0.015625)"/>
       <path id="DejaVuSans-20" transform="scale(0.015625)"/>
       <path d="M 2834 3397 
L 2834 2853 
Q 2591 2978 2328 3040 
Q 2066 3103 1784 3103 
Q 1356 3103 1142 2972 
Q 928 2841 928 2578 
Q 928 2378 1081 2264 
Q 1234 2150 1697 2047 
L 1894 2003 
Q 2506 1872 2764 1633 
Q 3022 1394 3022 966 
Q 3022 478 2636 193 
Q 2250 -91 1575 -91 
Q 1294 -91 989 -36 
Q 684 19 347 128 
L 347 722 
Q 666 556 975 473 
Q 1284 391 1588 391 
Q 1994 391 2212 530 
Q 2431 669 2431 922 
Q 2431 1156 2273 1281 
Q 2116 1406 1581 1522 
L 1381 1569 
Q 847 1681 609 1914 
Q 372 2147 372 2553 
Q 372 3047 722 3315 
Q 1072 3584 1716 3584 
Q 2034 3584 2315 3537 
Q 2597 3491 2834 3397 
z
" id="DejaVuSans-73" transform="scale(0.015625)"/>
       <path d="M 603 3500 
L 1178 3500 
L 1178 0 
L 603 0 
L 603 3500 
z
M 603 4863 
L 1178 4863 
L 1178 4134 
L 603 4134 
L 603 4863 
z
" id="DejaVuSans-69" transform="scale(0.015625)"/>
       <path d="M 353 3500 
L 3084 3500 
L 3084 2975 
L 922 459 
L 3084 459 
L 3084 0 
L 275 0 
L 275 525 
L 2438 3041 
L 353 3041 
L 353 3500 
z
" id="DejaVuSans-7a" transform="scale(0.015625)"/>
      </defs>
      <use xlink:href="#DejaVuSans-56"/>
      <use x="60.658203" xlink:href="#DejaVuSans-65"/>
      <use x="122.181641" xlink:href="#DejaVuSans-63"/>
      <use x="177.162109" xlink:href="#DejaVuSans-74"/>
      <use x="216.371094" xlink:href="#DejaVuSans-6f"/>
      <use x="277.552734" xlink:href="#DejaVuSans-72"/>
      <use x="318.666016" xlink:href="#DejaVuSans-20"/>
      <use x="350.453125" xlink:href="#DejaVuSans-73"/>
      <use x="402.552734" xlink:href="#DejaVuSans-69"/>
      <use x="430.335938" xlink:href="#DejaVuSans-7a"/>
      <use x="482.826172" xlink:href="#DejaVuSans-65"/>
     </g>
    </g>
    <g id="text_8">
     <!-- 1e8 -->
     <g transform="translate(587.544062 250.972187)scale(0.1 -0.1)">
      <defs>
       <path d="M 2034 2216 
Q 1584 2216 1326 1975 
Q 1069 1734 1069 1313 
Q 1069 891 1326 650 
Q 1584 409 2034 409 
Q 2484 409 2743 651 
Q 3003 894 3003 1313 
Q 3003 1734 2745 1975 
Q 2488 2216 2034 2216 
z
M 1403 2484 
Q 997 2584 770 2862 
Q 544 3141 544 3541 
Q 544 4100 942 4425 
Q 1341 4750 2034 4750 
Q 2731 4750 3128 4425 
Q 3525 4100 3525 3541 
Q 3525 3141 3298 2862 
Q 3072 2584 2669 2484 
Q 3125 2378 3379 2068 
Q 3634 1759 3634 1313 
Q 3634 634 3220 271 
Q 2806 -91 2034 -91 
Q 1263 -91 848 271 
Q 434 634 434 1313 
Q 434 1759 690 2068 
Q 947 2378 1403 2484 
z
M 1172 3481 
Q 1172 3119 1398 2916 
Q 1625 2713 2034 2713 
Q 2441 2713 2670 2916 
Q 2900 3119 2900 3481 
Q 2900 3844 2670 4047 
Q 2441 4250 2034 4250 
Q 1625 4250 1398 4047 
Q 1172 3844 1172 3481 
z
" id="DejaVuSans-38" transform="scale(0.015625)"/>
      </defs>
      <use xlink:href="#DejaVuSans-31"/>
      <use x="63.623047" xlink:href="#DejaVuSans-65"/>
      <use x="125.146484" xlink:href="#DejaVuSans-38"/>
     </g>
    </g>
   </g>
   <g id="matplotlib.axis_2">
    <g id="ytick_1">
     <g id="line2d_13">
      <path clip-path="url(#p9c316f39c6)" d="M 48.422187 221.76 
L 606.422187 221.76 
" style="fill:none;stroke:#cccccc;stroke-linecap:square;"/>
     </g>
     <g id="line2d_14">
      <defs>
       <path d="M 0 0 
L -3.5 0 
" id="mb7c6fa9555" style="stroke:#000000;stroke-width:0.8;"/>
      </defs>
      <g>
       <use style="stroke:#000000;stroke-width:0.8;" x="48.422187" xlink:href="#mb7c6fa9555" y="221.76"/>
      </g>
     </g>
     <g id="text_9">
      <!-- 0 -->
      <g transform="translate(33.787188 226.319062)scale(0.12 -0.12)">
       <use xlink:href="#DejaVuSans-30"/>
      </g>
     </g>
    </g>
    <g id="ytick_2">
     <g id="line2d_15">
      <path clip-path="url(#p9c316f39c6)" d="M 48.422187 192.101332 
L 606.422187 192.101332 
" style="fill:none;stroke:#cccccc;stroke-linecap:square;"/>
     </g>
     <g id="line2d_16">
      <g>
       <use style="stroke:#000000;stroke-width:0.8;" x="48.422187" xlink:href="#mb7c6fa9555" y="192.101332"/>
      </g>
     </g>
     <g id="text_10">
      <!-- 50 -->
      <g transform="translate(26.152188 196.660395)scale(0.12 -0.12)">
       <use xlink:href="#DejaVuSans-35"/>
       <use x="63.623047" xlink:href="#DejaVuSans-30"/>
      </g>
     </g>
    </g>
    <g id="ytick_3">
     <g id="line2d_17">
      <path clip-path="url(#p9c316f39c6)" d="M 48.422187 162.442664 
L 606.422187 162.442664 
" style="fill:none;stroke:#cccccc;stroke-linecap:square;"/>
     </g>
     <g id="line2d_18">
      <g>
       <use style="stroke:#000000;stroke-width:0.8;" x="48.422187" xlink:href="#mb7c6fa9555" y="162.442664"/>
      </g>
     </g>
     <g id="text_11">
      <!-- 100 -->
      <g transform="translate(18.517188 167.001727)scale(0.12 -0.12)">
       <use xlink:href="#DejaVuSans-31"/>
       <use x="63.623047" xlink:href="#DejaVuSans-30"/>
       <use x="127.246094" xlink:href="#DejaVuSans-30"/>
      </g>
     </g>
    </g>
    <g id="ytick_4">
     <g id="line2d_19">
      <path clip-path="url(#p9c316f39c6)" d="M 48.422187 132.783996 
L 606.422187 132.783996 
" style="fill:none;stroke:#cccccc;stroke-linecap:square;"/>
     </g>
     <g id="line2d_20">
      <g>
       <use style="stroke:#000000;stroke-width:0.8;" x="48.422187" xlink:href="#mb7c6fa9555" y="132.783996"/>
      </g>
     </g>
     <g id="text_12">
      <!-- 150 -->
      <g transform="translate(18.517188 137.343059)scale(0.12 -0.12)">
       <use xlink:href="#DejaVuSans-31"/>
       <use x="63.623047" xlink:href="#DejaVuSans-35"/>
       <use x="127.246094" xlink:href="#DejaVuSans-30"/>
      </g>
     </g>
    </g>
    <g id="ytick_5">
     <g id="line2d_21">
      <path clip-path="url(#p9c316f39c6)" d="M 48.422187 103.125328 
L 606.422187 103.125328 
" style="fill:none;stroke:#cccccc;stroke-linecap:square;"/>
     </g>
     <g id="line2d_22">
      <g>
       <use style="stroke:#000000;stroke-width:0.8;" x="48.422187" xlink:href="#mb7c6fa9555" y="103.125328"/>
      </g>
     </g>
     <g id="text_13">
      <!-- 200 -->
      <g transform="translate(18.517188 107.684391)scale(0.12 -0.12)">
       <use xlink:href="#DejaVuSans-32"/>
       <use x="63.623047" xlink:href="#DejaVuSans-30"/>
       <use x="127.246094" xlink:href="#DejaVuSans-30"/>
      </g>
     </g>
    </g>
    <g id="ytick_6">
     <g id="line2d_23">
      <path clip-path="url(#p9c316f39c6)" d="M 48.422187 73.46666 
L 606.422187 73.46666 
" style="fill:none;stroke:#cccccc;stroke-linecap:square;"/>
     </g>
     <g id="line2d_24">
      <g>
       <use style="stroke:#000000;stroke-width:0.8;" x="48.422187" xlink:href="#mb7c6fa9555" y="73.46666"/>
      </g>
     </g>
     <g id="text_14">
      <!-- 250 -->
      <g transform="translate(18.517188 78.025723)scale(0.12 -0.12)">
       <use xlink:href="#DejaVuSans-32"/>
       <use x="63.623047" xlink:href="#DejaVuSans-35"/>
       <use x="127.246094" xlink:href="#DejaVuSans-30"/>
      </g>
     </g>
    </g>
    <g id="ytick_7">
     <g id="line2d_25">
      <path clip-path="url(#p9c316f39c6)" d="M 48.422187 43.807992 
L 606.422187 43.807992 
" style="fill:none;stroke:#cccccc;stroke-linecap:square;"/>
     </g>
     <g id="line2d_26">
      <g>
       <use style="stroke:#000000;stroke-width:0.8;" x="48.422187" xlink:href="#mb7c6fa9555" y="43.807992"/>
      </g>
     </g>
     <g id="text_15">
      <!-- 300 -->
      <g transform="translate(18.517188 48.367055)scale(0.12 -0.12)">
       <use xlink:href="#DejaVuSans-33"/>
       <use x="63.623047" xlink:href="#DejaVuSans-30"/>
       <use x="127.246094" xlink:href="#DejaVuSans-30"/>
      </g>
     </g>
    </g>
    <g id="ytick_8">
     <g id="line2d_27">
      <path clip-path="url(#p9c316f39c6)" d="M 48.422187 14.149324 
L 606.422187 14.149324 
" style="fill:none;stroke:#cccccc;stroke-linecap:square;"/>
     </g>
     <g id="line2d_28">
      <g>
       <use style="stroke:#000000;stroke-width:0.8;" x="48.422187" xlink:href="#mb7c6fa9555" y="14.149324"/>
      </g>
     </g>
     <g id="text_16">
      <!-- 350 -->
      <g transform="translate(18.517188 18.708387)scale(0.12 -0.12)">
       <use xlink:href="#DejaVuSans-33"/>
       <use x="63.623047" xlink:href="#DejaVuSans-35"/>
       <use x="127.246094" xlink:href="#DejaVuSans-30"/>
      </g>
     </g>
    </g>
    <g id="text_17">
     <!-- GFLOP/s -->
     <g transform="translate(11.397656 141.771797)rotate(-90)scale(0.15 -0.15)">
      <defs>
       <path d="M 3809 666 
L 3809 1919 
L 2778 1919 
L 2778 2438 
L 4434 2438 
L 4434 434 
Q 4069 175 3628 42 
Q 3188 -91 2688 -91 
Q 1594 -91 976 548 
Q 359 1188 359 2328 
Q 359 3472 976 4111 
Q 1594 4750 2688 4750 
Q 3144 4750 3555 4637 
Q 3966 4525 4313 4306 
L 4313 3634 
Q 3963 3931 3569 4081 
Q 3175 4231 2741 4231 
Q 1884 4231 1454 3753 
Q 1025 3275 1025 2328 
Q 1025 1384 1454 906 
Q 1884 428 2741 428 
Q 3075 428 3337 486 
Q 3600 544 3809 666 
z
" id="DejaVuSans-47" transform="scale(0.015625)"/>
       <path d="M 628 4666 
L 3309 4666 
L 3309 4134 
L 1259 4134 
L 1259 2759 
L 3109 2759 
L 3109 2228 
L 1259 2228 
L 1259 0 
L 628 0 
L 628 4666 
z
" id="DejaVuSans-46" transform="scale(0.015625)"/>
       <path d="M 628 4666 
L 1259 4666 
L 1259 531 
L 3531 531 
L 3531 0 
L 628 0 
L 628 4666 
z
" id="DejaVuSans-4c" transform="scale(0.015625)"/>
       <path d="M 2522 4238 
Q 1834 4238 1429 3725 
Q 1025 3213 1025 2328 
Q 1025 1447 1429 934 
Q 1834 422 2522 422 
Q 3209 422 3611 934 
Q 4013 1447 4013 2328 
Q 4013 3213 3611 3725 
Q 3209 4238 2522 4238 
z
M 2522 4750 
Q 3503 4750 4090 4092 
Q 4678 3434 4678 2328 
Q 4678 1225 4090 567 
Q 3503 -91 2522 -91 
Q 1538 -91 948 565 
Q 359 1222 359 2328 
Q 359 3434 948 4092 
Q 1538 4750 2522 4750 
z
" id="DejaVuSans-4f" transform="scale(0.015625)"/>
       <path d="M 1259 4147 
L 1259 2394 
L 2053 2394 
Q 2494 2394 2734 2622 
Q 2975 2850 2975 3272 
Q 2975 3691 2734 3919 
Q 2494 4147 2053 4147 
L 1259 4147 
z
M 628 4666 
L 2053 4666 
Q 2838 4666 3239 4311 
Q 3641 3956 3641 3272 
Q 3641 2581 3239 2228 
Q 2838 1875 2053 1875 
L 1259 1875 
L 1259 0 
L 628 0 
L 628 4666 
z
" id="DejaVuSans-50" transform="scale(0.015625)"/>
       <path d="M 1625 4666 
L 2156 4666 
L 531 -594 
L 0 -594 
L 1625 4666 
z
" id="DejaVuSans-2f" transform="scale(0.015625)"/>
      </defs>
      <use xlink:href="#DejaVuSans-47"/>
      <use x="77.490234" xlink:href="#DejaVuSans-46"/>
      <use x="135.009766" xlink:href="#DejaVuSans-4c"/>
      <use x="187.097656" xlink:href="#DejaVuSans-4f"/>
      <use x="265.808594" xlink:href="#DejaVuSans-50"/>
      <use x="326.111328" xlink:href="#DejaVuSans-2f"/>
      <use x="359.802734" xlink:href="#DejaVuSans-73"/>
     </g>
    </g>
   </g>
   <g id="patch_3">
    <path d="M 48.422187 221.76 
L 48.422187 -0 
" style="fill:none;stroke:#000000;stroke-linecap:square;stroke-linejoin:miter;stroke-width:0.8;"/>
   </g>
   <g id="patch_4">
    <path d="M 606.422187 221.76 
L 606.422187 -0 
" style="fill:none;stroke:#000000;stroke-linecap:square;stroke-linejoin:miter;stroke-width:0.8;"/>
   </g>
   <g id="patch_5">
    <path d="M 48.422187 221.76 
L 606.422187 221.76 
" style="fill:none;stroke:#000000;stroke-linecap:square;stroke-linejoin:miter;stroke-width:0.8;"/>
   </g>
   <g id="patch_6">
    <path d="M 48.422187 -0 
L 606.422187 -0 
" style="fill:none;stroke:#000000;stroke-linecap:square;stroke-linejoin:miter;stroke-width:0.8;"/>
   </g>
   <g id="line2d_29">
    <path clip-path="url(#p9c316f39c6)" d="M 73.785824 194.175687 
L 75.685722 161.83544 
L 77.58562 143.480165 
L 79.485517 129.60328 
L 81.385415 126.970229 
L 83.285313 122.96962 
L 85.185211 119.303933 
L 87.085109 118.318778 
L 88.985007 116.998255 
L 90.884905 116.438031 
L 92.784802 116.438027 
L 94.6847 116.020083 
L 98.484496 114.634573 
L 102.284292 113.582912 
L 106.084087 113.340321 
L 107.983985 113.78508 
L 109.883883 112.884993 
L 111.783781 112.312509 
L 113.683679 112.030278 
L 123.183168 111.916154 
L 125.083066 111.70854 
L 126.982964 111.698543 
L 128.882862 111.511677 
L 130.78276 111.680492 
L 132.682657 111.506027 
L 138.382351 111.498788 
L 142.182147 111.206347 
L 144.082044 111.212125 
L 145.981942 111.354414 
L 147.88184 111.089149 
L 149.781738 111.227752 
L 151.681636 111.105266 
L 153.581534 111.236938 
L 155.481432 111.24122 
L 157.381329 111.126724 
L 159.281227 111.249206 
L 161.181125 111.025799 
L 163.081023 111.145466 
L 166.880819 111.04993 
L 176.380308 110.987147 
L 178.280206 110.899542 
L 182.080002 111.009958 
L 185.879797 110.845712 
L 191.579491 111.043089 
L 195.379287 110.972841 
L 201.07898 110.91441 
L 202.978878 110.844403 
L 204.878776 111.005325 
L 206.778674 110.936135 
L 208.678572 111.017041 
L 210.578469 110.87647 
L 214.378265 110.962364 
L 227.67755 110.937058 
L 229.577448 110.878686 
L 231.477346 111.012168 
L 233.377244 111.017039 
L 235.277142 110.897865 
L 237.177039 110.903964 
L 239.076937 111.030998 
L 242.876733 110.862159 
L 265.675507 110.876474 
L 269.475303 110.887073 
L 296.073873 110.996252 
L 297.973771 110.820853 
L 301.773566 111.006909 
L 311.273056 110.896875 
L 326.472239 110.968227 
L 328.372136 111.089645 
L 330.272034 110.974957 
L 335.971728 110.946442 
L 337.871626 110.835796 
L 339.771524 110.990956 
L 341.671421 110.919124 
L 347.371115 111.002951 
L 351.170911 110.97256 
L 354.970706 111.014297 
L 356.870604 111.052437 
L 358.770502 110.8789 
L 362.570298 110.99034 
L 368.269991 110.998714 
L 370.169889 111.06905 
L 373.969685 110.973359 
L 406.267948 111.047193 
L 408.167846 111.139165 
L 415.767438 111.08692 
L 423.367029 111.122867 
L 432.866518 111.047111 
L 436.666314 111.133854 
L 438.566212 111.0255 
L 440.46611 111.164137 
L 442.366008 111.056801 
L 455.665293 111.174422 
L 461.364986 111.15226 
L 463.264884 111.204939 
L 465.164782 111.129314 
L 468.964578 111.157465 
L 480.363965 111.091018 
L 482.263863 111.166099 
L 484.163761 111.045239 
L 487.963556 111.169625 
L 491.763352 111.171922 
L 501.262841 110.989948 
L 503.162739 111.225161 
L 506.962535 111.180729 
L 581.058551 111.255488 
L 581.058551 111.255488 
" style="fill:none;stroke:#a2142f;stroke-linecap:square;stroke-width:3;"/>
    <defs>
     <path d="M -2.5 5 
L 0 2.5 
L 2.5 5 
L 5 2.5 
L 2.5 0 
L 5 -2.5 
L 2.5 -5 
L 0 -2.5 
L -2.5 -5 
L -5 -2.5 
L -2.5 0 
L -5 2.5 
z
" id="m20c3eea4c4" style="stroke:#a2142f;stroke-linejoin:miter;"/>
    </defs>
    <g clip-path="url(#p9c316f39c6)">
     <use style="fill:#a2142f;stroke:#a2142f;stroke-linejoin:miter;" x="73.785824" xlink:href="#m20c3eea4c4" y="194.175687"/>
     <use style="fill:#a2142f;stroke:#a2142f;stroke-linejoin:miter;" x="174.48041" xlink:href="#m20c3eea4c4" y="111.077893"/>
     <use style="fill:#a2142f;stroke:#a2142f;stroke-linejoin:miter;" x="275.174996" xlink:href="#m20c3eea4c4" y="110.902232"/>
     <use style="fill:#a2142f;stroke:#a2142f;stroke-linejoin:miter;" x="375.869583" xlink:href="#m20c3eea4c4" y="110.976186"/>
     <use style="fill:#a2142f;stroke:#a2142f;stroke-linejoin:miter;" x="476.564169" xlink:href="#m20c3eea4c4" y="111.162462"/>
     <use style="fill:#a2142f;stroke:#a2142f;stroke-linejoin:miter;" x="577.258755" xlink:href="#m20c3eea4c4" y="111.194642"/>
    </g>
   </g>
   <g id="line2d_30">
    <path clip-path="url(#p9c316f39c6)" d="M 73.785824 193.502899 
L 75.685722 150.828884 
L 79.485517 109.124012 
L 81.385415 94.602987 
L 83.285313 68.218332 
L 85.185211 44.571273 
L 87.085109 32.867339 
L 88.985007 32.382992 
L 90.884905 30.348769 
L 92.784802 28.669717 
L 94.6847 28.669722 
L 96.584598 24.729098 
L 98.484496 21.243161 
L 100.384394 20.576119 
L 102.284292 18.85156 
L 104.18419 19.47494 
L 106.084087 17.996386 
L 109.883883 15.444349 
L 111.783781 13.42575 
L 115.583577 11.540736 
L 117.483475 12.331308 
L 119.383372 11.506127 
L 121.28327 12.976867 
L 123.183168 13.615223 
L 125.083066 12.155406 
L 126.982964 11.451476 
L 128.882862 12.085279 
L 130.78276 11.42951 
L 132.682657 12.024002 
L 134.582555 11.410243 
L 136.482453 11.401471 
L 140.282249 10.303798 
L 142.182147 10.853403 
L 144.082044 10.347272 
L 145.981942 10.86706 
L 147.88184 10.873369 
L 149.781738 10.40442 
L 151.681636 9.488554 
L 153.581534 9.983554 
L 155.481432 10.009723 
L 157.381329 10.468577 
L 159.281227 10.058607 
L 161.181125 10.496505 
L 163.081023 10.509596 
L 164.980921 9.725015 
L 166.880819 10.534164 
L 170.680614 9.806535 
L 174.48041 10.577775 
L 176.380308 9.879049 
L 180.180104 9.923082 
L 182.080002 10.280172 
L 183.979899 9.632636 
L 185.879797 10.308374 
L 187.779695 10.002368 
L 189.679593 10.020579 
L 191.579491 10.347272 
L 193.479389 9.444269 
L 195.379287 9.470398 
L 197.279184 10.087801 
L 199.179082 10.103345 
L 201.07898 10.404414 
L 202.978878 10.133049 
L 204.878776 10.147249 
L 206.778674 9.611448 
L 208.678572 9.903911 
L 210.578469 9.653241 
L 212.478367 9.937077 
L 214.378265 9.692789 
L 216.278163 9.711758 
L 218.178061 9.476312 
L 221.977857 10.012567 
L 223.877754 10.026512 
L 225.777652 9.799529 
L 227.67755 10.053382 
L 229.577448 9.360682 
L 231.477346 9.847118 
L 235.277142 9.876974 
L 237.177039 9.44251 
L 239.076937 10.126601 
L 240.976835 10.137826 
L 244.776631 9.73163 
L 248.576427 9.761767 
L 250.476324 9.568711 
L 252.376222 9.790596 
L 254.27612 9.804578 
L 256.176018 9.617161 
L 258.075916 10.030253 
L 259.975814 9.844766 
L 261.875712 9.467366 
L 263.775609 9.677223 
L 265.675507 10.073253 
L 267.575405 10.083492 
L 269.475303 9.906525 
L 271.375201 9.918159 
L 273.275099 10.112976 
L 275.174996 9.758813 
L 277.074894 9.951777 
L 278.974792 10.496507 
L 282.774588 10.158582 
L 284.674486 10.513228 
L 286.574384 10.518596 
L 288.474281 10.184005 
L 290.374179 10.023325 
L 292.274077 10.700743 
L 296.073873 10.707834 
L 299.873669 11.035897 
L 301.773566 10.718001 
L 303.673464 10.562977 
L 305.573362 10.881308 
L 307.47326 10.883206 
L 309.373158 10.730829 
L 311.273056 11.039736 
L 313.172954 10.73692 
L 315.072851 10.589057 
L 316.972749 10.742839 
L 318.872647 11.189965 
L 322.672443 11.188832 
L 324.572341 10.754123 
L 326.472239 10.900669 
L 328.372136 11.329396 
L 330.272034 11.186682 
L 332.171932 10.623893 
L 334.07183 11.185662 
L 335.971728 10.352854 
L 339.771524 10.637934 
L 341.671421 11.048361 
L 343.571319 10.779565 
L 345.471217 10.915695 
L 347.371115 10.784221 
L 351.170911 10.262976 
L 353.070809 10.660674 
L 354.970706 10.922441 
L 356.870604 10.923748 
L 358.770502 10.541916 
L 360.6704 10.799577 
L 362.570298 10.423149 
L 364.470196 10.553169 
L 366.370094 10.307314 
L 368.269991 10.188383 
L 370.169889 10.809711 
L 373.969685 10.570966 
L 375.869583 10.332769 
L 377.769481 10.337664 
L 379.669379 10.103335 
L 381.569276 10.228513 
L 383.469174 10.587685 
L 385.369072 10.004316 
L 387.26897 10.127925 
L 389.168868 10.017746 
L 392.968663 10.030842 
L 394.868561 10.151362 
L 396.768459 10.043642 
L 398.668357 10.275268 
L 400.568255 10.391994 
L 402.468153 9.839086 
L 404.368051 9.846445 
L 406.267948 10.294505 
L 415.767438 10.210391 
L 417.667336 10.108946 
L 419.567233 10.326147 
L 421.467131 10.225262 
L 423.367029 10.334734 
L 427.166825 10.239653 
L 429.066723 10.450111 
L 432.866518 10.457155 
L 434.766416 10.25814 
L 436.666314 10.464051 
L 442.366008 10.176552 
L 444.265906 10.378849 
L 449.965599 10.390031 
L 451.865497 10.200219 
L 459.465088 10.313147 
L 461.364986 10.505633 
L 463.264884 10.038938 
L 465.164782 10.231384 
L 467.06468 10.699953 
L 470.864476 10.520239 
L 472.764373 10.797162 
L 474.664271 10.889455 
L 476.564169 10.619255 
L 480.363965 10.89263 
L 482.263863 10.893675 
L 486.063658 10.630698 
L 487.963556 10.9845 
L 493.66325 10.81302 
L 495.563148 11.159076 
L 497.463046 10.90164 
L 499.362943 10.988021 
L 501.262841 10.818412 
L 503.162739 10.904485 
L 505.062637 10.736583 
L 506.962535 10.990272 
L 508.862433 11.074315 
L 512.662228 10.82614 
L 514.562126 11.157219 
L 516.462024 11.075038 
L 518.361922 10.665961 
L 520.26182 11.156696 
L 522.161718 11.156531 
L 524.061615 10.995046 
L 525.961513 11.236417 
L 531.661207 10.917627 
L 533.561105 11.31329 
L 535.461003 11.390936 
L 537.3609 11.233467 
L 541.160696 11.465053 
L 544.960492 11.000404 
L 546.86039 11.154416 
L 548.760288 10.924766 
L 550.660185 11.458123 
L 552.560083 10.926278 
L 554.459981 11.455441 
L 556.359879 11.303986 
L 558.259777 11.003566 
L 560.159675 11.302534 
L 562.059573 11.153222 
L 565.859368 11.668047 
L 567.759266 11.665939 
L 569.659164 11.298968 
L 571.559062 11.152528 
L 573.45896 11.659696 
L 575.358858 11.296897 
L 577.258755 11.224178 
L 579.158653 11.653593 
L 581.058551 11.437706 
L 581.058551 11.437706 
" style="fill:none;stroke:#77ac30;stroke-linecap:square;stroke-width:3;"/>
    <defs>
     <path d="M -1.666667 5 
L 1.666667 5 
L 1.666667 1.666667 
L 5 1.666667 
L 5 -1.666667 
L 1.666667 -1.666667 
L 1.666667 -5 
L -1.666667 -5 
L -1.666667 -1.666667 
L -5 -1.666667 
L -5 1.666667 
L -1.666667 1.666667 
z
" id="mf8e6fb36cd" style="stroke:#77ac30;stroke-linejoin:miter;"/>
    </defs>
    <g clip-path="url(#p9c316f39c6)">
     <use style="fill:#77ac30;stroke:#77ac30;stroke-linejoin:miter;" x="92.784802" xlink:href="#mf8e6fb36cd" y="28.669717"/>
     <use style="fill:#77ac30;stroke:#77ac30;stroke-linejoin:miter;" x="193.479389" xlink:href="#mf8e6fb36cd" y="9.444269"/>
     <use style="fill:#77ac30;stroke:#77ac30;stroke-linejoin:miter;" x="294.173975" xlink:href="#mf8e6fb36cd" y="10.70431"/>
     <use style="fill:#77ac30;stroke:#77ac30;stroke-linejoin:miter;" x="394.868561" xlink:href="#mf8e6fb36cd" y="10.151362"/>
     <use style="fill:#77ac30;stroke:#77ac30;stroke-linejoin:miter;" x="495.563148" xlink:href="#mf8e6fb36cd" y="11.159076"/>
    </g>
   </g>
   <g id="line2d_31">
    <path clip-path="url(#p9c316f39c6)" d="M 73.785824 196.574324 
L 75.685722 162.851111 
L 77.58562 143.480165 
L 79.485517 120.387604 
L 81.385415 107.17896 
L 83.285313 87.613075 
L 85.185211 58.053028 
L 87.085109 44.432186 
L 88.985007 42.71265 
L 90.884905 42.798284 
L 92.784802 40.197499 
L 94.6847 37.991315 
L 96.584598 36.09626 
L 98.484496 27.470403 
L 100.384394 26.424481 
L 102.284292 24.425978 
L 104.18419 23.667378 
L 106.084087 23.960201 
L 107.983985 20.510978 
L 109.883883 19.145079 
L 111.783781 17.017721 
L 115.583577 14.877551 
L 117.483475 15.504471 
L 121.28327 15.166895 
L 123.183168 15.710635 
L 125.083066 14.203674 
L 126.982964 13.441774 
L 138.382351 13.041001 
L 142.182147 11.900094 
L 145.981942 12.842638 
L 147.88184 12.321114 
L 149.781738 12.291524 
L 153.581534 11.341105 
L 155.481432 12.210874 
L 157.381329 11.759573 
L 161.181125 11.731973 
L 163.081023 11.317443 
L 166.880819 11.30931 
L 168.780717 10.926274 
L 170.680614 11.301809 
L 172.580512 11.298262 
L 174.48041 12.007108 
L 180.180104 10.946456 
L 182.080002 11.61442 
L 183.979899 11.605929 
L 185.879797 11.276843 
L 187.779695 11.274196 
L 189.679593 11.582073 
L 191.579491 11.574641 
L 193.479389 11.266735 
L 195.379287 10.669766 
L 197.279184 11.262135 
L 201.07898 11.257808 
L 202.978878 10.976174 
L 204.878776 10.978195 
L 206.778674 10.707831 
L 208.678572 10.982052 
L 210.578469 10.983908 
L 212.478367 10.724514 
L 214.378265 10.987456 
L 216.278163 10.989152 
L 220.077959 10.496514 
L 221.977857 11.237953 
L 223.877754 11.236426 
L 225.777652 10.997041 
L 227.67755 10.998508 
L 229.577448 11.232042 
L 231.477346 10.771487 
L 233.377244 11.002674 
L 242.876733 11.009026 
L 244.776631 10.585729 
L 246.676529 11.011353 
L 248.576427 10.805073 
L 250.476324 11.013604 
L 252.376222 10.811651 
L 254.27612 11.015738 
L 256.176018 10.817979 
L 259.975814 10.824026 
L 261.875712 10.633818 
L 263.775609 10.638621 
L 265.675507 10.832673 
L 267.575405 10.647945 
L 271.375201 11.024391 
L 273.275099 10.843428 
L 275.174996 10.845986 
L 278.974792 11.204263 
L 280.87469 10.853397 
L 282.774588 11.375671 
L 286.574384 11.030907 
L 288.474281 11.200371 
L 290.374179 10.864892 
L 292.274077 11.19892 
L 294.173975 11.198203 
L 296.073873 11.684916 
L 297.973771 11.196826 
L 299.873669 11.196145 
L 301.773566 11.354153 
L 303.673464 11.666235 
L 305.573362 11.661768 
L 309.373158 11.34651 
L 313.172954 11.945365 
L 315.072851 11.789754 
L 320.772545 11.774317 
L 322.672443 11.6245 
L 324.572341 11.764402 
L 326.472239 11.330997 
L 328.372136 11.754798 
L 330.272034 11.750094 
L 332.171932 11.605928 
L 334.07183 11.602369 
L 335.971728 11.323238 
L 339.771524 11.320299 
L 341.671421 11.588651 
L 343.571319 11.719037 
L 347.371115 11.182292 
L 349.271013 11.313281 
L 351.170911 11.181395 
L 353.070809 11.180947 
L 356.870604 11.435786 
L 358.770502 11.433676 
L 360.6704 11.305481 
L 362.570298 10.801651 
L 364.470196 10.928762 
L 366.370094 10.681349 
L 368.269991 11.177606 
L 370.169889 11.299429 
L 373.969685 11.055626 
L 375.869583 10.574402 
L 383.469174 11.174592 
L 385.369072 10.824627 
L 387.26897 10.710296 
L 389.168868 10.365818 
L 391.068766 10.600332 
L 392.968663 10.374747 
L 394.868561 10.719888 
L 396.768459 10.834887 
L 398.668357 10.612388 
L 400.568255 10.503711 
L 402.468153 10.6182 
L 406.267948 10.514211 
L 408.167846 10.735629 
L 411.967642 10.632185 
L 413.86754 10.955895 
L 415.767438 10.850486 
L 417.667336 10.428021 
L 419.567233 10.853393 
L 421.467131 11.06386 
L 423.367029 10.752162 
L 425.266927 10.961083 
L 429.066723 10.860425 
L 430.966621 10.963553 
L 436.666314 10.765474 
L 440.46611 11.264385 
L 442.366008 10.770892 
L 444.265906 10.575942 
L 446.165803 10.872129 
L 448.065701 10.873373 
L 449.965599 11.067814 
L 453.765395 10.589441 
L 455.665293 10.878206 
L 457.565191 10.68964 
L 459.465088 10.786186 
L 461.364986 11.069211 
L 465.164782 10.790987 
L 467.06468 10.977522 
L 468.964578 10.794104 
L 470.864476 11.070346 
L 472.764373 10.979499 
L 474.664271 11.342165 
L 480.363965 11.160683 
L 482.263863 11.160463 
L 484.163761 11.336944 
L 499.362943 11.41417 
L 501.262841 11.582084 
L 508.862433 11.324438 
L 514.562126 11.486031 
L 525.961513 11.556729 
L 527.861411 11.634493 
L 529.761309 11.473743 
L 531.661207 11.551267 
L 533.561105 11.863566 
L 537.3609 11.54594 
L 541.160696 11.697083 
L 543.060594 11.463652 
L 546.86039 11.460865 
L 548.760288 11.61178 
L 550.660185 11.912505 
L 552.560083 11.683317 
L 554.459981 11.756201 
L 556.359879 11.454098 
L 558.259777 11.825672 
L 560.159675 11.377033 
L 562.059573 11.746277 
L 563.95947 11.670187 
L 565.859368 11.88804 
L 567.759266 11.885093 
L 569.659164 11.736672 
L 571.559062 11.951649 
L 575.358858 11.945351 
L 577.258755 11.799024 
L 579.158653 11.796475 
L 581.058551 12.007094 
L 581.058551 12.007094 
" style="fill:none;stroke:#0072bd;stroke-linecap:square;stroke-width:3;"/>
    <defs>
     <path d="M -5 5 
L 5 -5 
M -5 -5 
L 5 5 
" id="md214a34548" style="stroke:#0072bd;"/>
    </defs>
    <g clip-path="url(#p9c316f39c6)">
     <use style="fill:#0072bd;stroke:#0072bd;" x="111.783781" xlink:href="#md214a34548" y="17.017721"/>
     <use style="fill:#0072bd;stroke:#0072bd;" x="212.478367" xlink:href="#md214a34548" y="10.724514"/>
     <use style="fill:#0072bd;stroke:#0072bd;" x="313.172954" xlink:href="#md214a34548" y="11.945365"/>
     <use style="fill:#0072bd;stroke:#0072bd;" x="413.86754" xlink:href="#md214a34548" y="10.955895"/>
     <use style="fill:#0072bd;stroke:#0072bd;" x="514.562126" xlink:href="#md214a34548" y="11.486031"/>
    </g>
   </g>
   <g id="line2d_32">
    <path clip-path="url(#p9c316f39c6)" d="M 73.785824 163.832942 
L 75.685722 149.351157 
L 77.58562 137.807712 
L 79.485517 133.610095 
L 81.385415 130.296187 
L 83.285313 126.655835 
L 85.185211 125.829799 
L 87.085109 124.675499 
L 88.985007 123.283954 
L 90.884905 122.156866 
L 92.784802 121.225388 
L 94.6847 121.585338 
L 96.584598 120.488871 
L 100.384394 120.562079 
L 102.284292 119.72934 
L 106.084087 119.363635 
L 107.983985 118.218836 
L 109.883883 117.651411 
L 111.783781 117.592875 
L 113.683679 117.757302 
L 115.583577 117.491252 
L 121.28327 117.368433 
L 123.183168 116.977214 
L 125.083066 116.957703 
L 126.982964 116.772916 
L 128.882862 116.761598 
L 132.682657 116.438023 
L 134.582555 116.73181 
L 136.482453 116.865006 
L 138.382351 116.576611 
L 140.282249 116.167623 
L 142.182147 116.569025 
L 144.082044 116.692736 
L 145.981942 116.31353 
L 147.88184 116.679867 
L 149.781738 116.556098 
L 151.681636 116.668236 
L 153.581534 116.325263 
L 155.481432 116.547968 
L 157.381329 116.114289 
L 159.281227 116.332709 
L 161.181125 116.128252 
L 164.980921 116.438024 
L 168.780717 116.152864 
L 170.680614 116.344986 
L 172.580512 115.980107 
L 176.380308 116.085486 
L 178.280206 116.178609 
L 180.180104 116.012654 
L 182.080002 116.354699 
L 183.979899 115.862044 
L 187.779695 116.040882 
L 189.679593 115.968887 
L 191.579491 116.207728 
L 195.379287 115.840881 
L 199.179082 116.076843 
L 201.07898 115.867558 
L 204.878776 115.814412 
L 208.678572 116.303941 
L 212.478367 115.980107 
L 218.178061 115.934992 
L 220.077959 115.816656 
L 221.977857 116.070834 
L 223.877754 116.014803 
L 225.777652 115.839947 
L 227.67755 116.143501 
L 231.477346 115.919479 
L 235.277142 116.213577 
L 237.177039 115.937551 
L 240.976835 115.839603 
L 242.876733 115.738033 
L 244.776631 115.906363 
L 250.476324 115.768168 
L 254.27612 115.984925 
L 258.075916 115.74609 
L 259.975814 115.900663 
L 261.875712 115.711334 
L 263.775609 115.959507 
L 265.675507 116.01181 
L 267.575405 115.732748 
L 269.475303 115.926755 
L 271.375201 115.792724 
L 273.275099 115.982279 
L 275.174996 115.850395 
L 278.974792 115.950421 
L 280.87469 115.733828 
L 284.674486 115.746537 
L 286.574384 115.967834 
L 292.274077 115.686616 
L 294.173975 115.859564 
L 297.973771 115.541664 
L 299.873669 115.833658 
L 301.773566 115.878867 
L 305.573362 115.610894 
L 307.47326 115.81413 
L 313.172954 115.981919 
L 316.972749 115.6876 
L 320.772545 115.847783 
L 322.672443 115.63096 
L 324.572341 115.820193 
L 326.472239 115.606729 
L 328.372136 115.865431 
L 332.171932 115.589514 
L 334.07183 115.701756 
L 335.971728 115.461205 
L 337.871626 115.747161 
L 341.671421 115.654076 
L 343.571319 115.523064 
L 345.471217 115.800318 
L 347.371115 115.838283 
L 349.271013 115.742503 
L 351.170911 115.780378 
L 354.970706 115.527554 
L 356.870604 115.793657 
L 358.770502 115.797962 
L 360.6704 115.642063 
L 362.570298 115.80641 
L 364.470196 115.684153 
L 366.370094 115.783275 
L 368.269991 115.631437 
L 370.169889 115.853587 
L 372.069787 115.672601 
L 375.869583 115.80392 
L 377.769481 115.656747 
L 389.168868 115.685105 
L 391.068766 115.428092 
L 392.968663 115.549839 
L 394.868561 115.812971 
L 408.167846 115.562849 
L 410.067744 115.868571 
L 411.967642 115.681671 
L 415.767438 115.690114 
L 421.467131 115.808143 
L 423.367029 115.574729 
L 432.866518 115.648998 
L 438.566212 115.812597 
L 440.46611 115.815852 
L 442.366008 115.644452 
L 444.265906 115.723058 
L 446.165803 115.627858 
L 448.065701 115.803998 
L 449.965599 115.538044 
L 451.865497 115.713165 
L 455.665293 115.64811 
L 457.565191 115.676029 
L 459.465088 115.846593 
L 463.264884 115.616302 
L 467.06468 115.811388 
L 468.964578 115.604891 
L 470.864476 115.771139 
L 474.664271 115.754562 
L 478.464067 115.533388 
L 480.363965 115.605703 
L 482.263863 115.564448 
L 484.163761 115.748051 
L 486.063658 115.55017 
L 491.763352 115.738651 
L 493.66325 115.456358 
L 497.463046 115.791486 
L 499.362943 115.59975 
L 501.262841 115.797253 
L 503.162739 115.693023 
L 505.062637 115.717656 
L 506.962535 115.571956 
L 510.762331 115.727096 
L 512.662228 115.688257 
L 514.562126 115.79582 
L 516.462024 115.590658 
L 518.361922 115.552791 
L 522.161718 115.683692 
L 524.061615 115.523064 
L 525.961513 115.669692 
L 529.761309 115.575058 
L 531.661207 115.538352 
L 537.3609 115.728387 
L 541.160696 115.517241 
L 543.060594 115.678215 
L 546.86039 115.664875 
L 548.760288 115.609784 
L 550.660185 115.728979 
L 552.560083 115.539309 
L 554.459981 115.734608 
L 558.259777 115.60708 
L 560.159675 115.705054 
L 562.059573 115.651346 
L 563.95947 115.785823 
L 567.759266 115.71639 
L 569.659164 115.607705 
L 571.559062 115.703437 
L 573.45896 115.595593 
L 581.058551 115.69911 
L 581.058551 115.69911 
" style="fill:none;stroke:#d95319;stroke-linecap:square;stroke-width:3;"/>
    <defs>
     <path d="M -0 7.071068 
L 4.242641 0 
L -0 -7.071068 
L -4.242641 -0 
z
" id="mab03aa2ab2" style="stroke:#d95319;stroke-linejoin:miter;"/>
    </defs>
    <g clip-path="url(#p9c316f39c6)">
     <use style="fill:#d95319;stroke:#d95319;stroke-linejoin:miter;" x="130.78276" xlink:href="#mab03aa2ab2" y="116.594755"/>
     <use style="fill:#d95319;stroke:#d95319;stroke-linejoin:miter;" x="231.477346" xlink:href="#mab03aa2ab2" y="115.919479"/>
     <use style="fill:#d95319;stroke:#d95319;stroke-linejoin:miter;" x="332.171932" xlink:href="#mab03aa2ab2" y="115.589514"/>
     <use style="fill:#d95319;stroke:#d95319;stroke-linejoin:miter;" x="432.866518" xlink:href="#mab03aa2ab2" y="115.648998"/>
     <use style="fill:#d95319;stroke:#d95319;stroke-linejoin:miter;" x="533.561105" xlink:href="#mab03aa2ab2" y="115.622343"/>
    </g>
   </g>
   <g id="line2d_33">
    <path clip-path="url(#p9c316f39c6)" d="M 73.785824 157.396606 
L 75.685722 70.645891 
L 77.58562 87.04586 
L 79.485517 71.578677 
L 81.385415 61.346541 
L 83.285313 54.076331 
L 85.185211 50.6118 
L 87.085109 46.223377 
L 88.985007 42.71265 
L 90.884905 41.331373 
L 92.784802 38.832357 
L 94.6847 37.991315 
L 98.484496 36.667547 
L 100.384394 35.106063 
L 104.18419 34.348839 
L 106.084087 33.160182 
L 107.983985 27.796 
L 109.883883 27.841002 
L 113.683679 26.398059 
L 119.383372 26.679097 
L 121.28327 27.399376 
L 123.183168 26.209969 
L 125.083066 26.898237 
L 126.982964 26.960947 
L 130.78276 25.995342 
L 132.682657 26.604576 
L 140.282249 26.839481 
L 144.082044 26.060389 
L 145.981942 26.557124 
L 147.88184 26.194204 
L 149.781738 26.662538 
L 153.581534 26.757931 
L 155.481432 27.553584 
L 157.381329 26.475509 
L 159.281227 26.885142 
L 161.181125 27.625975 
L 163.081023 27.30512 
L 164.980921 28.003884 
L 166.880819 27.689567 
L 174.48041 27.76318 
L 176.380308 28.077418 
L 178.280206 27.795998 
L 180.180104 28.098449 
L 182.080002 28.108406 
L 183.979899 28.39426 
L 185.879797 28.127328 
L 187.779695 28.403381 
L 189.679593 28.145017 
L 191.579491 28.153428 
L 195.379287 28.669718 
L 199.179082 28.184565 
L 202.978878 28.669708 
L 204.878776 28.205553 
L 206.778674 28.66971 
L 208.678572 28.669718 
L 210.578469 28.2248 
L 212.478367 28.230874 
L 216.278163 28.669708 
L 218.178061 28.669715 
L 220.077959 28.877113 
L 221.977857 28.05281 
L 223.877754 28.467097 
L 225.777652 28.269113 
L 227.67755 28.472076 
L 229.577448 28.864554 
L 231.477346 28.476828 
L 233.377244 28.85996 
L 235.277142 29.045382 
L 237.177039 28.48351 
L 240.976835 29.213623 
L 242.876733 28.669719 
L 244.776631 28.669715 
L 248.576427 29.016994 
L 250.476324 28.324915 
L 252.376222 28.157538 
L 254.27612 28.501074 
L 256.176018 28.33564 
L 258.075916 28.8346 
L 259.975814 29.158541 
L 261.875712 28.669716 
L 263.775609 28.50947 
L 265.675507 28.669708 
L 267.575405 28.669722 
L 269.475303 28.514125 
L 271.375201 28.977186 
L 273.275099 28.057692 
L 275.174996 28.820678 
L 277.074894 28.968607 
L 278.974792 28.817907 
L 280.87469 28.963166 
L 282.774588 28.52398 
L 284.674486 28.813912 
L 286.574384 28.239671 
L 288.474281 28.669716 
L 290.374179 28.388237 
L 292.274077 28.669709 
L 294.173975 28.531502 
L 296.073873 28.806565 
L 297.973771 28.669714 
L 301.773566 28.936409 
L 303.673464 28.66972 
L 305.573362 28.669716 
L 307.47326 28.539334 
L 309.373158 29.185309 
L 311.273056 28.412951 
L 313.172954 28.923786 
L 315.072851 28.921793 
L 316.972749 28.669712 
L 318.872647 28.545374 
L 320.772545 29.161659 
L 322.672443 28.424677 
L 324.572341 28.548196 
L 330.272034 28.550893 
L 332.171932 28.787527 
L 334.07183 28.435378 
L 335.971728 28.66971 
L 337.871626 28.784986 
L 339.771524 28.669718 
L 341.671421 28.896882 
L 345.471217 28.893714 
L 347.371115 29.114106 
L 351.170911 28.998661 
L 353.070809 28.887648 
L 354.970706 28.561303 
L 356.870604 28.669718 
L 358.770502 28.989934 
L 360.6704 28.987821 
L 362.570298 28.45845 
L 364.470196 28.774478 
L 368.269991 28.462535 
L 370.169889 29.080109 
L 372.069787 28.873823 
L 373.969685 29.074936 
L 375.869583 28.871273 
L 377.769481 28.970012 
L 379.669379 28.570025 
L 381.569276 28.867549 
L 385.369072 29.157556 
L 387.26897 28.76689 
L 391.068766 29.244386 
L 392.968663 29.050944 
L 394.868561 28.574747 
L 396.768459 28.858278 
L 404.368051 28.761871 
L 406.267948 28.669711 
L 411.967642 28.849838 
L 413.86754 28.669723 
L 415.767438 28.936781 
L 419.567233 29.197279 
L 421.467131 28.757364 
L 429.066723 29.097847 
L 432.866518 28.839398 
L 434.766416 29.343089 
L 436.666314 28.669717 
L 438.566212 28.502401 
L 440.46611 28.918863 
L 442.366008 29.082486 
L 444.265906 29.407639 
L 446.165803 28.915068 
L 449.965599 29.316044 
L 451.865497 28.911386 
L 453.765395 28.910171 
L 455.665293 29.227094 
L 457.565191 29.303311 
L 461.364986 29.218943 
L 463.264884 28.904327 
L 465.164782 29.13612 
L 467.06468 28.979394 
L 470.864476 29.12946 
L 472.764373 28.822469 
L 474.664271 29.125119 
L 476.564169 28.821047 
L 480.363965 29.491367 
L 482.263863 28.967918 
L 487.963556 29.403341 
L 489.863454 29.035559 
L 493.66325 29.249133 
L 495.563148 29.102644 
L 497.463046 29.315501 
L 499.362943 29.027425 
L 501.262841 29.380647 
L 503.162739 29.236379 
L 505.062637 29.233886 
L 506.962535 29.091306 
L 510.762331 29.226567 
L 512.662228 29.016624 
L 516.462024 29.219436 
L 518.361922 29.14885 
L 520.26182 29.214777 
L 522.161718 29.077078 
L 524.061615 29.277545 
L 527.861411 29.339241 
L 529.761309 29.535587 
L 531.661207 29.134992 
L 533.561105 29.594217 
L 535.461003 29.459449 
L 537.3609 29.456238 
L 539.260798 29.127422 
L 541.160696 28.995548 
L 544.960492 29.315067 
L 546.86039 29.440538 
L 548.760288 29.437464 
L 550.660185 29.561294 
L 552.560083 29.241557 
L 554.459981 29.049808 
L 556.359879 29.3627 
L 558.259777 29.422498 
L 560.159675 29.606138 
L 562.059573 29.540604 
L 563.95947 29.352009 
L 565.859368 29.656762 
L 569.659164 29.466342 
L 575.358858 29.396987 
L 577.258755 29.574537 
L 579.158653 29.331599 
L 581.058551 29.508201 
L 581.058551 29.508201 
" style="fill:none;stroke:#7e2f8e;stroke-linecap:square;stroke-width:3;"/>
    <defs>
     <path d="M -5 0 
L 5 0 
M 0 5 
L 0 -5 
" id="mc74498329a" style="stroke:#7e2f8e;"/>
    </defs>
    <g clip-path="url(#p9c316f39c6)">
     <use style="fill:#7e2f8e;stroke:#7e2f8e;" x="149.781738" xlink:href="#mc74498329a" y="26.662538"/>
     <use style="fill:#7e2f8e;stroke:#7e2f8e;" x="250.476324" xlink:href="#mc74498329a" y="28.324915"/>
     <use style="fill:#7e2f8e;stroke:#7e2f8e;" x="351.170911" xlink:href="#mc74498329a" y="28.998661"/>
     <use style="fill:#7e2f8e;stroke:#7e2f8e;" x="451.865497" xlink:href="#mc74498329a" y="28.911386"/>
     <use style="fill:#7e2f8e;stroke:#7e2f8e;" x="552.560083" xlink:href="#mc74498329a" y="29.241557"/>
    </g>
   </g>
   <g id="legend_1">
    <g id="patch_7">
     <path d="M 341.484688 214.26 
L 595.922188 214.26 
Q 598.922188 214.26 598.922188 211.26 
L 598.922188 102.674062 
Q 598.922188 99.674062 595.922188 99.674062 
L 341.484688 99.674062 
Q 338.484688 99.674062 338.484688 102.674062 
L 338.484688 211.26 
Q 338.484688 214.26 341.484688 214.26 
z
" style="fill:#ffffff;opacity:0.8;stroke:#cccccc;stroke-linejoin:miter;"/>
    </g>
    <g id="line2d_34">
     <path d="M 344.484688 111.821719 
L 374.484688 111.821719 
" style="fill:none;stroke:#a2142f;stroke-linecap:square;stroke-width:3;"/>
    </g>
    <g id="line2d_35">
     <g>
      <use style="fill:#a2142f;stroke:#a2142f;stroke-linejoin:miter;" x="359.484688" xlink:href="#m20c3eea4c4" y="111.821719"/>
     </g>
    </g>
    <g id="text_18">
     <!-- DOT fp64 -->
     <g transform="translate(386.484688 117.071719)scale(0.15 -0.15)">
      <defs>
       <path d="M 1259 4147 
L 1259 519 
L 2022 519 
Q 2988 519 3436 956 
Q 3884 1394 3884 2338 
Q 3884 3275 3436 3711 
Q 2988 4147 2022 4147 
L 1259 4147 
z
M 628 4666 
L 1925 4666 
Q 3281 4666 3915 4102 
Q 4550 3538 4550 2338 
Q 4550 1131 3912 565 
Q 3275 0 1925 0 
L 628 0 
L 628 4666 
z
" id="DejaVuSans-44" transform="scale(0.015625)"/>
       <path d="M -19 4666 
L 3928 4666 
L 3928 4134 
L 2272 4134 
L 2272 0 
L 1638 0 
L 1638 4134 
L -19 4134 
L -19 4666 
z
" id="DejaVuSans-54" transform="scale(0.015625)"/>
       <path d="M 2375 4863 
L 2375 4384 
L 1825 4384 
Q 1516 4384 1395 4259 
Q 1275 4134 1275 3809 
L 1275 3500 
L 2222 3500 
L 2222 3053 
L 1275 3053 
L 1275 0 
L 697 0 
L 697 3053 
L 147 3053 
L 147 3500 
L 697 3500 
L 697 3744 
Q 697 4328 969 4595 
Q 1241 4863 1831 4863 
L 2375 4863 
z
" id="DejaVuSans-66" transform="scale(0.015625)"/>
       <path d="M 1159 525 
L 1159 -1331 
L 581 -1331 
L 581 3500 
L 1159 3500 
L 1159 2969 
Q 1341 3281 1617 3432 
Q 1894 3584 2278 3584 
Q 2916 3584 3314 3078 
Q 3713 2572 3713 1747 
Q 3713 922 3314 415 
Q 2916 -91 2278 -91 
Q 1894 -91 1617 61 
Q 1341 213 1159 525 
z
M 3116 1747 
Q 3116 2381 2855 2742 
Q 2594 3103 2138 3103 
Q 1681 3103 1420 2742 
Q 1159 2381 1159 1747 
Q 1159 1113 1420 752 
Q 1681 391 2138 391 
Q 2594 391 2855 752 
Q 3116 1113 3116 1747 
z
" id="DejaVuSans-70" transform="scale(0.015625)"/>
       <path d="M 2113 2584 
Q 1688 2584 1439 2293 
Q 1191 2003 1191 1497 
Q 1191 994 1439 701 
Q 1688 409 2113 409 
Q 2538 409 2786 701 
Q 3034 994 3034 1497 
Q 3034 2003 2786 2293 
Q 2538 2584 2113 2584 
z
M 3366 4563 
L 3366 3988 
Q 3128 4100 2886 4159 
Q 2644 4219 2406 4219 
Q 1781 4219 1451 3797 
Q 1122 3375 1075 2522 
Q 1259 2794 1537 2939 
Q 1816 3084 2150 3084 
Q 2853 3084 3261 2657 
Q 3669 2231 3669 1497 
Q 3669 778 3244 343 
Q 2819 -91 2113 -91 
Q 1303 -91 875 529 
Q 447 1150 447 2328 
Q 447 3434 972 4092 
Q 1497 4750 2381 4750 
Q 2619 4750 2861 4703 
Q 3103 4656 3366 4563 
z
" id="DejaVuSans-36" transform="scale(0.015625)"/>
      </defs>
      <use xlink:href="#DejaVuSans-44"/>
      <use x="77.001953" xlink:href="#DejaVuSans-4f"/>
      <use x="155.712891" xlink:href="#DejaVuSans-54"/>
      <use x="216.796875" xlink:href="#DejaVuSans-20"/>
      <use x="248.583984" xlink:href="#DejaVuSans-66"/>
      <use x="283.789062" xlink:href="#DejaVuSans-70"/>
      <use x="347.265625" xlink:href="#DejaVuSans-36"/>
      <use x="410.888672" xlink:href="#DejaVuSans-34"/>
     </g>
    </g>
    <g id="line2d_36">
     <path d="M 344.484688 133.838906 
L 374.484688 133.838906 
" style="fill:none;stroke:#77ac30;stroke-linecap:square;stroke-width:3;"/>
    </g>
    <g id="line2d_37">
     <g>
      <use style="fill:#77ac30;stroke:#77ac30;stroke-linejoin:miter;" x="359.484688" xlink:href="#mf8e6fb36cd" y="133.838906"/>
     </g>
    </g>
    <g id="text_19">
     <!-- DOT fp32 -->
     <g transform="translate(386.484688 139.088906)scale(0.15 -0.15)">
      <use xlink:href="#DejaVuSans-44"/>
      <use x="77.001953" xlink:href="#DejaVuSans-4f"/>
      <use x="155.712891" xlink:href="#DejaVuSans-54"/>
      <use x="216.796875" xlink:href="#DejaVuSans-20"/>
      <use x="248.583984" xlink:href="#DejaVuSans-66"/>
      <use x="283.789062" xlink:href="#DejaVuSans-70"/>
      <use x="347.265625" xlink:href="#DejaVuSans-33"/>
      <use x="410.888672" xlink:href="#DejaVuSans-32"/>
     </g>
    </g>
    <g id="line2d_38">
     <path d="M 344.484688 155.856094 
L 374.484688 155.856094 
" style="fill:none;stroke:#0072bd;stroke-linecap:square;stroke-width:3;"/>
    </g>
    <g id="line2d_39">
     <g>
      <use style="fill:#0072bd;stroke:#0072bd;" x="359.484688" xlink:href="#md214a34548" y="155.856094"/>
     </g>
    </g>
    <g id="text_20">
     <!-- DOT Accessor&lt;fp64, fp32&gt; -->
     <g transform="translate(386.484688 161.106094)scale(0.15 -0.15)">
      <defs>
       <path d="M 2188 4044 
L 1331 1722 
L 3047 1722 
L 2188 4044 
z
M 1831 4666 
L 2547 4666 
L 4325 0 
L 3669 0 
L 3244 1197 
L 1141 1197 
L 716 0 
L 50 0 
L 1831 4666 
z
" id="DejaVuSans-41" transform="scale(0.015625)"/>
       <path d="M 4684 3150 
L 1459 2003 
L 4684 863 
L 4684 294 
L 678 1747 
L 678 2266 
L 4684 3719 
L 4684 3150 
z
" id="DejaVuSans-3c" transform="scale(0.015625)"/>
       <path d="M 750 794 
L 1409 794 
L 1409 256 
L 897 -744 
L 494 -744 
L 750 256 
L 750 794 
z
" id="DejaVuSans-2c" transform="scale(0.015625)"/>
       <path d="M 678 3150 
L 678 3719 
L 4684 2266 
L 4684 1747 
L 678 294 
L 678 863 
L 3897 2003 
L 678 3150 
z
" id="DejaVuSans-3e" transform="scale(0.015625)"/>
      </defs>
      <use xlink:href="#DejaVuSans-44"/>
      <use x="77.001953" xlink:href="#DejaVuSans-4f"/>
      <use x="155.712891" xlink:href="#DejaVuSans-54"/>
      <use x="216.796875" xlink:href="#DejaVuSans-20"/>
      <use x="248.583984" xlink:href="#DejaVuSans-41"/>
      <use x="315.242188" xlink:href="#DejaVuSans-63"/>
      <use x="370.222656" xlink:href="#DejaVuSans-63"/>
      <use x="425.203125" xlink:href="#DejaVuSans-65"/>
      <use x="486.726562" xlink:href="#DejaVuSans-73"/>
      <use x="538.826172" xlink:href="#DejaVuSans-73"/>
      <use x="590.925781" xlink:href="#DejaVuSans-6f"/>
      <use x="652.107422" xlink:href="#DejaVuSans-72"/>
      <use x="693.220703" xlink:href="#DejaVuSans-3c"/>
      <use x="777.009766" xlink:href="#DejaVuSans-66"/>
      <use x="812.214844" xlink:href="#DejaVuSans-70"/>
      <use x="875.691406" xlink:href="#DejaVuSans-36"/>
      <use x="939.314453" xlink:href="#DejaVuSans-34"/>
      <use x="1002.9375" xlink:href="#DejaVuSans-2c"/>
      <use x="1034.724609" xlink:href="#DejaVuSans-20"/>
      <use x="1066.511719" xlink:href="#DejaVuSans-66"/>
      <use x="1101.716797" xlink:href="#DejaVuSans-70"/>
      <use x="1165.193359" xlink:href="#DejaVuSans-33"/>
      <use x="1228.816406" xlink:href="#DejaVuSans-32"/>
      <use x="1292.439453" xlink:href="#DejaVuSans-3e"/>
     </g>
    </g>
    <g id="line2d_40">
     <path d="M 344.484688 177.873281 
L 374.484688 177.873281 
" style="fill:none;stroke:#d95319;stroke-linecap:square;stroke-width:3;"/>
    </g>
    <g id="line2d_41">
     <g>
      <use style="fill:#d95319;stroke:#d95319;stroke-linejoin:miter;" x="359.484688" xlink:href="#mab03aa2ab2" y="177.873281"/>
     </g>
    </g>
    <g id="text_21">
     <!-- DOT cuBLAS fp64 -->
     <g transform="translate(386.484688 183.123281)scale(0.15 -0.15)">
      <defs>
       <path d="M 544 1381 
L 544 3500 
L 1119 3500 
L 1119 1403 
Q 1119 906 1312 657 
Q 1506 409 1894 409 
Q 2359 409 2629 706 
Q 2900 1003 2900 1516 
L 2900 3500 
L 3475 3500 
L 3475 0 
L 2900 0 
L 2900 538 
Q 2691 219 2414 64 
Q 2138 -91 1772 -91 
Q 1169 -91 856 284 
Q 544 659 544 1381 
z
M 1991 3584 
L 1991 3584 
z
" id="DejaVuSans-75" transform="scale(0.015625)"/>
       <path d="M 1259 2228 
L 1259 519 
L 2272 519 
Q 2781 519 3026 730 
Q 3272 941 3272 1375 
Q 3272 1813 3026 2020 
Q 2781 2228 2272 2228 
L 1259 2228 
z
M 1259 4147 
L 1259 2741 
L 2194 2741 
Q 2656 2741 2882 2914 
Q 3109 3088 3109 3444 
Q 3109 3797 2882 3972 
Q 2656 4147 2194 4147 
L 1259 4147 
z
M 628 4666 
L 2241 4666 
Q 2963 4666 3353 4366 
Q 3744 4066 3744 3513 
Q 3744 3084 3544 2831 
Q 3344 2578 2956 2516 
Q 3422 2416 3680 2098 
Q 3938 1781 3938 1306 
Q 3938 681 3513 340 
Q 3088 0 2303 0 
L 628 0 
L 628 4666 
z
" id="DejaVuSans-42" transform="scale(0.015625)"/>
       <path d="M 3425 4513 
L 3425 3897 
Q 3066 4069 2747 4153 
Q 2428 4238 2131 4238 
Q 1616 4238 1336 4038 
Q 1056 3838 1056 3469 
Q 1056 3159 1242 3001 
Q 1428 2844 1947 2747 
L 2328 2669 
Q 3034 2534 3370 2195 
Q 3706 1856 3706 1288 
Q 3706 609 3251 259 
Q 2797 -91 1919 -91 
Q 1588 -91 1214 -16 
Q 841 59 441 206 
L 441 856 
Q 825 641 1194 531 
Q 1563 422 1919 422 
Q 2459 422 2753 634 
Q 3047 847 3047 1241 
Q 3047 1584 2836 1778 
Q 2625 1972 2144 2069 
L 1759 2144 
Q 1053 2284 737 2584 
Q 422 2884 422 3419 
Q 422 4038 858 4394 
Q 1294 4750 2059 4750 
Q 2388 4750 2728 4690 
Q 3069 4631 3425 4513 
z
" id="DejaVuSans-53" transform="scale(0.015625)"/>
      </defs>
      <use xlink:href="#DejaVuSans-44"/>
      <use x="77.001953" xlink:href="#DejaVuSans-4f"/>
      <use x="155.712891" xlink:href="#DejaVuSans-54"/>
      <use x="216.796875" xlink:href="#DejaVuSans-20"/>
      <use x="248.583984" xlink:href="#DejaVuSans-63"/>
      <use x="303.564453" xlink:href="#DejaVuSans-75"/>
      <use x="366.943359" xlink:href="#DejaVuSans-42"/>
      <use x="435.546875" xlink:href="#DejaVuSans-4c"/>
      <use x="493.509766" xlink:href="#DejaVuSans-41"/>
      <use x="561.917969" xlink:href="#DejaVuSans-53"/>
      <use x="625.394531" xlink:href="#DejaVuSans-20"/>
      <use x="657.181641" xlink:href="#DejaVuSans-66"/>
      <use x="692.386719" xlink:href="#DejaVuSans-70"/>
      <use x="755.863281" xlink:href="#DejaVuSans-36"/>
      <use x="819.486328" xlink:href="#DejaVuSans-34"/>
     </g>
    </g>
    <g id="line2d_42">
     <path d="M 344.484688 199.890469 
L 374.484688 199.890469 
" style="fill:none;stroke:#7e2f8e;stroke-linecap:square;stroke-width:3;"/>
    </g>
    <g id="line2d_43">
     <g>
      <use style="fill:#7e2f8e;stroke:#7e2f8e;" x="359.484688" xlink:href="#mc74498329a" y="199.890469"/>
     </g>
    </g>
    <g id="text_22">
     <!-- DOT cuBLAS fp32 -->
     <g transform="translate(386.484688 205.140469)scale(0.15 -0.15)">
      <use xlink:href="#DejaVuSans-44"/>
      <use x="77.001953" xlink:href="#DejaVuSans-4f"/>
      <use x="155.712891" xlink:href="#DejaVuSans-54"/>
      <use x="216.796875" xlink:href="#DejaVuSans-20"/>
      <use x="248.583984" xlink:href="#DejaVuSans-63"/>
      <use x="303.564453" xlink:href="#DejaVuSans-75"/>
      <use x="366.943359" xlink:href="#DejaVuSans-42"/>
      <use x="435.546875" xlink:href="#DejaVuSans-4c"/>
      <use x="493.509766" xlink:href="#DejaVuSans-41"/>
      <use x="561.917969" xlink:href="#DejaVuSans-53"/>
      <use x="625.394531" xlink:href="#DejaVuSans-20"/>
      <use x="657.181641" xlink:href="#DejaVuSans-66"/>
      <use x="692.386719" xlink:href="#DejaVuSans-70"/>
      <use x="755.863281" xlink:href="#DejaVuSans-33"/>
      <use x="819.486328" xlink:href="#DejaVuSans-32"/>
     </g>
    </g>
   </g>
  </g>
 </g>
 <defs>
  <clipPath id="p9c316f39c6">
   <rect height="221.76" width="558" x="48.422187" y="-0"/>
  </clipPath>
 </defs>
</svg>
