<?xml version="1.0" encoding="utf-8" standalone="no"?>
<!DOCTYPE svg PUBLIC "-//W3C//DTD SVG 1.1//EN"
  "http://www.w3.org/Graphics/SVG/1.1/DTD/svg11.dtd">
<svg height="258.890937pt" version="1.1" viewBox="0 0 616.997187 258.890937" width="616.997187pt" xmlns="http://www.w3.org/2000/svg" xmlns:xlink="http://www.w3.org/1999/xlink">
 <metadata>
  <rdf:RDF xmlns:cc="http://creativecommons.org/ns#" xmlns:dc="http://purl.org/dc/elements/1.1/" xmlns:rdf="http://www.w3.org/1999/02/22-rdf-syntax-ns#">
   <cc:Work>
    <dc:type rdf:resource="http://purl.org/dc/dcmitype/StillImage"/>
    <dc:date>2022-02-09T18:25:27.723908</dc:date>
    <dc:format>image/svg+xml</dc:format>
    <dc:creator>
     <cc:Agent>
      <dc:title>Matplotlib v3.4.1, https://matplotlib.org/</dc:title>
     </cc:Agent>
    </dc:creator>
   </cc:Work>
  </rdf:RDF>
 </metadata>
 <defs>
  <style type="text/css">*{stroke-linecap:butt;stroke-linejoin:round;}</style>
 </defs>
 <g id="figure_1">
  <g id="patch_1">
   <path d="M 0 258.890937 
L 616.997187 258.890937 
L 616.997187 0 
L 0 0 
z
" style="fill:#ffffff;"/>
  </g>
  <g id="axes_1">
   <g id="patch_2">
    <path d="M 58.997188 221.76 
L 616.997187 221.76 
L 616.997187 -0 
L 58.997188 -0 
z
" style="fill:#ffffff;"/>
   </g>
   <g id="matplotlib.axis_1">
    <g id="xtick_1">
     <g id="line2d_1">
      <path clip-path="url(#pfd8d1c1655)" d="M 83.410875 221.76 
L 83.410875 -0 
" style="fill:none;stroke:#cccccc;stroke-linecap:square;"/>
     </g>
     <g id="line2d_2">
      <defs>
       <path d="M 0 0 
L 0 3.5 
" id="m46eb88ca26" style="stroke:#000000;stroke-width:0.8;"/>
      </defs>
      <g>
       <use style="stroke:#000000;stroke-width:0.8;" x="83.410875" xlink:href="#m46eb88ca26" y="221.76"/>
      </g>
     </g>
     <g id="text_1">
      <!-- 0 -->
      <g transform="translate(79.593375 237.878125)scale(0.12 -0.12)">
       <defs>
        <path d="M 2034 4250 
Q 1547 4250 1301 3770 
Q 1056 3291 1056 2328 
Q 1056 1369 1301 889 
Q 1547 409 2034 409 
Q 2525 409 2770 889 
Q 3016 1369 3016 2328 
Q 3016 3291 2770 3770 
Q 2525 4250 2034 4250 
z
M 2034 4750 
Q 2819 4750 3233 4129 
Q 3647 3509 3647 2328 
Q 3647 1150 3233 529 
Q 2819 -91 2034 -91 
Q 1250 -91 836 529 
Q 422 1150 422 2328 
Q 422 3509 836 4129 
Q 1250 4750 2034 4750 
z
" id="DejaVuSans-30" transform="scale(0.015625)"/>
       </defs>
       <use xlink:href="#DejaVuSans-30"/>
      </g>
     </g>
    </g>
    <g id="xtick_2">
     <g id="line2d_3">
      <path clip-path="url(#pfd8d1c1655)" d="M 178.405768 221.76 
L 178.405768 -0 
" style="fill:none;stroke:#cccccc;stroke-linecap:square;"/>
     </g>
     <g id="line2d_4">
      <g>
       <use style="stroke:#000000;stroke-width:0.8;" x="178.405768" xlink:href="#m46eb88ca26" y="221.76"/>
      </g>
     </g>
     <g id="text_2">
      <!-- 1 -->
      <g transform="translate(174.588268 237.878125)scale(0.12 -0.12)">
       <defs>
        <path d="M 794 531 
L 1825 531 
L 1825 4091 
L 703 3866 
L 703 4441 
L 1819 4666 
L 2450 4666 
L 2450 531 
L 3481 531 
L 3481 0 
L 794 0 
L 794 531 
z
" id="DejaVuSans-31" transform="scale(0.015625)"/>
       </defs>
       <use xlink:href="#DejaVuSans-31"/>
      </g>
     </g>
    </g>
    <g id="xtick_3">
     <g id="line2d_5">
      <path clip-path="url(#pfd8d1c1655)" d="M 273.40066 221.76 
L 273.40066 -0 
" style="fill:none;stroke:#cccccc;stroke-linecap:square;"/>
     </g>
     <g id="line2d_6">
      <g>
       <use style="stroke:#000000;stroke-width:0.8;" x="273.40066" xlink:href="#m46eb88ca26" y="221.76"/>
      </g>
     </g>
     <g id="text_3">
      <!-- 2 -->
      <g transform="translate(269.58316 237.878125)scale(0.12 -0.12)">
       <defs>
        <path d="M 1228 531 
L 3431 531 
L 3431 0 
L 469 0 
L 469 531 
Q 828 903 1448 1529 
Q 2069 2156 2228 2338 
Q 2531 2678 2651 2914 
Q 2772 3150 2772 3378 
Q 2772 3750 2511 3984 
Q 2250 4219 1831 4219 
Q 1534 4219 1204 4116 
Q 875 4013 500 3803 
L 500 4441 
Q 881 4594 1212 4672 
Q 1544 4750 1819 4750 
Q 2544 4750 2975 4387 
Q 3406 4025 3406 3419 
Q 3406 3131 3298 2873 
Q 3191 2616 2906 2266 
Q 2828 2175 2409 1742 
Q 1991 1309 1228 531 
z
" id="DejaVuSans-32" transform="scale(0.015625)"/>
       </defs>
       <use xlink:href="#DejaVuSans-32"/>
      </g>
     </g>
    </g>
    <g id="xtick_4">
     <g id="line2d_7">
      <path clip-path="url(#pfd8d1c1655)" d="M 368.395553 221.76 
L 368.395553 -0 
" style="fill:none;stroke:#cccccc;stroke-linecap:square;"/>
     </g>
     <g id="line2d_8">
      <g>
       <use style="stroke:#000000;stroke-width:0.8;" x="368.395553" xlink:href="#m46eb88ca26" y="221.76"/>
      </g>
     </g>
     <g id="text_4">
      <!-- 3 -->
      <g transform="translate(364.578053 237.878125)scale(0.12 -0.12)">
       <defs>
        <path d="M 2597 2516 
Q 3050 2419 3304 2112 
Q 3559 1806 3559 1356 
Q 3559 666 3084 287 
Q 2609 -91 1734 -91 
Q 1441 -91 1130 -33 
Q 819 25 488 141 
L 488 750 
Q 750 597 1062 519 
Q 1375 441 1716 441 
Q 2309 441 2620 675 
Q 2931 909 2931 1356 
Q 2931 1769 2642 2001 
Q 2353 2234 1838 2234 
L 1294 2234 
L 1294 2753 
L 1863 2753 
Q 2328 2753 2575 2939 
Q 2822 3125 2822 3475 
Q 2822 3834 2567 4026 
Q 2313 4219 1838 4219 
Q 1578 4219 1281 4162 
Q 984 4106 628 3988 
L 628 4550 
Q 988 4650 1302 4700 
Q 1616 4750 1894 4750 
Q 2613 4750 3031 4423 
Q 3450 4097 3450 3541 
Q 3450 3153 3228 2886 
Q 3006 2619 2597 2516 
z
" id="DejaVuSans-33" transform="scale(0.015625)"/>
       </defs>
       <use xlink:href="#DejaVuSans-33"/>
      </g>
     </g>
    </g>
    <g id="xtick_5">
     <g id="line2d_9">
      <path clip-path="url(#pfd8d1c1655)" d="M 463.390446 221.76 
L 463.390446 -0 
" style="fill:none;stroke:#cccccc;stroke-linecap:square;"/>
     </g>
     <g id="line2d_10">
      <g>
       <use style="stroke:#000000;stroke-width:0.8;" x="463.390446" xlink:href="#m46eb88ca26" y="221.76"/>
      </g>
     </g>
     <g id="text_5">
      <!-- 4 -->
      <g transform="translate(459.572946 237.878125)scale(0.12 -0.12)">
       <defs>
        <path d="M 2419 4116 
L 825 1625 
L 2419 1625 
L 2419 4116 
z
M 2253 4666 
L 3047 4666 
L 3047 1625 
L 3713 1625 
L 3713 1100 
L 3047 1100 
L 3047 0 
L 2419 0 
L 2419 1100 
L 313 1100 
L 313 1709 
L 2253 4666 
z
" id="DejaVuSans-34" transform="scale(0.015625)"/>
       </defs>
       <use xlink:href="#DejaVuSans-34"/>
      </g>
     </g>
    </g>
    <g id="xtick_6">
     <g id="line2d_11">
      <path clip-path="url(#pfd8d1c1655)" d="M 558.385339 221.76 
L 558.385339 -0 
" style="fill:none;stroke:#cccccc;stroke-linecap:square;"/>
     </g>
     <g id="line2d_12">
      <g>
       <use style="stroke:#000000;stroke-width:0.8;" x="558.385339" xlink:href="#m46eb88ca26" y="221.76"/>
      </g>
     </g>
     <g id="text_6">
      <!-- 5 -->
      <g transform="translate(554.567839 237.878125)scale(0.12 -0.12)">
       <defs>
        <path d="M 691 4666 
L 3169 4666 
L 3169 4134 
L 1269 4134 
L 1269 2991 
Q 1406 3038 1543 3061 
Q 1681 3084 1819 3084 
Q 2600 3084 3056 2656 
Q 3513 2228 3513 1497 
Q 3513 744 3044 326 
Q 2575 -91 1722 -91 
Q 1428 -91 1123 -41 
Q 819 9 494 109 
L 494 744 
Q 775 591 1075 516 
Q 1375 441 1709 441 
Q 2250 441 2565 725 
Q 2881 1009 2881 1497 
Q 2881 1984 2565 2268 
Q 2250 2553 1709 2553 
Q 1456 2553 1204 2497 
Q 953 2441 691 2322 
L 691 4666 
z
" id="DejaVuSans-35" transform="scale(0.015625)"/>
       </defs>
       <use xlink:href="#DejaVuSans-35"/>
      </g>
     </g>
    </g>
    <g id="text_7">
     <!-- Vector size -->
     <g transform="translate(297.171406 255.771406)scale(0.15 -0.15)">
      <defs>
       <path d="M 1831 0 
L 50 4666 
L 709 4666 
L 2188 738 
L 3669 4666 
L 4325 4666 
L 2547 0 
L 1831 0 
z
" id="DejaVuSans-56" transform="scale(0.015625)"/>
       <path d="M 3597 1894 
L 3597 1613 
L 953 1613 
Q 991 1019 1311 708 
Q 1631 397 2203 397 
Q 2534 397 2845 478 
Q 3156 559 3463 722 
L 3463 178 
Q 3153 47 2828 -22 
Q 2503 -91 2169 -91 
Q 1331 -91 842 396 
Q 353 884 353 1716 
Q 353 2575 817 3079 
Q 1281 3584 2069 3584 
Q 2775 3584 3186 3129 
Q 3597 2675 3597 1894 
z
M 3022 2063 
Q 3016 2534 2758 2815 
Q 2500 3097 2075 3097 
Q 1594 3097 1305 2825 
Q 1016 2553 972 2059 
L 3022 2063 
z
" id="DejaVuSans-65" transform="scale(0.015625)"/>
       <path d="M 3122 3366 
L 3122 2828 
Q 2878 2963 2633 3030 
Q 2388 3097 2138 3097 
Q 1578 3097 1268 2742 
Q 959 2388 959 1747 
Q 959 1106 1268 751 
Q 1578 397 2138 397 
Q 2388 397 2633 464 
Q 2878 531 3122 666 
L 3122 134 
Q 2881 22 2623 -34 
Q 2366 -91 2075 -91 
Q 1284 -91 818 406 
Q 353 903 353 1747 
Q 353 2603 823 3093 
Q 1294 3584 2113 3584 
Q 2378 3584 2631 3529 
Q 2884 3475 3122 3366 
z
" id="DejaVuSans-63" transform="scale(0.015625)"/>
       <path d="M 1172 4494 
L 1172 3500 
L 2356 3500 
L 2356 3053 
L 1172 3053 
L 1172 1153 
Q 1172 725 1289 603 
Q 1406 481 1766 481 
L 2356 481 
L 2356 0 
L 1766 0 
Q 1100 0 847 248 
Q 594 497 594 1153 
L 594 3053 
L 172 3053 
L 172 3500 
L 594 3500 
L 594 4494 
L 1172 4494 
z
" id="DejaVuSans-74" transform="scale(0.015625)"/>
       <path d="M 1959 3097 
Q 1497 3097 1228 2736 
Q 959 2375 959 1747 
Q 959 1119 1226 758 
Q 1494 397 1959 397 
Q 2419 397 2687 759 
Q 2956 1122 2956 1747 
Q 2956 2369 2687 2733 
Q 2419 3097 1959 3097 
z
M 1959 3584 
Q 2709 3584 3137 3096 
Q 3566 2609 3566 1747 
Q 3566 888 3137 398 
Q 2709 -91 1959 -91 
Q 1206 -91 779 398 
Q 353 888 353 1747 
Q 353 2609 779 3096 
Q 1206 3584 1959 3584 
z
" id="DejaVuSans-6f" transform="scale(0.015625)"/>
       <path d="M 2631 2963 
Q 2534 3019 2420 3045 
Q 2306 3072 2169 3072 
Q 1681 3072 1420 2755 
Q 1159 2438 1159 1844 
L 1159 0 
L 581 0 
L 581 3500 
L 1159 3500 
L 1159 2956 
Q 1341 3275 1631 3429 
Q 1922 3584 2338 3584 
Q 2397 3584 2469 3576 
Q 2541 3569 2628 3553 
L 2631 2963 
z
" id="DejaVuSans-72" transform="scale(0.015625)"/>
       <path id="DejaVuSans-20" transform="scale(0.015625)"/>
       <path d="M 2834 3397 
L 2834 2853 
Q 2591 2978 2328 3040 
Q 2066 3103 1784 3103 
Q 1356 3103 1142 2972 
Q 928 2841 928 2578 
Q 928 2378 1081 2264 
Q 1234 2150 1697 2047 
L 1894 2003 
Q 2506 1872 2764 1633 
Q 3022 1394 3022 966 
Q 3022 478 2636 193 
Q 2250 -91 1575 -91 
Q 1294 -91 989 -36 
Q 684 19 347 128 
L 347 722 
Q 666 556 975 473 
Q 1284 391 1588 391 
Q 1994 391 2212 530 
Q 2431 669 2431 922 
Q 2431 1156 2273 1281 
Q 2116 1406 1581 1522 
L 1381 1569 
Q 847 1681 609 1914 
Q 372 2147 372 2553 
Q 372 3047 722 3315 
Q 1072 3584 1716 3584 
Q 2034 3584 2315 3537 
Q 2597 3491 2834 3397 
z
" id="DejaVuSans-73" transform="scale(0.015625)"/>
       <path d="M 603 3500 
L 1178 3500 
L 1178 0 
L 603 0 
L 603 3500 
z
M 603 4863 
L 1178 4863 
L 1178 4134 
L 603 4134 
L 603 4863 
z
" id="DejaVuSans-69" transform="scale(0.015625)"/>
       <path d="M 353 3500 
L 3084 3500 
L 3084 2975 
L 922 459 
L 3084 459 
L 3084 0 
L 275 0 
L 275 525 
L 2438 3041 
L 353 3041 
L 353 3500 
z
" id="DejaVuSans-7a" transform="scale(0.015625)"/>
      </defs>
      <use xlink:href="#DejaVuSans-56"/>
      <use x="60.658203" xlink:href="#DejaVuSans-65"/>
      <use x="122.181641" xlink:href="#DejaVuSans-63"/>
      <use x="177.162109" xlink:href="#DejaVuSans-74"/>
      <use x="216.371094" xlink:href="#DejaVuSans-6f"/>
      <use x="277.552734" xlink:href="#DejaVuSans-72"/>
      <use x="318.666016" xlink:href="#DejaVuSans-20"/>
      <use x="350.453125" xlink:href="#DejaVuSans-73"/>
      <use x="402.552734" xlink:href="#DejaVuSans-69"/>
      <use x="430.335938" xlink:href="#DejaVuSans-7a"/>
      <use x="482.826172" xlink:href="#DejaVuSans-65"/>
     </g>
    </g>
    <g id="text_8">
     <!-- 1e8 -->
     <g transform="translate(598.119063 250.972187)scale(0.1 -0.1)">
      <defs>
       <path d="M 2034 2216 
Q 1584 2216 1326 1975 
Q 1069 1734 1069 1313 
Q 1069 891 1326 650 
Q 1584 409 2034 409 
Q 2484 409 2743 651 
Q 3003 894 3003 1313 
Q 3003 1734 2745 1975 
Q 2488 2216 2034 2216 
z
M 1403 2484 
Q 997 2584 770 2862 
Q 544 3141 544 3541 
Q 544 4100 942 4425 
Q 1341 4750 2034 4750 
Q 2731 4750 3128 4425 
Q 3525 4100 3525 3541 
Q 3525 3141 3298 2862 
Q 3072 2584 2669 2484 
Q 3125 2378 3379 2068 
Q 3634 1759 3634 1313 
Q 3634 634 3220 271 
Q 2806 -91 2034 -91 
Q 1263 -91 848 271 
Q 434 634 434 1313 
Q 434 1759 690 2068 
Q 947 2378 1403 2484 
z
M 1172 3481 
Q 1172 3119 1398 2916 
Q 1625 2713 2034 2713 
Q 2441 2713 2670 2916 
Q 2900 3119 2900 3481 
Q 2900 3844 2670 4047 
Q 2441 4250 2034 4250 
Q 1625 4250 1398 4047 
Q 1172 3844 1172 3481 
z
" id="DejaVuSans-38" transform="scale(0.015625)"/>
      </defs>
      <use xlink:href="#DejaVuSans-31"/>
      <use x="63.623047" xlink:href="#DejaVuSans-65"/>
      <use x="125.146484" xlink:href="#DejaVuSans-38"/>
     </g>
    </g>
   </g>
   <g id="matplotlib.axis_2">
    <g id="ytick_1">
     <g id="line2d_13">
      <path clip-path="url(#pfd8d1c1655)" d="M 58.997188 189.096599 
L 616.997187 189.096599 
" style="fill:none;stroke:#cccccc;stroke-linecap:square;"/>
     </g>
     <g id="line2d_14">
      <defs>
       <path d="M 0 0 
L -3.5 0 
" id="m4b5f74837d" style="stroke:#000000;stroke-width:0.8;"/>
      </defs>
      <g>
       <use style="stroke:#000000;stroke-width:0.8;" x="58.997188" xlink:href="#m4b5f74837d" y="189.096599"/>
      </g>
     </g>
     <g id="text_9">
      <!-- $\mathdefault{10^{-14}}$ -->
      <g transform="translate(18.517188 193.655661)scale(0.12 -0.12)">
       <defs>
        <path d="M 678 2272 
L 4684 2272 
L 4684 1741 
L 678 1741 
L 678 2272 
z
" id="DejaVuSans-2212" transform="scale(0.015625)"/>
       </defs>
       <use transform="translate(0 0.684375)" xlink:href="#DejaVuSans-31"/>
       <use transform="translate(63.623047 0.684375)" xlink:href="#DejaVuSans-30"/>
       <use transform="translate(128.203125 38.965625)scale(0.7)" xlink:href="#DejaVuSans-2212"/>
       <use transform="translate(186.855469 38.965625)scale(0.7)" xlink:href="#DejaVuSans-31"/>
       <use transform="translate(231.391602 38.965625)scale(0.7)" xlink:href="#DejaVuSans-34"/>
      </g>
     </g>
    </g>
    <g id="ytick_2">
     <g id="line2d_15">
      <path clip-path="url(#pfd8d1c1655)" d="M 58.997188 150.959265 
L 616.997187 150.959265 
" style="fill:none;stroke:#cccccc;stroke-linecap:square;"/>
     </g>
     <g id="line2d_16">
      <g>
       <use style="stroke:#000000;stroke-width:0.8;" x="58.997188" xlink:href="#m4b5f74837d" y="150.959265"/>
      </g>
     </g>
     <g id="text_10">
      <!-- $\mathdefault{10^{-12}}$ -->
      <g transform="translate(18.517188 155.518327)scale(0.12 -0.12)">
       <use transform="translate(0 0.765625)" xlink:href="#DejaVuSans-31"/>
       <use transform="translate(63.623047 0.765625)" xlink:href="#DejaVuSans-30"/>
       <use transform="translate(128.203125 39.046875)scale(0.7)" xlink:href="#DejaVuSans-2212"/>
       <use transform="translate(186.855469 39.046875)scale(0.7)" xlink:href="#DejaVuSans-31"/>
       <use transform="translate(231.391602 39.046875)scale(0.7)" xlink:href="#DejaVuSans-32"/>
      </g>
     </g>
    </g>
    <g id="ytick_3">
     <g id="line2d_17">
      <path clip-path="url(#pfd8d1c1655)" d="M 58.997188 112.821931 
L 616.997187 112.821931 
" style="fill:none;stroke:#cccccc;stroke-linecap:square;"/>
     </g>
     <g id="line2d_18">
      <g>
       <use style="stroke:#000000;stroke-width:0.8;" x="58.997188" xlink:href="#m4b5f74837d" y="112.821931"/>
      </g>
     </g>
     <g id="text_11">
      <!-- $\mathdefault{10^{-10}}$ -->
      <g transform="translate(18.517188 117.380994)scale(0.12 -0.12)">
       <use transform="translate(0 0.765625)" xlink:href="#DejaVuSans-31"/>
       <use transform="translate(63.623047 0.765625)" xlink:href="#DejaVuSans-30"/>
       <use transform="translate(128.203125 39.046875)scale(0.7)" xlink:href="#DejaVuSans-2212"/>
       <use transform="translate(186.855469 39.046875)scale(0.7)" xlink:href="#DejaVuSans-31"/>
       <use transform="translate(231.391602 39.046875)scale(0.7)" xlink:href="#DejaVuSans-30"/>
      </g>
     </g>
    </g>
    <g id="ytick_4">
     <g id="line2d_19">
      <path clip-path="url(#pfd8d1c1655)" d="M 58.997188 74.684597 
L 616.997187 74.684597 
" style="fill:none;stroke:#cccccc;stroke-linecap:square;"/>
     </g>
     <g id="line2d_20">
      <g>
       <use style="stroke:#000000;stroke-width:0.8;" x="58.997188" xlink:href="#m4b5f74837d" y="74.684597"/>
      </g>
     </g>
     <g id="text_12">
      <!-- $\mathdefault{10^{-8}}$ -->
      <g transform="translate(23.797188 79.24366)scale(0.12 -0.12)">
       <use transform="translate(0 0.765625)" xlink:href="#DejaVuSans-31"/>
       <use transform="translate(63.623047 0.765625)" xlink:href="#DejaVuSans-30"/>
       <use transform="translate(128.203125 39.046875)scale(0.7)" xlink:href="#DejaVuSans-2212"/>
       <use transform="translate(186.855469 39.046875)scale(0.7)" xlink:href="#DejaVuSans-38"/>
      </g>
     </g>
    </g>
    <g id="ytick_5">
     <g id="line2d_21">
      <path clip-path="url(#pfd8d1c1655)" d="M 58.997188 36.547264 
L 616.997187 36.547264 
" style="fill:none;stroke:#cccccc;stroke-linecap:square;"/>
     </g>
     <g id="line2d_22">
      <g>
       <use style="stroke:#000000;stroke-width:0.8;" x="58.997188" xlink:href="#m4b5f74837d" y="36.547264"/>
      </g>
     </g>
     <g id="text_13">
      <!-- $\mathdefault{10^{-6}}$ -->
      <g transform="translate(23.797188 41.106326)scale(0.12 -0.12)">
       <defs>
        <path d="M 2113 2584 
Q 1688 2584 1439 2293 
Q 1191 2003 1191 1497 
Q 1191 994 1439 701 
Q 1688 409 2113 409 
Q 2538 409 2786 701 
Q 3034 994 3034 1497 
Q 3034 2003 2786 2293 
Q 2538 2584 2113 2584 
z
M 3366 4563 
L 3366 3988 
Q 3128 4100 2886 4159 
Q 2644 4219 2406 4219 
Q 1781 4219 1451 3797 
Q 1122 3375 1075 2522 
Q 1259 2794 1537 2939 
Q 1816 3084 2150 3084 
Q 2853 3084 3261 2657 
Q 3669 2231 3669 1497 
Q 3669 778 3244 343 
Q 2819 -91 2113 -91 
Q 1303 -91 875 529 
Q 447 1150 447 2328 
Q 447 3434 972 4092 
Q 1497 4750 2381 4750 
Q 2619 4750 2861 4703 
Q 3103 4656 3366 4563 
z
" id="DejaVuSans-36" transform="scale(0.015625)"/>
       </defs>
       <use transform="translate(0 0.765625)" xlink:href="#DejaVuSans-31"/>
       <use transform="translate(63.623047 0.765625)" xlink:href="#DejaVuSans-30"/>
       <use transform="translate(128.203125 39.046875)scale(0.7)" xlink:href="#DejaVuSans-2212"/>
       <use transform="translate(186.855469 39.046875)scale(0.7)" xlink:href="#DejaVuSans-36"/>
      </g>
     </g>
    </g>
    <g id="text_14">
     <!-- Relative error -->
     <g transform="translate(11.397656 161.663203)rotate(-90)scale(0.15 -0.15)">
      <defs>
       <path d="M 2841 2188 
Q 3044 2119 3236 1894 
Q 3428 1669 3622 1275 
L 4263 0 
L 3584 0 
L 2988 1197 
Q 2756 1666 2539 1819 
Q 2322 1972 1947 1972 
L 1259 1972 
L 1259 0 
L 628 0 
L 628 4666 
L 2053 4666 
Q 2853 4666 3247 4331 
Q 3641 3997 3641 3322 
Q 3641 2881 3436 2590 
Q 3231 2300 2841 2188 
z
M 1259 4147 
L 1259 2491 
L 2053 2491 
Q 2509 2491 2742 2702 
Q 2975 2913 2975 3322 
Q 2975 3731 2742 3939 
Q 2509 4147 2053 4147 
L 1259 4147 
z
" id="DejaVuSans-52" transform="scale(0.015625)"/>
       <path d="M 603 4863 
L 1178 4863 
L 1178 0 
L 603 0 
L 603 4863 
z
" id="DejaVuSans-6c" transform="scale(0.015625)"/>
       <path d="M 2194 1759 
Q 1497 1759 1228 1600 
Q 959 1441 959 1056 
Q 959 750 1161 570 
Q 1363 391 1709 391 
Q 2188 391 2477 730 
Q 2766 1069 2766 1631 
L 2766 1759 
L 2194 1759 
z
M 3341 1997 
L 3341 0 
L 2766 0 
L 2766 531 
Q 2569 213 2275 61 
Q 1981 -91 1556 -91 
Q 1019 -91 701 211 
Q 384 513 384 1019 
Q 384 1609 779 1909 
Q 1175 2209 1959 2209 
L 2766 2209 
L 2766 2266 
Q 2766 2663 2505 2880 
Q 2244 3097 1772 3097 
Q 1472 3097 1187 3025 
Q 903 2953 641 2809 
L 641 3341 
Q 956 3463 1253 3523 
Q 1550 3584 1831 3584 
Q 2591 3584 2966 3190 
Q 3341 2797 3341 1997 
z
" id="DejaVuSans-61" transform="scale(0.015625)"/>
       <path d="M 191 3500 
L 800 3500 
L 1894 563 
L 2988 3500 
L 3597 3500 
L 2284 0 
L 1503 0 
L 191 3500 
z
" id="DejaVuSans-76" transform="scale(0.015625)"/>
      </defs>
      <use xlink:href="#DejaVuSans-52"/>
      <use x="64.982422" xlink:href="#DejaVuSans-65"/>
      <use x="126.505859" xlink:href="#DejaVuSans-6c"/>
      <use x="154.289062" xlink:href="#DejaVuSans-61"/>
      <use x="215.568359" xlink:href="#DejaVuSans-74"/>
      <use x="254.777344" xlink:href="#DejaVuSans-69"/>
      <use x="282.560547" xlink:href="#DejaVuSans-76"/>
      <use x="341.740234" xlink:href="#DejaVuSans-65"/>
      <use x="403.263672" xlink:href="#DejaVuSans-20"/>
      <use x="435.050781" xlink:href="#DejaVuSans-65"/>
      <use x="496.574219" xlink:href="#DejaVuSans-72"/>
      <use x="535.9375" xlink:href="#DejaVuSans-72"/>
      <use x="574.800781" xlink:href="#DejaVuSans-6f"/>
      <use x="635.982422" xlink:href="#DejaVuSans-72"/>
     </g>
    </g>
   </g>
   <g id="patch_3">
    <path d="M 58.997188 221.76 
L 58.997188 -0 
" style="fill:none;stroke:#000000;stroke-linecap:square;stroke-linejoin:miter;stroke-width:0.8;"/>
   </g>
   <g id="patch_4">
    <path d="M 616.997187 221.76 
L 616.997187 -0 
" style="fill:none;stroke:#000000;stroke-linecap:square;stroke-linejoin:miter;stroke-width:0.8;"/>
   </g>
   <g id="patch_5">
    <path d="M 58.997187 221.76 
L 616.997187 221.76 
" style="fill:none;stroke:#000000;stroke-linecap:square;stroke-linejoin:miter;stroke-width:0.8;"/>
   </g>
   <g id="patch_6">
    <path d="M 58.997187 -0 
L 616.997187 -0 
" style="fill:none;stroke:#000000;stroke-linecap:square;stroke-linejoin:miter;stroke-width:0.8;"/>
   </g>
   <g id="line2d_23">
    <path clip-path="url(#pfd8d1c1655)" d="M 84.360824 43.46663 
L 86.260722 37.550611 
L 88.16062 40.717595 
L 90.060517 37.001923 
L 91.960415 37.892389 
L 93.860313 40.356246 
L 95.760211 37.507783 
L 97.660109 37.088257 
L 99.560007 34.777646 
L 101.459905 39.594275 
L 103.359802 45.431205 
L 105.2597 42.663804 
L 107.159598 36.802488 
L 109.059496 43.952381 
L 110.959394 43.162112 
L 112.859292 40.807478 
L 114.75919 41.482123 
L 116.659087 36.144052 
L 118.558985 48.533305 
L 120.458883 40.193365 
L 122.358781 40.505836 
L 124.258679 41.881451 
L 126.158577 45.235077 
L 128.058475 39.461742 
L 129.958372 39.492187 
L 131.85827 34.991321 
L 133.758168 41.623381 
L 135.658066 34.229556 
L 137.557964 38.320814 
L 139.457862 31.418282 
L 141.35776 35.513266 
L 143.257657 32.155182 
L 145.157555 36.823891 
L 147.057453 34.339675 
L 148.957351 32.538068 
L 152.757147 36.581556 
L 154.657044 41.703658 
L 156.556942 40.226126 
L 158.45684 38.491516 
L 160.356738 46.902196 
L 162.256636 43.287605 
L 164.156534 38.758279 
L 166.056432 38.18754 
L 167.956329 41.550051 
L 169.856227 40.403628 
L 171.756125 40.307779 
L 173.656023 36.495911 
L 175.555921 39.319792 
L 177.455819 44.164672 
L 179.355717 39.328322 
L 183.155512 38.368973 
L 185.05541 40.142704 
L 186.955308 39.135465 
L 188.855206 37.626616 
L 190.755104 43.920485 
L 192.655002 35.613016 
L 194.554899 38.026675 
L 196.454797 43.075958 
L 198.354695 38.967665 
L 200.254593 36.807337 
L 202.154491 37.838453 
L 204.054389 43.570027 
L 205.954287 39.209061 
L 207.854184 32.439525 
L 209.754082 37.329204 
L 211.65398 32.504154 
L 213.553878 39.019235 
L 215.453776 33.24616 
L 217.353674 30.63614 
L 219.253572 35.410827 
L 221.153469 28.548692 
L 223.053367 33.379449 
L 224.953265 30.798957 
L 226.853163 29.624328 
L 228.753061 36.920356 
L 230.652959 31.90339 
L 232.552857 41.465065 
L 234.452754 36.339513 
L 236.352652 32.862446 
L 238.25255 38.333604 
L 240.152448 35.857731 
L 242.052346 34.998441 
L 243.952244 34.651205 
L 245.852142 37.288097 
L 247.752039 35.134698 
L 249.651937 42.960385 
L 251.551835 44.938441 
L 253.451733 33.111371 
L 255.351631 38.862898 
L 259.151427 29.632564 
L 261.051324 34.816893 
L 262.951222 26.077879 
L 264.85112 26.15007 
L 266.751018 21.138222 
L 268.650916 36.158793 
L 270.550814 22.425809 
L 272.450712 26.317358 
L 274.350609 26.403634 
L 276.250507 32.100345 
L 278.150405 29.462 
L 280.050303 35.8244 
L 281.950201 34.125823 
L 283.850099 34.023377 
L 285.749996 34.615752 
L 287.649894 37.692803 
L 289.549792 34.959582 
L 291.44969 39.326042 
L 293.349588 34.245767 
L 295.249486 46.323869 
L 297.149384 37.00551 
L 299.049281 42.827134 
L 300.949179 39.741076 
L 302.849077 44.170147 
L 304.748975 43.953746 
L 306.648873 40.110738 
L 308.548771 40.879783 
L 310.448669 42.673496 
L 312.348566 40.246779 
L 314.248464 38.441678 
L 316.148362 38.606507 
L 318.04826 44.808439 
L 319.948158 44.887783 
L 321.848056 37.073794 
L 323.747954 38.518577 
L 325.647851 37.685268 
L 327.547749 42.237874 
L 329.447647 41.413571 
L 331.347545 38.031059 
L 333.247443 39.057531 
L 335.147341 38.610126 
L 337.047239 40.362741 
L 338.947136 40.883364 
L 340.847034 42.559871 
L 342.746932 39.190662 
L 344.64683 36.874671 
L 346.546728 45.08778 
L 348.446626 39.51412 
L 350.346524 37.967009 
L 352.246421 39.670072 
L 354.146319 48.895154 
L 356.046217 38.699979 
L 357.946115 43.329701 
L 359.846013 40.372928 
L 361.745911 48.641685 
L 363.645809 40.661259 
L 365.545706 38.12503 
L 367.445604 39.22953 
L 369.345502 41.399704 
L 371.2454 35.442181 
L 373.145298 44.83595 
L 375.045196 36.037798 
L 376.945094 40.929547 
L 378.844991 40.341351 
L 380.744889 42.3631 
L 382.644787 40.489417 
L 384.544685 45.132281 
L 386.444583 43.201256 
L 388.344481 38.951074 
L 390.244379 42.968595 
L 392.144276 37.320321 
L 394.044174 39.720305 
L 395.944072 37.183251 
L 397.84397 35.826499 
L 399.743868 38.894723 
L 401.643766 41.359033 
L 405.443561 35.126077 
L 407.343459 35.680234 
L 409.243357 33.609632 
L 411.143255 33.601843 
L 413.043153 37.309684 
L 414.943051 37.226395 
L 416.842948 40.203241 
L 418.742846 34.904441 
L 420.642744 36.901038 
L 422.542642 31.537698 
L 424.44254 28.677971 
L 426.342438 33.351412 
L 428.242336 29.932479 
L 430.142233 29.753781 
L 432.042131 31.330455 
L 433.942029 33.332615 
L 435.841927 25.974664 
L 437.741825 24.078604 
L 439.641723 25.089321 
L 441.541621 22.134257 
L 443.441518 20.672612 
L 445.341416 22.309497 
L 447.241314 22.345018 
L 449.141212 27.25025 
L 451.04111 24.359089 
L 452.941008 28.665868 
L 454.840906 40.173124 
L 456.740803 42.964606 
L 460.540599 29.935446 
L 462.440497 31.091652 
L 464.340395 29.651532 
L 466.240293 28.374124 
L 468.140191 38.651778 
L 470.040088 33.028023 
L 471.939986 37.663841 
L 473.839884 31.148626 
L 477.63968 29.077653 
L 479.539578 34.065607 
L 481.439476 30.869766 
L 483.339373 34.962733 
L 485.239271 35.447506 
L 487.139169 34.098585 
L 489.039067 25.475766 
L 490.938965 36.44293 
L 492.838863 34.912392 
L 494.738761 28.770576 
L 496.638658 30.678723 
L 498.538556 27.830044 
L 500.438454 34.879046 
L 502.338352 31.293609 
L 504.23825 32.184118 
L 506.138148 31.462899 
L 508.038046 32.802946 
L 509.937943 31.257781 
L 511.837841 22.127205 
L 513.737739 26.620223 
L 515.637637 28.47291 
L 517.537535 26.767164 
L 519.437433 25.346181 
L 521.337331 29.466521 
L 523.237228 25.359458 
L 525.137126 28.744654 
L 527.037024 28.703712 
L 528.936922 31.908926 
L 530.83682 29.22532 
L 532.736718 32.613859 
L 534.636615 32.145457 
L 536.536513 29.826425 
L 538.436411 32.650316 
L 540.336309 37.127691 
L 542.236207 30.57366 
L 544.136105 30.422856 
L 546.036003 37.975852 
L 547.9359 30.0726 
L 549.835798 28.326419 
L 551.735696 33.399538 
L 553.635594 27.10385 
L 555.535492 28.070949 
L 557.43539 31.879687 
L 559.335288 27.558093 
L 561.235185 27.692125 
L 563.135083 26.123113 
L 565.034981 26.060418 
L 566.934879 27.640737 
L 568.834777 24.026791 
L 570.734675 24.504715 
L 574.53447 26.279779 
L 576.434368 30.092508 
L 578.334266 28.843614 
L 580.234164 27.95172 
L 582.134062 36.363309 
L 584.03396 21.746826 
L 585.933858 30.849068 
L 587.833755 24.630451 
L 589.733653 19.893216 
L 591.633551 27.090797 
L 591.633551 27.090797 
" style="fill:none;stroke:#77ac30;stroke-linecap:square;stroke-width:3;"/>
    <defs>
     <path d="M -1.666667 5 
L 1.666667 5 
L 1.666667 1.666667 
L 5 1.666667 
L 5 -1.666667 
L 1.666667 -1.666667 
L 1.666667 -5 
L -1.666667 -5 
L -1.666667 -1.666667 
L -5 -1.666667 
L -5 1.666667 
L -1.666667 1.666667 
z
" id="m671b0e0080" style="stroke:#77ac30;stroke-linejoin:miter;"/>
    </defs>
    <g clip-path="url(#pfd8d1c1655)">
     <use style="fill:#77ac30;stroke:#77ac30;stroke-linejoin:miter;" x="84.360824" xlink:href="#m671b0e0080" y="43.46663"/>
     <use style="fill:#77ac30;stroke:#77ac30;stroke-linejoin:miter;" x="185.05541" xlink:href="#m671b0e0080" y="40.142704"/>
     <use style="fill:#77ac30;stroke:#77ac30;stroke-linejoin:miter;" x="285.749996" xlink:href="#m671b0e0080" y="34.615752"/>
     <use style="fill:#77ac30;stroke:#77ac30;stroke-linejoin:miter;" x="386.444583" xlink:href="#m671b0e0080" y="43.201256"/>
     <use style="fill:#77ac30;stroke:#77ac30;stroke-linejoin:miter;" x="487.139169" xlink:href="#m671b0e0080" y="34.098585"/>
     <use style="fill:#77ac30;stroke:#77ac30;stroke-linejoin:miter;" x="587.833755" xlink:href="#m671b0e0080" y="24.630451"/>
    </g>
   </g>
   <g id="line2d_24">
    <path clip-path="url(#pfd8d1c1655)" d="M 84.360824 58.721523 
L 86.260722 62.642714 
L 88.16062 58.956819 
L 90.060517 66.466435 
L 91.960415 63.440615 
L 93.860313 64.812372 
L 95.760211 58.999727 
L 97.660109 58.945155 
L 99.560007 61.720262 
L 101.459905 59.272579 
L 103.359802 60.326227 
L 105.2597 58.8493 
L 107.159598 60.888818 
L 109.059496 60.420868 
L 110.959394 61.77009 
L 112.859292 61.015904 
L 114.75919 61.609623 
L 116.659087 63.982929 
L 118.558985 61.551054 
L 120.458883 60.539232 
L 122.358781 61.439614 
L 124.258679 66.6035 
L 126.158577 63.19002 
L 128.058475 67.146446 
L 129.958372 62.878068 
L 131.85827 67.416054 
L 133.758168 63.336008 
L 135.658066 64.484971 
L 137.557964 70.047377 
L 139.457862 63.479904 
L 141.35776 68.833312 
L 143.257657 62.18914 
L 145.157555 67.751072 
L 147.057453 71.640669 
L 148.957351 65.870074 
L 150.857249 64.763265 
L 152.757147 67.039191 
L 154.657044 77.749338 
L 156.556942 63.572265 
L 158.45684 70.61133 
L 160.356738 65.691843 
L 162.256636 64.600947 
L 164.156534 67.140005 
L 166.056432 70.789509 
L 167.956329 72.732361 
L 169.856227 65.080246 
L 171.756125 77.232463 
L 173.656023 67.081094 
L 175.555921 63.754532 
L 177.455819 67.269646 
L 179.355717 68.250985 
L 181.255614 68.974074 
L 183.155512 68.687839 
L 185.05541 66.631269 
L 186.955308 66.039093 
L 188.855206 66.139307 
L 190.755104 68.30786 
L 192.655002 66.466596 
L 194.554899 70.725027 
L 196.454797 69.228624 
L 198.354695 62.032395 
L 200.254593 62.550259 
L 202.154491 61.342921 
L 204.054389 68.049898 
L 205.954287 67.261216 
L 207.854184 68.47884 
L 209.754082 64.326504 
L 211.65398 60.86444 
L 213.553878 58.645819 
L 215.453776 62.081883 
L 217.353674 62.924264 
L 219.253572 60.402128 
L 221.153469 59.889095 
L 223.053367 68.85435 
L 224.953265 58.104496 
L 226.853163 58.533325 
L 228.753061 68.436792 
L 230.652959 64.578742 
L 232.552857 66.625081 
L 234.452754 65.318819 
L 236.352652 67.968098 
L 238.25255 69.097067 
L 240.152448 68.10572 
L 242.052346 64.072541 
L 243.952244 64.690692 
L 245.852142 60.339524 
L 247.752039 64.151951 
L 251.551835 64.327936 
L 253.451733 61.826528 
L 255.351631 73.017847 
L 257.251529 71.526199 
L 259.151427 64.585786 
L 261.051324 64.808592 
L 262.951222 61.531909 
L 264.85112 58.676862 
L 266.751018 56.904192 
L 268.650916 57.666331 
L 272.450712 53.907016 
L 274.350609 60.699631 
L 278.150405 61.846489 
L 280.050303 64.264446 
L 281.950201 66.897653 
L 283.850099 65.398785 
L 285.749996 68.706343 
L 287.649894 67.419358 
L 289.549792 65.908013 
L 291.44969 68.419147 
L 293.349588 64.267228 
L 295.249486 67.339252 
L 297.149384 81.226275 
L 299.049281 65.902891 
L 300.949179 67.078171 
L 302.849077 64.088692 
L 304.748975 66.727869 
L 306.648873 64.953488 
L 308.548771 68.17418 
L 310.448669 70.081357 
L 312.348566 68.899185 
L 314.248464 64.866925 
L 316.148362 64.347153 
L 318.04826 66.617227 
L 319.948158 68.342923 
L 323.747954 65.239368 
L 325.647851 64.904171 
L 327.547749 69.040999 
L 329.447647 67.981948 
L 331.347545 67.997909 
L 333.247443 71.42587 
L 335.147341 68.046263 
L 337.047239 68.932316 
L 338.947136 74.309965 
L 340.847034 66.121998 
L 342.746932 70.721351 
L 344.64683 69.601037 
L 346.546728 68.847611 
L 348.446626 68.970425 
L 350.346524 68.860223 
L 352.246421 67.179266 
L 354.146319 68.900632 
L 356.046217 66.093086 
L 357.946115 71.476393 
L 359.846013 66.622731 
L 361.745911 67.036262 
L 363.645809 66.843004 
L 365.545706 67.812144 
L 367.445604 66.808704 
L 369.345502 67.611749 
L 371.2454 71.751097 
L 373.145298 66.9711 
L 375.045196 68.071847 
L 376.945094 70.787089 
L 378.844991 66.522868 
L 380.744889 71.933925 
L 382.644787 66.098627 
L 384.544685 73.913121 
L 386.444583 63.666419 
L 388.344481 63.494784 
L 390.244379 64.92498 
L 392.144276 61.86606 
L 394.044174 62.42834 
L 395.944072 59.665605 
L 397.84397 63.760523 
L 399.743868 64.723843 
L 401.643766 65.525422 
L 403.543663 67.295859 
L 405.443561 66.073043 
L 407.343459 62.74369 
L 409.243357 65.603677 
L 411.143255 62.354321 
L 413.043153 62.16 
L 414.943051 61.498493 
L 416.842948 60.715221 
L 418.742846 71.184202 
L 420.642744 69.264601 
L 422.542642 65.462418 
L 424.44254 58.810234 
L 426.342438 58.781516 
L 428.242336 57.529599 
L 430.142233 55.744786 
L 432.042131 55.579611 
L 433.942029 53.204495 
L 437.741825 51.212944 
L 439.641723 48.818742 
L 441.541621 41.624108 
L 443.441518 46.904672 
L 445.341416 44.904593 
L 447.241314 46.200135 
L 449.141212 47.947468 
L 451.04111 48.338224 
L 452.941008 50.746336 
L 454.840906 48.304313 
L 456.740803 50.80477 
L 458.640701 52.622961 
L 460.540599 53.537048 
L 462.440497 56.636781 
L 464.340395 58.147391 
L 466.240293 56.152332 
L 468.140191 56.576384 
L 470.040088 55.760573 
L 471.939986 56.337402 
L 473.839884 58.688314 
L 475.739782 58.624285 
L 477.63968 58.247539 
L 479.539578 56.808173 
L 481.439476 58.125478 
L 483.339373 58.353312 
L 485.239271 57.354382 
L 487.139169 59.143033 
L 489.039067 56.15552 
L 490.938965 59.547956 
L 492.838863 59.557322 
L 494.738761 58.390322 
L 496.638658 58.943788 
L 498.538556 60.029895 
L 500.438454 63.601501 
L 502.338352 58.259632 
L 504.23825 58.500876 
L 506.138148 56.583259 
L 508.038046 57.088762 
L 509.937943 59.127241 
L 511.837841 56.510095 
L 513.737739 57.657302 
L 515.637637 59.066338 
L 517.537535 56.314475 
L 519.437433 59.367131 
L 521.337331 56.323186 
L 523.237228 59.148618 
L 525.137126 53.353841 
L 527.037024 59.576329 
L 528.936922 58.352917 
L 530.83682 57.400934 
L 532.736718 57.220771 
L 534.636615 58.361326 
L 536.536513 59.021789 
L 538.436411 57.658068 
L 540.336309 57.462417 
L 542.236207 55.339284 
L 546.036003 61.51146 
L 547.9359 58.233981 
L 549.835798 55.907755 
L 551.735696 57.573209 
L 553.635594 58.22959 
L 555.535492 58.300522 
L 557.43539 56.275662 
L 559.335288 54.967696 
L 561.235185 55.688469 
L 563.135083 52.444924 
L 565.034981 53.733849 
L 566.934879 53.231442 
L 568.834777 54.114012 
L 570.734675 52.17556 
L 572.634573 55.181478 
L 574.53447 56.176023 
L 576.434368 56.015391 
L 578.334266 54.38443 
L 580.234164 54.71432 
L 582.134062 51.109889 
L 584.03396 55.088895 
L 585.933858 53.096046 
L 587.833755 47.693794 
L 589.733653 53.770091 
L 591.633551 52.072819 
L 591.633551 52.072819 
" style="fill:none;stroke:#0072bd;stroke-linecap:square;stroke-width:3;"/>
    <defs>
     <path d="M -5 5 
L 5 -5 
M -5 -5 
L 5 5 
" id="m49675effc0" style="stroke:#0072bd;"/>
    </defs>
    <g clip-path="url(#pfd8d1c1655)">
     <use style="fill:#0072bd;stroke:#0072bd;" x="109.059496" xlink:href="#m49675effc0" y="60.420868"/>
     <use style="fill:#0072bd;stroke:#0072bd;" x="209.754082" xlink:href="#m49675effc0" y="64.326504"/>
     <use style="fill:#0072bd;stroke:#0072bd;" x="310.448669" xlink:href="#m49675effc0" y="70.081357"/>
     <use style="fill:#0072bd;stroke:#0072bd;" x="411.143255" xlink:href="#m49675effc0" y="62.354321"/>
     <use style="fill:#0072bd;stroke:#0072bd;" x="511.837841" xlink:href="#m49675effc0" y="56.510095"/>
    </g>
   </g>
   <g id="line2d_25">
    <path clip-path="url(#pfd8d1c1655)" d="M 84.360824 201.75053 
L 86.260722 202.564655 
L 88.16062 209.967905 
L 90.060517 200.800327 
L 91.960415 204.557709 
L 93.860313 204.752576 
L 95.760211 206.465558 
L 97.660109 205.998108 
L 99.560007 203.59501 
L 101.459905 203.201946 
L 103.359802 205.968454 
L 105.2597 205.576065 
L 107.159598 205.34305 
L 109.059496 205.608881 
L 110.959394 209.329382 
L 112.859292 204.002165 
L 114.75919 211.651228 
L 116.659087 204.45665 
L 118.558985 205.295997 
L 120.458883 208.026776 
L 122.358781 206.474218 
L 124.258679 206.323769 
L 126.158577 208.42572 
L 128.058475 208.36178 
L 129.958372 202.236767 
L 131.85827 203.403555 
L 135.658066 201.134082 
L 137.557964 204.253947 
L 139.457862 200.43073 
L 141.35776 203.18393 
L 143.257657 201.091643 
L 145.157555 204.055996 
L 147.057453 199.40381 
L 148.957351 199.345454 
L 152.757147 201.793061 
L 154.657044 203.229445 
L 156.556942 207.254219 
L 158.45684 205.532825 
L 160.356738 203.314107 
L 162.256636 205.013898 
L 164.156534 209.561977 
L 166.056432 206.143096 
L 167.956329 207.136004 
L 169.856227 211.394507 
L 171.756125 203.050247 
L 173.656023 208.09679 
L 175.555921 207.560071 
L 177.455819 203.337275 
L 179.355717 203.393572 
L 181.255614 211.037661 
L 185.05541 204.467003 
L 186.955308 206.3001 
L 188.855206 209.249783 
L 190.755104 203.983432 
L 192.655002 202.673942 
L 194.554899 205.00707 
L 196.454797 205.149022 
L 198.354695 208.463148 
L 200.254593 206.710445 
L 202.154491 199.648669 
L 204.054389 205.837781 
L 205.954287 204.636047 
L 207.854184 205.828664 
L 209.754082 202.052357 
L 211.65398 200.318989 
L 213.553878 197.958979 
L 215.453776 198.663403 
L 217.353674 198.214952 
L 219.253572 198.21357 
L 221.153469 193.792842 
L 223.053367 195.582256 
L 224.953265 204.633036 
L 226.853163 204.387361 
L 228.753061 195.252553 
L 230.652959 199.953714 
L 232.552857 200.061896 
L 234.452754 200.752172 
L 236.352652 202.440892 
L 238.25255 199.688734 
L 240.152448 203.463506 
L 242.052346 202.645743 
L 243.952244 202.563767 
L 245.852142 206.055526 
L 247.752039 203.497646 
L 249.651937 203.316058 
L 251.551835 200.3573 
L 253.451733 199.487765 
L 255.351631 200.659223 
L 257.251529 198.809097 
L 259.151427 201.548921 
L 261.051324 203.073541 
L 262.951222 192.05511 
L 264.85112 199.922729 
L 266.751018 190.172928 
L 268.650916 191.786095 
L 270.550814 184.102992 
L 274.350609 190.920137 
L 276.250507 196.139785 
L 278.150405 194.977412 
L 280.050303 202.703212 
L 281.950201 199.239338 
L 283.850099 196.525525 
L 285.749996 203.479269 
L 287.649894 199.890546 
L 289.549792 202.159526 
L 291.44969 196.146838 
L 293.349588 207.672258 
L 295.249486 209.814928 
L 297.149384 202.286618 
L 299.049281 203.453186 
L 300.949179 199.172824 
L 302.849077 202.744669 
L 304.748975 201.23536 
L 306.648873 199.240222 
L 308.548771 202.722164 
L 310.448669 199.276204 
L 312.348566 202.597548 
L 314.248464 201.029616 
L 316.148362 201.441256 
L 318.04826 199.359538 
L 319.948158 199.863495 
L 321.848056 202.119158 
L 323.747954 198.830659 
L 325.647851 202.680353 
L 327.547749 202.24383 
L 329.447647 203.970063 
L 331.347545 208.001818 
L 333.247443 201.066683 
L 335.147341 207.688424 
L 337.047239 202.988412 
L 338.947136 208.198435 
L 340.847034 201.786228 
L 342.746932 202.077899 
L 344.64683 205.028879 
L 346.546728 204.040013 
L 348.446626 203.480909 
L 350.346524 200.441182 
L 352.246421 204.236597 
L 354.146319 198.350078 
L 356.046217 204.905101 
L 357.946115 201.234449 
L 359.846013 211.68 
L 361.745911 205.636742 
L 363.645809 207.737679 
L 365.545706 204.38358 
L 367.445604 203.218658 
L 369.345502 204.433228 
L 371.2454 203.804521 
L 373.145298 204.40942 
L 375.045196 205.416486 
L 376.945094 204.961167 
L 378.844991 205.547892 
L 380.744889 211.153958 
L 382.644787 203.990434 
L 384.544685 206.266809 
L 386.444583 199.916953 
L 388.344481 204.924813 
L 390.244379 206.188724 
L 392.144276 202.990291 
L 394.044174 198.961389 
L 395.944072 199.233391 
L 397.84397 199.055626 
L 399.743868 199.83198 
L 401.643766 200.874111 
L 403.543663 195.401456 
L 405.443561 201.151516 
L 407.343459 201.461413 
L 409.243357 199.506355 
L 411.143255 205.085858 
L 413.043153 201.790956 
L 414.943051 194.36177 
L 416.842948 195.444465 
L 418.742846 199.481756 
L 420.642744 196.753147 
L 422.542642 205.380199 
L 424.44254 196.461531 
L 426.342438 192.625038 
L 428.242336 190.851575 
L 430.142233 192.579827 
L 432.042131 195.666516 
L 433.942029 187.738837 
L 435.841927 183.919662 
L 437.741825 184.891206 
L 439.641723 178.871885 
L 441.541621 180.033669 
L 443.441518 179.558613 
L 445.341416 183.731202 
L 447.241314 183.27487 
L 449.141212 188.802415 
L 451.04111 187.867612 
L 452.941008 186.356643 
L 454.840906 186.074285 
L 456.740803 192.516113 
L 458.640701 191.506479 
L 460.540599 188.584012 
L 462.440497 188.79379 
L 464.340395 192.632965 
L 466.240293 196.764132 
L 468.140191 193.946137 
L 470.040088 193.24415 
L 471.939986 193.457199 
L 473.839884 194.668155 
L 475.739782 195.227016 
L 477.63968 192.054369 
L 479.539578 194.634719 
L 481.439476 190.678379 
L 483.339373 190.683754 
L 485.239271 195.90966 
L 487.139169 192.215342 
L 489.039067 191.7037 
L 490.938965 191.349018 
L 492.838863 191.17087 
L 494.738761 190.67107 
L 496.638658 189.926891 
L 498.538556 189.367321 
L 500.438454 189.659701 
L 502.338352 188.092625 
L 504.23825 195.445141 
L 506.138148 193.108464 
L 508.038046 190.386857 
L 509.937943 188.301069 
L 511.837841 189.50387 
L 513.737739 188.814587 
L 515.637637 189.741633 
L 517.537535 188.098247 
L 519.437433 184.181675 
L 521.337331 188.843533 
L 523.237228 188.036007 
L 525.137126 184.300417 
L 527.037024 189.690583 
L 528.936922 189.428668 
L 530.83682 189.743244 
L 532.736718 189.096877 
L 534.636615 194.390241 
L 536.536513 193.640872 
L 538.436411 190.397808 
L 540.336309 193.675366 
L 542.236207 189.647079 
L 544.136105 189.396484 
L 546.036003 197.383102 
L 547.9359 190.6553 
L 549.835798 187.922131 
L 551.735696 192.359569 
L 553.635594 190.501558 
L 555.535492 193.149566 
L 557.43539 188.819293 
L 559.335288 192.786357 
L 561.235185 187.637692 
L 563.135083 186.060306 
L 565.034981 188.58254 
L 566.934879 188.98251 
L 568.834777 191.581306 
L 570.734675 184.651553 
L 572.634573 188.265786 
L 574.53447 184.966417 
L 576.434368 184.94448 
L 578.334266 184.518404 
L 580.234164 195.831089 
L 582.134062 187.679925 
L 584.03396 181.429747 
L 585.933858 185.66339 
L 587.833755 176.433779 
L 589.733653 189.243452 
L 591.633551 185.747815 
L 591.633551 185.747815 
" style="fill:none;stroke:#d95319;stroke-linecap:square;stroke-width:3;"/>
    <defs>
     <path d="M -0 7.071068 
L 4.242641 0 
L -0 -7.071068 
L -4.242641 -0 
z
" id="m5eae601dba" style="stroke:#d95319;stroke-linejoin:miter;"/>
    </defs>
    <g clip-path="url(#pfd8d1c1655)">
     <use style="fill:#d95319;stroke:#d95319;stroke-linejoin:miter;" x="133.758168" xlink:href="#m5eae601dba" y="202.27818"/>
     <use style="fill:#d95319;stroke:#d95319;stroke-linejoin:miter;" x="234.452754" xlink:href="#m5eae601dba" y="200.752172"/>
     <use style="fill:#d95319;stroke:#d95319;stroke-linejoin:miter;" x="335.147341" xlink:href="#m5eae601dba" y="207.688424"/>
     <use style="fill:#d95319;stroke:#d95319;stroke-linejoin:miter;" x="435.841927" xlink:href="#m5eae601dba" y="183.919662"/>
     <use style="fill:#d95319;stroke:#d95319;stroke-linejoin:miter;" x="536.536513" xlink:href="#m5eae601dba" y="193.640872"/>
    </g>
   </g>
   <g id="line2d_26">
    <path clip-path="url(#pfd8d1c1655)" d="M 84.360824 52.970021 
L 86.260722 48.770604 
L 88.16062 48.69577 
L 90.060517 52.759192 
L 91.960415 51.66694 
L 93.860313 50.268151 
L 95.760211 50.337046 
L 97.660109 48.089671 
L 99.560007 46.441168 
L 101.459905 47.815333 
L 103.359802 47.713871 
L 105.2597 47.296487 
L 107.159598 48.66499 
L 109.059496 49.87548 
L 110.959394 48.141208 
L 112.859292 44.400448 
L 114.75919 49.600694 
L 116.659087 52.51146 
L 118.558985 47.008038 
L 120.458883 45.389161 
L 122.358781 46.888724 
L 124.258679 45.944679 
L 128.058475 48.524143 
L 129.958372 45.416409 
L 131.85827 48.115628 
L 133.758168 45.692902 
L 135.658066 44.791856 
L 137.557964 37.374613 
L 139.457862 38.141368 
L 141.35776 42.007609 
L 143.257657 38.102159 
L 147.057453 39.80585 
L 148.957351 40.902616 
L 150.857249 41.745877 
L 152.757147 43.036424 
L 154.657044 39.028705 
L 156.556942 40.055205 
L 158.45684 42.698884 
L 160.356738 44.296336 
L 162.256636 43.980315 
L 164.156534 46.759476 
L 166.056432 45.972654 
L 167.956329 47.292536 
L 169.856227 49.626956 
L 171.756125 45.289092 
L 173.656023 46.122189 
L 175.555921 45.902712 
L 177.455819 51.402013 
L 179.355717 45.49395 
L 181.255614 50.334623 
L 183.155512 47.024607 
L 185.05541 41.66117 
L 186.955308 47.97924 
L 188.855206 44.689371 
L 190.755104 53.991989 
L 192.655002 57.284186 
L 194.554899 46.336171 
L 196.454797 53.756479 
L 198.354695 48.072738 
L 200.254593 49.00883 
L 202.154491 48.982229 
L 204.054389 50.006912 
L 205.954287 48.023712 
L 207.854184 44.887967 
L 209.754082 48.611816 
L 211.65398 39.702029 
L 213.553878 45.049031 
L 215.453776 42.816792 
L 217.353674 47.545992 
L 219.253572 45.164395 
L 221.153469 40.777822 
L 223.053367 39.930362 
L 224.953265 38.056489 
L 226.853163 31.462529 
L 228.753061 37.748541 
L 230.652959 36.437406 
L 232.552857 40.588523 
L 234.452754 41.405645 
L 236.352652 36.173125 
L 238.25255 41.22276 
L 240.152448 41.208023 
L 242.052346 44.573604 
L 243.952244 41.701599 
L 245.852142 36.064048 
L 247.752039 37.639871 
L 249.651937 37.989104 
L 251.551835 35.18238 
L 253.451733 36.579727 
L 255.351631 37.062787 
L 257.251529 33.765092 
L 259.151427 29.289768 
L 261.051324 31.941491 
L 262.951222 26.346842 
L 264.85112 24.645356 
L 266.751018 13.649661 
L 268.650916 25.929752 
L 270.550814 11.137833 
L 272.450712 17.59744 
L 274.350609 24.528009 
L 276.250507 23.912528 
L 278.150405 23.787726 
L 280.050303 26.030048 
L 281.950201 31.483373 
L 283.850099 30.679141 
L 285.749996 32.314766 
L 287.649894 29.855234 
L 289.549792 33.712966 
L 291.44969 33.387502 
L 293.349588 31.256123 
L 295.249486 32.878899 
L 297.149384 33.603665 
L 299.049281 32.680053 
L 300.949179 33.888539 
L 302.849077 34.138108 
L 304.748975 34.231168 
L 306.648873 32.29071 
L 312.348566 32.627771 
L 314.248464 31.822149 
L 316.148362 32.911516 
L 318.04826 32.976517 
L 319.948158 33.3723 
L 321.848056 32.713763 
L 323.747954 32.554269 
L 325.647851 32.17717 
L 327.547749 33.385719 
L 329.447647 32.57063 
L 331.347545 32.862223 
L 333.247443 32.768293 
L 335.147341 31.980151 
L 337.047239 33.304715 
L 338.947136 32.894519 
L 340.847034 33.0188 
L 342.746932 31.657181 
L 344.64683 32.735021 
L 346.546728 31.86421 
L 348.446626 33.080674 
L 350.346524 31.354668 
L 352.246421 31.832732 
L 354.146319 32.482208 
L 356.046217 31.821221 
L 357.946115 31.929469 
L 359.846013 31.016932 
L 361.745911 32.015037 
L 363.645809 31.645998 
L 365.545706 32.47468 
L 369.345502 31.944203 
L 371.2454 31.286968 
L 373.145298 31.384664 
L 375.045196 31.962675 
L 376.945094 31.204542 
L 378.844991 30.838773 
L 380.744889 30.085573 
L 382.644787 30.00765 
L 384.544685 28.243094 
L 386.444583 29.008162 
L 388.344481 27.88759 
L 390.244379 27.464747 
L 392.144276 27.98173 
L 394.044174 28.616818 
L 395.944072 28.540294 
L 397.84397 27.149423 
L 399.743868 27.064667 
L 401.643766 26.551708 
L 403.543663 26.913008 
L 405.443561 25.628718 
L 409.243357 26.816338 
L 411.143255 26.416052 
L 413.043153 25.422917 
L 414.943051 26.826843 
L 416.842948 25.554807 
L 418.742846 26.762992 
L 422.542642 25.745531 
L 424.44254 24.657575 
L 426.342438 24.319613 
L 428.242336 22.327669 
L 430.142233 22.804112 
L 432.042131 22.742089 
L 433.942029 21.235856 
L 435.841927 19.217895 
L 437.741825 16.098166 
L 439.641723 13.901177 
L 441.541621 10.08 
L 443.441518 17.505371 
L 445.341416 12.422566 
L 447.241314 16.664553 
L 449.141212 15.943731 
L 451.04111 17.75784 
L 452.941008 18.407907 
L 454.840906 19.629476 
L 456.740803 23.234193 
L 458.640701 22.276068 
L 460.540599 23.379956 
L 462.440497 25.350894 
L 464.340395 25.00174 
L 466.240293 25.565203 
L 468.140191 24.336373 
L 470.040088 25.320956 
L 471.939986 24.751003 
L 473.839884 25.415229 
L 475.739782 29.156902 
L 477.63968 27.156312 
L 479.539578 27.589326 
L 481.439476 28.545856 
L 483.339373 28.624883 
L 485.239271 28.271513 
L 487.139169 29.410197 
L 489.039067 27.721024 
L 490.938965 29.420397 
L 492.838863 30.201448 
L 494.738761 31.745047 
L 496.638658 29.277261 
L 498.538556 24.635576 
L 500.438454 24.761835 
L 502.338352 27.079347 
L 504.23825 25.287938 
L 506.138148 27.489722 
L 508.038046 25.886991 
L 511.837841 28.641858 
L 513.737739 24.714469 
L 515.637637 26.469162 
L 517.537535 28.067751 
L 519.437433 25.524507 
L 521.337331 24.310905 
L 523.237228 24.948978 
L 525.137126 21.198865 
L 527.037024 24.005943 
L 528.936922 24.240876 
L 530.83682 23.512953 
L 532.736718 24.427755 
L 534.636615 26.19331 
L 536.536513 25.173256 
L 538.436411 27.499626 
L 540.336309 26.410587 
L 542.236207 26.649098 
L 544.136105 26.08096 
L 546.036003 25.060516 
L 547.9359 24.721738 
L 549.835798 24.058445 
L 551.735696 22.926929 
L 553.635594 24.422218 
L 555.535492 23.643784 
L 557.43539 23.965168 
L 559.335288 23.785914 
L 561.235185 23.292274 
L 563.135083 21.058364 
L 565.034981 21.117579 
L 566.934879 22.625414 
L 568.834777 21.710426 
L 570.734675 19.891458 
L 572.634573 22.510245 
L 574.53447 23.699676 
L 576.434368 21.576252 
L 578.334266 20.50852 
L 580.234164 23.346763 
L 582.134062 19.41021 
L 584.03396 17.949154 
L 585.933858 21.335456 
L 587.833755 16.202008 
L 589.733653 16.627168 
L 591.633551 16.60701 
L 591.633551 16.60701 
" style="fill:none;stroke:#7e2f8e;stroke-linecap:square;stroke-width:3;"/>
    <defs>
     <path d="M -5 0 
L 5 0 
M 0 5 
L 0 -5 
" id="m4987fb3bfd" style="stroke:#7e2f8e;"/>
    </defs>
    <g clip-path="url(#pfd8d1c1655)">
     <use style="fill:#7e2f8e;stroke:#7e2f8e;" x="158.45684" xlink:href="#m4987fb3bfd" y="42.698884"/>
     <use style="fill:#7e2f8e;stroke:#7e2f8e;" x="259.151427" xlink:href="#m4987fb3bfd" y="29.289768"/>
     <use style="fill:#7e2f8e;stroke:#7e2f8e;" x="359.846013" xlink:href="#m4987fb3bfd" y="31.016932"/>
     <use style="fill:#7e2f8e;stroke:#7e2f8e;" x="460.540599" xlink:href="#m4987fb3bfd" y="23.379956"/>
     <use style="fill:#7e2f8e;stroke:#7e2f8e;" x="561.235185" xlink:href="#m4987fb3bfd" y="23.292274"/>
    </g>
   </g>
   <g id="legend_1">
    <g id="patch_7">
     <path d="M 352.059687 157.164375 
L 606.497187 157.164375 
Q 609.497187 157.164375 609.497187 154.164375 
L 609.497187 67.595625 
Q 609.497187 64.595625 606.497187 64.595625 
L 352.059687 64.595625 
Q 349.059687 64.595625 349.059687 67.595625 
L 349.059687 154.164375 
Q 349.059687 157.164375 352.059687 157.164375 
z
" style="fill:#ffffff;opacity:0.8;stroke:#cccccc;stroke-linejoin:miter;"/>
    </g>
    <g id="line2d_27">
     <path d="M 355.059687 76.743281 
L 385.059687 76.743281 
" style="fill:none;stroke:#77ac30;stroke-linecap:square;stroke-width:3;"/>
    </g>
    <g id="line2d_28">
     <g>
      <use style="fill:#77ac30;stroke:#77ac30;stroke-linejoin:miter;" x="370.059687" xlink:href="#m671b0e0080" y="76.743281"/>
     </g>
    </g>
    <g id="text_15">
     <!-- DOT fp32 -->
     <g transform="translate(397.059687 81.993281)scale(0.15 -0.15)">
      <defs>
       <path d="M 1259 4147 
L 1259 519 
L 2022 519 
Q 2988 519 3436 956 
Q 3884 1394 3884 2338 
Q 3884 3275 3436 3711 
Q 2988 4147 2022 4147 
L 1259 4147 
z
M 628 4666 
L 1925 4666 
Q 3281 4666 3915 4102 
Q 4550 3538 4550 2338 
Q 4550 1131 3912 565 
Q 3275 0 1925 0 
L 628 0 
L 628 4666 
z
" id="DejaVuSans-44" transform="scale(0.015625)"/>
       <path d="M 2522 4238 
Q 1834 4238 1429 3725 
Q 1025 3213 1025 2328 
Q 1025 1447 1429 934 
Q 1834 422 2522 422 
Q 3209 422 3611 934 
Q 4013 1447 4013 2328 
Q 4013 3213 3611 3725 
Q 3209 4238 2522 4238 
z
M 2522 4750 
Q 3503 4750 4090 4092 
Q 4678 3434 4678 2328 
Q 4678 1225 4090 567 
Q 3503 -91 2522 -91 
Q 1538 -91 948 565 
Q 359 1222 359 2328 
Q 359 3434 948 4092 
Q 1538 4750 2522 4750 
z
" id="DejaVuSans-4f" transform="scale(0.015625)"/>
       <path d="M -19 4666 
L 3928 4666 
L 3928 4134 
L 2272 4134 
L 2272 0 
L 1638 0 
L 1638 4134 
L -19 4134 
L -19 4666 
z
" id="DejaVuSans-54" transform="scale(0.015625)"/>
       <path d="M 2375 4863 
L 2375 4384 
L 1825 4384 
Q 1516 4384 1395 4259 
Q 1275 4134 1275 3809 
L 1275 3500 
L 2222 3500 
L 2222 3053 
L 1275 3053 
L 1275 0 
L 697 0 
L 697 3053 
L 147 3053 
L 147 3500 
L 697 3500 
L 697 3744 
Q 697 4328 969 4595 
Q 1241 4863 1831 4863 
L 2375 4863 
z
" id="DejaVuSans-66" transform="scale(0.015625)"/>
       <path d="M 1159 525 
L 1159 -1331 
L 581 -1331 
L 581 3500 
L 1159 3500 
L 1159 2969 
Q 1341 3281 1617 3432 
Q 1894 3584 2278 3584 
Q 2916 3584 3314 3078 
Q 3713 2572 3713 1747 
Q 3713 922 3314 415 
Q 2916 -91 2278 -91 
Q 1894 -91 1617 61 
Q 1341 213 1159 525 
z
M 3116 1747 
Q 3116 2381 2855 2742 
Q 2594 3103 2138 3103 
Q 1681 3103 1420 2742 
Q 1159 2381 1159 1747 
Q 1159 1113 1420 752 
Q 1681 391 2138 391 
Q 2594 391 2855 752 
Q 3116 1113 3116 1747 
z
" id="DejaVuSans-70" transform="scale(0.015625)"/>
      </defs>
      <use xlink:href="#DejaVuSans-44"/>
      <use x="77.001953" xlink:href="#DejaVuSans-4f"/>
      <use x="155.712891" xlink:href="#DejaVuSans-54"/>
      <use x="216.796875" xlink:href="#DejaVuSans-20"/>
      <use x="248.583984" xlink:href="#DejaVuSans-66"/>
      <use x="283.789062" xlink:href="#DejaVuSans-70"/>
      <use x="347.265625" xlink:href="#DejaVuSans-33"/>
      <use x="410.888672" xlink:href="#DejaVuSans-32"/>
     </g>
    </g>
    <g id="line2d_29">
     <path d="M 355.059687 98.760469 
L 385.059687 98.760469 
" style="fill:none;stroke:#0072bd;stroke-linecap:square;stroke-width:3;"/>
    </g>
    <g id="line2d_30">
     <g>
      <use style="fill:#0072bd;stroke:#0072bd;" x="370.059687" xlink:href="#m49675effc0" y="98.760469"/>
     </g>
    </g>
    <g id="text_16">
     <!-- DOT Accessor&lt;fp64, fp32&gt; -->
     <g transform="translate(397.059687 104.010469)scale(0.15 -0.15)">
      <defs>
       <path d="M 2188 4044 
L 1331 1722 
L 3047 1722 
L 2188 4044 
z
M 1831 4666 
L 2547 4666 
L 4325 0 
L 3669 0 
L 3244 1197 
L 1141 1197 
L 716 0 
L 50 0 
L 1831 4666 
z
" id="DejaVuSans-41" transform="scale(0.015625)"/>
       <path d="M 4684 3150 
L 1459 2003 
L 4684 863 
L 4684 294 
L 678 1747 
L 678 2266 
L 4684 3719 
L 4684 3150 
z
" id="DejaVuSans-3c" transform="scale(0.015625)"/>
       <path d="M 750 794 
L 1409 794 
L 1409 256 
L 897 -744 
L 494 -744 
L 750 256 
L 750 794 
z
" id="DejaVuSans-2c" transform="scale(0.015625)"/>
       <path d="M 678 3150 
L 678 3719 
L 4684 2266 
L 4684 1747 
L 678 294 
L 678 863 
L 3897 2003 
L 678 3150 
z
" id="DejaVuSans-3e" transform="scale(0.015625)"/>
      </defs>
      <use xlink:href="#DejaVuSans-44"/>
      <use x="77.001953" xlink:href="#DejaVuSans-4f"/>
      <use x="155.712891" xlink:href="#DejaVuSans-54"/>
      <use x="216.796875" xlink:href="#DejaVuSans-20"/>
      <use x="248.583984" xlink:href="#DejaVuSans-41"/>
      <use x="315.242188" xlink:href="#DejaVuSans-63"/>
      <use x="370.222656" xlink:href="#DejaVuSans-63"/>
      <use x="425.203125" xlink:href="#DejaVuSans-65"/>
      <use x="486.726562" xlink:href="#DejaVuSans-73"/>
      <use x="538.826172" xlink:href="#DejaVuSans-73"/>
      <use x="590.925781" xlink:href="#DejaVuSans-6f"/>
      <use x="652.107422" xlink:href="#DejaVuSans-72"/>
      <use x="693.220703" xlink:href="#DejaVuSans-3c"/>
      <use x="777.009766" xlink:href="#DejaVuSans-66"/>
      <use x="812.214844" xlink:href="#DejaVuSans-70"/>
      <use x="875.691406" xlink:href="#DejaVuSans-36"/>
      <use x="939.314453" xlink:href="#DejaVuSans-34"/>
      <use x="1002.9375" xlink:href="#DejaVuSans-2c"/>
      <use x="1034.724609" xlink:href="#DejaVuSans-20"/>
      <use x="1066.511719" xlink:href="#DejaVuSans-66"/>
      <use x="1101.716797" xlink:href="#DejaVuSans-70"/>
      <use x="1165.193359" xlink:href="#DejaVuSans-33"/>
      <use x="1228.816406" xlink:href="#DejaVuSans-32"/>
      <use x="1292.439453" xlink:href="#DejaVuSans-3e"/>
     </g>
    </g>
    <g id="line2d_31">
     <path d="M 355.059687 120.777656 
L 385.059687 120.777656 
" style="fill:none;stroke:#d95319;stroke-linecap:square;stroke-width:3;"/>
    </g>
    <g id="line2d_32">
     <g>
      <use style="fill:#d95319;stroke:#d95319;stroke-linejoin:miter;" x="370.059687" xlink:href="#m5eae601dba" y="120.777656"/>
     </g>
    </g>
    <g id="text_17">
     <!-- DOT cuBLAS fp64 -->
     <g transform="translate(397.059687 126.027656)scale(0.15 -0.15)">
      <defs>
       <path d="M 544 1381 
L 544 3500 
L 1119 3500 
L 1119 1403 
Q 1119 906 1312 657 
Q 1506 409 1894 409 
Q 2359 409 2629 706 
Q 2900 1003 2900 1516 
L 2900 3500 
L 3475 3500 
L 3475 0 
L 2900 0 
L 2900 538 
Q 2691 219 2414 64 
Q 2138 -91 1772 -91 
Q 1169 -91 856 284 
Q 544 659 544 1381 
z
M 1991 3584 
L 1991 3584 
z
" id="DejaVuSans-75" transform="scale(0.015625)"/>
       <path d="M 1259 2228 
L 1259 519 
L 2272 519 
Q 2781 519 3026 730 
Q 3272 941 3272 1375 
Q 3272 1813 3026 2020 
Q 2781 2228 2272 2228 
L 1259 2228 
z
M 1259 4147 
L 1259 2741 
L 2194 2741 
Q 2656 2741 2882 2914 
Q 3109 3088 3109 3444 
Q 3109 3797 2882 3972 
Q 2656 4147 2194 4147 
L 1259 4147 
z
M 628 4666 
L 2241 4666 
Q 2963 4666 3353 4366 
Q 3744 4066 3744 3513 
Q 3744 3084 3544 2831 
Q 3344 2578 2956 2516 
Q 3422 2416 3680 2098 
Q 3938 1781 3938 1306 
Q 3938 681 3513 340 
Q 3088 0 2303 0 
L 628 0 
L 628 4666 
z
" id="DejaVuSans-42" transform="scale(0.015625)"/>
       <path d="M 628 4666 
L 1259 4666 
L 1259 531 
L 3531 531 
L 3531 0 
L 628 0 
L 628 4666 
z
" id="DejaVuSans-4c" transform="scale(0.015625)"/>
       <path d="M 3425 4513 
L 3425 3897 
Q 3066 4069 2747 4153 
Q 2428 4238 2131 4238 
Q 1616 4238 1336 4038 
Q 1056 3838 1056 3469 
Q 1056 3159 1242 3001 
Q 1428 2844 1947 2747 
L 2328 2669 
Q 3034 2534 3370 2195 
Q 3706 1856 3706 1288 
Q 3706 609 3251 259 
Q 2797 -91 1919 -91 
Q 1588 -91 1214 -16 
Q 841 59 441 206 
L 441 856 
Q 825 641 1194 531 
Q 1563 422 1919 422 
Q 2459 422 2753 634 
Q 3047 847 3047 1241 
Q 3047 1584 2836 1778 
Q 2625 1972 2144 2069 
L 1759 2144 
Q 1053 2284 737 2584 
Q 422 2884 422 3419 
Q 422 4038 858 4394 
Q 1294 4750 2059 4750 
Q 2388 4750 2728 4690 
Q 3069 4631 3425 4513 
z
" id="DejaVuSans-53" transform="scale(0.015625)"/>
      </defs>
      <use xlink:href="#DejaVuSans-44"/>
      <use x="77.001953" xlink:href="#DejaVuSans-4f"/>
      <use x="155.712891" xlink:href="#DejaVuSans-54"/>
      <use x="216.796875" xlink:href="#DejaVuSans-20"/>
      <use x="248.583984" xlink:href="#DejaVuSans-63"/>
      <use x="303.564453" xlink:href="#DejaVuSans-75"/>
      <use x="366.943359" xlink:href="#DejaVuSans-42"/>
      <use x="435.546875" xlink:href="#DejaVuSans-4c"/>
      <use x="493.509766" xlink:href="#DejaVuSans-41"/>
      <use x="561.917969" xlink:href="#DejaVuSans-53"/>
      <use x="625.394531" xlink:href="#DejaVuSans-20"/>
      <use x="657.181641" xlink:href="#DejaVuSans-66"/>
      <use x="692.386719" xlink:href="#DejaVuSans-70"/>
      <use x="755.863281" xlink:href="#DejaVuSans-36"/>
      <use x="819.486328" xlink:href="#DejaVuSans-34"/>
     </g>
    </g>
    <g id="line2d_33">
     <path d="M 355.059687 142.794844 
L 385.059687 142.794844 
" style="fill:none;stroke:#7e2f8e;stroke-linecap:square;stroke-width:3;"/>
    </g>
    <g id="line2d_34">
     <g>
      <use style="fill:#7e2f8e;stroke:#7e2f8e;" x="370.059687" xlink:href="#m4987fb3bfd" y="142.794844"/>
     </g>
    </g>
    <g id="text_18">
     <!-- DOT cuBLAS fp32 -->
     <g transform="translate(397.059687 148.044844)scale(0.15 -0.15)">
      <use xlink:href="#DejaVuSans-44"/>
      <use x="77.001953" xlink:href="#DejaVuSans-4f"/>
      <use x="155.712891" xlink:href="#DejaVuSans-54"/>
      <use x="216.796875" xlink:href="#DejaVuSans-20"/>
      <use x="248.583984" xlink:href="#DejaVuSans-63"/>
      <use x="303.564453" xlink:href="#DejaVuSans-75"/>
      <use x="366.943359" xlink:href="#DejaVuSans-42"/>
      <use x="435.546875" xlink:href="#DejaVuSans-4c"/>
      <use x="493.509766" xlink:href="#DejaVuSans-41"/>
      <use x="561.917969" xlink:href="#DejaVuSans-53"/>
      <use x="625.394531" xlink:href="#DejaVuSans-20"/>
      <use x="657.181641" xlink:href="#DejaVuSans-66"/>
      <use x="692.386719" xlink:href="#DejaVuSans-70"/>
      <use x="755.863281" xlink:href="#DejaVuSans-33"/>
      <use x="819.486328" xlink:href="#DejaVuSans-32"/>
     </g>
    </g>
   </g>
  </g>
 </g>
 <defs>
  <clipPath id="pfd8d1c1655">
   <rect height="221.76" width="558" x="58.997188" y="-0"/>
  </clipPath>
 </defs>
</svg>
