<?xml version="1.0" encoding="utf-8" standalone="no"?>
<!DOCTYPE svg PUBLIC "-//W3C//DTD SVG 1.1//EN"
  "http://www.w3.org/Graphics/SVG/1.1/DTD/svg11.dtd">
<svg height="258.890937pt" version="1.1" viewBox="0 0 610.540984 258.890937" width="610.540984pt" xmlns="http://www.w3.org/2000/svg" xmlns:xlink="http://www.w3.org/1999/xlink">
 <metadata>
  <rdf:RDF xmlns:cc="http://creativecommons.org/ns#" xmlns:dc="http://purl.org/dc/elements/1.1/" xmlns:rdf="http://www.w3.org/1999/02/22-rdf-syntax-ns#">
   <cc:Work>
    <dc:type rdf:resource="http://purl.org/dc/dcmitype/StillImage"/>
    <dc:date>2022-02-09T18:25:21.491464</dc:date>
    <dc:format>image/svg+xml</dc:format>
    <dc:creator>
     <cc:Agent>
      <dc:title>Matplotlib v3.4.1, https://matplotlib.org/</dc:title>
     </cc:Agent>
    </dc:creator>
   </cc:Work>
  </rdf:RDF>
 </metadata>
 <defs>
  <style type="text/css">*{stroke-linecap:butt;stroke-linejoin:round;}</style>
 </defs>
 <g id="figure_1">
  <g id="patch_1">
   <path d="M 0 258.890937 
L 610.540984 258.890937 
L 610.540984 0 
L 0 0 
z
" style="fill:#ffffff;"/>
  </g>
  <g id="axes_1">
   <g id="patch_2">
    <path d="M 48.422187 221.76 
L 606.422187 221.76 
L 606.422187 -0 
L 48.422187 -0 
z
" style="fill:#ffffff;"/>
   </g>
   <g id="matplotlib.axis_1">
    <g id="xtick_1">
     <g id="line2d_1">
      <path clip-path="url(#p377bfeab92)" d="M 71.706837 221.76 
L 71.706837 -0 
" style="fill:none;stroke:#cccccc;stroke-linecap:square;"/>
     </g>
     <g id="line2d_2">
      <defs>
       <path d="M 0 0 
L 0 3.5 
" id="mbd58de0712" style="stroke:#000000;stroke-width:0.8;"/>
      </defs>
      <g>
       <use style="stroke:#000000;stroke-width:0.8;" x="71.706837" xlink:href="#mbd58de0712" y="221.76"/>
      </g>
     </g>
     <g id="text_1">
      <!-- 0 -->
      <g transform="translate(67.889337 237.878125)scale(0.12 -0.12)">
       <defs>
        <path d="M 2034 4250 
Q 1547 4250 1301 3770 
Q 1056 3291 1056 2328 
Q 1056 1369 1301 889 
Q 1547 409 2034 409 
Q 2525 409 2770 889 
Q 3016 1369 3016 2328 
Q 3016 3291 2770 3770 
Q 2525 4250 2034 4250 
z
M 2034 4750 
Q 2819 4750 3233 4129 
Q 3647 3509 3647 2328 
Q 3647 1150 3233 529 
Q 2819 -91 2034 -91 
Q 1250 -91 836 529 
Q 422 1150 422 2328 
Q 422 3509 836 4129 
Q 1250 4750 2034 4750 
z
" id="DejaVuSans-30" transform="scale(0.015625)"/>
       </defs>
       <use xlink:href="#DejaVuSans-30"/>
      </g>
     </g>
    </g>
    <g id="xtick_2">
     <g id="line2d_3">
      <path clip-path="url(#p377bfeab92)" d="M 175.656167 221.76 
L 175.656167 -0 
" style="fill:none;stroke:#cccccc;stroke-linecap:square;"/>
     </g>
     <g id="line2d_4">
      <g>
       <use style="stroke:#000000;stroke-width:0.8;" x="175.656167" xlink:href="#mbd58de0712" y="221.76"/>
      </g>
     </g>
     <g id="text_2">
      <!-- 5000 -->
      <g transform="translate(160.386167 237.878125)scale(0.12 -0.12)">
       <defs>
        <path d="M 691 4666 
L 3169 4666 
L 3169 4134 
L 1269 4134 
L 1269 2991 
Q 1406 3038 1543 3061 
Q 1681 3084 1819 3084 
Q 2600 3084 3056 2656 
Q 3513 2228 3513 1497 
Q 3513 744 3044 326 
Q 2575 -91 1722 -91 
Q 1428 -91 1123 -41 
Q 819 9 494 109 
L 494 744 
Q 775 591 1075 516 
Q 1375 441 1709 441 
Q 2250 441 2565 725 
Q 2881 1009 2881 1497 
Q 2881 1984 2565 2268 
Q 2250 2553 1709 2553 
Q 1456 2553 1204 2497 
Q 953 2441 691 2322 
L 691 4666 
z
" id="DejaVuSans-35" transform="scale(0.015625)"/>
       </defs>
       <use xlink:href="#DejaVuSans-35"/>
       <use x="63.623047" xlink:href="#DejaVuSans-30"/>
       <use x="127.246094" xlink:href="#DejaVuSans-30"/>
       <use x="190.869141" xlink:href="#DejaVuSans-30"/>
      </g>
     </g>
    </g>
    <g id="xtick_3">
     <g id="line2d_5">
      <path clip-path="url(#p377bfeab92)" d="M 279.605496 221.76 
L 279.605496 -0 
" style="fill:none;stroke:#cccccc;stroke-linecap:square;"/>
     </g>
     <g id="line2d_6">
      <g>
       <use style="stroke:#000000;stroke-width:0.8;" x="279.605496" xlink:href="#mbd58de0712" y="221.76"/>
      </g>
     </g>
     <g id="text_3">
      <!-- 10000 -->
      <g transform="translate(260.517996 237.878125)scale(0.12 -0.12)">
       <defs>
        <path d="M 794 531 
L 1825 531 
L 1825 4091 
L 703 3866 
L 703 4441 
L 1819 4666 
L 2450 4666 
L 2450 531 
L 3481 531 
L 3481 0 
L 794 0 
L 794 531 
z
" id="DejaVuSans-31" transform="scale(0.015625)"/>
       </defs>
       <use xlink:href="#DejaVuSans-31"/>
       <use x="63.623047" xlink:href="#DejaVuSans-30"/>
       <use x="127.246094" xlink:href="#DejaVuSans-30"/>
       <use x="190.869141" xlink:href="#DejaVuSans-30"/>
       <use x="254.492188" xlink:href="#DejaVuSans-30"/>
      </g>
     </g>
    </g>
    <g id="xtick_4">
     <g id="line2d_7">
      <path clip-path="url(#p377bfeab92)" d="M 383.554825 221.76 
L 383.554825 -0 
" style="fill:none;stroke:#cccccc;stroke-linecap:square;"/>
     </g>
     <g id="line2d_8">
      <g>
       <use style="stroke:#000000;stroke-width:0.8;" x="383.554825" xlink:href="#mbd58de0712" y="221.76"/>
      </g>
     </g>
     <g id="text_4">
      <!-- 15000 -->
      <g transform="translate(364.467325 237.878125)scale(0.12 -0.12)">
       <use xlink:href="#DejaVuSans-31"/>
       <use x="63.623047" xlink:href="#DejaVuSans-35"/>
       <use x="127.246094" xlink:href="#DejaVuSans-30"/>
       <use x="190.869141" xlink:href="#DejaVuSans-30"/>
       <use x="254.492188" xlink:href="#DejaVuSans-30"/>
      </g>
     </g>
    </g>
    <g id="xtick_5">
     <g id="line2d_9">
      <path clip-path="url(#p377bfeab92)" d="M 487.504155 221.76 
L 487.504155 -0 
" style="fill:none;stroke:#cccccc;stroke-linecap:square;"/>
     </g>
     <g id="line2d_10">
      <g>
       <use style="stroke:#000000;stroke-width:0.8;" x="487.504155" xlink:href="#mbd58de0712" y="221.76"/>
      </g>
     </g>
     <g id="text_5">
      <!-- 20000 -->
      <g transform="translate(468.416655 237.878125)scale(0.12 -0.12)">
       <defs>
        <path d="M 1228 531 
L 3431 531 
L 3431 0 
L 469 0 
L 469 531 
Q 828 903 1448 1529 
Q 2069 2156 2228 2338 
Q 2531 2678 2651 2914 
Q 2772 3150 2772 3378 
Q 2772 3750 2511 3984 
Q 2250 4219 1831 4219 
Q 1534 4219 1204 4116 
Q 875 4013 500 3803 
L 500 4441 
Q 881 4594 1212 4672 
Q 1544 4750 1819 4750 
Q 2544 4750 2975 4387 
Q 3406 4025 3406 3419 
Q 3406 3131 3298 2873 
Q 3191 2616 2906 2266 
Q 2828 2175 2409 1742 
Q 1991 1309 1228 531 
z
" id="DejaVuSans-32" transform="scale(0.015625)"/>
       </defs>
       <use xlink:href="#DejaVuSans-32"/>
       <use x="63.623047" xlink:href="#DejaVuSans-30"/>
       <use x="127.246094" xlink:href="#DejaVuSans-30"/>
       <use x="190.869141" xlink:href="#DejaVuSans-30"/>
       <use x="254.492188" xlink:href="#DejaVuSans-30"/>
      </g>
     </g>
    </g>
    <g id="xtick_6">
     <g id="line2d_11">
      <path clip-path="url(#p377bfeab92)" d="M 591.453484 221.76 
L 591.453484 -0 
" style="fill:none;stroke:#cccccc;stroke-linecap:square;"/>
     </g>
     <g id="line2d_12">
      <g>
       <use style="stroke:#000000;stroke-width:0.8;" x="591.453484" xlink:href="#mbd58de0712" y="221.76"/>
      </g>
     </g>
     <g id="text_6">
      <!-- 25000 -->
      <g transform="translate(572.365984 237.878125)scale(0.12 -0.12)">
       <use xlink:href="#DejaVuSans-32"/>
       <use x="63.623047" xlink:href="#DejaVuSans-35"/>
       <use x="127.246094" xlink:href="#DejaVuSans-30"/>
       <use x="190.869141" xlink:href="#DejaVuSans-30"/>
       <use x="254.492188" xlink:href="#DejaVuSans-30"/>
      </g>
     </g>
    </g>
    <g id="text_7">
     <!-- Number of rows -->
     <g transform="translate(267.752656 255.771406)scale(0.15 -0.15)">
      <defs>
       <path d="M 628 4666 
L 1478 4666 
L 3547 763 
L 3547 4666 
L 4159 4666 
L 4159 0 
L 3309 0 
L 1241 3903 
L 1241 0 
L 628 0 
L 628 4666 
z
" id="DejaVuSans-4e" transform="scale(0.015625)"/>
       <path d="M 544 1381 
L 544 3500 
L 1119 3500 
L 1119 1403 
Q 1119 906 1312 657 
Q 1506 409 1894 409 
Q 2359 409 2629 706 
Q 2900 1003 2900 1516 
L 2900 3500 
L 3475 3500 
L 3475 0 
L 2900 0 
L 2900 538 
Q 2691 219 2414 64 
Q 2138 -91 1772 -91 
Q 1169 -91 856 284 
Q 544 659 544 1381 
z
M 1991 3584 
L 1991 3584 
z
" id="DejaVuSans-75" transform="scale(0.015625)"/>
       <path d="M 3328 2828 
Q 3544 3216 3844 3400 
Q 4144 3584 4550 3584 
Q 5097 3584 5394 3201 
Q 5691 2819 5691 2113 
L 5691 0 
L 5113 0 
L 5113 2094 
Q 5113 2597 4934 2840 
Q 4756 3084 4391 3084 
Q 3944 3084 3684 2787 
Q 3425 2491 3425 1978 
L 3425 0 
L 2847 0 
L 2847 2094 
Q 2847 2600 2669 2842 
Q 2491 3084 2119 3084 
Q 1678 3084 1418 2786 
Q 1159 2488 1159 1978 
L 1159 0 
L 581 0 
L 581 3500 
L 1159 3500 
L 1159 2956 
Q 1356 3278 1631 3431 
Q 1906 3584 2284 3584 
Q 2666 3584 2933 3390 
Q 3200 3197 3328 2828 
z
" id="DejaVuSans-6d" transform="scale(0.015625)"/>
       <path d="M 3116 1747 
Q 3116 2381 2855 2742 
Q 2594 3103 2138 3103 
Q 1681 3103 1420 2742 
Q 1159 2381 1159 1747 
Q 1159 1113 1420 752 
Q 1681 391 2138 391 
Q 2594 391 2855 752 
Q 3116 1113 3116 1747 
z
M 1159 2969 
Q 1341 3281 1617 3432 
Q 1894 3584 2278 3584 
Q 2916 3584 3314 3078 
Q 3713 2572 3713 1747 
Q 3713 922 3314 415 
Q 2916 -91 2278 -91 
Q 1894 -91 1617 61 
Q 1341 213 1159 525 
L 1159 0 
L 581 0 
L 581 4863 
L 1159 4863 
L 1159 2969 
z
" id="DejaVuSans-62" transform="scale(0.015625)"/>
       <path d="M 3597 1894 
L 3597 1613 
L 953 1613 
Q 991 1019 1311 708 
Q 1631 397 2203 397 
Q 2534 397 2845 478 
Q 3156 559 3463 722 
L 3463 178 
Q 3153 47 2828 -22 
Q 2503 -91 2169 -91 
Q 1331 -91 842 396 
Q 353 884 353 1716 
Q 353 2575 817 3079 
Q 1281 3584 2069 3584 
Q 2775 3584 3186 3129 
Q 3597 2675 3597 1894 
z
M 3022 2063 
Q 3016 2534 2758 2815 
Q 2500 3097 2075 3097 
Q 1594 3097 1305 2825 
Q 1016 2553 972 2059 
L 3022 2063 
z
" id="DejaVuSans-65" transform="scale(0.015625)"/>
       <path d="M 2631 2963 
Q 2534 3019 2420 3045 
Q 2306 3072 2169 3072 
Q 1681 3072 1420 2755 
Q 1159 2438 1159 1844 
L 1159 0 
L 581 0 
L 581 3500 
L 1159 3500 
L 1159 2956 
Q 1341 3275 1631 3429 
Q 1922 3584 2338 3584 
Q 2397 3584 2469 3576 
Q 2541 3569 2628 3553 
L 2631 2963 
z
" id="DejaVuSans-72" transform="scale(0.015625)"/>
       <path id="DejaVuSans-20" transform="scale(0.015625)"/>
       <path d="M 1959 3097 
Q 1497 3097 1228 2736 
Q 959 2375 959 1747 
Q 959 1119 1226 758 
Q 1494 397 1959 397 
Q 2419 397 2687 759 
Q 2956 1122 2956 1747 
Q 2956 2369 2687 2733 
Q 2419 3097 1959 3097 
z
M 1959 3584 
Q 2709 3584 3137 3096 
Q 3566 2609 3566 1747 
Q 3566 888 3137 398 
Q 2709 -91 1959 -91 
Q 1206 -91 779 398 
Q 353 888 353 1747 
Q 353 2609 779 3096 
Q 1206 3584 1959 3584 
z
" id="DejaVuSans-6f" transform="scale(0.015625)"/>
       <path d="M 2375 4863 
L 2375 4384 
L 1825 4384 
Q 1516 4384 1395 4259 
Q 1275 4134 1275 3809 
L 1275 3500 
L 2222 3500 
L 2222 3053 
L 1275 3053 
L 1275 0 
L 697 0 
L 697 3053 
L 147 3053 
L 147 3500 
L 697 3500 
L 697 3744 
Q 697 4328 969 4595 
Q 1241 4863 1831 4863 
L 2375 4863 
z
" id="DejaVuSans-66" transform="scale(0.015625)"/>
       <path d="M 269 3500 
L 844 3500 
L 1563 769 
L 2278 3500 
L 2956 3500 
L 3675 769 
L 4391 3500 
L 4966 3500 
L 4050 0 
L 3372 0 
L 2619 2869 
L 1863 0 
L 1184 0 
L 269 3500 
z
" id="DejaVuSans-77" transform="scale(0.015625)"/>
       <path d="M 2834 3397 
L 2834 2853 
Q 2591 2978 2328 3040 
Q 2066 3103 1784 3103 
Q 1356 3103 1142 2972 
Q 928 2841 928 2578 
Q 928 2378 1081 2264 
Q 1234 2150 1697 2047 
L 1894 2003 
Q 2506 1872 2764 1633 
Q 3022 1394 3022 966 
Q 3022 478 2636 193 
Q 2250 -91 1575 -91 
Q 1294 -91 989 -36 
Q 684 19 347 128 
L 347 722 
Q 666 556 975 473 
Q 1284 391 1588 391 
Q 1994 391 2212 530 
Q 2431 669 2431 922 
Q 2431 1156 2273 1281 
Q 2116 1406 1581 1522 
L 1381 1569 
Q 847 1681 609 1914 
Q 372 2147 372 2553 
Q 372 3047 722 3315 
Q 1072 3584 1716 3584 
Q 2034 3584 2315 3537 
Q 2597 3491 2834 3397 
z
" id="DejaVuSans-73" transform="scale(0.015625)"/>
      </defs>
      <use xlink:href="#DejaVuSans-4e"/>
      <use x="74.804688" xlink:href="#DejaVuSans-75"/>
      <use x="138.183594" xlink:href="#DejaVuSans-6d"/>
      <use x="235.595703" xlink:href="#DejaVuSans-62"/>
      <use x="299.072266" xlink:href="#DejaVuSans-65"/>
      <use x="360.595703" xlink:href="#DejaVuSans-72"/>
      <use x="401.708984" xlink:href="#DejaVuSans-20"/>
      <use x="433.496094" xlink:href="#DejaVuSans-6f"/>
      <use x="494.677734" xlink:href="#DejaVuSans-66"/>
      <use x="529.882812" xlink:href="#DejaVuSans-20"/>
      <use x="561.669922" xlink:href="#DejaVuSans-72"/>
      <use x="600.533203" xlink:href="#DejaVuSans-6f"/>
      <use x="661.714844" xlink:href="#DejaVuSans-77"/>
      <use x="743.501953" xlink:href="#DejaVuSans-73"/>
     </g>
    </g>
   </g>
   <g id="matplotlib.axis_2">
    <g id="ytick_1">
     <g id="line2d_13">
      <path clip-path="url(#p377bfeab92)" d="M 48.422187 212.6082 
L 606.422187 212.6082 
" style="fill:none;stroke:#cccccc;stroke-linecap:square;"/>
     </g>
     <g id="line2d_14">
      <defs>
       <path d="M 0 0 
L -3.5 0 
" id="m14350e91dc" style="stroke:#000000;stroke-width:0.8;"/>
      </defs>
      <g>
       <use style="stroke:#000000;stroke-width:0.8;" x="48.422187" xlink:href="#m14350e91dc" y="212.6082"/>
      </g>
     </g>
     <g id="text_8">
      <!-- 0 -->
      <g transform="translate(33.787188 217.167263)scale(0.12 -0.12)">
       <use xlink:href="#DejaVuSans-30"/>
      </g>
     </g>
    </g>
    <g id="ytick_2">
     <g id="line2d_15">
      <path clip-path="url(#p377bfeab92)" d="M 48.422187 167.189457 
L 606.422187 167.189457 
" style="fill:none;stroke:#cccccc;stroke-linecap:square;"/>
     </g>
     <g id="line2d_16">
      <g>
       <use style="stroke:#000000;stroke-width:0.8;" x="48.422187" xlink:href="#m14350e91dc" y="167.189457"/>
      </g>
     </g>
     <g id="text_9">
      <!-- 50 -->
      <g transform="translate(26.152188 171.74852)scale(0.12 -0.12)">
       <use xlink:href="#DejaVuSans-35"/>
       <use x="63.623047" xlink:href="#DejaVuSans-30"/>
      </g>
     </g>
    </g>
    <g id="ytick_3">
     <g id="line2d_17">
      <path clip-path="url(#p377bfeab92)" d="M 48.422187 121.770714 
L 606.422187 121.770714 
" style="fill:none;stroke:#cccccc;stroke-linecap:square;"/>
     </g>
     <g id="line2d_18">
      <g>
       <use style="stroke:#000000;stroke-width:0.8;" x="48.422187" xlink:href="#m14350e91dc" y="121.770714"/>
      </g>
     </g>
     <g id="text_10">
      <!-- 100 -->
      <g transform="translate(18.517188 126.329776)scale(0.12 -0.12)">
       <use xlink:href="#DejaVuSans-31"/>
       <use x="63.623047" xlink:href="#DejaVuSans-30"/>
       <use x="127.246094" xlink:href="#DejaVuSans-30"/>
      </g>
     </g>
    </g>
    <g id="ytick_4">
     <g id="line2d_19">
      <path clip-path="url(#p377bfeab92)" d="M 48.422187 76.35197 
L 606.422187 76.35197 
" style="fill:none;stroke:#cccccc;stroke-linecap:square;"/>
     </g>
     <g id="line2d_20">
      <g>
       <use style="stroke:#000000;stroke-width:0.8;" x="48.422187" xlink:href="#m14350e91dc" y="76.35197"/>
      </g>
     </g>
     <g id="text_11">
      <!-- 150 -->
      <g transform="translate(18.517188 80.911033)scale(0.12 -0.12)">
       <use xlink:href="#DejaVuSans-31"/>
       <use x="63.623047" xlink:href="#DejaVuSans-35"/>
       <use x="127.246094" xlink:href="#DejaVuSans-30"/>
      </g>
     </g>
    </g>
    <g id="ytick_5">
     <g id="line2d_21">
      <path clip-path="url(#p377bfeab92)" d="M 48.422187 30.933227 
L 606.422187 30.933227 
" style="fill:none;stroke:#cccccc;stroke-linecap:square;"/>
     </g>
     <g id="line2d_22">
      <g>
       <use style="stroke:#000000;stroke-width:0.8;" x="48.422187" xlink:href="#m14350e91dc" y="30.933227"/>
      </g>
     </g>
     <g id="text_12">
      <!-- 200 -->
      <g transform="translate(18.517188 35.492289)scale(0.12 -0.12)">
       <use xlink:href="#DejaVuSans-32"/>
       <use x="63.623047" xlink:href="#DejaVuSans-30"/>
       <use x="127.246094" xlink:href="#DejaVuSans-30"/>
      </g>
     </g>
    </g>
    <g id="text_13">
     <!-- GFLOP/s -->
     <g transform="translate(11.397656 141.771797)rotate(-90)scale(0.15 -0.15)">
      <defs>
       <path d="M 3809 666 
L 3809 1919 
L 2778 1919 
L 2778 2438 
L 4434 2438 
L 4434 434 
Q 4069 175 3628 42 
Q 3188 -91 2688 -91 
Q 1594 -91 976 548 
Q 359 1188 359 2328 
Q 359 3472 976 4111 
Q 1594 4750 2688 4750 
Q 3144 4750 3555 4637 
Q 3966 4525 4313 4306 
L 4313 3634 
Q 3963 3931 3569 4081 
Q 3175 4231 2741 4231 
Q 1884 4231 1454 3753 
Q 1025 3275 1025 2328 
Q 1025 1384 1454 906 
Q 1884 428 2741 428 
Q 3075 428 3337 486 
Q 3600 544 3809 666 
z
" id="DejaVuSans-47" transform="scale(0.015625)"/>
       <path d="M 628 4666 
L 3309 4666 
L 3309 4134 
L 1259 4134 
L 1259 2759 
L 3109 2759 
L 3109 2228 
L 1259 2228 
L 1259 0 
L 628 0 
L 628 4666 
z
" id="DejaVuSans-46" transform="scale(0.015625)"/>
       <path d="M 628 4666 
L 1259 4666 
L 1259 531 
L 3531 531 
L 3531 0 
L 628 0 
L 628 4666 
z
" id="DejaVuSans-4c" transform="scale(0.015625)"/>
       <path d="M 2522 4238 
Q 1834 4238 1429 3725 
Q 1025 3213 1025 2328 
Q 1025 1447 1429 934 
Q 1834 422 2522 422 
Q 3209 422 3611 934 
Q 4013 1447 4013 2328 
Q 4013 3213 3611 3725 
Q 3209 4238 2522 4238 
z
M 2522 4750 
Q 3503 4750 4090 4092 
Q 4678 3434 4678 2328 
Q 4678 1225 4090 567 
Q 3503 -91 2522 -91 
Q 1538 -91 948 565 
Q 359 1222 359 2328 
Q 359 3434 948 4092 
Q 1538 4750 2522 4750 
z
" id="DejaVuSans-4f" transform="scale(0.015625)"/>
       <path d="M 1259 4147 
L 1259 2394 
L 2053 2394 
Q 2494 2394 2734 2622 
Q 2975 2850 2975 3272 
Q 2975 3691 2734 3919 
Q 2494 4147 2053 4147 
L 1259 4147 
z
M 628 4666 
L 2053 4666 
Q 2838 4666 3239 4311 
Q 3641 3956 3641 3272 
Q 3641 2581 3239 2228 
Q 2838 1875 2053 1875 
L 1259 1875 
L 1259 0 
L 628 0 
L 628 4666 
z
" id="DejaVuSans-50" transform="scale(0.015625)"/>
       <path d="M 1625 4666 
L 2156 4666 
L 531 -594 
L 0 -594 
L 1625 4666 
z
" id="DejaVuSans-2f" transform="scale(0.015625)"/>
      </defs>
      <use xlink:href="#DejaVuSans-47"/>
      <use x="77.490234" xlink:href="#DejaVuSans-46"/>
      <use x="135.009766" xlink:href="#DejaVuSans-4c"/>
      <use x="187.097656" xlink:href="#DejaVuSans-4f"/>
      <use x="265.808594" xlink:href="#DejaVuSans-50"/>
      <use x="326.111328" xlink:href="#DejaVuSans-2f"/>
      <use x="359.802734" xlink:href="#DejaVuSans-73"/>
     </g>
    </g>
   </g>
   <g id="patch_3">
    <path d="M 48.422187 221.76 
L 48.422187 -0 
" style="fill:none;stroke:#000000;stroke-linecap:square;stroke-linejoin:miter;stroke-width:0.8;"/>
   </g>
   <g id="patch_4">
    <path d="M 606.422187 221.76 
L 606.422187 -0 
" style="fill:none;stroke:#000000;stroke-linecap:square;stroke-linejoin:miter;stroke-width:0.8;"/>
   </g>
   <g id="patch_5">
    <path d="M 48.422188 221.76 
L 606.422187 221.76 
" style="fill:none;stroke:#000000;stroke-linecap:square;stroke-linejoin:miter;stroke-width:0.8;"/>
   </g>
   <g id="patch_6">
    <path d="M 48.422188 -0 
L 606.422187 -0 
" style="fill:none;stroke:#000000;stroke-linecap:square;stroke-linejoin:miter;stroke-width:0.8;"/>
   </g>
   <g id="line2d_23">
    <path clip-path="url(#p377bfeab92)" d="M 73.785824 211.68 
L 75.86481 209.0511 
L 77.943797 204.812574 
L 80.022784 200.274135 
L 82.10177 194.064671 
L 84.180757 187.374016 
L 86.259743 181.703107 
L 90.417717 169.243757 
L 92.496703 167.125972 
L 94.57569 164.572494 
L 96.654676 160.138212 
L 98.733663 156.826 
L 102.891636 148.801769 
L 104.970623 145.319617 
L 107.049609 149.921412 
L 109.128596 148.094026 
L 111.207582 145.61222 
L 113.286569 141.667976 
L 115.365556 132.758359 
L 117.444542 131.440618 
L 119.523529 129.809968 
L 121.602515 128.437579 
L 123.681502 127.861122 
L 125.760489 128.346965 
L 127.839475 126.930334 
L 129.918462 125.376289 
L 131.997448 124.326248 
L 134.076435 123.127479 
L 136.155421 122.220803 
L 140.313395 121.416821 
L 142.392381 120.479175 
L 144.471368 119.848253 
L 146.550354 124.690727 
L 148.629341 123.669436 
L 150.708328 124.139847 
L 152.787314 124.209253 
L 154.866301 118.013388 
L 156.945287 118.272001 
L 159.024274 118.274743 
L 161.103261 117.988036 
L 163.182247 117.380235 
L 165.261234 117.231947 
L 167.34022 116.746216 
L 169.419207 117.350455 
L 171.498193 116.663519 
L 173.57718 116.729906 
L 175.656167 116.154295 
L 179.81414 115.928996 
L 181.893126 115.618876 
L 186.0511 115.252227 
L 188.130086 114.902594 
L 190.209073 115.607279 
L 192.288059 115.51237 
L 194.367046 115.758285 
L 196.446033 115.363323 
L 198.525019 114.802632 
L 200.604006 114.051432 
L 202.682992 114.127927 
L 204.761979 113.81713 
L 206.840965 113.924738 
L 208.919952 113.79931 
L 210.998939 113.973756 
L 213.077925 113.932157 
L 215.156912 113.70694 
L 217.235898 113.608119 
L 219.314885 113.64657 
L 221.393872 113.304295 
L 223.472858 113.424188 
L 225.551845 113.146312 
L 229.709818 113.144014 
L 231.788804 115.910285 
L 233.867791 115.08551 
L 235.946778 115.85176 
L 238.025764 112.694457 
L 240.104751 115.962167 
L 242.183737 112.701284 
L 244.262724 112.834263 
L 246.341711 112.723753 
L 256.736644 112.716134 
L 258.81563 112.556419 
L 269.210563 112.345684 
L 271.28955 112.465192 
L 275.447523 112.516641 
L 277.526509 112.528186 
L 279.605496 112.27879 
L 281.684483 112.407947 
L 283.763469 112.155198 
L 285.842456 112.019723 
L 296.237389 111.99925 
L 300.395362 112.024754 
L 306.632322 111.83098 
L 310.790295 111.845531 
L 314.948268 111.818508 
L 319.106241 112.129506 
L 321.185228 111.742089 
L 323.264214 112.124059 
L 325.343201 112.043823 
L 327.422188 111.721058 
L 329.501174 111.678913 
L 331.580161 111.755994 
L 333.659147 111.693741 
L 335.738134 111.79646 
L 337.81712 111.667144 
L 339.896107 111.813958 
L 341.975094 111.719636 
L 346.133067 111.677374 
L 356.528 111.642529 
L 358.606986 111.530697 
L 360.685973 111.716565 
L 362.764959 111.507474 
L 364.843946 111.666451 
L 366.922933 111.456121 
L 369.001919 111.598857 
L 371.080906 111.363243 
L 375.238879 111.420201 
L 377.317866 111.466823 
L 379.396852 111.379504 
L 381.475839 111.506246 
L 383.554825 111.405994 
L 393.949758 111.404535 
L 398.107731 111.37609 
L 400.186718 111.37409 
L 402.265705 112.160389 
L 404.344691 111.340866 
L 406.423678 112.126356 
L 408.502664 111.502471 
L 410.581651 112.09716 
L 412.660638 111.20207 
L 414.739624 111.308312 
L 416.818611 111.220842 
L 425.134557 111.284318 
L 431.371517 111.278175 
L 437.608477 111.213538 
L 441.76645 111.273728 
L 448.00341 111.380438 
L 450.082396 111.212333 
L 452.161383 111.406669 
L 454.240369 111.135834 
L 458.398342 111.182663 
L 487.504155 111.173829 
L 489.583141 111.396434 
L 491.662128 111.230475 
L 493.741114 111.397877 
L 495.820101 111.171431 
L 502.057061 111.169938 
L 504.136047 111.138574 
L 506.215034 111.230923 
L 512.451994 111.148069 
L 514.53098 111.199871 
L 518.688954 111.15414 
L 522.846927 111.161353 
L 529.083886 111.118138 
L 531.162873 111.274967 
L 533.24186 111.100684 
L 535.320846 111.273693 
L 537.399833 111.050998 
L 539.478819 111.237158 
L 541.557806 111.042609 
L 547.794766 111.108859 
L 554.031726 111.037928 
L 556.110712 111.121754 
L 562.347672 111.027376 
L 564.426658 111.119251 
L 566.505645 111.042549 
L 570.663618 111.056357 
L 572.742605 111.568717 
L 574.821591 111.116592 
L 576.900578 111.587759 
L 578.979565 111.077084 
L 581.058551 111.541191 
L 581.058551 111.541191 
" style="fill:none;stroke:#a2142f;stroke-linecap:square;stroke-width:3;"/>
    <defs>
     <path d="M -2.5 5 
L 0 2.5 
L 2.5 5 
L 5 2.5 
L 2.5 0 
L 5 -2.5 
L 2.5 -5 
L 0 -2.5 
L -2.5 -5 
L -5 -2.5 
L -2.5 0 
L -5 2.5 
z
" id="m529bd189e7" style="stroke:#a2142f;stroke-linejoin:miter;"/>
    </defs>
    <g clip-path="url(#p377bfeab92)">
     <use style="fill:#a2142f;stroke:#a2142f;stroke-linejoin:miter;" x="73.785824" xlink:href="#m529bd189e7" y="211.68"/>
     <use style="fill:#a2142f;stroke:#a2142f;stroke-linejoin:miter;" x="175.656167" xlink:href="#m529bd189e7" y="116.154295"/>
     <use style="fill:#a2142f;stroke:#a2142f;stroke-linejoin:miter;" x="277.526509" xlink:href="#m529bd189e7" y="112.528186"/>
     <use style="fill:#a2142f;stroke:#a2142f;stroke-linejoin:miter;" x="379.396852" xlink:href="#m529bd189e7" y="111.379504"/>
     <use style="fill:#a2142f;stroke:#a2142f;stroke-linejoin:miter;" x="481.267195" xlink:href="#m529bd189e7" y="111.256222"/>
    </g>
   </g>
   <g id="line2d_24">
    <path clip-path="url(#p377bfeab92)" d="M 73.785824 211.646414 
L 75.86481 209.029006 
L 80.022784 200.036941 
L 82.10177 193.967839 
L 86.259743 180.568975 
L 90.417717 164.943152 
L 92.496703 157.430145 
L 94.57569 150.439249 
L 96.654676 142.318217 
L 98.733663 137.943208 
L 100.812649 132.955076 
L 102.891636 127.049579 
L 104.970623 121.71401 
L 107.049609 125.826386 
L 109.128596 118.793291 
L 111.207582 114.390172 
L 113.286569 108.756891 
L 115.365556 94.116475 
L 119.523529 81.058251 
L 123.681502 72.852209 
L 125.760489 76.933332 
L 127.839475 72.629089 
L 129.918462 69.702305 
L 134.076435 61.731555 
L 136.155421 59.461632 
L 138.234408 55.421561 
L 140.313395 55.705395 
L 142.392381 52.080356 
L 144.471368 49.057763 
L 146.550354 58.421268 
L 148.629341 55.2107 
L 150.708328 56.746587 
L 152.787314 48.874194 
L 154.866301 43.071428 
L 156.945287 47.430114 
L 159.024274 40.822358 
L 161.103261 35.820407 
L 163.182247 34.17163 
L 165.261234 33.30203 
L 167.34022 31.239883 
L 169.419207 33.384333 
L 171.498193 32.371713 
L 173.57718 32.475525 
L 175.656167 31.091414 
L 177.735153 30.059944 
L 179.81414 28.56324 
L 181.893126 28.520943 
L 183.972113 27.573248 
L 186.0511 25.832879 
L 188.130086 25.174637 
L 190.209073 27.461786 
L 192.288059 27.053134 
L 194.367046 26.807782 
L 196.446033 27.082394 
L 198.525019 26.553774 
L 200.604006 21.715859 
L 202.682992 21.944256 
L 204.761979 21.438955 
L 206.840965 21.694563 
L 208.919952 20.871159 
L 210.998939 22.133048 
L 213.077925 21.96058 
L 215.156912 21.582612 
L 217.235898 21.383095 
L 219.314885 21.041367 
L 221.393872 20.893077 
L 223.472858 20.923636 
L 225.551845 20.598485 
L 229.709818 18.998214 
L 231.788804 22.423618 
L 233.867791 21.405014 
L 235.946778 18.852028 
L 238.025764 17.290526 
L 240.104751 23.052578 
L 242.183737 16.870518 
L 244.262724 16.961867 
L 248.420697 17.471819 
L 252.57867 16.429723 
L 254.657657 16.127082 
L 256.736644 16.729975 
L 258.81563 16.789163 
L 260.894617 16.226146 
L 262.973603 15.927757 
L 267.131576 16.066556 
L 269.210563 15.855028 
L 271.28955 15.475462 
L 279.605496 15.323195 
L 281.684483 15.131456 
L 283.763469 14.683605 
L 285.842456 14.109011 
L 287.921442 14.249183 
L 290.000429 14.723914 
L 292.079416 14.235141 
L 294.158402 14.200746 
L 298.316375 14.594835 
L 300.395362 15.061673 
L 304.553335 14.014211 
L 306.632322 14.354592 
L 308.711308 14.268594 
L 310.790295 14.438254 
L 312.869281 13.809917 
L 314.948268 13.57836 
L 317.027255 13.596277 
L 321.185228 13.149263 
L 323.264214 13.206376 
L 325.343201 12.980537 
L 327.422188 12.595472 
L 329.501174 12.589995 
L 331.580161 13.036054 
L 333.659147 13.009028 
L 335.738134 12.731504 
L 341.975094 13.104545 
L 346.133067 13.042842 
L 348.212053 13.138068 
L 352.370027 13.023657 
L 356.528 12.823052 
L 360.685973 12.769178 
L 362.764959 12.816844 
L 364.843946 13.090194 
L 366.922933 12.709234 
L 371.080906 12.319184 
L 373.159892 12.502891 
L 375.238879 12.470781 
L 379.396852 12.199384 
L 381.475839 12.328485 
L 385.633812 12.424494 
L 387.712799 12.767808 
L 389.791785 12.441085 
L 391.870772 12.515942 
L 393.949758 12.307848 
L 398.107731 12.133293 
L 400.186718 11.973976 
L 402.265705 12.619364 
L 404.344691 11.858004 
L 406.423678 12.952965 
L 410.581651 12.261495 
L 412.660638 11.282409 
L 414.739624 11.471383 
L 418.897597 11.531665 
L 420.976584 11.632662 
L 425.134557 11.475498 
L 433.450503 11.446424 
L 435.52949 11.332202 
L 437.608477 11.474575 
L 439.687463 11.505299 
L 441.76645 11.266091 
L 445.924423 11.157823 
L 448.00341 11.398672 
L 460.477329 11.091111 
L 462.556316 10.883336 
L 464.635302 10.98939 
L 470.872262 10.960629 
L 472.951249 11.087357 
L 483.346182 10.809415 
L 487.504155 10.551597 
L 491.662128 10.834496 
L 495.820101 10.425501 
L 502.057061 10.592458 
L 504.136047 10.329003 
L 506.215034 10.499655 
L 510.373007 10.46445 
L 512.451994 10.633864 
L 518.688954 10.588714 
L 520.76794 10.278095 
L 522.846927 10.731701 
L 529.083886 10.379383 
L 535.320846 10.83131 
L 537.399833 10.08 
L 539.478819 10.489091 
L 545.715779 10.641813 
L 549.873752 10.406513 
L 551.952739 10.378882 
L 554.031726 10.207593 
L 556.110712 10.782175 
L 558.189699 10.570046 
L 562.347672 10.59378 
L 564.426658 10.689212 
L 568.584632 10.431306 
L 570.663618 10.116907 
L 572.742605 10.93334 
L 574.821591 10.757322 
L 576.900578 10.977999 
L 578.979565 10.351469 
L 581.058551 10.698103 
L 581.058551 10.698103 
" style="fill:none;stroke:#77ac30;stroke-linecap:square;stroke-width:3;"/>
    <defs>
     <path d="M -1.666667 5 
L 1.666667 5 
L 1.666667 1.666667 
L 5 1.666667 
L 5 -1.666667 
L 1.666667 -1.666667 
L 1.666667 -5 
L -1.666667 -5 
L -1.666667 -1.666667 
L -5 -1.666667 
L -5 1.666667 
L -1.666667 1.666667 
z
" id="mcb4a07164d" style="stroke:#77ac30;stroke-linejoin:miter;"/>
    </defs>
    <g clip-path="url(#p377bfeab92)">
     <use style="fill:#77ac30;stroke:#77ac30;stroke-linejoin:miter;" x="92.496703" xlink:href="#mcb4a07164d" y="157.430145"/>
     <use style="fill:#77ac30;stroke:#77ac30;stroke-linejoin:miter;" x="194.367046" xlink:href="#mcb4a07164d" y="26.807782"/>
     <use style="fill:#77ac30;stroke:#77ac30;stroke-linejoin:miter;" x="296.237389" xlink:href="#mcb4a07164d" y="14.394893"/>
     <use style="fill:#77ac30;stroke:#77ac30;stroke-linejoin:miter;" x="398.107731" xlink:href="#mcb4a07164d" y="12.133293"/>
     <use style="fill:#77ac30;stroke:#77ac30;stroke-linejoin:miter;" x="499.978074" xlink:href="#mcb4a07164d" y="10.444587"/>
    </g>
   </g>
   <g id="line2d_25">
    <path clip-path="url(#p377bfeab92)" d="M 73.785824 211.649567 
L 75.86481 209.083734 
L 80.022784 200.307291 
L 82.10177 194.016382 
L 84.180757 187.311863 
L 86.259743 181.146259 
L 92.496703 158.168672 
L 94.57569 151.649614 
L 96.654676 144.649557 
L 98.733663 139.08487 
L 100.812649 134.951954 
L 102.891636 129.923644 
L 104.970623 123.165641 
L 107.049609 127.533277 
L 109.128596 121.213117 
L 111.207582 117.04224 
L 113.286569 110.160287 
L 115.365556 92.527507 
L 117.444542 88.32722 
L 119.523529 82.762265 
L 121.602515 77.754943 
L 123.681502 75.336274 
L 125.760489 78.542875 
L 127.839475 75.137007 
L 129.918462 72.840141 
L 131.997448 67.860027 
L 134.076435 64.869374 
L 138.234408 58.174832 
L 140.313395 58.364748 
L 142.392381 54.171166 
L 144.471368 50.956877 
L 146.550354 61.210826 
L 148.629341 60.027109 
L 150.708328 62.561473 
L 152.787314 52.691827 
L 154.866301 39.718099 
L 156.945287 40.027857 
L 159.024274 37.64335 
L 161.103261 36.767372 
L 165.261234 34.688558 
L 167.34022 32.327871 
L 169.419207 34.301075 
L 173.57718 33.186393 
L 175.656167 31.69261 
L 177.735153 29.335382 
L 179.81414 29.789924 
L 181.893126 29.408617 
L 183.972113 28.641853 
L 186.0511 26.681671 
L 188.130086 25.842793 
L 190.209073 28.238622 
L 192.288059 27.448709 
L 194.367046 27.121527 
L 196.446033 27.920207 
L 198.525019 26.651999 
L 200.604006 22.248431 
L 202.682992 22.234077 
L 204.761979 22.09643 
L 206.840965 22.269966 
L 208.919952 21.58174 
L 210.998939 22.700533 
L 213.077925 22.402409 
L 215.156912 22.308536 
L 221.393872 21.24197 
L 225.551845 21.495171 
L 227.630831 20.475495 
L 229.709818 19.613282 
L 231.788804 23.001881 
L 233.867791 22.415343 
L 235.946778 20.198298 
L 238.025764 17.813875 
L 240.104751 24.412023 
L 242.183737 17.111008 
L 244.262724 17.118275 
L 246.341711 16.744867 
L 248.420697 17.490364 
L 250.499684 17.021151 
L 252.57867 16.393912 
L 254.657657 16.355044 
L 256.736644 17.104547 
L 258.81563 17.171864 
L 260.894617 16.618963 
L 265.05259 16.461007 
L 267.131576 16.649854 
L 269.210563 16.367286 
L 271.28955 15.816418 
L 273.368536 15.592345 
L 277.526509 16.011349 
L 279.605496 15.897213 
L 283.763469 15.173033 
L 285.842456 14.448501 
L 287.921442 14.415584 
L 290.000429 15.160734 
L 292.079416 14.432296 
L 294.158402 14.515092 
L 298.316375 14.942895 
L 300.395362 15.571482 
L 302.474348 14.786746 
L 304.553335 14.246465 
L 308.711308 14.747177 
L 310.790295 14.709798 
L 314.948268 13.639486 
L 317.027255 13.976222 
L 321.185228 13.265948 
L 323.264214 13.712009 
L 325.343201 13.319443 
L 327.422188 12.809438 
L 329.501174 12.663279 
L 331.580161 13.098876 
L 333.659147 13.176801 
L 335.738134 12.853574 
L 337.81712 12.746991 
L 339.896107 13.159838 
L 344.05408 13.394841 
L 346.133067 13.20371 
L 348.212053 13.34382 
L 352.370027 13.300394 
L 354.449013 13.080652 
L 356.528 13.084847 
L 358.606986 12.905841 
L 360.685973 12.972814 
L 364.843946 13.343742 
L 366.922933 12.890547 
L 369.001919 12.648943 
L 371.080906 12.141879 
L 373.159892 12.623561 
L 375.238879 12.735165 
L 377.317866 12.486301 
L 383.554825 12.530279 
L 387.712799 12.633772 
L 398.107731 12.374215 
L 400.186718 12.132889 
L 402.265705 12.780832 
L 404.344691 11.785891 
L 406.423678 13.218031 
L 410.581651 12.590855 
L 412.660638 11.399102 
L 416.818611 11.697674 
L 420.976584 11.35505 
L 423.055571 11.637447 
L 427.213544 11.6444 
L 431.371517 11.621085 
L 437.608477 11.36872 
L 439.687463 11.709702 
L 441.76645 11.392192 
L 445.924423 11.329732 
L 448.00341 11.576975 
L 450.082396 11.655932 
L 452.161383 11.444862 
L 454.240369 11.01484 
L 456.319356 11.258643 
L 470.872262 11.042195 
L 472.951249 11.294502 
L 477.109222 11.206998 
L 479.188208 11.065042 
L 481.267195 11.195579 
L 487.504155 10.627076 
L 489.583141 10.955128 
L 491.662128 11.108245 
L 495.820101 10.622519 
L 502.057061 10.676292 
L 504.136047 10.488775 
L 508.294021 10.582682 
L 510.373007 10.567847 
L 512.451994 10.784006 
L 514.53098 10.866805 
L 516.609967 10.73254 
L 518.688954 10.722339 
L 520.76794 10.435588 
L 522.846927 10.877909 
L 524.925913 10.811069 
L 527.0049 10.623171 
L 529.083886 10.640949 
L 535.320846 11.081887 
L 537.399833 10.261246 
L 539.478819 10.571479 
L 541.557806 10.521613 
L 545.715779 10.857165 
L 549.873752 10.466391 
L 551.952739 10.535343 
L 554.031726 10.397747 
L 556.110712 11.027655 
L 558.189699 10.787753 
L 560.268685 10.681931 
L 566.505645 10.775836 
L 570.663618 10.22968 
L 572.742605 11.13786 
L 574.821591 11.072946 
L 576.900578 11.297591 
L 578.979565 10.639069 
L 581.058551 10.815263 
L 581.058551 10.815263 
" style="fill:none;stroke:#0072bd;stroke-linecap:square;stroke-width:3;"/>
    <defs>
     <path d="M -5 5 
L 5 -5 
M -5 -5 
L 5 5 
" id="m6fcad4a027" style="stroke:#0072bd;"/>
    </defs>
    <g clip-path="url(#p377bfeab92)">
     <use style="fill:#0072bd;stroke:#0072bd;" x="111.207582" xlink:href="#m6fcad4a027" y="117.04224"/>
     <use style="fill:#0072bd;stroke:#0072bd;" x="213.077925" xlink:href="#m6fcad4a027" y="22.402409"/>
     <use style="fill:#0072bd;stroke:#0072bd;" x="314.948268" xlink:href="#m6fcad4a027" y="13.639486"/>
     <use style="fill:#0072bd;stroke:#0072bd;" x="416.818611" xlink:href="#m6fcad4a027" y="11.697674"/>
     <use style="fill:#0072bd;stroke:#0072bd;" x="518.688954" xlink:href="#m6fcad4a027" y="10.722339"/>
    </g>
   </g>
   <g id="line2d_26">
    <path clip-path="url(#p377bfeab92)" d="M 73.785824 211.671075 
L 75.86481 208.972552 
L 77.943797 204.974022 
L 80.022784 199.790446 
L 82.10177 193.771106 
L 86.259743 180.715272 
L 88.33873 174.853283 
L 90.417717 169.406172 
L 92.496703 167.270821 
L 94.57569 165.363207 
L 96.654676 159.868094 
L 98.733663 156.890638 
L 100.812649 151.604714 
L 102.891636 148.610355 
L 104.970623 144.116903 
L 107.049609 144.576431 
L 109.128596 141.358203 
L 113.286569 136.133973 
L 115.365556 135.885894 
L 117.444542 134.081343 
L 119.523529 130.978676 
L 123.681502 128.022547 
L 125.760489 127.525999 
L 127.839475 127.668025 
L 129.918462 126.389044 
L 131.997448 125.48489 
L 134.076435 124.726445 
L 136.155421 123.57647 
L 140.313395 122.584243 
L 142.392381 121.400211 
L 144.471368 121.260347 
L 146.550354 120.512557 
L 148.629341 120.335556 
L 152.787314 119.000308 
L 154.866301 118.852412 
L 156.945287 119.829913 
L 159.024274 119.915026 
L 161.103261 118.966458 
L 163.182247 118.21385 
L 165.261234 118.634306 
L 167.34022 117.278361 
L 169.419207 117.162086 
L 171.498193 116.916044 
L 173.57718 117.743504 
L 175.656167 116.934036 
L 179.81414 117.107134 
L 181.893126 116.448847 
L 183.972113 116.716516 
L 186.0511 116.235062 
L 188.130086 115.899809 
L 190.209073 115.952729 
L 192.288059 124.420735 
L 194.367046 124.186413 
L 196.446033 128.588749 
L 198.525019 124.652384 
L 200.604006 126.347671 
L 202.682992 126.324885 
L 204.761979 123.462299 
L 206.840965 124.094461 
L 210.998939 121.858613 
L 213.077925 120.590771 
L 215.156912 119.993701 
L 217.235898 118.692758 
L 219.314885 117.562459 
L 223.472858 116.540799 
L 225.551845 115.591128 
L 227.630831 115.437364 
L 229.709818 115.060539 
L 231.788804 114.962543 
L 233.867791 115.299725 
L 235.946778 114.556329 
L 240.104751 114.532605 
L 242.183737 114.169214 
L 246.341711 114.499114 
L 248.420697 114.131484 
L 250.499684 114.3204 
L 252.57867 113.915425 
L 254.657657 113.753776 
L 256.736644 113.830391 
L 260.894617 113.648571 
L 262.973603 113.169434 
L 265.05259 113.4096 
L 267.131576 113.377407 
L 269.210563 113.844901 
L 271.28955 113.237126 
L 273.368536 113.338973 
L 279.605496 112.853309 
L 281.684483 113.372568 
L 283.763469 113.136081 
L 285.842456 113.244022 
L 296.237389 112.979825 
L 302.474348 112.959335 
L 304.553335 112.639545 
L 306.632322 112.881551 
L 308.711308 112.78652 
L 310.790295 113.01868 
L 312.869281 117.935552 
L 314.948268 118.433956 
L 317.027255 119.440511 
L 319.106241 119.461672 
L 321.185228 118.504565 
L 323.264214 118.209518 
L 329.501174 116.517232 
L 331.580161 116.229841 
L 333.659147 115.353659 
L 335.738134 115.197383 
L 337.81712 114.527465 
L 339.896107 114.069477 
L 341.975094 113.456184 
L 344.05408 113.271601 
L 346.133067 113.588438 
L 348.212053 112.97601 
L 350.29104 112.876991 
L 352.370027 113.057827 
L 354.449013 112.660253 
L 356.528 112.786726 
L 362.764959 112.691 
L 364.843946 112.895013 
L 366.922933 112.697087 
L 369.001919 112.75581 
L 371.080906 112.479021 
L 373.159892 112.604155 
L 377.317866 112.49664 
L 379.396852 112.274462 
L 381.475839 112.326558 
L 383.554825 112.528488 
L 385.633812 112.522538 
L 387.712799 112.4041 
L 393.949758 112.480083 
L 396.028745 112.285591 
L 400.186718 112.417301 
L 402.265705 112.317587 
L 404.344691 112.367379 
L 406.423678 112.305751 
L 408.502664 112.114732 
L 418.897597 112.39313 
L 420.976584 112.332935 
L 423.055571 112.4245 
L 425.134557 112.320875 
L 427.213544 112.609219 
L 429.29253 112.726038 
L 431.371517 114.185397 
L 433.450503 115.444893 
L 435.52949 116.181173 
L 437.608477 115.290865 
L 439.687463 115.648621 
L 441.76645 115.439765 
L 448.00341 114.466168 
L 450.082396 114.17028 
L 452.161383 114.065561 
L 454.240369 113.520782 
L 458.398342 113.364466 
L 462.556316 112.580275 
L 464.635302 112.749711 
L 466.714289 112.794966 
L 470.872262 112.401266 
L 472.951249 112.637399 
L 475.030235 112.388953 
L 477.109222 112.429021 
L 479.188208 112.2354 
L 481.267195 112.608403 
L 483.346182 112.431669 
L 485.425168 112.479801 
L 487.504155 112.117184 
L 489.583141 112.346598 
L 491.662128 112.2562 
L 493.741114 112.39569 
L 497.899088 112.267918 
L 502.057061 112.367705 
L 506.215034 112.214927 
L 512.451994 112.061881 
L 522.846927 112.21117 
L 529.083886 112.147285 
L 531.162873 112.267822 
L 535.320846 112.27399 
L 537.399833 112.332783 
L 539.478819 112.275985 
L 549.873752 112.822604 
L 551.952739 113.51478 
L 554.031726 113.786873 
L 556.110712 114.237949 
L 558.189699 113.889557 
L 560.268685 113.866118 
L 566.505645 113.410118 
L 568.584632 113.095368 
L 572.742605 113.07216 
L 574.821591 112.604257 
L 581.058551 112.405268 
L 581.058551 112.405268 
" style="fill:none;stroke:#d95319;stroke-linecap:square;stroke-width:3;"/>
    <defs>
     <path d="M -0 7.071068 
L 4.242641 0 
L -0 -7.071068 
L -4.242641 -0 
z
" id="m1f698a7cfd" style="stroke:#d95319;stroke-linejoin:miter;"/>
    </defs>
    <g clip-path="url(#p377bfeab92)">
     <use style="fill:#d95319;stroke:#d95319;stroke-linejoin:miter;" x="129.918462" xlink:href="#m1f698a7cfd" y="126.389044"/>
     <use style="fill:#d95319;stroke:#d95319;stroke-linejoin:miter;" x="231.788804" xlink:href="#m1f698a7cfd" y="114.962543"/>
     <use style="fill:#d95319;stroke:#d95319;stroke-linejoin:miter;" x="333.659147" xlink:href="#m1f698a7cfd" y="115.353659"/>
     <use style="fill:#d95319;stroke:#d95319;stroke-linejoin:miter;" x="435.52949" xlink:href="#m1f698a7cfd" y="116.181173"/>
     <use style="fill:#d95319;stroke:#d95319;stroke-linejoin:miter;" x="537.399833" xlink:href="#m1f698a7cfd" y="112.332783"/>
    </g>
   </g>
   <g id="line2d_27">
    <path clip-path="url(#p377bfeab92)" d="M 73.785824 211.617071 
L 75.86481 208.902411 
L 77.943797 204.693009 
L 80.022784 199.189027 
L 82.10177 193.102029 
L 86.259743 178.453916 
L 90.417717 160.649005 
L 92.496703 153.415113 
L 96.654676 137.140316 
L 98.733663 132.734019 
L 100.812649 128.636535 
L 102.891636 123.100717 
L 104.970623 115.273646 
L 107.049609 115.235718 
L 109.128596 109.443313 
L 111.207582 102.717576 
L 113.286569 98.2046 
L 115.365556 92.412376 
L 117.444542 88.663104 
L 121.602515 77.532411 
L 123.681502 77.733588 
L 125.760489 74.494895 
L 127.839475 70.516927 
L 129.918462 67.088743 
L 134.076435 63.404052 
L 136.155421 61.076388 
L 138.234408 58.010714 
L 140.313395 56.732959 
L 142.392381 58.844169 
L 144.471368 52.591966 
L 146.550354 52.033234 
L 148.629341 51.960035 
L 150.708328 48.713764 
L 154.866301 47.325263 
L 156.945287 44.286086 
L 159.024274 44.228057 
L 161.103261 43.177063 
L 163.182247 42.610825 
L 165.261234 40.748573 
L 167.34022 38.641596 
L 169.419207 36.749795 
L 171.498193 37.155473 
L 175.656167 37.059697 
L 177.735153 35.783706 
L 179.81414 35.930116 
L 181.893126 34.877265 
L 183.972113 33.495636 
L 188.130086 30.128331 
L 190.209073 29.953845 
L 192.288059 31.037884 
L 194.367046 31.33868 
L 196.446033 29.769744 
L 198.525019 29.169708 
L 200.604006 29.526982 
L 202.682992 28.092702 
L 204.761979 26.008126 
L 206.840965 48.374393 
L 208.919952 48.101904 
L 210.998939 50.020503 
L 213.077925 51.639735 
L 217.235898 49.2813 
L 219.314885 47.660745 
L 221.393872 45.371976 
L 223.472858 44.793867 
L 225.551845 42.150388 
L 227.630831 40.679297 
L 231.788804 37.477763 
L 233.867791 36.365011 
L 235.946778 33.98618 
L 238.025764 32.735765 
L 240.104751 31.66792 
L 242.183737 31.637581 
L 244.262724 28.592806 
L 246.341711 28.395467 
L 248.420697 27.439963 
L 250.499684 27.795299 
L 252.57867 26.583332 
L 254.657657 26.203467 
L 256.736644 27.239019 
L 258.81563 26.486627 
L 262.973603 24.26598 
L 265.05259 25.344842 
L 267.131576 24.141995 
L 269.210563 25.971392 
L 271.28955 24.285141 
L 273.368536 24.16611 
L 275.447523 24.701175 
L 279.605496 24.273442 
L 281.684483 23.486443 
L 283.763469 22.271083 
L 285.842456 22.153387 
L 287.921442 23.133675 
L 292.079416 22.690103 
L 294.158402 21.299643 
L 296.237389 23.462226 
L 298.316375 22.848169 
L 300.395362 22.778425 
L 302.474348 22.329062 
L 304.553335 20.970237 
L 306.632322 22.164769 
L 308.711308 20.914264 
L 312.869281 21.649371 
L 314.948268 21.438917 
L 317.027255 21.512877 
L 319.106241 20.480131 
L 321.185228 20.134974 
L 323.264214 20.929417 
L 325.343201 20.442067 
L 327.422188 20.54554 
L 329.501174 20.095763 
L 331.580161 20.552413 
L 333.659147 20.552136 
L 335.738134 20.172923 
L 337.81712 21.820786 
L 339.896107 28.579704 
L 341.975094 29.879263 
L 344.05408 29.319011 
L 346.133067 30.938651 
L 348.212053 31.160999 
L 350.29104 29.81592 
L 354.449013 28.381547 
L 356.528 27.673816 
L 358.606986 26.225754 
L 360.685973 25.322658 
L 362.764959 24.83655 
L 364.843946 23.876931 
L 369.001919 22.62073 
L 371.080906 22.664486 
L 373.159892 22.040241 
L 375.238879 21.035797 
L 377.317866 20.794989 
L 379.396852 19.983334 
L 383.554825 20.357816 
L 385.633812 19.33337 
L 387.712799 19.486609 
L 389.791785 19.2936 
L 391.870772 19.61028 
L 393.949758 19.301086 
L 396.028745 19.55094 
L 398.107731 19.426913 
L 400.186718 18.73515 
L 402.265705 19.178231 
L 404.344691 18.666284 
L 406.423678 18.00019 
L 408.502664 18.703155 
L 410.581651 18.609267 
L 412.660638 18.266011 
L 414.739624 17.753571 
L 416.818611 17.718386 
L 418.897597 17.909715 
L 420.976584 17.684903 
L 423.055571 17.872996 
L 425.134557 17.7703 
L 427.213544 17.344761 
L 429.29253 17.523075 
L 431.371517 17.280687 
L 433.450503 17.172617 
L 435.52949 16.78987 
L 437.608477 17.151643 
L 439.687463 17.268758 
L 441.76645 17.00147 
L 443.845436 17.395501 
L 445.924423 17.270802 
L 448.00341 17.436187 
L 450.082396 17.359158 
L 454.240369 16.745184 
L 458.398342 17.373622 
L 460.477329 17.126144 
L 462.556316 17.047678 
L 464.635302 17.509363 
L 466.714289 17.615195 
L 468.793275 17.55756 
L 470.872262 18.392057 
L 472.951249 21.816181 
L 475.030235 21.632594 
L 477.109222 21.08626 
L 479.188208 22.413596 
L 481.267195 22.942015 
L 483.346182 21.327828 
L 485.425168 21.395462 
L 491.662128 19.897097 
L 493.741114 19.181457 
L 495.820101 18.856834 
L 497.899088 18.199309 
L 499.978074 18.524484 
L 502.057061 17.881097 
L 504.136047 17.605895 
L 506.215034 17.991259 
L 508.294021 17.191792 
L 512.451994 17.355946 
L 514.53098 16.374511 
L 516.609967 16.901089 
L 518.688954 16.446794 
L 520.76794 16.601382 
L 522.846927 16.531989 
L 524.925913 16.290036 
L 527.0049 16.462756 
L 529.083886 16.282338 
L 531.162873 16.388782 
L 533.24186 16.19895 
L 535.320846 16.4631 
L 537.399833 15.894415 
L 539.478819 16.227776 
L 541.557806 15.97489 
L 543.636793 16.228271 
L 545.715779 16.286405 
L 549.873752 15.894111 
L 551.952739 16.148471 
L 554.031726 15.915733 
L 556.110712 15.850126 
L 558.189699 15.546342 
L 560.268685 15.90325 
L 564.426658 15.474334 
L 566.505645 16.093372 
L 568.584632 15.787906 
L 570.663618 15.762126 
L 572.742605 16.088959 
L 578.979565 15.775799 
L 581.058551 16.212992 
L 581.058551 16.212992 
" style="fill:none;stroke:#7e2f8e;stroke-linecap:square;stroke-width:3;"/>
    <defs>
     <path d="M -5 0 
L 5 0 
M 0 5 
L 0 -5 
" id="mfeea63d951" style="stroke:#7e2f8e;"/>
    </defs>
    <g clip-path="url(#p377bfeab92)">
     <use style="fill:#7e2f8e;stroke:#7e2f8e;" x="148.629341" xlink:href="#mfeea63d951" y="51.960035"/>
     <use style="fill:#7e2f8e;stroke:#7e2f8e;" x="250.499684" xlink:href="#mfeea63d951" y="27.795299"/>
     <use style="fill:#7e2f8e;stroke:#7e2f8e;" x="352.370027" xlink:href="#mfeea63d951" y="29.149774"/>
     <use style="fill:#7e2f8e;stroke:#7e2f8e;" x="454.240369" xlink:href="#mfeea63d951" y="16.745184"/>
     <use style="fill:#7e2f8e;stroke:#7e2f8e;" x="556.110712" xlink:href="#mfeea63d951" y="15.850126"/>
    </g>
   </g>
   <g id="legend_1">
    <g id="patch_7">
     <path d="M 329.700313 214.26 
L 595.922188 214.26 
Q 598.922188 214.26 598.922188 211.26 
L 598.922188 102.674062 
Q 598.922188 99.674062 595.922188 99.674062 
L 329.700313 99.674062 
Q 326.700313 99.674062 326.700313 102.674062 
L 326.700313 211.26 
Q 326.700313 214.26 329.700313 214.26 
z
" style="fill:#ffffff;opacity:0.8;stroke:#cccccc;stroke-linejoin:miter;"/>
    </g>
    <g id="line2d_28">
     <path d="M 332.700313 111.821719 
L 362.700313 111.821719 
" style="fill:none;stroke:#a2142f;stroke-linecap:square;stroke-width:3;"/>
    </g>
    <g id="line2d_29">
     <g>
      <use style="fill:#a2142f;stroke:#a2142f;stroke-linejoin:miter;" x="347.700313" xlink:href="#m529bd189e7" y="111.821719"/>
     </g>
    </g>
    <g id="text_14">
     <!-- GEMV fp64 -->
     <g transform="translate(374.700313 117.071719)scale(0.15 -0.15)">
      <defs>
       <path d="M 628 4666 
L 3578 4666 
L 3578 4134 
L 1259 4134 
L 1259 2753 
L 3481 2753 
L 3481 2222 
L 1259 2222 
L 1259 531 
L 3634 531 
L 3634 0 
L 628 0 
L 628 4666 
z
" id="DejaVuSans-45" transform="scale(0.015625)"/>
       <path d="M 628 4666 
L 1569 4666 
L 2759 1491 
L 3956 4666 
L 4897 4666 
L 4897 0 
L 4281 0 
L 4281 4097 
L 3078 897 
L 2444 897 
L 1241 4097 
L 1241 0 
L 628 0 
L 628 4666 
z
" id="DejaVuSans-4d" transform="scale(0.015625)"/>
       <path d="M 1831 0 
L 50 4666 
L 709 4666 
L 2188 738 
L 3669 4666 
L 4325 4666 
L 2547 0 
L 1831 0 
z
" id="DejaVuSans-56" transform="scale(0.015625)"/>
       <path d="M 1159 525 
L 1159 -1331 
L 581 -1331 
L 581 3500 
L 1159 3500 
L 1159 2969 
Q 1341 3281 1617 3432 
Q 1894 3584 2278 3584 
Q 2916 3584 3314 3078 
Q 3713 2572 3713 1747 
Q 3713 922 3314 415 
Q 2916 -91 2278 -91 
Q 1894 -91 1617 61 
Q 1341 213 1159 525 
z
M 3116 1747 
Q 3116 2381 2855 2742 
Q 2594 3103 2138 3103 
Q 1681 3103 1420 2742 
Q 1159 2381 1159 1747 
Q 1159 1113 1420 752 
Q 1681 391 2138 391 
Q 2594 391 2855 752 
Q 3116 1113 3116 1747 
z
" id="DejaVuSans-70" transform="scale(0.015625)"/>
       <path d="M 2113 2584 
Q 1688 2584 1439 2293 
Q 1191 2003 1191 1497 
Q 1191 994 1439 701 
Q 1688 409 2113 409 
Q 2538 409 2786 701 
Q 3034 994 3034 1497 
Q 3034 2003 2786 2293 
Q 2538 2584 2113 2584 
z
M 3366 4563 
L 3366 3988 
Q 3128 4100 2886 4159 
Q 2644 4219 2406 4219 
Q 1781 4219 1451 3797 
Q 1122 3375 1075 2522 
Q 1259 2794 1537 2939 
Q 1816 3084 2150 3084 
Q 2853 3084 3261 2657 
Q 3669 2231 3669 1497 
Q 3669 778 3244 343 
Q 2819 -91 2113 -91 
Q 1303 -91 875 529 
Q 447 1150 447 2328 
Q 447 3434 972 4092 
Q 1497 4750 2381 4750 
Q 2619 4750 2861 4703 
Q 3103 4656 3366 4563 
z
" id="DejaVuSans-36" transform="scale(0.015625)"/>
       <path d="M 2419 4116 
L 825 1625 
L 2419 1625 
L 2419 4116 
z
M 2253 4666 
L 3047 4666 
L 3047 1625 
L 3713 1625 
L 3713 1100 
L 3047 1100 
L 3047 0 
L 2419 0 
L 2419 1100 
L 313 1100 
L 313 1709 
L 2253 4666 
z
" id="DejaVuSans-34" transform="scale(0.015625)"/>
      </defs>
      <use xlink:href="#DejaVuSans-47"/>
      <use x="77.490234" xlink:href="#DejaVuSans-45"/>
      <use x="140.673828" xlink:href="#DejaVuSans-4d"/>
      <use x="226.953125" xlink:href="#DejaVuSans-56"/>
      <use x="295.361328" xlink:href="#DejaVuSans-20"/>
      <use x="327.148438" xlink:href="#DejaVuSans-66"/>
      <use x="362.353516" xlink:href="#DejaVuSans-70"/>
      <use x="425.830078" xlink:href="#DejaVuSans-36"/>
      <use x="489.453125" xlink:href="#DejaVuSans-34"/>
     </g>
    </g>
    <g id="line2d_30">
     <path d="M 332.700313 133.838906 
L 362.700313 133.838906 
" style="fill:none;stroke:#77ac30;stroke-linecap:square;stroke-width:3;"/>
    </g>
    <g id="line2d_31">
     <g>
      <use style="fill:#77ac30;stroke:#77ac30;stroke-linejoin:miter;" x="347.700313" xlink:href="#mcb4a07164d" y="133.838906"/>
     </g>
    </g>
    <g id="text_15">
     <!-- GEMV fp32 -->
     <g transform="translate(374.700313 139.088906)scale(0.15 -0.15)">
      <defs>
       <path d="M 2597 2516 
Q 3050 2419 3304 2112 
Q 3559 1806 3559 1356 
Q 3559 666 3084 287 
Q 2609 -91 1734 -91 
Q 1441 -91 1130 -33 
Q 819 25 488 141 
L 488 750 
Q 750 597 1062 519 
Q 1375 441 1716 441 
Q 2309 441 2620 675 
Q 2931 909 2931 1356 
Q 2931 1769 2642 2001 
Q 2353 2234 1838 2234 
L 1294 2234 
L 1294 2753 
L 1863 2753 
Q 2328 2753 2575 2939 
Q 2822 3125 2822 3475 
Q 2822 3834 2567 4026 
Q 2313 4219 1838 4219 
Q 1578 4219 1281 4162 
Q 984 4106 628 3988 
L 628 4550 
Q 988 4650 1302 4700 
Q 1616 4750 1894 4750 
Q 2613 4750 3031 4423 
Q 3450 4097 3450 3541 
Q 3450 3153 3228 2886 
Q 3006 2619 2597 2516 
z
" id="DejaVuSans-33" transform="scale(0.015625)"/>
      </defs>
      <use xlink:href="#DejaVuSans-47"/>
      <use x="77.490234" xlink:href="#DejaVuSans-45"/>
      <use x="140.673828" xlink:href="#DejaVuSans-4d"/>
      <use x="226.953125" xlink:href="#DejaVuSans-56"/>
      <use x="295.361328" xlink:href="#DejaVuSans-20"/>
      <use x="327.148438" xlink:href="#DejaVuSans-66"/>
      <use x="362.353516" xlink:href="#DejaVuSans-70"/>
      <use x="425.830078" xlink:href="#DejaVuSans-33"/>
      <use x="489.453125" xlink:href="#DejaVuSans-32"/>
     </g>
    </g>
    <g id="line2d_32">
     <path d="M 332.700313 155.856094 
L 362.700313 155.856094 
" style="fill:none;stroke:#0072bd;stroke-linecap:square;stroke-width:3;"/>
    </g>
    <g id="line2d_33">
     <g>
      <use style="fill:#0072bd;stroke:#0072bd;" x="347.700313" xlink:href="#m6fcad4a027" y="155.856094"/>
     </g>
    </g>
    <g id="text_16">
     <!-- GEMV Accessor&lt;fp64, fp32&gt; -->
     <g transform="translate(374.700313 161.106094)scale(0.15 -0.15)">
      <defs>
       <path d="M 2188 4044 
L 1331 1722 
L 3047 1722 
L 2188 4044 
z
M 1831 4666 
L 2547 4666 
L 4325 0 
L 3669 0 
L 3244 1197 
L 1141 1197 
L 716 0 
L 50 0 
L 1831 4666 
z
" id="DejaVuSans-41" transform="scale(0.015625)"/>
       <path d="M 3122 3366 
L 3122 2828 
Q 2878 2963 2633 3030 
Q 2388 3097 2138 3097 
Q 1578 3097 1268 2742 
Q 959 2388 959 1747 
Q 959 1106 1268 751 
Q 1578 397 2138 397 
Q 2388 397 2633 464 
Q 2878 531 3122 666 
L 3122 134 
Q 2881 22 2623 -34 
Q 2366 -91 2075 -91 
Q 1284 -91 818 406 
Q 353 903 353 1747 
Q 353 2603 823 3093 
Q 1294 3584 2113 3584 
Q 2378 3584 2631 3529 
Q 2884 3475 3122 3366 
z
" id="DejaVuSans-63" transform="scale(0.015625)"/>
       <path d="M 4684 3150 
L 1459 2003 
L 4684 863 
L 4684 294 
L 678 1747 
L 678 2266 
L 4684 3719 
L 4684 3150 
z
" id="DejaVuSans-3c" transform="scale(0.015625)"/>
       <path d="M 750 794 
L 1409 794 
L 1409 256 
L 897 -744 
L 494 -744 
L 750 256 
L 750 794 
z
" id="DejaVuSans-2c" transform="scale(0.015625)"/>
       <path d="M 678 3150 
L 678 3719 
L 4684 2266 
L 4684 1747 
L 678 294 
L 678 863 
L 3897 2003 
L 678 3150 
z
" id="DejaVuSans-3e" transform="scale(0.015625)"/>
      </defs>
      <use xlink:href="#DejaVuSans-47"/>
      <use x="77.490234" xlink:href="#DejaVuSans-45"/>
      <use x="140.673828" xlink:href="#DejaVuSans-4d"/>
      <use x="226.953125" xlink:href="#DejaVuSans-56"/>
      <use x="295.361328" xlink:href="#DejaVuSans-20"/>
      <use x="327.148438" xlink:href="#DejaVuSans-41"/>
      <use x="393.806641" xlink:href="#DejaVuSans-63"/>
      <use x="448.787109" xlink:href="#DejaVuSans-63"/>
      <use x="503.767578" xlink:href="#DejaVuSans-65"/>
      <use x="565.291016" xlink:href="#DejaVuSans-73"/>
      <use x="617.390625" xlink:href="#DejaVuSans-73"/>
      <use x="669.490234" xlink:href="#DejaVuSans-6f"/>
      <use x="730.671875" xlink:href="#DejaVuSans-72"/>
      <use x="771.785156" xlink:href="#DejaVuSans-3c"/>
      <use x="855.574219" xlink:href="#DejaVuSans-66"/>
      <use x="890.779297" xlink:href="#DejaVuSans-70"/>
      <use x="954.255859" xlink:href="#DejaVuSans-36"/>
      <use x="1017.878906" xlink:href="#DejaVuSans-34"/>
      <use x="1081.501953" xlink:href="#DejaVuSans-2c"/>
      <use x="1113.289062" xlink:href="#DejaVuSans-20"/>
      <use x="1145.076172" xlink:href="#DejaVuSans-66"/>
      <use x="1180.28125" xlink:href="#DejaVuSans-70"/>
      <use x="1243.757812" xlink:href="#DejaVuSans-33"/>
      <use x="1307.380859" xlink:href="#DejaVuSans-32"/>
      <use x="1371.003906" xlink:href="#DejaVuSans-3e"/>
     </g>
    </g>
    <g id="line2d_34">
     <path d="M 332.700313 177.873281 
L 362.700313 177.873281 
" style="fill:none;stroke:#d95319;stroke-linecap:square;stroke-width:3;"/>
    </g>
    <g id="line2d_35">
     <g>
      <use style="fill:#d95319;stroke:#d95319;stroke-linejoin:miter;" x="347.700313" xlink:href="#m1f698a7cfd" y="177.873281"/>
     </g>
    </g>
    <g id="text_17">
     <!-- GEMV cuBLAS fp64 -->
     <g transform="translate(374.700313 183.123281)scale(0.15 -0.15)">
      <defs>
       <path d="M 1259 2228 
L 1259 519 
L 2272 519 
Q 2781 519 3026 730 
Q 3272 941 3272 1375 
Q 3272 1813 3026 2020 
Q 2781 2228 2272 2228 
L 1259 2228 
z
M 1259 4147 
L 1259 2741 
L 2194 2741 
Q 2656 2741 2882 2914 
Q 3109 3088 3109 3444 
Q 3109 3797 2882 3972 
Q 2656 4147 2194 4147 
L 1259 4147 
z
M 628 4666 
L 2241 4666 
Q 2963 4666 3353 4366 
Q 3744 4066 3744 3513 
Q 3744 3084 3544 2831 
Q 3344 2578 2956 2516 
Q 3422 2416 3680 2098 
Q 3938 1781 3938 1306 
Q 3938 681 3513 340 
Q 3088 0 2303 0 
L 628 0 
L 628 4666 
z
" id="DejaVuSans-42" transform="scale(0.015625)"/>
       <path d="M 3425 4513 
L 3425 3897 
Q 3066 4069 2747 4153 
Q 2428 4238 2131 4238 
Q 1616 4238 1336 4038 
Q 1056 3838 1056 3469 
Q 1056 3159 1242 3001 
Q 1428 2844 1947 2747 
L 2328 2669 
Q 3034 2534 3370 2195 
Q 3706 1856 3706 1288 
Q 3706 609 3251 259 
Q 2797 -91 1919 -91 
Q 1588 -91 1214 -16 
Q 841 59 441 206 
L 441 856 
Q 825 641 1194 531 
Q 1563 422 1919 422 
Q 2459 422 2753 634 
Q 3047 847 3047 1241 
Q 3047 1584 2836 1778 
Q 2625 1972 2144 2069 
L 1759 2144 
Q 1053 2284 737 2584 
Q 422 2884 422 3419 
Q 422 4038 858 4394 
Q 1294 4750 2059 4750 
Q 2388 4750 2728 4690 
Q 3069 4631 3425 4513 
z
" id="DejaVuSans-53" transform="scale(0.015625)"/>
      </defs>
      <use xlink:href="#DejaVuSans-47"/>
      <use x="77.490234" xlink:href="#DejaVuSans-45"/>
      <use x="140.673828" xlink:href="#DejaVuSans-4d"/>
      <use x="226.953125" xlink:href="#DejaVuSans-56"/>
      <use x="295.361328" xlink:href="#DejaVuSans-20"/>
      <use x="327.148438" xlink:href="#DejaVuSans-63"/>
      <use x="382.128906" xlink:href="#DejaVuSans-75"/>
      <use x="445.507812" xlink:href="#DejaVuSans-42"/>
      <use x="514.111328" xlink:href="#DejaVuSans-4c"/>
      <use x="572.074219" xlink:href="#DejaVuSans-41"/>
      <use x="640.482422" xlink:href="#DejaVuSans-53"/>
      <use x="703.958984" xlink:href="#DejaVuSans-20"/>
      <use x="735.746094" xlink:href="#DejaVuSans-66"/>
      <use x="770.951172" xlink:href="#DejaVuSans-70"/>
      <use x="834.427734" xlink:href="#DejaVuSans-36"/>
      <use x="898.050781" xlink:href="#DejaVuSans-34"/>
     </g>
    </g>
    <g id="line2d_36">
     <path d="M 332.700313 199.890469 
L 362.700313 199.890469 
" style="fill:none;stroke:#7e2f8e;stroke-linecap:square;stroke-width:3;"/>
    </g>
    <g id="line2d_37">
     <g>
      <use style="fill:#7e2f8e;stroke:#7e2f8e;" x="347.700313" xlink:href="#mfeea63d951" y="199.890469"/>
     </g>
    </g>
    <g id="text_18">
     <!-- GEMV cuBLAS fp32 -->
     <g transform="translate(374.700313 205.140469)scale(0.15 -0.15)">
      <use xlink:href="#DejaVuSans-47"/>
      <use x="77.490234" xlink:href="#DejaVuSans-45"/>
      <use x="140.673828" xlink:href="#DejaVuSans-4d"/>
      <use x="226.953125" xlink:href="#DejaVuSans-56"/>
      <use x="295.361328" xlink:href="#DejaVuSans-20"/>
      <use x="327.148438" xlink:href="#DejaVuSans-63"/>
      <use x="382.128906" xlink:href="#DejaVuSans-75"/>
      <use x="445.507812" xlink:href="#DejaVuSans-42"/>
      <use x="514.111328" xlink:href="#DejaVuSans-4c"/>
      <use x="572.074219" xlink:href="#DejaVuSans-41"/>
      <use x="640.482422" xlink:href="#DejaVuSans-53"/>
      <use x="703.958984" xlink:href="#DejaVuSans-20"/>
      <use x="735.746094" xlink:href="#DejaVuSans-66"/>
      <use x="770.951172" xlink:href="#DejaVuSans-70"/>
      <use x="834.427734" xlink:href="#DejaVuSans-33"/>
      <use x="898.050781" xlink:href="#DejaVuSans-32"/>
     </g>
    </g>
   </g>
  </g>
 </g>
 <defs>
  <clipPath id="p377bfeab92">
   <rect height="221.76" width="558" x="48.422187" y="-0"/>
  </clipPath>
 </defs>
</svg>
