<?xml version="1.0" encoding="utf-8" standalone="no"?>
<!DOCTYPE svg PUBLIC "-//W3C//DTD SVG 1.1//EN"
  "http://www.w3.org/Graphics/SVG/1.1/DTD/svg11.dtd">
<svg height="258.890937pt" version="1.1" viewBox="0 0 621.115984 258.890937" width="621.115984pt" xmlns="http://www.w3.org/2000/svg" xmlns:xlink="http://www.w3.org/1999/xlink">
 <metadata>
  <rdf:RDF xmlns:cc="http://creativecommons.org/ns#" xmlns:dc="http://purl.org/dc/elements/1.1/" xmlns:rdf="http://www.w3.org/1999/02/22-rdf-syntax-ns#">
   <cc:Work>
    <dc:type rdf:resource="http://purl.org/dc/dcmitype/StillImage"/>
    <dc:date>2022-02-09T18:25:22.032446</dc:date>
    <dc:format>image/svg+xml</dc:format>
    <dc:creator>
     <cc:Agent>
      <dc:title>Matplotlib v3.4.1, https://matplotlib.org/</dc:title>
     </cc:Agent>
    </dc:creator>
   </cc:Work>
  </rdf:RDF>
 </metadata>
 <defs>
  <style type="text/css">*{stroke-linecap:butt;stroke-linejoin:round;}</style>
 </defs>
 <g id="figure_1">
  <g id="patch_1">
   <path d="M 0 258.890937 
L 621.115984 258.890937 
L 621.115984 0 
L 0 0 
z
" style="fill:#ffffff;"/>
  </g>
  <g id="axes_1">
   <g id="patch_2">
    <path d="M 58.997188 221.76 
L 616.997187 221.76 
L 616.997187 -0 
L 58.997188 -0 
z
" style="fill:#ffffff;"/>
   </g>
   <g id="matplotlib.axis_1">
    <g id="xtick_1">
     <g id="line2d_1">
      <path clip-path="url(#pad22afb47f)" d="M 82.281837 221.76 
L 82.281837 -0 
" style="fill:none;stroke:#cccccc;stroke-linecap:square;"/>
     </g>
     <g id="line2d_2">
      <defs>
       <path d="M 0 0 
L 0 3.5 
" id="m9418d135d6" style="stroke:#000000;stroke-width:0.8;"/>
      </defs>
      <g>
       <use style="stroke:#000000;stroke-width:0.8;" x="82.281837" xlink:href="#m9418d135d6" y="221.76"/>
      </g>
     </g>
     <g id="text_1">
      <!-- 0 -->
      <g transform="translate(78.464337 237.878125)scale(0.12 -0.12)">
       <defs>
        <path d="M 2034 4250 
Q 1547 4250 1301 3770 
Q 1056 3291 1056 2328 
Q 1056 1369 1301 889 
Q 1547 409 2034 409 
Q 2525 409 2770 889 
Q 3016 1369 3016 2328 
Q 3016 3291 2770 3770 
Q 2525 4250 2034 4250 
z
M 2034 4750 
Q 2819 4750 3233 4129 
Q 3647 3509 3647 2328 
Q 3647 1150 3233 529 
Q 2819 -91 2034 -91 
Q 1250 -91 836 529 
Q 422 1150 422 2328 
Q 422 3509 836 4129 
Q 1250 4750 2034 4750 
z
" id="DejaVuSans-30" transform="scale(0.015625)"/>
       </defs>
       <use xlink:href="#DejaVuSans-30"/>
      </g>
     </g>
    </g>
    <g id="xtick_2">
     <g id="line2d_3">
      <path clip-path="url(#pad22afb47f)" d="M 186.231167 221.76 
L 186.231167 -0 
" style="fill:none;stroke:#cccccc;stroke-linecap:square;"/>
     </g>
     <g id="line2d_4">
      <g>
       <use style="stroke:#000000;stroke-width:0.8;" x="186.231167" xlink:href="#m9418d135d6" y="221.76"/>
      </g>
     </g>
     <g id="text_2">
      <!-- 5000 -->
      <g transform="translate(170.961167 237.878125)scale(0.12 -0.12)">
       <defs>
        <path d="M 691 4666 
L 3169 4666 
L 3169 4134 
L 1269 4134 
L 1269 2991 
Q 1406 3038 1543 3061 
Q 1681 3084 1819 3084 
Q 2600 3084 3056 2656 
Q 3513 2228 3513 1497 
Q 3513 744 3044 326 
Q 2575 -91 1722 -91 
Q 1428 -91 1123 -41 
Q 819 9 494 109 
L 494 744 
Q 775 591 1075 516 
Q 1375 441 1709 441 
Q 2250 441 2565 725 
Q 2881 1009 2881 1497 
Q 2881 1984 2565 2268 
Q 2250 2553 1709 2553 
Q 1456 2553 1204 2497 
Q 953 2441 691 2322 
L 691 4666 
z
" id="DejaVuSans-35" transform="scale(0.015625)"/>
       </defs>
       <use xlink:href="#DejaVuSans-35"/>
       <use x="63.623047" xlink:href="#DejaVuSans-30"/>
       <use x="127.246094" xlink:href="#DejaVuSans-30"/>
       <use x="190.869141" xlink:href="#DejaVuSans-30"/>
      </g>
     </g>
    </g>
    <g id="xtick_3">
     <g id="line2d_5">
      <path clip-path="url(#pad22afb47f)" d="M 290.180496 221.76 
L 290.180496 -0 
" style="fill:none;stroke:#cccccc;stroke-linecap:square;"/>
     </g>
     <g id="line2d_6">
      <g>
       <use style="stroke:#000000;stroke-width:0.8;" x="290.180496" xlink:href="#m9418d135d6" y="221.76"/>
      </g>
     </g>
     <g id="text_3">
      <!-- 10000 -->
      <g transform="translate(271.092996 237.878125)scale(0.12 -0.12)">
       <defs>
        <path d="M 794 531 
L 1825 531 
L 1825 4091 
L 703 3866 
L 703 4441 
L 1819 4666 
L 2450 4666 
L 2450 531 
L 3481 531 
L 3481 0 
L 794 0 
L 794 531 
z
" id="DejaVuSans-31" transform="scale(0.015625)"/>
       </defs>
       <use xlink:href="#DejaVuSans-31"/>
       <use x="63.623047" xlink:href="#DejaVuSans-30"/>
       <use x="127.246094" xlink:href="#DejaVuSans-30"/>
       <use x="190.869141" xlink:href="#DejaVuSans-30"/>
       <use x="254.492188" xlink:href="#DejaVuSans-30"/>
      </g>
     </g>
    </g>
    <g id="xtick_4">
     <g id="line2d_7">
      <path clip-path="url(#pad22afb47f)" d="M 394.129825 221.76 
L 394.129825 -0 
" style="fill:none;stroke:#cccccc;stroke-linecap:square;"/>
     </g>
     <g id="line2d_8">
      <g>
       <use style="stroke:#000000;stroke-width:0.8;" x="394.129825" xlink:href="#m9418d135d6" y="221.76"/>
      </g>
     </g>
     <g id="text_4">
      <!-- 15000 -->
      <g transform="translate(375.042325 237.878125)scale(0.12 -0.12)">
       <use xlink:href="#DejaVuSans-31"/>
       <use x="63.623047" xlink:href="#DejaVuSans-35"/>
       <use x="127.246094" xlink:href="#DejaVuSans-30"/>
       <use x="190.869141" xlink:href="#DejaVuSans-30"/>
       <use x="254.492188" xlink:href="#DejaVuSans-30"/>
      </g>
     </g>
    </g>
    <g id="xtick_5">
     <g id="line2d_9">
      <path clip-path="url(#pad22afb47f)" d="M 498.079155 221.76 
L 498.079155 -0 
" style="fill:none;stroke:#cccccc;stroke-linecap:square;"/>
     </g>
     <g id="line2d_10">
      <g>
       <use style="stroke:#000000;stroke-width:0.8;" x="498.079155" xlink:href="#m9418d135d6" y="221.76"/>
      </g>
     </g>
     <g id="text_5">
      <!-- 20000 -->
      <g transform="translate(478.991655 237.878125)scale(0.12 -0.12)">
       <defs>
        <path d="M 1228 531 
L 3431 531 
L 3431 0 
L 469 0 
L 469 531 
Q 828 903 1448 1529 
Q 2069 2156 2228 2338 
Q 2531 2678 2651 2914 
Q 2772 3150 2772 3378 
Q 2772 3750 2511 3984 
Q 2250 4219 1831 4219 
Q 1534 4219 1204 4116 
Q 875 4013 500 3803 
L 500 4441 
Q 881 4594 1212 4672 
Q 1544 4750 1819 4750 
Q 2544 4750 2975 4387 
Q 3406 4025 3406 3419 
Q 3406 3131 3298 2873 
Q 3191 2616 2906 2266 
Q 2828 2175 2409 1742 
Q 1991 1309 1228 531 
z
" id="DejaVuSans-32" transform="scale(0.015625)"/>
       </defs>
       <use xlink:href="#DejaVuSans-32"/>
       <use x="63.623047" xlink:href="#DejaVuSans-30"/>
       <use x="127.246094" xlink:href="#DejaVuSans-30"/>
       <use x="190.869141" xlink:href="#DejaVuSans-30"/>
       <use x="254.492188" xlink:href="#DejaVuSans-30"/>
      </g>
     </g>
    </g>
    <g id="xtick_6">
     <g id="line2d_11">
      <path clip-path="url(#pad22afb47f)" d="M 602.028484 221.76 
L 602.028484 -0 
" style="fill:none;stroke:#cccccc;stroke-linecap:square;"/>
     </g>
     <g id="line2d_12">
      <g>
       <use style="stroke:#000000;stroke-width:0.8;" x="602.028484" xlink:href="#m9418d135d6" y="221.76"/>
      </g>
     </g>
     <g id="text_6">
      <!-- 25000 -->
      <g transform="translate(582.940984 237.878125)scale(0.12 -0.12)">
       <use xlink:href="#DejaVuSans-32"/>
       <use x="63.623047" xlink:href="#DejaVuSans-35"/>
       <use x="127.246094" xlink:href="#DejaVuSans-30"/>
       <use x="190.869141" xlink:href="#DejaVuSans-30"/>
       <use x="254.492188" xlink:href="#DejaVuSans-30"/>
      </g>
     </g>
    </g>
    <g id="text_7">
     <!-- Number of rows -->
     <g transform="translate(278.327656 255.771406)scale(0.15 -0.15)">
      <defs>
       <path d="M 628 4666 
L 1478 4666 
L 3547 763 
L 3547 4666 
L 4159 4666 
L 4159 0 
L 3309 0 
L 1241 3903 
L 1241 0 
L 628 0 
L 628 4666 
z
" id="DejaVuSans-4e" transform="scale(0.015625)"/>
       <path d="M 544 1381 
L 544 3500 
L 1119 3500 
L 1119 1403 
Q 1119 906 1312 657 
Q 1506 409 1894 409 
Q 2359 409 2629 706 
Q 2900 1003 2900 1516 
L 2900 3500 
L 3475 3500 
L 3475 0 
L 2900 0 
L 2900 538 
Q 2691 219 2414 64 
Q 2138 -91 1772 -91 
Q 1169 -91 856 284 
Q 544 659 544 1381 
z
M 1991 3584 
L 1991 3584 
z
" id="DejaVuSans-75" transform="scale(0.015625)"/>
       <path d="M 3328 2828 
Q 3544 3216 3844 3400 
Q 4144 3584 4550 3584 
Q 5097 3584 5394 3201 
Q 5691 2819 5691 2113 
L 5691 0 
L 5113 0 
L 5113 2094 
Q 5113 2597 4934 2840 
Q 4756 3084 4391 3084 
Q 3944 3084 3684 2787 
Q 3425 2491 3425 1978 
L 3425 0 
L 2847 0 
L 2847 2094 
Q 2847 2600 2669 2842 
Q 2491 3084 2119 3084 
Q 1678 3084 1418 2786 
Q 1159 2488 1159 1978 
L 1159 0 
L 581 0 
L 581 3500 
L 1159 3500 
L 1159 2956 
Q 1356 3278 1631 3431 
Q 1906 3584 2284 3584 
Q 2666 3584 2933 3390 
Q 3200 3197 3328 2828 
z
" id="DejaVuSans-6d" transform="scale(0.015625)"/>
       <path d="M 3116 1747 
Q 3116 2381 2855 2742 
Q 2594 3103 2138 3103 
Q 1681 3103 1420 2742 
Q 1159 2381 1159 1747 
Q 1159 1113 1420 752 
Q 1681 391 2138 391 
Q 2594 391 2855 752 
Q 3116 1113 3116 1747 
z
M 1159 2969 
Q 1341 3281 1617 3432 
Q 1894 3584 2278 3584 
Q 2916 3584 3314 3078 
Q 3713 2572 3713 1747 
Q 3713 922 3314 415 
Q 2916 -91 2278 -91 
Q 1894 -91 1617 61 
Q 1341 213 1159 525 
L 1159 0 
L 581 0 
L 581 4863 
L 1159 4863 
L 1159 2969 
z
" id="DejaVuSans-62" transform="scale(0.015625)"/>
       <path d="M 3597 1894 
L 3597 1613 
L 953 1613 
Q 991 1019 1311 708 
Q 1631 397 2203 397 
Q 2534 397 2845 478 
Q 3156 559 3463 722 
L 3463 178 
Q 3153 47 2828 -22 
Q 2503 -91 2169 -91 
Q 1331 -91 842 396 
Q 353 884 353 1716 
Q 353 2575 817 3079 
Q 1281 3584 2069 3584 
Q 2775 3584 3186 3129 
Q 3597 2675 3597 1894 
z
M 3022 2063 
Q 3016 2534 2758 2815 
Q 2500 3097 2075 3097 
Q 1594 3097 1305 2825 
Q 1016 2553 972 2059 
L 3022 2063 
z
" id="DejaVuSans-65" transform="scale(0.015625)"/>
       <path d="M 2631 2963 
Q 2534 3019 2420 3045 
Q 2306 3072 2169 3072 
Q 1681 3072 1420 2755 
Q 1159 2438 1159 1844 
L 1159 0 
L 581 0 
L 581 3500 
L 1159 3500 
L 1159 2956 
Q 1341 3275 1631 3429 
Q 1922 3584 2338 3584 
Q 2397 3584 2469 3576 
Q 2541 3569 2628 3553 
L 2631 2963 
z
" id="DejaVuSans-72" transform="scale(0.015625)"/>
       <path id="DejaVuSans-20" transform="scale(0.015625)"/>
       <path d="M 1959 3097 
Q 1497 3097 1228 2736 
Q 959 2375 959 1747 
Q 959 1119 1226 758 
Q 1494 397 1959 397 
Q 2419 397 2687 759 
Q 2956 1122 2956 1747 
Q 2956 2369 2687 2733 
Q 2419 3097 1959 3097 
z
M 1959 3584 
Q 2709 3584 3137 3096 
Q 3566 2609 3566 1747 
Q 3566 888 3137 398 
Q 2709 -91 1959 -91 
Q 1206 -91 779 398 
Q 353 888 353 1747 
Q 353 2609 779 3096 
Q 1206 3584 1959 3584 
z
" id="DejaVuSans-6f" transform="scale(0.015625)"/>
       <path d="M 2375 4863 
L 2375 4384 
L 1825 4384 
Q 1516 4384 1395 4259 
Q 1275 4134 1275 3809 
L 1275 3500 
L 2222 3500 
L 2222 3053 
L 1275 3053 
L 1275 0 
L 697 0 
L 697 3053 
L 147 3053 
L 147 3500 
L 697 3500 
L 697 3744 
Q 697 4328 969 4595 
Q 1241 4863 1831 4863 
L 2375 4863 
z
" id="DejaVuSans-66" transform="scale(0.015625)"/>
       <path d="M 269 3500 
L 844 3500 
L 1563 769 
L 2278 3500 
L 2956 3500 
L 3675 769 
L 4391 3500 
L 4966 3500 
L 4050 0 
L 3372 0 
L 2619 2869 
L 1863 0 
L 1184 0 
L 269 3500 
z
" id="DejaVuSans-77" transform="scale(0.015625)"/>
       <path d="M 2834 3397 
L 2834 2853 
Q 2591 2978 2328 3040 
Q 2066 3103 1784 3103 
Q 1356 3103 1142 2972 
Q 928 2841 928 2578 
Q 928 2378 1081 2264 
Q 1234 2150 1697 2047 
L 1894 2003 
Q 2506 1872 2764 1633 
Q 3022 1394 3022 966 
Q 3022 478 2636 193 
Q 2250 -91 1575 -91 
Q 1294 -91 989 -36 
Q 684 19 347 128 
L 347 722 
Q 666 556 975 473 
Q 1284 391 1588 391 
Q 1994 391 2212 530 
Q 2431 669 2431 922 
Q 2431 1156 2273 1281 
Q 2116 1406 1581 1522 
L 1381 1569 
Q 847 1681 609 1914 
Q 372 2147 372 2553 
Q 372 3047 722 3315 
Q 1072 3584 1716 3584 
Q 2034 3584 2315 3537 
Q 2597 3491 2834 3397 
z
" id="DejaVuSans-73" transform="scale(0.015625)"/>
      </defs>
      <use xlink:href="#DejaVuSans-4e"/>
      <use x="74.804688" xlink:href="#DejaVuSans-75"/>
      <use x="138.183594" xlink:href="#DejaVuSans-6d"/>
      <use x="235.595703" xlink:href="#DejaVuSans-62"/>
      <use x="299.072266" xlink:href="#DejaVuSans-65"/>
      <use x="360.595703" xlink:href="#DejaVuSans-72"/>
      <use x="401.708984" xlink:href="#DejaVuSans-20"/>
      <use x="433.496094" xlink:href="#DejaVuSans-6f"/>
      <use x="494.677734" xlink:href="#DejaVuSans-66"/>
      <use x="529.882812" xlink:href="#DejaVuSans-20"/>
      <use x="561.669922" xlink:href="#DejaVuSans-72"/>
      <use x="600.533203" xlink:href="#DejaVuSans-6f"/>
      <use x="661.714844" xlink:href="#DejaVuSans-77"/>
      <use x="743.501953" xlink:href="#DejaVuSans-73"/>
     </g>
    </g>
   </g>
   <g id="matplotlib.axis_2">
    <g id="ytick_1">
     <g id="line2d_13">
      <path clip-path="url(#pad22afb47f)" d="M 58.997188 194.923686 
L 616.997187 194.923686 
" style="fill:none;stroke:#cccccc;stroke-linecap:square;"/>
     </g>
     <g id="line2d_14">
      <defs>
       <path d="M 0 0 
L -3.5 0 
" id="m659958cd4f" style="stroke:#000000;stroke-width:0.8;"/>
      </defs>
      <g>
       <use style="stroke:#000000;stroke-width:0.8;" x="58.997188" xlink:href="#m659958cd4f" y="194.923686"/>
      </g>
     </g>
     <g id="text_8">
      <!-- $\mathdefault{10^{-15}}$ -->
      <g transform="translate(18.517188 199.482748)scale(0.12 -0.12)">
       <defs>
        <path d="M 678 2272 
L 4684 2272 
L 4684 1741 
L 678 1741 
L 678 2272 
z
" id="DejaVuSans-2212" transform="scale(0.015625)"/>
       </defs>
       <use transform="translate(0 0.684375)" xlink:href="#DejaVuSans-31"/>
       <use transform="translate(63.623047 0.684375)" xlink:href="#DejaVuSans-30"/>
       <use transform="translate(128.203125 38.965625)scale(0.7)" xlink:href="#DejaVuSans-2212"/>
       <use transform="translate(186.855469 38.965625)scale(0.7)" xlink:href="#DejaVuSans-31"/>
       <use transform="translate(231.391602 38.965625)scale(0.7)" xlink:href="#DejaVuSans-35"/>
      </g>
     </g>
    </g>
    <g id="ytick_2">
     <g id="line2d_15">
      <path clip-path="url(#pad22afb47f)" d="M 58.997188 150.504568 
L 616.997187 150.504568 
" style="fill:none;stroke:#cccccc;stroke-linecap:square;"/>
     </g>
     <g id="line2d_16">
      <g>
       <use style="stroke:#000000;stroke-width:0.8;" x="58.997188" xlink:href="#m659958cd4f" y="150.504568"/>
      </g>
     </g>
     <g id="text_9">
      <!-- $\mathdefault{10^{-13}}$ -->
      <g transform="translate(18.517188 155.06363)scale(0.12 -0.12)">
       <defs>
        <path d="M 2597 2516 
Q 3050 2419 3304 2112 
Q 3559 1806 3559 1356 
Q 3559 666 3084 287 
Q 2609 -91 1734 -91 
Q 1441 -91 1130 -33 
Q 819 25 488 141 
L 488 750 
Q 750 597 1062 519 
Q 1375 441 1716 441 
Q 2309 441 2620 675 
Q 2931 909 2931 1356 
Q 2931 1769 2642 2001 
Q 2353 2234 1838 2234 
L 1294 2234 
L 1294 2753 
L 1863 2753 
Q 2328 2753 2575 2939 
Q 2822 3125 2822 3475 
Q 2822 3834 2567 4026 
Q 2313 4219 1838 4219 
Q 1578 4219 1281 4162 
Q 984 4106 628 3988 
L 628 4550 
Q 988 4650 1302 4700 
Q 1616 4750 1894 4750 
Q 2613 4750 3031 4423 
Q 3450 4097 3450 3541 
Q 3450 3153 3228 2886 
Q 3006 2619 2597 2516 
z
" id="DejaVuSans-33" transform="scale(0.015625)"/>
       </defs>
       <use transform="translate(0 0.765625)" xlink:href="#DejaVuSans-31"/>
       <use transform="translate(63.623047 0.765625)" xlink:href="#DejaVuSans-30"/>
       <use transform="translate(128.203125 39.046875)scale(0.7)" xlink:href="#DejaVuSans-2212"/>
       <use transform="translate(186.855469 39.046875)scale(0.7)" xlink:href="#DejaVuSans-31"/>
       <use transform="translate(231.391602 39.046875)scale(0.7)" xlink:href="#DejaVuSans-33"/>
      </g>
     </g>
    </g>
    <g id="ytick_3">
     <g id="line2d_17">
      <path clip-path="url(#pad22afb47f)" d="M 58.997188 106.085449 
L 616.997187 106.085449 
" style="fill:none;stroke:#cccccc;stroke-linecap:square;"/>
     </g>
     <g id="line2d_18">
      <g>
       <use style="stroke:#000000;stroke-width:0.8;" x="58.997188" xlink:href="#m659958cd4f" y="106.085449"/>
      </g>
     </g>
     <g id="text_10">
      <!-- $\mathdefault{10^{-11}}$ -->
      <g transform="translate(18.517188 110.644512)scale(0.12 -0.12)">
       <use transform="translate(0 0.684375)" xlink:href="#DejaVuSans-31"/>
       <use transform="translate(63.623047 0.684375)" xlink:href="#DejaVuSans-30"/>
       <use transform="translate(128.203125 38.965625)scale(0.7)" xlink:href="#DejaVuSans-2212"/>
       <use transform="translate(186.855469 38.965625)scale(0.7)" xlink:href="#DejaVuSans-31"/>
       <use transform="translate(231.391602 38.965625)scale(0.7)" xlink:href="#DejaVuSans-31"/>
      </g>
     </g>
    </g>
    <g id="ytick_4">
     <g id="line2d_19">
      <path clip-path="url(#pad22afb47f)" d="M 58.997188 61.666331 
L 616.997187 61.666331 
" style="fill:none;stroke:#cccccc;stroke-linecap:square;"/>
     </g>
     <g id="line2d_20">
      <g>
       <use style="stroke:#000000;stroke-width:0.8;" x="58.997188" xlink:href="#m659958cd4f" y="61.666331"/>
      </g>
     </g>
     <g id="text_11">
      <!-- $\mathdefault{10^{-9}}$ -->
      <g transform="translate(23.797188 66.225394)scale(0.12 -0.12)">
       <defs>
        <path d="M 703 97 
L 703 672 
Q 941 559 1184 500 
Q 1428 441 1663 441 
Q 2288 441 2617 861 
Q 2947 1281 2994 2138 
Q 2813 1869 2534 1725 
Q 2256 1581 1919 1581 
Q 1219 1581 811 2004 
Q 403 2428 403 3163 
Q 403 3881 828 4315 
Q 1253 4750 1959 4750 
Q 2769 4750 3195 4129 
Q 3622 3509 3622 2328 
Q 3622 1225 3098 567 
Q 2575 -91 1691 -91 
Q 1453 -91 1209 -44 
Q 966 3 703 97 
z
M 1959 2075 
Q 2384 2075 2632 2365 
Q 2881 2656 2881 3163 
Q 2881 3666 2632 3958 
Q 2384 4250 1959 4250 
Q 1534 4250 1286 3958 
Q 1038 3666 1038 3163 
Q 1038 2656 1286 2365 
Q 1534 2075 1959 2075 
z
" id="DejaVuSans-39" transform="scale(0.015625)"/>
       </defs>
       <use transform="translate(0 0.765625)" xlink:href="#DejaVuSans-31"/>
       <use transform="translate(63.623047 0.765625)" xlink:href="#DejaVuSans-30"/>
       <use transform="translate(128.203125 39.046875)scale(0.7)" xlink:href="#DejaVuSans-2212"/>
       <use transform="translate(186.855469 39.046875)scale(0.7)" xlink:href="#DejaVuSans-39"/>
      </g>
     </g>
    </g>
    <g id="ytick_5">
     <g id="line2d_21">
      <path clip-path="url(#pad22afb47f)" d="M 58.997188 17.247213 
L 616.997187 17.247213 
" style="fill:none;stroke:#cccccc;stroke-linecap:square;"/>
     </g>
     <g id="line2d_22">
      <g>
       <use style="stroke:#000000;stroke-width:0.8;" x="58.997188" xlink:href="#m659958cd4f" y="17.247213"/>
      </g>
     </g>
     <g id="text_12">
      <!-- $\mathdefault{10^{-7}}$ -->
      <g transform="translate(23.797188 21.806275)scale(0.12 -0.12)">
       <defs>
        <path d="M 525 4666 
L 3525 4666 
L 3525 4397 
L 1831 0 
L 1172 0 
L 2766 4134 
L 525 4134 
L 525 4666 
z
" id="DejaVuSans-37" transform="scale(0.015625)"/>
       </defs>
       <use transform="translate(0 0.684375)" xlink:href="#DejaVuSans-31"/>
       <use transform="translate(63.623047 0.684375)" xlink:href="#DejaVuSans-30"/>
       <use transform="translate(128.203125 38.965625)scale(0.7)" xlink:href="#DejaVuSans-2212"/>
       <use transform="translate(186.855469 38.965625)scale(0.7)" xlink:href="#DejaVuSans-37"/>
      </g>
     </g>
    </g>
    <g id="text_13">
     <!-- Relative error -->
     <g transform="translate(11.397656 161.663203)rotate(-90)scale(0.15 -0.15)">
      <defs>
       <path d="M 2841 2188 
Q 3044 2119 3236 1894 
Q 3428 1669 3622 1275 
L 4263 0 
L 3584 0 
L 2988 1197 
Q 2756 1666 2539 1819 
Q 2322 1972 1947 1972 
L 1259 1972 
L 1259 0 
L 628 0 
L 628 4666 
L 2053 4666 
Q 2853 4666 3247 4331 
Q 3641 3997 3641 3322 
Q 3641 2881 3436 2590 
Q 3231 2300 2841 2188 
z
M 1259 4147 
L 1259 2491 
L 2053 2491 
Q 2509 2491 2742 2702 
Q 2975 2913 2975 3322 
Q 2975 3731 2742 3939 
Q 2509 4147 2053 4147 
L 1259 4147 
z
" id="DejaVuSans-52" transform="scale(0.015625)"/>
       <path d="M 603 4863 
L 1178 4863 
L 1178 0 
L 603 0 
L 603 4863 
z
" id="DejaVuSans-6c" transform="scale(0.015625)"/>
       <path d="M 2194 1759 
Q 1497 1759 1228 1600 
Q 959 1441 959 1056 
Q 959 750 1161 570 
Q 1363 391 1709 391 
Q 2188 391 2477 730 
Q 2766 1069 2766 1631 
L 2766 1759 
L 2194 1759 
z
M 3341 1997 
L 3341 0 
L 2766 0 
L 2766 531 
Q 2569 213 2275 61 
Q 1981 -91 1556 -91 
Q 1019 -91 701 211 
Q 384 513 384 1019 
Q 384 1609 779 1909 
Q 1175 2209 1959 2209 
L 2766 2209 
L 2766 2266 
Q 2766 2663 2505 2880 
Q 2244 3097 1772 3097 
Q 1472 3097 1187 3025 
Q 903 2953 641 2809 
L 641 3341 
Q 956 3463 1253 3523 
Q 1550 3584 1831 3584 
Q 2591 3584 2966 3190 
Q 3341 2797 3341 1997 
z
" id="DejaVuSans-61" transform="scale(0.015625)"/>
       <path d="M 1172 4494 
L 1172 3500 
L 2356 3500 
L 2356 3053 
L 1172 3053 
L 1172 1153 
Q 1172 725 1289 603 
Q 1406 481 1766 481 
L 2356 481 
L 2356 0 
L 1766 0 
Q 1100 0 847 248 
Q 594 497 594 1153 
L 594 3053 
L 172 3053 
L 172 3500 
L 594 3500 
L 594 4494 
L 1172 4494 
z
" id="DejaVuSans-74" transform="scale(0.015625)"/>
       <path d="M 603 3500 
L 1178 3500 
L 1178 0 
L 603 0 
L 603 3500 
z
M 603 4863 
L 1178 4863 
L 1178 4134 
L 603 4134 
L 603 4863 
z
" id="DejaVuSans-69" transform="scale(0.015625)"/>
       <path d="M 191 3500 
L 800 3500 
L 1894 563 
L 2988 3500 
L 3597 3500 
L 2284 0 
L 1503 0 
L 191 3500 
z
" id="DejaVuSans-76" transform="scale(0.015625)"/>
      </defs>
      <use xlink:href="#DejaVuSans-52"/>
      <use x="64.982422" xlink:href="#DejaVuSans-65"/>
      <use x="126.505859" xlink:href="#DejaVuSans-6c"/>
      <use x="154.289062" xlink:href="#DejaVuSans-61"/>
      <use x="215.568359" xlink:href="#DejaVuSans-74"/>
      <use x="254.777344" xlink:href="#DejaVuSans-69"/>
      <use x="282.560547" xlink:href="#DejaVuSans-76"/>
      <use x="341.740234" xlink:href="#DejaVuSans-65"/>
      <use x="403.263672" xlink:href="#DejaVuSans-20"/>
      <use x="435.050781" xlink:href="#DejaVuSans-65"/>
      <use x="496.574219" xlink:href="#DejaVuSans-72"/>
      <use x="535.9375" xlink:href="#DejaVuSans-72"/>
      <use x="574.800781" xlink:href="#DejaVuSans-6f"/>
      <use x="635.982422" xlink:href="#DejaVuSans-72"/>
     </g>
    </g>
   </g>
   <g id="patch_3">
    <path d="M 58.997188 221.76 
L 58.997188 -0 
" style="fill:none;stroke:#000000;stroke-linecap:square;stroke-linejoin:miter;stroke-width:0.8;"/>
   </g>
   <g id="patch_4">
    <path d="M 616.997187 221.76 
L 616.997187 -0 
" style="fill:none;stroke:#000000;stroke-linecap:square;stroke-linejoin:miter;stroke-width:0.8;"/>
   </g>
   <g id="patch_5">
    <path d="M 58.997188 221.76 
L 616.997187 221.76 
" style="fill:none;stroke:#000000;stroke-linecap:square;stroke-linejoin:miter;stroke-width:0.8;"/>
   </g>
   <g id="patch_6">
    <path d="M 58.997188 -0 
L 616.997187 -0 
" style="fill:none;stroke:#000000;stroke-linecap:square;stroke-linejoin:miter;stroke-width:0.8;"/>
   </g>
   <g id="line2d_23">
    <path clip-path="url(#pad22afb47f)" d="M 84.360824 18.92777 
L 86.43981 17.679997 
L 88.518797 18.065596 
L 90.597784 17.507393 
L 92.67677 18.115762 
L 94.755757 18.132934 
L 96.834743 18.008252 
L 98.91373 18.087986 
L 100.992717 17.695857 
L 103.071703 17.757021 
L 107.229676 17.469437 
L 109.308663 18.073273 
L 111.387649 17.509144 
L 113.466636 17.661878 
L 115.545623 17.55467 
L 117.624609 17.311164 
L 119.703596 17.53613 
L 121.782582 17.335914 
L 123.861569 17.341593 
L 125.940556 16.938574 
L 128.019542 17.29602 
L 132.177515 16.988002 
L 140.493462 17.177059 
L 142.572448 16.69371 
L 144.651435 17.067972 
L 146.730421 17.02693 
L 148.809408 16.724208 
L 150.888395 16.628939 
L 152.967381 16.659145 
L 155.046368 16.508797 
L 157.125354 16.97537 
L 161.283328 16.591024 
L 165.441301 16.820698 
L 167.520287 16.785168 
L 169.599274 16.376984 
L 173.757247 16.782458 
L 175.836234 16.54171 
L 179.994207 16.603146 
L 182.073193 16.734647 
L 186.231167 16.413042 
L 188.310153 16.32519 
L 192.468126 16.539885 
L 196.6261 16.326052 
L 204.942046 16.177915 
L 211.179006 16.008365 
L 213.257992 16.170506 
L 215.336979 16.057364 
L 219.494952 16.079447 
L 221.573939 15.780059 
L 223.652925 16.086624 
L 225.731912 16.031085 
L 227.810898 16.106155 
L 229.889885 16.019668 
L 231.968872 15.740678 
L 234.047858 15.825734 
L 236.126845 15.636881 
L 238.205831 15.971274 
L 244.442791 15.651609 
L 246.521778 15.873881 
L 248.600764 15.814583 
L 250.679751 15.602191 
L 256.916711 15.78491 
L 258.995697 15.669022 
L 263.15367 15.788091 
L 265.232657 15.56678 
L 273.548603 15.683985 
L 275.62759 15.460608 
L 277.706576 15.38544 
L 279.785563 15.533873 
L 283.943536 15.450659 
L 286.022523 15.295993 
L 288.101509 15.370467 
L 290.180496 15.31828 
L 292.259483 15.382075 
L 296.417456 15.175929 
L 298.496442 15.257713 
L 300.575429 15.163246 
L 306.812389 15.240563 
L 313.049348 15.082022 
L 317.207322 15.151908 
L 319.286308 15.12235 
L 321.365295 14.904315 
L 323.444281 15.029803 
L 329.681241 14.986546 
L 331.760228 15.051162 
L 333.839214 14.849745 
L 335.918201 14.944443 
L 337.997187 14.825367 
L 340.076174 14.951168 
L 352.550094 14.816035 
L 367.103 14.581896 
L 371.260973 14.676205 
L 375.418946 14.600177 
L 377.497933 14.538023 
L 379.576919 14.643347 
L 381.655906 14.509445 
L 389.971852 14.473677 
L 394.129825 14.473293 
L 583.317605 13.170407 
L 587.475578 13.150789 
L 589.554565 13.082111 
L 591.633551 13.147528 
L 591.633551 13.147528 
" style="fill:none;stroke:#77ac30;stroke-linecap:square;stroke-width:3;"/>
    <defs>
     <path d="M -1.666667 5 
L 1.666667 5 
L 1.666667 1.666667 
L 5 1.666667 
L 5 -1.666667 
L 1.666667 -1.666667 
L 1.666667 -5 
L -1.666667 -5 
L -1.666667 -1.666667 
L -5 -1.666667 
L -5 1.666667 
L -1.666667 1.666667 
z
" id="mf19a89907a" style="stroke:#77ac30;stroke-linejoin:miter;"/>
    </defs>
    <g clip-path="url(#pad22afb47f)">
     <use style="fill:#77ac30;stroke:#77ac30;stroke-linejoin:miter;" x="84.360824" xlink:href="#mf19a89907a" y="18.92777"/>
     <use style="fill:#77ac30;stroke:#77ac30;stroke-linejoin:miter;" x="186.231167" xlink:href="#mf19a89907a" y="16.413042"/>
     <use style="fill:#77ac30;stroke:#77ac30;stroke-linejoin:miter;" x="288.101509" xlink:href="#mf19a89907a" y="15.370467"/>
     <use style="fill:#77ac30;stroke:#77ac30;stroke-linejoin:miter;" x="389.971852" xlink:href="#mf19a89907a" y="14.473677"/>
     <use style="fill:#77ac30;stroke:#77ac30;stroke-linejoin:miter;" x="491.842195" xlink:href="#mf19a89907a" y="13.730538"/>
    </g>
   </g>
   <g id="line2d_24">
    <path clip-path="url(#pad22afb47f)" d="M 84.360824 25.910013 
L 86.43981 26.46806 
L 88.518797 26.535325 
L 90.597784 25.571411 
L 92.67677 26.26436 
L 94.755757 26.677341 
L 96.834743 26.41862 
L 98.91373 26.495853 
L 103.071703 26.215615 
L 105.15069 26.46701 
L 107.229676 26.282949 
L 109.308663 26.359051 
L 111.387649 26.102815 
L 115.545623 25.993009 
L 119.703596 26.179711 
L 121.782582 25.906408 
L 125.940556 26.137797 
L 128.019542 25.878118 
L 130.098529 26.086289 
L 136.335489 25.831463 
L 138.414475 26.118724 
L 142.572448 25.897447 
L 148.809408 26.078174 
L 152.967381 25.856729 
L 155.046368 26.064904 
L 159.204341 25.94164 
L 161.283328 26.120906 
L 163.362314 25.928546 
L 165.441301 26.052603 
L 175.836234 26.076812 
L 177.91522 26.297274 
L 179.994207 26.030827 
L 182.073193 26.206923 
L 184.15218 26.230899 
L 186.231167 26.09755 
L 196.6261 26.143791 
L 200.784073 25.997167 
L 202.863059 26.16001 
L 207.021033 26.069894 
L 209.100019 26.144155 
L 211.179006 26.006914 
L 213.257992 26.028319 
L 215.336979 25.917804 
L 217.415965 26.142731 
L 219.494952 25.990802 
L 244.442791 25.982283 
L 246.521778 26.074004 
L 248.600764 25.932641 
L 252.758737 26.06715 
L 261.074684 25.967007 
L 265.232657 26.181188 
L 267.311644 26.007039 
L 273.548603 26.041428 
L 275.62759 25.946854 
L 277.706576 26.17456 
L 286.022523 25.959925 
L 288.101509 26.164964 
L 296.417456 25.997791 
L 298.496442 26.189484 
L 300.575429 26.023929 
L 302.654416 26.124053 
L 306.812389 25.923934 
L 308.891375 26.134029 
L 313.049348 26.007166 
L 315.128335 26.100405 
L 325.523268 26.015502 
L 340.076174 26.080129 
L 344.234147 26.047883 
L 350.471107 25.979606 
L 352.550094 26.163853 
L 354.62908 25.997064 
L 381.655906 26.068458 
L 387.892866 26.011175 
L 389.971852 26.12942 
L 392.050839 26.026367 
L 394.129825 26.123913 
L 398.287799 25.993471 
L 406.603745 26.076532 
L 410.761718 26.03159 
L 416.998678 26.104589 
L 425.314624 26.031326 
L 439.86753 26.10021 
L 444.025503 26.026519 
L 450.262463 26.121352 
L 452.34145 26.037761 
L 454.420436 26.118643 
L 458.57841 26.081192 
L 471.052329 26.069345 
L 516.790034 26.12263 
L 518.869021 26.020641 
L 523.026994 26.170881 
L 525.10598 26.047375 
L 531.34294 26.123334 
L 566.685712 26.135727 
L 568.764699 26.064582 
L 572.922672 26.183933 
L 575.001658 26.1214 
L 579.159632 26.158251 
L 591.633551 26.132213 
L 591.633551 26.132213 
" style="fill:none;stroke:#0072bd;stroke-linecap:square;stroke-width:3;"/>
    <defs>
     <path d="M -5 5 
L 5 -5 
M -5 -5 
L 5 5 
" id="m736bf25765" style="stroke:#0072bd;"/>
    </defs>
    <g clip-path="url(#pad22afb47f)">
     <use style="fill:#0072bd;stroke:#0072bd;" x="109.308663" xlink:href="#m736bf25765" y="26.359051"/>
     <use style="fill:#0072bd;stroke:#0072bd;" x="211.179006" xlink:href="#m736bf25765" y="26.006914"/>
     <use style="fill:#0072bd;stroke:#0072bd;" x="313.049348" xlink:href="#m736bf25765" y="26.007166"/>
     <use style="fill:#0072bd;stroke:#0072bd;" x="414.919691" xlink:href="#m736bf25765" y="26.107501"/>
     <use style="fill:#0072bd;stroke:#0072bd;" x="516.790034" xlink:href="#m736bf25765" y="26.12263"/>
    </g>
   </g>
   <g id="line2d_25">
    <path clip-path="url(#pad22afb47f)" d="M 84.360824 211.68 
L 86.43981 208.633811 
L 88.518797 208.543581 
L 90.597784 208.633162 
L 92.67677 208.089971 
L 94.755757 208.83204 
L 96.834743 208.318186 
L 98.91373 207.972869 
L 100.992717 208.584369 
L 103.071703 207.681592 
L 105.15069 208.085124 
L 107.229676 207.61911 
L 109.308663 207.6018 
L 111.387649 208.002495 
L 115.545623 207.404812 
L 117.624609 207.754999 
L 121.782582 207.816475 
L 123.861569 207.465293 
L 125.940556 207.619467 
L 130.098529 207.609804 
L 132.177515 207.40345 
L 134.256502 207.538695 
L 136.335489 207.280188 
L 144.651435 207.041841 
L 146.730421 206.783267 
L 148.809408 207.066654 
L 150.888395 206.607012 
L 155.046368 206.81592 
L 161.283328 206.676015 
L 163.362314 206.820255 
L 165.441301 206.565535 
L 167.520287 206.658182 
L 169.599274 206.486262 
L 171.678261 206.701372 
L 173.757247 206.348495 
L 175.836234 206.720538 
L 179.994207 206.628887 
L 182.073193 206.880228 
L 186.231167 206.221252 
L 190.38914 206.344252 
L 194.547113 206.248882 
L 196.6261 206.251991 
L 198.705086 206.453916 
L 200.784073 205.98253 
L 207.021033 206.164356 
L 209.100019 206.123572 
L 211.179006 205.822152 
L 213.257992 206.1358 
L 217.415965 205.901901 
L 221.573939 205.808453 
L 225.731912 205.59766 
L 227.810898 205.874487 
L 229.889885 205.734201 
L 238.205831 205.647168 
L 258.995697 205.318294 
L 261.074684 205.392121 
L 269.39063 205.190709 
L 275.62759 205.07298 
L 281.86455 204.958482 
L 286.022523 205.051448 
L 290.180496 204.829597 
L 302.654416 204.795034 
L 306.812389 204.634999 
L 310.970362 204.730953 
L 313.049348 204.58233 
L 315.128335 204.633475 
L 317.207322 204.532392 
L 319.286308 204.558583 
L 321.365295 204.707212 
L 327.602255 204.423813 
L 331.760228 204.534718 
L 337.997187 204.387007 
L 342.155161 204.381389 
L 348.39212 204.332866 
L 352.550094 204.267145 
L 377.497933 204.007871 
L 379.576919 204.091567 
L 387.892866 203.818059 
L 396.208812 203.805448 
L 404.524758 203.680893 
L 406.603745 203.781306 
L 408.682731 203.603223 
L 410.761718 203.671963 
L 412.840705 203.539555 
L 414.919691 203.598389 
L 419.077664 203.53404 
L 421.156651 203.596361 
L 423.235638 203.453187 
L 427.393611 203.494056 
L 433.630571 203.468866 
L 435.709557 203.369519 
L 437.788544 203.457145 
L 441.946517 203.359691 
L 444.025503 203.359108 
L 446.10449 203.246905 
L 450.262463 203.276855 
L 452.34145 203.223324 
L 454.420436 203.320641 
L 460.657396 203.173906 
L 464.815369 203.169593 
L 466.894356 203.102712 
L 468.973342 203.166997 
L 475.210302 203.075791 
L 481.447262 203.114994 
L 483.526249 202.97934 
L 485.605235 203.039411 
L 487.684222 202.949929 
L 491.842195 202.974196 
L 493.921182 202.892308 
L 498.079155 202.937423 
L 512.632061 202.792241 
L 514.711047 202.702561 
L 518.869021 202.695292 
L 531.34294 202.713894 
L 537.5799 202.573228 
L 541.737873 202.572777 
L 552.132806 202.569206 
L 558.369766 202.513226 
L 564.606726 202.443819 
L 566.685712 202.380481 
L 568.764699 202.431816 
L 572.922672 202.348499 
L 577.080645 202.304736 
L 581.238618 202.357544 
L 589.554565 202.263269 
L 591.633551 202.280334 
L 591.633551 202.280334 
" style="fill:none;stroke:#d95319;stroke-linecap:square;stroke-width:3;"/>
    <defs>
     <path d="M -0 7.071068 
L 4.242641 0 
L -0 -7.071068 
L -4.242641 -0 
z
" id="mcc055b1af6" style="stroke:#d95319;stroke-linejoin:miter;"/>
    </defs>
    <g clip-path="url(#pad22afb47f)">
     <use style="fill:#d95319;stroke:#d95319;stroke-linejoin:miter;" x="134.256502" xlink:href="#mcc055b1af6" y="207.538695"/>
     <use style="fill:#d95319;stroke:#d95319;stroke-linejoin:miter;" x="236.126845" xlink:href="#mcc055b1af6" y="205.68675"/>
     <use style="fill:#d95319;stroke:#d95319;stroke-linejoin:miter;" x="337.997187" xlink:href="#mcc055b1af6" y="204.387007"/>
     <use style="fill:#d95319;stroke:#d95319;stroke-linejoin:miter;" x="439.86753" xlink:href="#mcc055b1af6" y="203.364838"/>
     <use style="fill:#d95319;stroke:#d95319;stroke-linejoin:miter;" x="541.737873" xlink:href="#mcc055b1af6" y="202.572777"/>
    </g>
   </g>
   <g id="line2d_26">
    <path clip-path="url(#pad22afb47f)" d="M 84.360824 18.074624 
L 86.43981 16.43298 
L 88.518797 15.560156 
L 90.597784 16.19881 
L 92.67677 15.454624 
L 94.755757 15.507947 
L 96.834743 15.440588 
L 98.91373 15.701181 
L 103.071703 15.326301 
L 105.15069 15.492642 
L 107.229676 15.840644 
L 109.308663 15.374955 
L 111.387649 15.829873 
L 113.466636 15.549497 
L 115.545623 14.940754 
L 117.624609 15.425481 
L 121.782582 14.897399 
L 125.940556 15.010529 
L 128.019542 14.894193 
L 130.098529 14.907196 
L 132.177515 14.589294 
L 134.256502 14.755888 
L 136.335489 14.576766 
L 138.414475 14.602904 
L 140.493462 14.808491 
L 142.572448 14.49755 
L 146.730421 14.435043 
L 148.809408 14.366786 
L 150.888395 14.474798 
L 152.967381 14.136357 
L 155.046368 14.311661 
L 157.125354 14.1229 
L 161.283328 14.378129 
L 165.441301 14.258282 
L 173.757247 14.222521 
L 175.836234 14.348161 
L 179.994207 14.131971 
L 182.073193 14.258404 
L 184.15218 14.020498 
L 186.231167 13.949053 
L 188.310153 14.071591 
L 200.784073 13.702782 
L 202.863059 13.760937 
L 204.942046 13.640529 
L 209.100019 13.762662 
L 211.179006 13.58534 
L 213.257992 13.755736 
L 215.336979 13.759347 
L 217.415965 13.485524 
L 219.494952 13.636407 
L 221.573939 13.431419 
L 223.652925 13.607941 
L 225.731912 13.650129 
L 227.810898 13.435336 
L 229.889885 13.571762 
L 231.968872 13.290336 
L 234.047858 13.459005 
L 240.284818 13.310015 
L 242.363804 13.109132 
L 244.442791 13.25752 
L 252.758737 13.06642 
L 256.916711 13.08225 
L 261.074684 13.009302 
L 263.15367 13.078254 
L 267.311644 12.973775 
L 269.39063 12.906049 
L 273.548603 12.936691 
L 275.62759 12.861836 
L 277.706576 12.905654 
L 279.785563 12.78408 
L 288.101509 12.736191 
L 292.259483 12.592912 
L 294.338469 12.694781 
L 296.417456 12.5653 
L 300.575429 12.611456 
L 306.812389 12.516268 
L 308.891375 12.469788 
L 310.970362 12.544172 
L 313.049348 12.378174 
L 315.128335 12.438547 
L 317.207322 12.290084 
L 323.444281 12.402555 
L 327.602255 12.274193 
L 333.839214 12.144624 
L 335.918201 12.272324 
L 340.076174 12.060436 
L 342.155161 12.135502 
L 346.313134 12.091443 
L 348.39212 12.135541 
L 352.550094 12.047008 
L 360.86604 11.904016 
L 362.945027 11.974507 
L 365.024013 11.830603 
L 369.181986 11.918719 
L 371.260973 11.780896 
L 373.339959 11.830793 
L 375.418946 11.717563 
L 377.497933 11.874959 
L 381.655906 11.683856 
L 389.971852 11.667489 
L 392.050839 11.525957 
L 398.287799 11.522741 
L 416.998678 11.423081 
L 419.077664 11.331585 
L 423.235638 11.319422 
L 437.788544 11.293707 
L 439.86753 11.185794 
L 446.10449 11.184011 
L 500.158141 10.682754 
L 504.316114 10.696497 
L 508.474088 10.665868 
L 510.553074 10.628959 
L 512.632061 10.704338 
L 518.869021 10.524856 
L 520.948007 10.598952 
L 525.10598 10.465954 
L 529.263954 10.605485 
L 531.34294 10.501622 
L 533.421927 10.56006 
L 535.500913 10.453179 
L 545.895846 10.425374 
L 570.843685 10.200163 
L 575.001658 10.195534 
L 581.238618 10.17964 
L 583.317605 10.08 
L 591.633551 10.107765 
L 591.633551 10.107765 
" style="fill:none;stroke:#7e2f8e;stroke-linecap:square;stroke-width:3;"/>
    <defs>
     <path d="M -5 0 
L 5 0 
M 0 5 
L 0 -5 
" id="m7654eb2aa6" style="stroke:#7e2f8e;"/>
    </defs>
    <g clip-path="url(#pad22afb47f)">
     <use style="fill:#7e2f8e;stroke:#7e2f8e;" x="159.204341" xlink:href="#m7654eb2aa6" y="14.283848"/>
     <use style="fill:#7e2f8e;stroke:#7e2f8e;" x="261.074684" xlink:href="#m7654eb2aa6" y="13.009302"/>
     <use style="fill:#7e2f8e;stroke:#7e2f8e;" x="362.945027" xlink:href="#m7654eb2aa6" y="11.974507"/>
     <use style="fill:#7e2f8e;stroke:#7e2f8e;" x="464.815369" xlink:href="#m7654eb2aa6" y="11.02932"/>
     <use style="fill:#7e2f8e;stroke:#7e2f8e;" x="566.685712" xlink:href="#m7654eb2aa6" y="10.275749"/>
    </g>
   </g>
   <g id="legend_1">
    <g id="patch_7">
     <path d="M 340.275313 157.164375 
L 606.497187 157.164375 
Q 609.497187 157.164375 609.497187 154.164375 
L 609.497187 67.595625 
Q 609.497187 64.595625 606.497187 64.595625 
L 340.275313 64.595625 
Q 337.275313 64.595625 337.275313 67.595625 
L 337.275313 154.164375 
Q 337.275313 157.164375 340.275313 157.164375 
z
" style="fill:#ffffff;opacity:0.8;stroke:#cccccc;stroke-linejoin:miter;"/>
    </g>
    <g id="line2d_27">
     <path d="M 343.275313 76.743281 
L 373.275313 76.743281 
" style="fill:none;stroke:#77ac30;stroke-linecap:square;stroke-width:3;"/>
    </g>
    <g id="line2d_28">
     <g>
      <use style="fill:#77ac30;stroke:#77ac30;stroke-linejoin:miter;" x="358.275313" xlink:href="#mf19a89907a" y="76.743281"/>
     </g>
    </g>
    <g id="text_14">
     <!-- GEMV fp32 -->
     <g transform="translate(385.275313 81.993281)scale(0.15 -0.15)">
      <defs>
       <path d="M 3809 666 
L 3809 1919 
L 2778 1919 
L 2778 2438 
L 4434 2438 
L 4434 434 
Q 4069 175 3628 42 
Q 3188 -91 2688 -91 
Q 1594 -91 976 548 
Q 359 1188 359 2328 
Q 359 3472 976 4111 
Q 1594 4750 2688 4750 
Q 3144 4750 3555 4637 
Q 3966 4525 4313 4306 
L 4313 3634 
Q 3963 3931 3569 4081 
Q 3175 4231 2741 4231 
Q 1884 4231 1454 3753 
Q 1025 3275 1025 2328 
Q 1025 1384 1454 906 
Q 1884 428 2741 428 
Q 3075 428 3337 486 
Q 3600 544 3809 666 
z
" id="DejaVuSans-47" transform="scale(0.015625)"/>
       <path d="M 628 4666 
L 3578 4666 
L 3578 4134 
L 1259 4134 
L 1259 2753 
L 3481 2753 
L 3481 2222 
L 1259 2222 
L 1259 531 
L 3634 531 
L 3634 0 
L 628 0 
L 628 4666 
z
" id="DejaVuSans-45" transform="scale(0.015625)"/>
       <path d="M 628 4666 
L 1569 4666 
L 2759 1491 
L 3956 4666 
L 4897 4666 
L 4897 0 
L 4281 0 
L 4281 4097 
L 3078 897 
L 2444 897 
L 1241 4097 
L 1241 0 
L 628 0 
L 628 4666 
z
" id="DejaVuSans-4d" transform="scale(0.015625)"/>
       <path d="M 1831 0 
L 50 4666 
L 709 4666 
L 2188 738 
L 3669 4666 
L 4325 4666 
L 2547 0 
L 1831 0 
z
" id="DejaVuSans-56" transform="scale(0.015625)"/>
       <path d="M 1159 525 
L 1159 -1331 
L 581 -1331 
L 581 3500 
L 1159 3500 
L 1159 2969 
Q 1341 3281 1617 3432 
Q 1894 3584 2278 3584 
Q 2916 3584 3314 3078 
Q 3713 2572 3713 1747 
Q 3713 922 3314 415 
Q 2916 -91 2278 -91 
Q 1894 -91 1617 61 
Q 1341 213 1159 525 
z
M 3116 1747 
Q 3116 2381 2855 2742 
Q 2594 3103 2138 3103 
Q 1681 3103 1420 2742 
Q 1159 2381 1159 1747 
Q 1159 1113 1420 752 
Q 1681 391 2138 391 
Q 2594 391 2855 752 
Q 3116 1113 3116 1747 
z
" id="DejaVuSans-70" transform="scale(0.015625)"/>
      </defs>
      <use xlink:href="#DejaVuSans-47"/>
      <use x="77.490234" xlink:href="#DejaVuSans-45"/>
      <use x="140.673828" xlink:href="#DejaVuSans-4d"/>
      <use x="226.953125" xlink:href="#DejaVuSans-56"/>
      <use x="295.361328" xlink:href="#DejaVuSans-20"/>
      <use x="327.148438" xlink:href="#DejaVuSans-66"/>
      <use x="362.353516" xlink:href="#DejaVuSans-70"/>
      <use x="425.830078" xlink:href="#DejaVuSans-33"/>
      <use x="489.453125" xlink:href="#DejaVuSans-32"/>
     </g>
    </g>
    <g id="line2d_29">
     <path d="M 343.275313 98.760469 
L 373.275313 98.760469 
" style="fill:none;stroke:#0072bd;stroke-linecap:square;stroke-width:3;"/>
    </g>
    <g id="line2d_30">
     <g>
      <use style="fill:#0072bd;stroke:#0072bd;" x="358.275313" xlink:href="#m736bf25765" y="98.760469"/>
     </g>
    </g>
    <g id="text_15">
     <!-- GEMV Accessor&lt;fp64, fp32&gt; -->
     <g transform="translate(385.275313 104.010469)scale(0.15 -0.15)">
      <defs>
       <path d="M 2188 4044 
L 1331 1722 
L 3047 1722 
L 2188 4044 
z
M 1831 4666 
L 2547 4666 
L 4325 0 
L 3669 0 
L 3244 1197 
L 1141 1197 
L 716 0 
L 50 0 
L 1831 4666 
z
" id="DejaVuSans-41" transform="scale(0.015625)"/>
       <path d="M 3122 3366 
L 3122 2828 
Q 2878 2963 2633 3030 
Q 2388 3097 2138 3097 
Q 1578 3097 1268 2742 
Q 959 2388 959 1747 
Q 959 1106 1268 751 
Q 1578 397 2138 397 
Q 2388 397 2633 464 
Q 2878 531 3122 666 
L 3122 134 
Q 2881 22 2623 -34 
Q 2366 -91 2075 -91 
Q 1284 -91 818 406 
Q 353 903 353 1747 
Q 353 2603 823 3093 
Q 1294 3584 2113 3584 
Q 2378 3584 2631 3529 
Q 2884 3475 3122 3366 
z
" id="DejaVuSans-63" transform="scale(0.015625)"/>
       <path d="M 4684 3150 
L 1459 2003 
L 4684 863 
L 4684 294 
L 678 1747 
L 678 2266 
L 4684 3719 
L 4684 3150 
z
" id="DejaVuSans-3c" transform="scale(0.015625)"/>
       <path d="M 2113 2584 
Q 1688 2584 1439 2293 
Q 1191 2003 1191 1497 
Q 1191 994 1439 701 
Q 1688 409 2113 409 
Q 2538 409 2786 701 
Q 3034 994 3034 1497 
Q 3034 2003 2786 2293 
Q 2538 2584 2113 2584 
z
M 3366 4563 
L 3366 3988 
Q 3128 4100 2886 4159 
Q 2644 4219 2406 4219 
Q 1781 4219 1451 3797 
Q 1122 3375 1075 2522 
Q 1259 2794 1537 2939 
Q 1816 3084 2150 3084 
Q 2853 3084 3261 2657 
Q 3669 2231 3669 1497 
Q 3669 778 3244 343 
Q 2819 -91 2113 -91 
Q 1303 -91 875 529 
Q 447 1150 447 2328 
Q 447 3434 972 4092 
Q 1497 4750 2381 4750 
Q 2619 4750 2861 4703 
Q 3103 4656 3366 4563 
z
" id="DejaVuSans-36" transform="scale(0.015625)"/>
       <path d="M 2419 4116 
L 825 1625 
L 2419 1625 
L 2419 4116 
z
M 2253 4666 
L 3047 4666 
L 3047 1625 
L 3713 1625 
L 3713 1100 
L 3047 1100 
L 3047 0 
L 2419 0 
L 2419 1100 
L 313 1100 
L 313 1709 
L 2253 4666 
z
" id="DejaVuSans-34" transform="scale(0.015625)"/>
       <path d="M 750 794 
L 1409 794 
L 1409 256 
L 897 -744 
L 494 -744 
L 750 256 
L 750 794 
z
" id="DejaVuSans-2c" transform="scale(0.015625)"/>
       <path d="M 678 3150 
L 678 3719 
L 4684 2266 
L 4684 1747 
L 678 294 
L 678 863 
L 3897 2003 
L 678 3150 
z
" id="DejaVuSans-3e" transform="scale(0.015625)"/>
      </defs>
      <use xlink:href="#DejaVuSans-47"/>
      <use x="77.490234" xlink:href="#DejaVuSans-45"/>
      <use x="140.673828" xlink:href="#DejaVuSans-4d"/>
      <use x="226.953125" xlink:href="#DejaVuSans-56"/>
      <use x="295.361328" xlink:href="#DejaVuSans-20"/>
      <use x="327.148438" xlink:href="#DejaVuSans-41"/>
      <use x="393.806641" xlink:href="#DejaVuSans-63"/>
      <use x="448.787109" xlink:href="#DejaVuSans-63"/>
      <use x="503.767578" xlink:href="#DejaVuSans-65"/>
      <use x="565.291016" xlink:href="#DejaVuSans-73"/>
      <use x="617.390625" xlink:href="#DejaVuSans-73"/>
      <use x="669.490234" xlink:href="#DejaVuSans-6f"/>
      <use x="730.671875" xlink:href="#DejaVuSans-72"/>
      <use x="771.785156" xlink:href="#DejaVuSans-3c"/>
      <use x="855.574219" xlink:href="#DejaVuSans-66"/>
      <use x="890.779297" xlink:href="#DejaVuSans-70"/>
      <use x="954.255859" xlink:href="#DejaVuSans-36"/>
      <use x="1017.878906" xlink:href="#DejaVuSans-34"/>
      <use x="1081.501953" xlink:href="#DejaVuSans-2c"/>
      <use x="1113.289062" xlink:href="#DejaVuSans-20"/>
      <use x="1145.076172" xlink:href="#DejaVuSans-66"/>
      <use x="1180.28125" xlink:href="#DejaVuSans-70"/>
      <use x="1243.757812" xlink:href="#DejaVuSans-33"/>
      <use x="1307.380859" xlink:href="#DejaVuSans-32"/>
      <use x="1371.003906" xlink:href="#DejaVuSans-3e"/>
     </g>
    </g>
    <g id="line2d_31">
     <path d="M 343.275313 120.777656 
L 373.275313 120.777656 
" style="fill:none;stroke:#d95319;stroke-linecap:square;stroke-width:3;"/>
    </g>
    <g id="line2d_32">
     <g>
      <use style="fill:#d95319;stroke:#d95319;stroke-linejoin:miter;" x="358.275313" xlink:href="#mcc055b1af6" y="120.777656"/>
     </g>
    </g>
    <g id="text_16">
     <!-- GEMV cuBLAS fp64 -->
     <g transform="translate(385.275313 126.027656)scale(0.15 -0.15)">
      <defs>
       <path d="M 1259 2228 
L 1259 519 
L 2272 519 
Q 2781 519 3026 730 
Q 3272 941 3272 1375 
Q 3272 1813 3026 2020 
Q 2781 2228 2272 2228 
L 1259 2228 
z
M 1259 4147 
L 1259 2741 
L 2194 2741 
Q 2656 2741 2882 2914 
Q 3109 3088 3109 3444 
Q 3109 3797 2882 3972 
Q 2656 4147 2194 4147 
L 1259 4147 
z
M 628 4666 
L 2241 4666 
Q 2963 4666 3353 4366 
Q 3744 4066 3744 3513 
Q 3744 3084 3544 2831 
Q 3344 2578 2956 2516 
Q 3422 2416 3680 2098 
Q 3938 1781 3938 1306 
Q 3938 681 3513 340 
Q 3088 0 2303 0 
L 628 0 
L 628 4666 
z
" id="DejaVuSans-42" transform="scale(0.015625)"/>
       <path d="M 628 4666 
L 1259 4666 
L 1259 531 
L 3531 531 
L 3531 0 
L 628 0 
L 628 4666 
z
" id="DejaVuSans-4c" transform="scale(0.015625)"/>
       <path d="M 3425 4513 
L 3425 3897 
Q 3066 4069 2747 4153 
Q 2428 4238 2131 4238 
Q 1616 4238 1336 4038 
Q 1056 3838 1056 3469 
Q 1056 3159 1242 3001 
Q 1428 2844 1947 2747 
L 2328 2669 
Q 3034 2534 3370 2195 
Q 3706 1856 3706 1288 
Q 3706 609 3251 259 
Q 2797 -91 1919 -91 
Q 1588 -91 1214 -16 
Q 841 59 441 206 
L 441 856 
Q 825 641 1194 531 
Q 1563 422 1919 422 
Q 2459 422 2753 634 
Q 3047 847 3047 1241 
Q 3047 1584 2836 1778 
Q 2625 1972 2144 2069 
L 1759 2144 
Q 1053 2284 737 2584 
Q 422 2884 422 3419 
Q 422 4038 858 4394 
Q 1294 4750 2059 4750 
Q 2388 4750 2728 4690 
Q 3069 4631 3425 4513 
z
" id="DejaVuSans-53" transform="scale(0.015625)"/>
      </defs>
      <use xlink:href="#DejaVuSans-47"/>
      <use x="77.490234" xlink:href="#DejaVuSans-45"/>
      <use x="140.673828" xlink:href="#DejaVuSans-4d"/>
      <use x="226.953125" xlink:href="#DejaVuSans-56"/>
      <use x="295.361328" xlink:href="#DejaVuSans-20"/>
      <use x="327.148438" xlink:href="#DejaVuSans-63"/>
      <use x="382.128906" xlink:href="#DejaVuSans-75"/>
      <use x="445.507812" xlink:href="#DejaVuSans-42"/>
      <use x="514.111328" xlink:href="#DejaVuSans-4c"/>
      <use x="572.074219" xlink:href="#DejaVuSans-41"/>
      <use x="640.482422" xlink:href="#DejaVuSans-53"/>
      <use x="703.958984" xlink:href="#DejaVuSans-20"/>
      <use x="735.746094" xlink:href="#DejaVuSans-66"/>
      <use x="770.951172" xlink:href="#DejaVuSans-70"/>
      <use x="834.427734" xlink:href="#DejaVuSans-36"/>
      <use x="898.050781" xlink:href="#DejaVuSans-34"/>
     </g>
    </g>
    <g id="line2d_33">
     <path d="M 343.275313 142.794844 
L 373.275313 142.794844 
" style="fill:none;stroke:#7e2f8e;stroke-linecap:square;stroke-width:3;"/>
    </g>
    <g id="line2d_34">
     <g>
      <use style="fill:#7e2f8e;stroke:#7e2f8e;" x="358.275313" xlink:href="#m7654eb2aa6" y="142.794844"/>
     </g>
    </g>
    <g id="text_17">
     <!-- GEMV cuBLAS fp32 -->
     <g transform="translate(385.275313 148.044844)scale(0.15 -0.15)">
      <use xlink:href="#DejaVuSans-47"/>
      <use x="77.490234" xlink:href="#DejaVuSans-45"/>
      <use x="140.673828" xlink:href="#DejaVuSans-4d"/>
      <use x="226.953125" xlink:href="#DejaVuSans-56"/>
      <use x="295.361328" xlink:href="#DejaVuSans-20"/>
      <use x="327.148438" xlink:href="#DejaVuSans-63"/>
      <use x="382.128906" xlink:href="#DejaVuSans-75"/>
      <use x="445.507812" xlink:href="#DejaVuSans-42"/>
      <use x="514.111328" xlink:href="#DejaVuSans-4c"/>
      <use x="572.074219" xlink:href="#DejaVuSans-41"/>
      <use x="640.482422" xlink:href="#DejaVuSans-53"/>
      <use x="703.958984" xlink:href="#DejaVuSans-20"/>
      <use x="735.746094" xlink:href="#DejaVuSans-66"/>
      <use x="770.951172" xlink:href="#DejaVuSans-70"/>
      <use x="834.427734" xlink:href="#DejaVuSans-33"/>
      <use x="898.050781" xlink:href="#DejaVuSans-32"/>
     </g>
    </g>
   </g>
  </g>
 </g>
 <defs>
  <clipPath id="pad22afb47f">
   <rect height="221.76" width="558" x="58.997188" y="-0"/>
  </clipPath>
 </defs>
</svg>
