<?xml version="1.0" encoding="utf-8" standalone="no"?>
<!DOCTYPE svg PUBLIC "-//W3C//DTD SVG 1.1//EN"
  "http://www.w3.org/Graphics/SVG/1.1/DTD/svg11.dtd">
<svg height="258.890937pt" version="1.1" viewBox="0 0 606.422187 258.890937" width="606.422187pt" xmlns="http://www.w3.org/2000/svg" xmlns:xlink="http://www.w3.org/1999/xlink">
 <metadata>
  <rdf:RDF xmlns:cc="http://creativecommons.org/ns#" xmlns:dc="http://purl.org/dc/elements/1.1/" xmlns:rdf="http://www.w3.org/1999/02/22-rdf-syntax-ns#">
   <cc:Work>
    <dc:type rdf:resource="http://purl.org/dc/dcmitype/StillImage"/>
    <dc:date>2022-02-09T18:25:27.341647</dc:date>
    <dc:format>image/svg+xml</dc:format>
    <dc:creator>
     <cc:Agent>
      <dc:title>Matplotlib v3.4.1, https://matplotlib.org/</dc:title>
     </cc:Agent>
    </dc:creator>
   </cc:Work>
  </rdf:RDF>
 </metadata>
 <defs>
  <style type="text/css">*{stroke-linecap:butt;stroke-linejoin:round;}</style>
 </defs>
 <g id="figure_1">
  <g id="patch_1">
   <path d="M 0 258.890937 
L 606.422187 258.890937 
L 606.422187 0 
L 0 0 
z
" style="fill:#ffffff;"/>
  </g>
  <g id="axes_1">
   <g id="patch_2">
    <path d="M 48.422187 221.76 
L 606.422187 221.76 
L 606.422187 -0 
L 48.422187 -0 
z
" style="fill:#ffffff;"/>
   </g>
   <g id="matplotlib.axis_1">
    <g id="xtick_1">
     <g id="line2d_1">
      <path clip-path="url(#p202af3f426)" d="M 72.835875 221.76 
L 72.835875 -0 
" style="fill:none;stroke:#cccccc;stroke-linecap:square;"/>
     </g>
     <g id="line2d_2">
      <defs>
       <path d="M 0 0 
L 0 3.5 
" id="mfc9abb2a2b" style="stroke:#000000;stroke-width:0.8;"/>
      </defs>
      <g>
       <use style="stroke:#000000;stroke-width:0.8;" x="72.835875" xlink:href="#mfc9abb2a2b" y="221.76"/>
      </g>
     </g>
     <g id="text_1">
      <!-- 0 -->
      <g transform="translate(69.018375 237.878125)scale(0.12 -0.12)">
       <defs>
        <path d="M 2034 4250 
Q 1547 4250 1301 3770 
Q 1056 3291 1056 2328 
Q 1056 1369 1301 889 
Q 1547 409 2034 409 
Q 2525 409 2770 889 
Q 3016 1369 3016 2328 
Q 3016 3291 2770 3770 
Q 2525 4250 2034 4250 
z
M 2034 4750 
Q 2819 4750 3233 4129 
Q 3647 3509 3647 2328 
Q 3647 1150 3233 529 
Q 2819 -91 2034 -91 
Q 1250 -91 836 529 
Q 422 1150 422 2328 
Q 422 3509 836 4129 
Q 1250 4750 2034 4750 
z
" id="DejaVuSans-30" transform="scale(0.015625)"/>
       </defs>
       <use xlink:href="#DejaVuSans-30"/>
      </g>
     </g>
    </g>
    <g id="xtick_2">
     <g id="line2d_3">
      <path clip-path="url(#p202af3f426)" d="M 167.830768 221.76 
L 167.830768 -0 
" style="fill:none;stroke:#cccccc;stroke-linecap:square;"/>
     </g>
     <g id="line2d_4">
      <g>
       <use style="stroke:#000000;stroke-width:0.8;" x="167.830768" xlink:href="#mfc9abb2a2b" y="221.76"/>
      </g>
     </g>
     <g id="text_2">
      <!-- 1 -->
      <g transform="translate(164.013268 237.878125)scale(0.12 -0.12)">
       <defs>
        <path d="M 794 531 
L 1825 531 
L 1825 4091 
L 703 3866 
L 703 4441 
L 1819 4666 
L 2450 4666 
L 2450 531 
L 3481 531 
L 3481 0 
L 794 0 
L 794 531 
z
" id="DejaVuSans-31" transform="scale(0.015625)"/>
       </defs>
       <use xlink:href="#DejaVuSans-31"/>
      </g>
     </g>
    </g>
    <g id="xtick_3">
     <g id="line2d_5">
      <path clip-path="url(#p202af3f426)" d="M 262.82566 221.76 
L 262.82566 -0 
" style="fill:none;stroke:#cccccc;stroke-linecap:square;"/>
     </g>
     <g id="line2d_6">
      <g>
       <use style="stroke:#000000;stroke-width:0.8;" x="262.82566" xlink:href="#mfc9abb2a2b" y="221.76"/>
      </g>
     </g>
     <g id="text_3">
      <!-- 2 -->
      <g transform="translate(259.00816 237.878125)scale(0.12 -0.12)">
       <defs>
        <path d="M 1228 531 
L 3431 531 
L 3431 0 
L 469 0 
L 469 531 
Q 828 903 1448 1529 
Q 2069 2156 2228 2338 
Q 2531 2678 2651 2914 
Q 2772 3150 2772 3378 
Q 2772 3750 2511 3984 
Q 2250 4219 1831 4219 
Q 1534 4219 1204 4116 
Q 875 4013 500 3803 
L 500 4441 
Q 881 4594 1212 4672 
Q 1544 4750 1819 4750 
Q 2544 4750 2975 4387 
Q 3406 4025 3406 3419 
Q 3406 3131 3298 2873 
Q 3191 2616 2906 2266 
Q 2828 2175 2409 1742 
Q 1991 1309 1228 531 
z
" id="DejaVuSans-32" transform="scale(0.015625)"/>
       </defs>
       <use xlink:href="#DejaVuSans-32"/>
      </g>
     </g>
    </g>
    <g id="xtick_4">
     <g id="line2d_7">
      <path clip-path="url(#p202af3f426)" d="M 357.820553 221.76 
L 357.820553 -0 
" style="fill:none;stroke:#cccccc;stroke-linecap:square;"/>
     </g>
     <g id="line2d_8">
      <g>
       <use style="stroke:#000000;stroke-width:0.8;" x="357.820553" xlink:href="#mfc9abb2a2b" y="221.76"/>
      </g>
     </g>
     <g id="text_4">
      <!-- 3 -->
      <g transform="translate(354.003053 237.878125)scale(0.12 -0.12)">
       <defs>
        <path d="M 2597 2516 
Q 3050 2419 3304 2112 
Q 3559 1806 3559 1356 
Q 3559 666 3084 287 
Q 2609 -91 1734 -91 
Q 1441 -91 1130 -33 
Q 819 25 488 141 
L 488 750 
Q 750 597 1062 519 
Q 1375 441 1716 441 
Q 2309 441 2620 675 
Q 2931 909 2931 1356 
Q 2931 1769 2642 2001 
Q 2353 2234 1838 2234 
L 1294 2234 
L 1294 2753 
L 1863 2753 
Q 2328 2753 2575 2939 
Q 2822 3125 2822 3475 
Q 2822 3834 2567 4026 
Q 2313 4219 1838 4219 
Q 1578 4219 1281 4162 
Q 984 4106 628 3988 
L 628 4550 
Q 988 4650 1302 4700 
Q 1616 4750 1894 4750 
Q 2613 4750 3031 4423 
Q 3450 4097 3450 3541 
Q 3450 3153 3228 2886 
Q 3006 2619 2597 2516 
z
" id="DejaVuSans-33" transform="scale(0.015625)"/>
       </defs>
       <use xlink:href="#DejaVuSans-33"/>
      </g>
     </g>
    </g>
    <g id="xtick_5">
     <g id="line2d_9">
      <path clip-path="url(#p202af3f426)" d="M 452.815446 221.76 
L 452.815446 -0 
" style="fill:none;stroke:#cccccc;stroke-linecap:square;"/>
     </g>
     <g id="line2d_10">
      <g>
       <use style="stroke:#000000;stroke-width:0.8;" x="452.815446" xlink:href="#mfc9abb2a2b" y="221.76"/>
      </g>
     </g>
     <g id="text_5">
      <!-- 4 -->
      <g transform="translate(448.997946 237.878125)scale(0.12 -0.12)">
       <defs>
        <path d="M 2419 4116 
L 825 1625 
L 2419 1625 
L 2419 4116 
z
M 2253 4666 
L 3047 4666 
L 3047 1625 
L 3713 1625 
L 3713 1100 
L 3047 1100 
L 3047 0 
L 2419 0 
L 2419 1100 
L 313 1100 
L 313 1709 
L 2253 4666 
z
" id="DejaVuSans-34" transform="scale(0.015625)"/>
       </defs>
       <use xlink:href="#DejaVuSans-34"/>
      </g>
     </g>
    </g>
    <g id="xtick_6">
     <g id="line2d_11">
      <path clip-path="url(#p202af3f426)" d="M 547.810339 221.76 
L 547.810339 -0 
" style="fill:none;stroke:#cccccc;stroke-linecap:square;"/>
     </g>
     <g id="line2d_12">
      <g>
       <use style="stroke:#000000;stroke-width:0.8;" x="547.810339" xlink:href="#mfc9abb2a2b" y="221.76"/>
      </g>
     </g>
     <g id="text_6">
      <!-- 5 -->
      <g transform="translate(543.992839 237.878125)scale(0.12 -0.12)">
       <defs>
        <path d="M 691 4666 
L 3169 4666 
L 3169 4134 
L 1269 4134 
L 1269 2991 
Q 1406 3038 1543 3061 
Q 1681 3084 1819 3084 
Q 2600 3084 3056 2656 
Q 3513 2228 3513 1497 
Q 3513 744 3044 326 
Q 2575 -91 1722 -91 
Q 1428 -91 1123 -41 
Q 819 9 494 109 
L 494 744 
Q 775 591 1075 516 
Q 1375 441 1709 441 
Q 2250 441 2565 725 
Q 2881 1009 2881 1497 
Q 2881 1984 2565 2268 
Q 2250 2553 1709 2553 
Q 1456 2553 1204 2497 
Q 953 2441 691 2322 
L 691 4666 
z
" id="DejaVuSans-35" transform="scale(0.015625)"/>
       </defs>
       <use xlink:href="#DejaVuSans-35"/>
      </g>
     </g>
    </g>
    <g id="text_7">
     <!-- Vector size -->
     <g transform="translate(286.596406 255.771406)scale(0.15 -0.15)">
      <defs>
       <path d="M 1831 0 
L 50 4666 
L 709 4666 
L 2188 738 
L 3669 4666 
L 4325 4666 
L 2547 0 
L 1831 0 
z
" id="DejaVuSans-56" transform="scale(0.015625)"/>
       <path d="M 3597 1894 
L 3597 1613 
L 953 1613 
Q 991 1019 1311 708 
Q 1631 397 2203 397 
Q 2534 397 2845 478 
Q 3156 559 3463 722 
L 3463 178 
Q 3153 47 2828 -22 
Q 2503 -91 2169 -91 
Q 1331 -91 842 396 
Q 353 884 353 1716 
Q 353 2575 817 3079 
Q 1281 3584 2069 3584 
Q 2775 3584 3186 3129 
Q 3597 2675 3597 1894 
z
M 3022 2063 
Q 3016 2534 2758 2815 
Q 2500 3097 2075 3097 
Q 1594 3097 1305 2825 
Q 1016 2553 972 2059 
L 3022 2063 
z
" id="DejaVuSans-65" transform="scale(0.015625)"/>
       <path d="M 3122 3366 
L 3122 2828 
Q 2878 2963 2633 3030 
Q 2388 3097 2138 3097 
Q 1578 3097 1268 2742 
Q 959 2388 959 1747 
Q 959 1106 1268 751 
Q 1578 397 2138 397 
Q 2388 397 2633 464 
Q 2878 531 3122 666 
L 3122 134 
Q 2881 22 2623 -34 
Q 2366 -91 2075 -91 
Q 1284 -91 818 406 
Q 353 903 353 1747 
Q 353 2603 823 3093 
Q 1294 3584 2113 3584 
Q 2378 3584 2631 3529 
Q 2884 3475 3122 3366 
z
" id="DejaVuSans-63" transform="scale(0.015625)"/>
       <path d="M 1172 4494 
L 1172 3500 
L 2356 3500 
L 2356 3053 
L 1172 3053 
L 1172 1153 
Q 1172 725 1289 603 
Q 1406 481 1766 481 
L 2356 481 
L 2356 0 
L 1766 0 
Q 1100 0 847 248 
Q 594 497 594 1153 
L 594 3053 
L 172 3053 
L 172 3500 
L 594 3500 
L 594 4494 
L 1172 4494 
z
" id="DejaVuSans-74" transform="scale(0.015625)"/>
       <path d="M 1959 3097 
Q 1497 3097 1228 2736 
Q 959 2375 959 1747 
Q 959 1119 1226 758 
Q 1494 397 1959 397 
Q 2419 397 2687 759 
Q 2956 1122 2956 1747 
Q 2956 2369 2687 2733 
Q 2419 3097 1959 3097 
z
M 1959 3584 
Q 2709 3584 3137 3096 
Q 3566 2609 3566 1747 
Q 3566 888 3137 398 
Q 2709 -91 1959 -91 
Q 1206 -91 779 398 
Q 353 888 353 1747 
Q 353 2609 779 3096 
Q 1206 3584 1959 3584 
z
" id="DejaVuSans-6f" transform="scale(0.015625)"/>
       <path d="M 2631 2963 
Q 2534 3019 2420 3045 
Q 2306 3072 2169 3072 
Q 1681 3072 1420 2755 
Q 1159 2438 1159 1844 
L 1159 0 
L 581 0 
L 581 3500 
L 1159 3500 
L 1159 2956 
Q 1341 3275 1631 3429 
Q 1922 3584 2338 3584 
Q 2397 3584 2469 3576 
Q 2541 3569 2628 3553 
L 2631 2963 
z
" id="DejaVuSans-72" transform="scale(0.015625)"/>
       <path id="DejaVuSans-20" transform="scale(0.015625)"/>
       <path d="M 2834 3397 
L 2834 2853 
Q 2591 2978 2328 3040 
Q 2066 3103 1784 3103 
Q 1356 3103 1142 2972 
Q 928 2841 928 2578 
Q 928 2378 1081 2264 
Q 1234 2150 1697 2047 
L 1894 2003 
Q 2506 1872 2764 1633 
Q 3022 1394 3022 966 
Q 3022 478 2636 193 
Q 2250 -91 1575 -91 
Q 1294 -91 989 -36 
Q 684 19 347 128 
L 347 722 
Q 666 556 975 473 
Q 1284 391 1588 391 
Q 1994 391 2212 530 
Q 2431 669 2431 922 
Q 2431 1156 2273 1281 
Q 2116 1406 1581 1522 
L 1381 1569 
Q 847 1681 609 1914 
Q 372 2147 372 2553 
Q 372 3047 722 3315 
Q 1072 3584 1716 3584 
Q 2034 3584 2315 3537 
Q 2597 3491 2834 3397 
z
" id="DejaVuSans-73" transform="scale(0.015625)"/>
       <path d="M 603 3500 
L 1178 3500 
L 1178 0 
L 603 0 
L 603 3500 
z
M 603 4863 
L 1178 4863 
L 1178 4134 
L 603 4134 
L 603 4863 
z
" id="DejaVuSans-69" transform="scale(0.015625)"/>
       <path d="M 353 3500 
L 3084 3500 
L 3084 2975 
L 922 459 
L 3084 459 
L 3084 0 
L 275 0 
L 275 525 
L 2438 3041 
L 353 3041 
L 353 3500 
z
" id="DejaVuSans-7a" transform="scale(0.015625)"/>
      </defs>
      <use xlink:href="#DejaVuSans-56"/>
      <use x="60.658203" xlink:href="#DejaVuSans-65"/>
      <use x="122.181641" xlink:href="#DejaVuSans-63"/>
      <use x="177.162109" xlink:href="#DejaVuSans-74"/>
      <use x="216.371094" xlink:href="#DejaVuSans-6f"/>
      <use x="277.552734" xlink:href="#DejaVuSans-72"/>
      <use x="318.666016" xlink:href="#DejaVuSans-20"/>
      <use x="350.453125" xlink:href="#DejaVuSans-73"/>
      <use x="402.552734" xlink:href="#DejaVuSans-69"/>
      <use x="430.335938" xlink:href="#DejaVuSans-7a"/>
      <use x="482.826172" xlink:href="#DejaVuSans-65"/>
     </g>
    </g>
    <g id="text_8">
     <!-- 1e8 -->
     <g transform="translate(587.544062 250.972187)scale(0.1 -0.1)">
      <defs>
       <path d="M 2034 2216 
Q 1584 2216 1326 1975 
Q 1069 1734 1069 1313 
Q 1069 891 1326 650 
Q 1584 409 2034 409 
Q 2484 409 2743 651 
Q 3003 894 3003 1313 
Q 3003 1734 2745 1975 
Q 2488 2216 2034 2216 
z
M 1403 2484 
Q 997 2584 770 2862 
Q 544 3141 544 3541 
Q 544 4100 942 4425 
Q 1341 4750 2034 4750 
Q 2731 4750 3128 4425 
Q 3525 4100 3525 3541 
Q 3525 3141 3298 2862 
Q 3072 2584 2669 2484 
Q 3125 2378 3379 2068 
Q 3634 1759 3634 1313 
Q 3634 634 3220 271 
Q 2806 -91 2034 -91 
Q 1263 -91 848 271 
Q 434 634 434 1313 
Q 434 1759 690 2068 
Q 947 2378 1403 2484 
z
M 1172 3481 
Q 1172 3119 1398 2916 
Q 1625 2713 2034 2713 
Q 2441 2713 2670 2916 
Q 2900 3119 2900 3481 
Q 2900 3844 2670 4047 
Q 2441 4250 2034 4250 
Q 1625 4250 1398 4047 
Q 1172 3844 1172 3481 
z
" id="DejaVuSans-38" transform="scale(0.015625)"/>
      </defs>
      <use xlink:href="#DejaVuSans-31"/>
      <use x="63.623047" xlink:href="#DejaVuSans-65"/>
      <use x="125.146484" xlink:href="#DejaVuSans-38"/>
     </g>
    </g>
   </g>
   <g id="matplotlib.axis_2">
    <g id="ytick_1">
     <g id="line2d_13">
      <path clip-path="url(#p202af3f426)" d="M 48.422187 221.76 
L 606.422187 221.76 
" style="fill:none;stroke:#cccccc;stroke-linecap:square;"/>
     </g>
     <g id="line2d_14">
      <defs>
       <path d="M 0 0 
L -3.5 0 
" id="me0ced4a5c2" style="stroke:#000000;stroke-width:0.8;"/>
      </defs>
      <g>
       <use style="stroke:#000000;stroke-width:0.8;" x="48.422187" xlink:href="#me0ced4a5c2" y="221.76"/>
      </g>
     </g>
     <g id="text_9">
      <!-- 0 -->
      <g transform="translate(33.787188 226.319062)scale(0.12 -0.12)">
       <use xlink:href="#DejaVuSans-30"/>
      </g>
     </g>
    </g>
    <g id="ytick_2">
     <g id="line2d_15">
      <path clip-path="url(#p202af3f426)" d="M 48.422187 173.011243 
L 606.422187 173.011243 
" style="fill:none;stroke:#cccccc;stroke-linecap:square;"/>
     </g>
     <g id="line2d_16">
      <g>
       <use style="stroke:#000000;stroke-width:0.8;" x="48.422187" xlink:href="#me0ced4a5c2" y="173.011243"/>
      </g>
     </g>
     <g id="text_10">
      <!-- 50 -->
      <g transform="translate(26.152188 177.570305)scale(0.12 -0.12)">
       <use xlink:href="#DejaVuSans-35"/>
       <use x="63.623047" xlink:href="#DejaVuSans-30"/>
      </g>
     </g>
    </g>
    <g id="ytick_3">
     <g id="line2d_17">
      <path clip-path="url(#p202af3f426)" d="M 48.422187 124.262486 
L 606.422187 124.262486 
" style="fill:none;stroke:#cccccc;stroke-linecap:square;"/>
     </g>
     <g id="line2d_18">
      <g>
       <use style="stroke:#000000;stroke-width:0.8;" x="48.422187" xlink:href="#me0ced4a5c2" y="124.262486"/>
      </g>
     </g>
     <g id="text_11">
      <!-- 100 -->
      <g transform="translate(18.517188 128.821548)scale(0.12 -0.12)">
       <use xlink:href="#DejaVuSans-31"/>
       <use x="63.623047" xlink:href="#DejaVuSans-30"/>
       <use x="127.246094" xlink:href="#DejaVuSans-30"/>
      </g>
     </g>
    </g>
    <g id="ytick_4">
     <g id="line2d_19">
      <path clip-path="url(#p202af3f426)" d="M 48.422187 75.513729 
L 606.422187 75.513729 
" style="fill:none;stroke:#cccccc;stroke-linecap:square;"/>
     </g>
     <g id="line2d_20">
      <g>
       <use style="stroke:#000000;stroke-width:0.8;" x="48.422187" xlink:href="#me0ced4a5c2" y="75.513729"/>
      </g>
     </g>
     <g id="text_12">
      <!-- 150 -->
      <g transform="translate(18.517188 80.072791)scale(0.12 -0.12)">
       <use xlink:href="#DejaVuSans-31"/>
       <use x="63.623047" xlink:href="#DejaVuSans-35"/>
       <use x="127.246094" xlink:href="#DejaVuSans-30"/>
      </g>
     </g>
    </g>
    <g id="ytick_5">
     <g id="line2d_21">
      <path clip-path="url(#p202af3f426)" d="M 48.422187 26.764972 
L 606.422187 26.764972 
" style="fill:none;stroke:#cccccc;stroke-linecap:square;"/>
     </g>
     <g id="line2d_22">
      <g>
       <use style="stroke:#000000;stroke-width:0.8;" x="48.422187" xlink:href="#me0ced4a5c2" y="26.764972"/>
      </g>
     </g>
     <g id="text_13">
      <!-- 200 -->
      <g transform="translate(18.517188 31.324034)scale(0.12 -0.12)">
       <use xlink:href="#DejaVuSans-32"/>
       <use x="63.623047" xlink:href="#DejaVuSans-30"/>
       <use x="127.246094" xlink:href="#DejaVuSans-30"/>
      </g>
     </g>
    </g>
    <g id="text_14">
     <!-- GFLOP/s -->
     <g transform="translate(11.397656 141.771797)rotate(-90)scale(0.15 -0.15)">
      <defs>
       <path d="M 3809 666 
L 3809 1919 
L 2778 1919 
L 2778 2438 
L 4434 2438 
L 4434 434 
Q 4069 175 3628 42 
Q 3188 -91 2688 -91 
Q 1594 -91 976 548 
Q 359 1188 359 2328 
Q 359 3472 976 4111 
Q 1594 4750 2688 4750 
Q 3144 4750 3555 4637 
Q 3966 4525 4313 4306 
L 4313 3634 
Q 3963 3931 3569 4081 
Q 3175 4231 2741 4231 
Q 1884 4231 1454 3753 
Q 1025 3275 1025 2328 
Q 1025 1384 1454 906 
Q 1884 428 2741 428 
Q 3075 428 3337 486 
Q 3600 544 3809 666 
z
" id="DejaVuSans-47" transform="scale(0.015625)"/>
       <path d="M 628 4666 
L 3309 4666 
L 3309 4134 
L 1259 4134 
L 1259 2759 
L 3109 2759 
L 3109 2228 
L 1259 2228 
L 1259 0 
L 628 0 
L 628 4666 
z
" id="DejaVuSans-46" transform="scale(0.015625)"/>
       <path d="M 628 4666 
L 1259 4666 
L 1259 531 
L 3531 531 
L 3531 0 
L 628 0 
L 628 4666 
z
" id="DejaVuSans-4c" transform="scale(0.015625)"/>
       <path d="M 2522 4238 
Q 1834 4238 1429 3725 
Q 1025 3213 1025 2328 
Q 1025 1447 1429 934 
Q 1834 422 2522 422 
Q 3209 422 3611 934 
Q 4013 1447 4013 2328 
Q 4013 3213 3611 3725 
Q 3209 4238 2522 4238 
z
M 2522 4750 
Q 3503 4750 4090 4092 
Q 4678 3434 4678 2328 
Q 4678 1225 4090 567 
Q 3503 -91 2522 -91 
Q 1538 -91 948 565 
Q 359 1222 359 2328 
Q 359 3434 948 4092 
Q 1538 4750 2522 4750 
z
" id="DejaVuSans-4f" transform="scale(0.015625)"/>
       <path d="M 1259 4147 
L 1259 2394 
L 2053 2394 
Q 2494 2394 2734 2622 
Q 2975 2850 2975 3272 
Q 2975 3691 2734 3919 
Q 2494 4147 2053 4147 
L 1259 4147 
z
M 628 4666 
L 2053 4666 
Q 2838 4666 3239 4311 
Q 3641 3956 3641 3272 
Q 3641 2581 3239 2228 
Q 2838 1875 2053 1875 
L 1259 1875 
L 1259 0 
L 628 0 
L 628 4666 
z
" id="DejaVuSans-50" transform="scale(0.015625)"/>
       <path d="M 1625 4666 
L 2156 4666 
L 531 -594 
L 0 -594 
L 1625 4666 
z
" id="DejaVuSans-2f" transform="scale(0.015625)"/>
      </defs>
      <use xlink:href="#DejaVuSans-47"/>
      <use x="77.490234" xlink:href="#DejaVuSans-46"/>
      <use x="135.009766" xlink:href="#DejaVuSans-4c"/>
      <use x="187.097656" xlink:href="#DejaVuSans-4f"/>
      <use x="265.808594" xlink:href="#DejaVuSans-50"/>
      <use x="326.111328" xlink:href="#DejaVuSans-2f"/>
      <use x="359.802734" xlink:href="#DejaVuSans-73"/>
     </g>
    </g>
   </g>
   <g id="patch_3">
    <path d="M 48.422187 221.76 
L 48.422187 -0 
" style="fill:none;stroke:#000000;stroke-linecap:square;stroke-linejoin:miter;stroke-width:0.8;"/>
   </g>
   <g id="patch_4">
    <path d="M 606.422187 221.76 
L 606.422187 -0 
" style="fill:none;stroke:#000000;stroke-linecap:square;stroke-linejoin:miter;stroke-width:0.8;"/>
   </g>
   <g id="patch_5">
    <path d="M 48.422187 221.76 
L 606.422187 221.76 
" style="fill:none;stroke:#000000;stroke-linecap:square;stroke-linejoin:miter;stroke-width:0.8;"/>
   </g>
   <g id="patch_6">
    <path d="M 48.422187 -0 
L 606.422187 -0 
" style="fill:none;stroke:#000000;stroke-linecap:square;stroke-linejoin:miter;stroke-width:0.8;"/>
   </g>
   <g id="line2d_23">
    <path clip-path="url(#p202af3f426)" d="M 73.785824 185.703244 
L 75.685722 141.616284 
L 77.58562 131.804374 
L 79.485517 126.67494 
L 81.385415 124.314463 
L 83.285313 121.775603 
L 85.185211 120.343119 
L 87.085109 118.68837 
L 88.985007 118.220664 
L 90.884905 117.210339 
L 92.784802 116.870257 
L 94.6847 115.648042 
L 96.584598 116.603749 
L 98.484496 115.934404 
L 102.284292 115.402568 
L 104.18419 115.35264 
L 109.883883 114.763384 
L 111.783781 114.827379 
L 115.583577 114.507781 
L 119.383372 114.435991 
L 126.982964 114.289202 
L 130.78276 114.149193 
L 136.482453 113.99702 
L 166.880819 113.512043 
L 168.780717 113.563692 
L 172.580512 113.419342 
L 183.979899 113.364376 
L 185.879797 113.286014 
L 187.779695 113.379267 
L 199.179082 113.232862 
L 204.878776 113.283063 
L 208.678572 113.268246 
L 214.378265 113.270865 
L 220.077959 113.210931 
L 229.577448 113.211306 
L 237.177039 113.106192 
L 240.976835 113.032465 
L 242.876733 113.150589 
L 250.476324 113.046513 
L 252.376222 113.14387 
L 254.27612 113.032218 
L 258.075916 113.124879 
L 259.975814 113.204604 
L 261.875712 113.003386 
L 263.775609 113.065549 
L 265.675507 112.978347 
L 267.575405 113.139776 
L 282.774588 113.069643 
L 290.374179 113.156685 
L 296.073873 113.075477 
L 299.873669 113.06763 
L 309.373158 113.09699 
L 311.273056 112.996879 
L 313.172954 113.152017 
L 316.972749 112.935222 
L 320.772545 113.049941 
L 347.371115 113.028448 
L 349.271013 113.117818 
L 353.070809 113.03269 
L 360.6704 113.08287 
L 362.570298 113.124541 
L 364.470196 112.989461 
L 370.169889 113.132347 
L 372.069787 113.018547 
L 373.969685 113.180679 
L 377.769481 113.099347 
L 385.369072 113.123295 
L 387.26897 113.033792 
L 389.168868 113.206602 
L 392.968663 113.065031 
L 396.768459 113.120466 
L 400.568255 113.061149 
L 402.468153 113.116895 
L 406.267948 113.059733 
L 410.067744 113.15559 
L 411.967642 112.995318 
L 413.86754 113.106324 
L 415.767438 113.075375 
L 417.667336 113.178163 
L 419.567233 113.0458 
L 423.367029 113.179638 
L 427.166825 113.124201 
L 429.066723 113.246035 
L 430.966621 113.066285 
L 432.866518 113.180627 
L 436.666314 113.13118 
L 442.366008 113.08201 
L 448.065701 113.101037 
L 449.965599 113.220188 
L 451.865497 113.166942 
L 453.765395 113.247339 
L 457.565191 113.108689 
L 463.264884 113.184039 
L 465.164782 113.076915 
L 470.864476 113.279607 
L 472.764373 113.108951 
L 474.664271 113.177755 
L 476.564169 113.117905 
L 478.464067 113.234915 
L 480.363965 113.133008 
L 489.863454 113.247726 
L 491.763352 113.21831 
L 493.66325 113.359608 
L 497.463046 113.082142 
L 499.362943 113.288348 
L 501.262841 113.16167 
L 505.062637 113.238838 
L 514.562126 113.237126 
L 520.26182 113.25271 
L 524.061615 113.222461 
L 544.960492 113.272074 
L 546.86039 113.243666 
L 548.760288 113.381551 
L 552.560083 113.263468 
L 554.459981 113.350165 
L 556.359879 113.287544 
L 560.159675 113.351853 
L 562.059573 113.226174 
L 569.659164 113.380984 
L 571.559062 113.181063 
L 577.258755 113.33341 
L 579.158653 113.307348 
L 581.058551 113.09742 
L 581.058551 113.09742 
" style="fill:none;stroke:#a2142f;stroke-linecap:square;stroke-width:3;"/>
    <defs>
     <path d="M -2.5 5 
L 0 2.5 
L 2.5 5 
L 5 2.5 
L 2.5 0 
L 5 -2.5 
L 2.5 -5 
L 0 -2.5 
L -2.5 -5 
L -5 -2.5 
L -2.5 0 
L -5 2.5 
z
" id="mf7f45e09ce" style="stroke:#a2142f;stroke-linejoin:miter;"/>
    </defs>
    <g clip-path="url(#p202af3f426)">
     <use style="fill:#a2142f;stroke:#a2142f;stroke-linejoin:miter;" x="73.785824" xlink:href="#mf7f45e09ce" y="185.703244"/>
     <use style="fill:#a2142f;stroke:#a2142f;stroke-linejoin:miter;" x="174.48041" xlink:href="#mf7f45e09ce" y="113.423126"/>
     <use style="fill:#a2142f;stroke:#a2142f;stroke-linejoin:miter;" x="275.174996" xlink:href="#mf7f45e09ce" y="113.02876"/>
     <use style="fill:#a2142f;stroke:#a2142f;stroke-linejoin:miter;" x="375.869583" xlink:href="#mf7f45e09ce" y="113.106987"/>
     <use style="fill:#a2142f;stroke:#a2142f;stroke-linejoin:miter;" x="476.564169" xlink:href="#mf7f45e09ce" y="113.117905"/>
     <use style="fill:#a2142f;stroke:#a2142f;stroke-linejoin:miter;" x="577.258755" xlink:href="#mf7f45e09ce" y="113.33341"/>
    </g>
   </g>
   <g id="line2d_24">
    <path clip-path="url(#p202af3f426)" d="M 73.785824 180.780905 
L 75.685722 117.714576 
L 77.58562 81.998674 
L 79.485517 66.141026 
L 81.385415 52.545718 
L 83.285313 43.205022 
L 85.185211 38.642271 
L 87.085109 30.498398 
L 90.884905 24.958542 
L 92.784802 21.250002 
L 94.6847 21.427425 
L 96.584598 20.942887 
L 98.484496 18.690317 
L 102.284292 17.365465 
L 104.18419 16.147914 
L 106.084087 15.616749 
L 107.983985 15.273144 
L 109.883883 14.512946 
L 111.783781 13.631564 
L 113.683679 13.506496 
L 117.483475 12.618087 
L 119.383372 12.416856 
L 121.28327 11.976464 
L 128.882862 11.131337 
L 130.78276 11.302933 
L 132.682657 11.244286 
L 134.582555 10.920201 
L 138.382351 10.951256 
L 142.182147 11.038824 
L 144.082044 10.704498 
L 147.88184 10.436915 
L 151.681636 9.946474 
L 153.581534 10.029818 
L 155.481432 10.295014 
L 157.381329 10.05296 
L 159.281227 10.257562 
L 161.181125 10.16896 
L 163.081023 10.393172 
L 166.880819 10.421456 
L 170.680614 10.112642 
L 174.48041 9.867434 
L 176.380308 10.062201 
L 178.280206 10.084164 
L 180.180104 9.890395 
L 183.979899 9.704854 
L 185.879797 9.196897 
L 187.779695 9.580157 
L 189.679593 9.757922 
L 191.579491 8.917543 
L 193.479389 9.398849 
L 195.379287 9.40521 
L 197.279184 9.794807 
L 199.179082 9.72847 
L 202.978878 9.234231 
L 204.878776 9.620424 
L 208.678572 8.843012 
L 210.578469 9.245577 
L 212.478367 9.202835 
L 214.378265 9.03172 
L 216.278163 9.498413 
L 218.178061 9.212133 
L 220.077959 9.219848 
L 221.977857 9.543248 
L 223.877754 9.122777 
L 225.777652 9.508539 
L 227.67755 9.421469 
L 229.577448 9.650142 
L 231.477346 9.319952 
L 233.377244 9.17666 
L 235.277142 9.3011 
L 237.177039 9.002548 
L 239.076937 9.684535 
L 240.976835 9.498131 
L 244.776631 9.525431 
L 246.676529 10.108586 
L 248.576427 9.4916 
L 250.476324 9.724091 
L 252.376222 9.756215 
L 254.27612 9.957385 
L 256.176018 9.42046 
L 258.075916 9.42446 
L 259.975814 10.068644 
L 261.875712 9.588233 
L 263.775609 9.785039 
L 265.675507 9.567099 
L 267.575405 10.008286 
L 269.475303 9.682381 
L 271.375201 9.729492 
L 273.275099 9.471183 
L 275.174996 9.938602 
L 277.074894 9.807163 
L 278.974792 9.868324 
L 280.87469 9.405852 
L 282.774588 9.700417 
L 284.674486 10.157084 
L 286.574384 9.997121 
L 288.474281 9.690288 
L 292.274077 9.96675 
L 294.173975 9.661654 
L 296.073873 9.546608 
L 297.973771 9.857091 
L 299.873669 9.754892 
L 301.773566 10.042628 
L 303.673464 9.949859 
L 307.47326 9.965467 
L 309.373158 9.970109 
L 311.273056 9.539796 
L 313.172954 9.655801 
L 315.072851 9.98364 
L 322.672443 10.065061 
L 324.572341 10.135266 
L 326.472239 9.672128 
L 328.372136 9.878743 
L 332.171932 9.896611 
L 334.07183 9.839715 
L 335.971728 10.081338 
L 337.871626 9.6145 
L 339.771524 10.074844 
L 341.671421 10.007988 
L 343.571319 9.683361 
L 345.471217 9.915425 
L 347.371115 9.669773 
L 349.271013 9.845614 
L 351.170911 10.191895 
L 353.070809 10.161913 
L 354.970706 10.522593 
L 358.770502 10.213464 
L 360.6704 10.368226 
L 362.570298 10.106979 
L 364.470196 10.128977 
L 368.269991 10.49293 
L 372.069787 10.342319 
L 373.969685 10.466153 
L 375.869583 10.33564 
L 379.669379 10.410862 
L 381.569276 10.571696 
L 383.469174 10.468518 
L 385.369072 10.602506 
L 387.26897 10.422939 
L 389.168868 10.930888 
L 394.868561 10.447394 
L 396.768459 10.486639 
L 398.668357 10.870684 
L 400.568255 10.701522 
L 404.368051 10.915248 
L 406.267948 10.667584 
L 408.167846 11.034972 
L 410.067744 10.948017 
L 411.967642 10.712604 
L 413.86754 10.949615 
L 415.767438 11.052373 
L 417.667336 11.025487 
L 419.567233 11.218349 
L 421.467131 10.94674 
L 423.367029 11.149914 
L 425.266927 10.62344 
L 427.166825 10.879629 
L 430.966621 10.744356 
L 432.866518 10.866613 
L 438.566212 10.882435 
L 440.46611 10.510431 
L 442.366008 10.770092 
L 444.265906 11.309395 
L 446.165803 10.68411 
L 448.065701 10.620443 
L 449.965599 10.940208 
L 451.865497 10.702149 
L 455.665293 10.700573 
L 457.565191 11.040401 
L 459.465088 10.68646 
L 461.364986 11.105019 
L 463.264884 10.549789 
L 467.06468 10.882602 
L 468.964578 10.728616 
L 472.764373 10.673023 
L 474.664271 10.52537 
L 476.564169 10.714814 
L 478.464067 11.031926 
L 480.363965 10.626285 
L 482.263863 10.986814 
L 484.163761 10.76398 
L 486.063658 11.637706 
L 487.963556 11.059137 
L 495.563148 11.170976 
L 497.463046 11.605246 
L 499.362943 11.658644 
L 501.262841 11.59749 
L 503.162739 11.281957 
L 505.062637 11.685402 
L 506.962535 11.382056 
L 508.862433 11.681815 
L 514.562126 11.437958 
L 516.462024 11.589487 
L 520.26182 11.43278 
L 524.061615 11.818934 
L 525.961513 11.491647 
L 527.861411 11.824962 
L 529.761309 11.634534 
L 531.661207 11.971542 
L 533.561105 11.713696 
L 535.461003 11.882736 
L 537.3609 11.807796 
L 539.260798 12.002848 
L 541.160696 11.941304 
L 543.060594 12.080103 
L 546.86039 11.939075 
L 552.560083 12.308232 
L 554.459981 12.031161 
L 558.259777 12.104347 
L 560.159675 11.967434 
L 563.95947 11.995612 
L 565.859368 12.265179 
L 569.659164 12.119832 
L 571.559062 11.892442 
L 573.45896 12.118895 
L 575.358858 12.012043 
L 577.258755 12.31747 
L 579.158653 12.381072 
L 581.058551 12.251813 
L 581.058551 12.251813 
" style="fill:none;stroke:#77ac30;stroke-linecap:square;stroke-width:3;"/>
    <defs>
     <path d="M -1.666667 5 
L 1.666667 5 
L 1.666667 1.666667 
L 5 1.666667 
L 5 -1.666667 
L 1.666667 -1.666667 
L 1.666667 -5 
L -1.666667 -5 
L -1.666667 -1.666667 
L -5 -1.666667 
L -5 1.666667 
L -1.666667 1.666667 
z
" id="m796d270dc9" style="stroke:#77ac30;stroke-linejoin:miter;"/>
    </defs>
    <g clip-path="url(#p202af3f426)">
     <use style="fill:#77ac30;stroke:#77ac30;stroke-linejoin:miter;" x="92.784802" xlink:href="#m796d270dc9" y="21.250002"/>
     <use style="fill:#77ac30;stroke:#77ac30;stroke-linejoin:miter;" x="193.479389" xlink:href="#m796d270dc9" y="9.398849"/>
     <use style="fill:#77ac30;stroke:#77ac30;stroke-linejoin:miter;" x="294.173975" xlink:href="#m796d270dc9" y="9.661654"/>
     <use style="fill:#77ac30;stroke:#77ac30;stroke-linejoin:miter;" x="394.868561" xlink:href="#m796d270dc9" y="10.447394"/>
     <use style="fill:#77ac30;stroke:#77ac30;stroke-linejoin:miter;" x="495.563148" xlink:href="#m796d270dc9" y="11.170976"/>
    </g>
   </g>
   <g id="line2d_25">
    <path clip-path="url(#p202af3f426)" d="M 73.785824 185.227677 
L 75.685722 129.386168 
L 77.58562 94.438774 
L 79.485517 76.969918 
L 83.285313 49.491851 
L 85.185211 45.291459 
L 87.085109 37.996603 
L 88.985007 32.587046 
L 92.784802 26.898594 
L 94.6847 26.098019 
L 96.584598 22.804971 
L 98.484496 22.042769 
L 100.384394 21.107967 
L 102.284292 19.985347 
L 104.18419 19.070137 
L 106.084087 17.276958 
L 107.983985 17.388178 
L 109.883883 16.39343 
L 111.783781 15.691562 
L 113.683679 15.717253 
L 115.583577 14.932607 
L 117.483475 14.659748 
L 123.183168 13.115704 
L 125.083066 13.04926 
L 128.882862 12.674747 
L 132.682657 12.791277 
L 134.582555 12.645568 
L 136.482453 12.647715 
L 138.382351 12.399841 
L 140.282249 12.459433 
L 144.082044 12.204503 
L 145.981942 12.142951 
L 147.88184 11.810164 
L 149.781738 11.832662 
L 151.681636 11.505025 
L 153.581534 11.482494 
L 155.481432 11.827424 
L 159.281227 11.412869 
L 161.181125 11.83064 
L 163.081023 11.933087 
L 164.980921 11.583752 
L 166.880819 11.694585 
L 172.580512 11.532485 
L 176.380308 11.709155 
L 178.280206 11.184668 
L 180.180104 11.115392 
L 182.080002 10.769314 
L 183.979899 11.102118 
L 185.879797 10.688026 
L 187.779695 11.101739 
L 189.679593 11.063074 
L 191.579491 10.176845 
L 193.479389 10.6271 
L 195.379287 10.784483 
L 197.279184 11.192629 
L 199.179082 10.656343 
L 202.978878 10.471375 
L 204.878776 10.324733 
L 206.778674 10.800252 
L 208.678572 10.320606 
L 210.578469 10.833469 
L 214.378265 10.668773 
L 216.278163 10.327578 
L 221.977857 10.545881 
L 223.877754 10.82175 
L 225.777652 10.564006 
L 227.67755 10.473911 
L 229.577448 10.935497 
L 231.477346 10.515046 
L 233.377244 10.541381 
L 235.277142 10.746716 
L 239.076937 10.78801 
L 240.976835 10.665495 
L 242.876733 11.039331 
L 244.776631 11.531919 
L 246.676529 10.62553 
L 248.576427 11.200409 
L 250.476324 10.455425 
L 252.376222 11.051706 
L 256.176018 10.719798 
L 258.075916 10.72173 
L 259.975814 11.204844 
L 261.875712 10.747531 
L 263.775609 11.195345 
L 265.675507 11.407359 
L 269.475303 10.820819 
L 271.375201 11.222682 
L 273.275099 10.985015 
L 275.174996 11.141639 
L 278.974792 11.127301 
L 280.87469 10.81565 
L 282.774588 10.839613 
L 286.574384 11.326448 
L 288.474281 11.162584 
L 290.374179 10.822929 
L 296.073873 11.051691 
L 297.973771 10.835076 
L 299.873669 10.92729 
L 301.773566 11.150885 
L 305.573362 11.075597 
L 307.47326 11.192159 
L 309.373158 11.128496 
L 311.273056 10.626653 
L 315.072851 11.220374 
L 316.972749 10.894775 
L 318.872647 10.894888 
L 320.772545 11.232733 
L 324.572341 11.301947 
L 326.472239 10.900779 
L 328.372136 10.82758 
L 330.272034 11.121436 
L 332.171932 10.935691 
L 334.07183 10.954074 
L 337.871626 11.313517 
L 339.771524 11.408883 
L 341.671421 10.965675 
L 345.471217 11.274399 
L 347.371115 10.724524 
L 349.271013 11.036767 
L 351.170911 11.080657 
L 353.070809 11.488583 
L 354.970706 11.350216 
L 356.870604 11.502678 
L 360.6704 11.525994 
L 362.570298 11.324388 
L 364.470196 11.281434 
L 366.370094 11.410704 
L 368.269991 11.360768 
L 370.169889 11.457641 
L 373.969685 11.434721 
L 375.869583 11.833471 
L 377.769481 11.595403 
L 379.669379 11.772798 
L 381.569276 11.58029 
L 383.469174 11.52964 
L 385.369072 11.307388 
L 387.26897 11.699509 
L 389.168868 11.38117 
L 391.068766 11.614415 
L 392.968663 11.64464 
L 394.868561 11.541957 
L 398.668357 11.798577 
L 402.468153 11.640217 
L 404.368051 11.615283 
L 406.267948 12.113873 
L 410.067744 11.711536 
L 411.967642 11.88741 
L 413.86754 11.722798 
L 415.767438 11.99271 
L 417.667336 12.145797 
L 419.567233 11.622151 
L 421.467131 11.774157 
L 423.367029 11.692971 
L 425.266927 12.043436 
L 427.166825 11.731184 
L 429.066723 12.135287 
L 430.966621 11.973769 
L 432.866518 12.000563 
L 434.766416 11.580876 
L 438.566212 12.015518 
L 442.366008 11.881633 
L 444.265906 11.68237 
L 446.165803 11.893846 
L 448.065701 11.90718 
L 449.965599 11.730905 
L 453.765395 11.883295 
L 455.665293 11.607271 
L 461.364986 11.933244 
L 463.264884 11.988049 
L 465.164782 11.788566 
L 467.06468 11.766913 
L 468.964578 11.406437 
L 470.864476 11.72075 
L 472.764373 11.847522 
L 474.664271 11.567508 
L 476.564169 11.976473 
L 478.464067 12.03744 
L 480.363965 11.801437 
L 482.263863 11.867789 
L 484.163761 12.398005 
L 487.963556 12.415747 
L 489.863454 12.136612 
L 499.362943 12.503864 
L 501.262841 12.733995 
L 503.162739 12.340658 
L 505.062637 12.326489 
L 506.962535 12.439967 
L 508.862433 12.336164 
L 512.662228 12.601856 
L 514.562126 12.563731 
L 516.462024 12.813245 
L 520.26182 12.68914 
L 522.161718 12.546602 
L 525.961513 12.814226 
L 527.861411 12.739007 
L 529.761309 12.881918 
L 531.661207 12.83379 
L 533.561105 12.50342 
L 537.3609 12.7547 
L 539.260798 12.798324 
L 541.160696 13.020141 
L 544.960492 13.060878 
L 546.86039 13.292724 
L 548.760288 12.773828 
L 550.660185 12.82488 
L 552.560083 13.168608 
L 554.459981 13.203458 
L 556.359879 12.893966 
L 558.259777 12.837217 
L 560.159675 13.246471 
L 562.059573 12.772286 
L 563.95947 12.98397 
L 567.759266 12.847304 
L 569.659164 13.050646 
L 571.559062 12.960848 
L 573.45896 13.163373 
L 575.358858 12.881873 
L 577.258755 13.009278 
L 579.158653 12.665491 
L 581.058551 12.972335 
L 581.058551 12.972335 
" style="fill:none;stroke:#0072bd;stroke-linecap:square;stroke-width:3;"/>
    <defs>
     <path d="M -5 5 
L 5 -5 
M -5 -5 
L 5 5 
" id="mb8ee81e63f" style="stroke:#0072bd;"/>
    </defs>
    <g clip-path="url(#p202af3f426)">
     <use style="fill:#0072bd;stroke:#0072bd;" x="111.783781" xlink:href="#mb8ee81e63f" y="15.691562"/>
     <use style="fill:#0072bd;stroke:#0072bd;" x="212.478367" xlink:href="#mb8ee81e63f" y="10.750042"/>
     <use style="fill:#0072bd;stroke:#0072bd;" x="313.172954" xlink:href="#mb8ee81e63f" y="10.978166"/>
     <use style="fill:#0072bd;stroke:#0072bd;" x="413.86754" xlink:href="#mb8ee81e63f" y="11.722798"/>
     <use style="fill:#0072bd;stroke:#0072bd;" x="514.562126" xlink:href="#mb8ee81e63f" y="12.563731"/>
    </g>
   </g>
   <g id="line2d_26">
    <path clip-path="url(#p202af3f426)" d="M 73.785824 178.665295 
L 75.685722 149.130758 
L 77.58562 138.377485 
L 79.485517 131.940757 
L 81.385415 128.076451 
L 83.285313 125.646525 
L 85.185211 122.627568 
L 88.985007 120.190136 
L 90.884905 119.391923 
L 92.784802 118.769669 
L 94.6847 118.569985 
L 96.584598 118.092178 
L 98.484496 117.806597 
L 100.384394 117.096265 
L 102.284292 117.117066 
L 104.18419 116.714491 
L 113.683679 115.604119 
L 117.483475 115.473747 
L 121.28327 115.122618 
L 126.982964 115.005977 
L 128.882862 114.7339 
L 130.78276 114.796387 
L 134.582555 114.533583 
L 138.382351 114.503032 
L 140.282249 114.486381 
L 142.182147 114.302175 
L 144.082044 114.359912 
L 147.88184 114.221972 
L 151.681636 114.273208 
L 153.581534 114.135113 
L 157.381329 114.189007 
L 159.281227 113.9528 
L 161.181125 114.084995 
L 163.081023 113.928854 
L 164.980921 114.065971 
L 166.880819 114.041645 
L 168.780717 113.899317 
L 170.680614 113.943971 
L 174.48041 113.862363 
L 178.280206 113.898455 
L 180.180104 113.749738 
L 185.879797 113.878284 
L 187.779695 113.771343 
L 189.679593 113.873062 
L 191.579491 113.691482 
L 193.479389 113.844101 
L 195.379287 113.735364 
L 199.179082 113.733388 
L 201.07898 113.581148 
L 202.978878 113.792995 
L 204.878776 113.707889 
L 206.778674 113.775932 
L 210.578469 113.544193 
L 223.877754 113.62469 
L 225.777652 113.532803 
L 231.477346 113.529094 
L 237.177039 113.625557 
L 239.076937 113.361704 
L 242.876733 113.573948 
L 244.776631 113.455493 
L 254.27612 113.542748 
L 256.176018 113.404978 
L 258.075916 113.660533 
L 259.975814 113.434804 
L 263.775609 113.552412 
L 267.575405 113.470278 
L 269.475303 113.405698 
L 271.375201 113.489752 
L 273.275099 113.411625 
L 275.174996 113.52383 
L 277.074894 113.444207 
L 278.974792 113.587615 
L 288.474281 113.361092 
L 292.274077 113.566396 
L 294.173975 113.431492 
L 296.073873 113.57307 
L 299.873669 113.447558 
L 303.673464 113.289363 
L 305.573362 113.393652 
L 307.47326 113.383019 
L 309.373158 113.487793 
L 313.172954 113.373454 
L 315.072851 113.511311 
L 318.872647 113.328576 
L 320.772545 113.669812 
L 322.672443 113.408556 
L 324.572341 113.394894 
L 326.472239 113.571704 
L 328.372136 113.587782 
L 330.272034 113.469565 
L 337.871626 113.426319 
L 339.771524 113.370798 
L 343.571319 113.516864 
L 347.371115 113.518986 
L 349.271013 113.352935 
L 351.170911 113.449468 
L 353.070809 113.27416 
L 356.870604 113.601457 
L 362.570298 113.395004 
L 364.470196 113.528771 
L 375.869583 113.432148 
L 377.769481 113.569337 
L 379.669379 113.354552 
L 381.569276 113.331864 
L 383.469174 113.491531 
L 385.369072 113.382872 
L 387.26897 113.486131 
L 391.068766 113.433741 
L 392.968663 113.575242 
L 396.768459 113.415592 
L 400.568255 113.506684 
L 410.067744 113.361844 
L 415.767438 113.51925 
L 417.667336 113.396791 
L 419.567233 113.578283 
L 429.066723 113.389612 
L 430.966621 113.643815 
L 432.866518 113.321338 
L 436.666314 113.566279 
L 438.566212 113.378134 
L 440.46611 113.615475 
L 442.366008 113.4757 
L 444.265906 113.539896 
L 446.165803 113.429186 
L 468.964578 113.430125 
L 470.864476 113.641136 
L 472.764373 113.486809 
L 489.863454 113.519506 
L 491.763352 113.42528 
L 493.66325 113.498725 
L 495.563148 113.405837 
L 497.463046 113.599992 
L 499.362943 113.415913 
L 505.062637 113.506203 
L 506.962535 113.31912 
L 510.762331 113.631038 
L 514.562126 113.598351 
L 524.061615 113.489609 
L 525.961513 113.521202 
L 527.861411 113.440484 
L 529.761309 113.628658 
L 531.661207 113.53121 
L 533.561105 113.637304 
L 535.461003 113.479821 
L 539.260798 113.533078 
L 541.160696 113.66623 
L 550.660185 113.547422 
L 562.059573 113.539444 
L 567.759266 113.419263 
L 569.659164 113.614518 
L 571.559062 113.522339 
L 573.45896 113.272241 
L 575.358858 113.526365 
L 577.258755 113.6139 
L 579.158653 113.585838 
L 581.058551 113.440769 
L 581.058551 113.440769 
" style="fill:none;stroke:#d95319;stroke-linecap:square;stroke-width:3;"/>
    <defs>
     <path d="M -0 7.071068 
L 4.242641 0 
L -0 -7.071068 
L -4.242641 -0 
z
" id="m02522dbeea" style="stroke:#d95319;stroke-linejoin:miter;"/>
    </defs>
    <g clip-path="url(#p202af3f426)">
     <use style="fill:#d95319;stroke:#d95319;stroke-linejoin:miter;" x="130.78276" xlink:href="#m02522dbeea" y="114.796387"/>
     <use style="fill:#d95319;stroke:#d95319;stroke-linejoin:miter;" x="231.477346" xlink:href="#m02522dbeea" y="113.529094"/>
     <use style="fill:#d95319;stroke:#d95319;stroke-linejoin:miter;" x="332.171932" xlink:href="#m02522dbeea" y="113.472795"/>
     <use style="fill:#d95319;stroke:#d95319;stroke-linejoin:miter;" x="432.866518" xlink:href="#m02522dbeea" y="113.321338"/>
     <use style="fill:#d95319;stroke:#d95319;stroke-linejoin:miter;" x="533.561105" xlink:href="#m02522dbeea" y="113.637304"/>
    </g>
   </g>
   <g id="line2d_27">
    <path clip-path="url(#p202af3f426)" d="M 73.785824 166.813274 
L 75.685722 113.653664 
L 77.58562 84.144965 
L 79.485517 70.01628 
L 81.385415 57.2165 
L 83.285313 51.504631 
L 85.185211 41.681065 
L 87.085109 38.033532 
L 88.985007 32.656113 
L 90.884905 31.99063 
L 92.784802 26.957922 
L 94.6847 28.685649 
L 96.584598 25.521614 
L 98.484496 24.129914 
L 100.384394 22.600477 
L 102.284292 22.223264 
L 104.18419 21.292824 
L 106.084087 19.75601 
L 107.983985 19.278633 
L 109.883883 18.91757 
L 111.783781 17.794477 
L 117.483475 16.823367 
L 119.383372 16.03716 
L 123.183168 15.685147 
L 125.083066 15.362847 
L 126.982964 14.383508 
L 128.882862 14.447064 
L 130.78276 14.077995 
L 132.682657 14.606725 
L 134.582555 13.907538 
L 138.382351 13.499056 
L 142.182147 12.830223 
L 144.082044 13.32272 
L 145.981942 12.861569 
L 147.88184 12.848839 
L 149.781738 12.21588 
L 151.681636 12.738894 
L 153.581534 12.205623 
L 155.481432 12.184291 
L 157.381329 12.721333 
L 159.281227 12.25527 
L 163.081023 12.327822 
L 164.980921 11.993991 
L 166.880819 12.015938 
L 168.780717 12.29398 
L 170.680614 12.155329 
L 172.580512 12.255278 
L 174.48041 12.203336 
L 176.380308 12.311896 
L 178.280206 11.903336 
L 182.080002 12.245438 
L 183.979899 11.852569 
L 185.879797 11.818561 
L 189.679593 11.293817 
L 191.579491 11.415555 
L 193.479389 12.13124 
L 195.379287 12.073238 
L 197.279184 11.851538 
L 199.179082 11.956976 
L 201.07898 11.823724 
L 204.878776 11.066328 
L 206.778674 11.651461 
L 208.678572 10.668915 
L 210.578469 11.05982 
L 212.478367 10.844438 
L 220.077959 11.738833 
L 221.977857 11.488255 
L 223.877754 11.453601 
L 225.777652 10.886312 
L 227.67755 11.955609 
L 229.577448 11.83786 
L 231.477346 11.405843 
L 233.377244 11.352701 
L 235.277142 11.712289 
L 237.177039 11.388649 
L 239.076937 11.387327 
L 240.976835 10.77287 
L 242.876733 11.534808 
L 244.776631 10.707231 
L 246.676529 11.318822 
L 250.476324 11.422726 
L 252.376222 11.861991 
L 254.27612 10.935714 
L 256.176018 11.598497 
L 258.075916 11.999562 
L 259.975814 11.440939 
L 263.775609 11.31473 
L 265.675507 11.228364 
L 267.575405 11.367088 
L 269.475303 11.239763 
L 275.174996 11.877292 
L 277.074894 10.983609 
L 278.974792 11.036669 
L 280.87469 11.616205 
L 282.774588 11.143119 
L 284.674486 11.574287 
L 288.474281 11.744506 
L 290.374179 11.293779 
L 292.274077 11.466536 
L 294.173975 10.815004 
L 296.073873 11.376737 
L 297.973771 11.709403 
L 299.873669 11.642107 
L 301.773566 11.386213 
L 303.673464 11.397239 
L 305.573362 11.63013 
L 309.373158 11.769815 
L 311.273056 11.633156 
L 313.172954 11.360758 
L 315.072851 11.519483 
L 316.972749 11.807895 
L 318.872647 11.63045 
L 322.672443 12.213013 
L 324.572341 11.428045 
L 326.472239 12.096377 
L 328.372136 11.716813 
L 332.171932 11.545767 
L 334.07183 11.925479 
L 335.971728 12.077185 
L 337.871626 12.014525 
L 339.771524 11.829259 
L 341.671421 11.978567 
L 343.571319 11.935617 
L 345.471217 12.247736 
L 349.271013 12.070878 
L 353.070809 12.362996 
L 354.970706 11.938126 
L 356.870604 12.430301 
L 358.770502 12.140341 
L 360.6704 12.044167 
L 362.570298 11.83067 
L 364.470196 12.210342 
L 366.370094 12.089973 
L 368.269991 12.1033 
L 370.169889 11.881137 
L 372.069787 12.24612 
L 373.969685 12.012517 
L 375.869583 12.317519 
L 377.769481 11.699224 
L 379.669379 11.904896 
L 381.569276 11.936586 
L 383.469174 12.303095 
L 385.369072 12.382172 
L 387.26897 11.957346 
L 391.068766 12.831761 
L 392.968663 12.122977 
L 394.868561 12.237056 
L 396.768459 11.937339 
L 398.668357 12.506978 
L 400.568255 12.768222 
L 402.468153 12.908287 
L 404.368051 12.66695 
L 406.267948 13.069148 
L 408.167846 12.484432 
L 410.067744 12.83137 
L 411.967642 12.527296 
L 413.86754 12.504349 
L 415.767438 12.984145 
L 417.667336 13.002378 
L 419.567233 12.710427 
L 421.467131 12.866675 
L 423.367029 12.613278 
L 425.266927 13.057915 
L 427.166825 12.593216 
L 429.066723 12.507698 
L 430.966621 12.073336 
L 432.866518 12.674715 
L 434.766416 12.456289 
L 436.666314 13.110701 
L 438.566212 12.337564 
L 440.46611 12.478915 
L 442.366008 13.540868 
L 444.265906 12.26054 
L 446.165803 12.838574 
L 448.065701 12.912286 
L 449.965599 13.118446 
L 451.865497 12.92469 
L 453.765395 13.050296 
L 455.665293 12.62206 
L 457.565191 13.483844 
L 459.465088 13.047151 
L 461.364986 13.139887 
L 463.264884 12.674547 
L 465.164782 13.080447 
L 467.06468 13.312629 
L 468.964578 12.639024 
L 470.864476 13.461721 
L 472.764373 12.820306 
L 474.664271 13.021174 
L 476.564169 12.928851 
L 478.464067 13.532845 
L 480.363965 12.888505 
L 482.263863 13.14321 
L 484.163761 13.58566 
L 489.863454 13.127345 
L 491.763352 13.298661 
L 493.66325 12.645235 
L 495.563148 13.262998 
L 497.463046 13.369012 
L 499.362943 13.142094 
L 501.262841 13.213026 
L 503.162739 13.58045 
L 506.962535 13.387552 
L 508.862433 13.045671 
L 510.762331 12.830018 
L 512.662228 13.667843 
L 514.562126 14.037525 
L 516.462024 13.618641 
L 518.361922 13.62088 
L 522.161718 13.967399 
L 524.061615 13.645434 
L 525.961513 13.882681 
L 527.861411 14.403583 
L 531.661207 13.656621 
L 533.561105 14.127917 
L 535.461003 13.590533 
L 537.3609 14.352048 
L 539.260798 13.61677 
L 541.160696 14.042023 
L 543.060594 14.29815 
L 544.960492 13.687461 
L 546.86039 13.845788 
L 548.760288 13.82431 
L 550.660185 14.322349 
L 552.560083 13.856328 
L 554.459981 14.088048 
L 556.359879 13.983927 
L 558.259777 14.394113 
L 560.159675 13.94233 
L 563.95947 14.134251 
L 565.859368 14.143828 
L 567.759266 14.356764 
L 569.659164 14.0342 
L 571.559062 14.329582 
L 573.45896 14.114259 
L 575.358858 14.306803 
L 577.258755 14.356711 
L 579.158653 14.264471 
L 581.058551 14.03132 
L 581.058551 14.03132 
" style="fill:none;stroke:#7e2f8e;stroke-linecap:square;stroke-width:3;"/>
    <defs>
     <path d="M -5 0 
L 5 0 
M 0 5 
L 0 -5 
" id="mf95c11803a" style="stroke:#7e2f8e;"/>
    </defs>
    <g clip-path="url(#p202af3f426)">
     <use style="fill:#7e2f8e;stroke:#7e2f8e;" x="149.781738" xlink:href="#mf95c11803a" y="12.21588"/>
     <use style="fill:#7e2f8e;stroke:#7e2f8e;" x="250.476324" xlink:href="#mf95c11803a" y="11.422726"/>
     <use style="fill:#7e2f8e;stroke:#7e2f8e;" x="351.170911" xlink:href="#mf95c11803a" y="12.257377"/>
     <use style="fill:#7e2f8e;stroke:#7e2f8e;" x="451.865497" xlink:href="#mf95c11803a" y="12.92469"/>
     <use style="fill:#7e2f8e;stroke:#7e2f8e;" x="552.560083" xlink:href="#mf95c11803a" y="13.856328"/>
    </g>
   </g>
   <g id="legend_1">
    <g id="patch_7">
     <path d="M 341.484688 214.26 
L 595.922188 214.26 
Q 598.922188 214.26 598.922188 211.26 
L 598.922188 102.674062 
Q 598.922188 99.674062 595.922188 99.674062 
L 341.484688 99.674062 
Q 338.484688 99.674062 338.484688 102.674062 
L 338.484688 211.26 
Q 338.484688 214.26 341.484688 214.26 
z
" style="fill:#ffffff;opacity:0.8;stroke:#cccccc;stroke-linejoin:miter;"/>
    </g>
    <g id="line2d_28">
     <path d="M 344.484688 111.821719 
L 374.484688 111.821719 
" style="fill:none;stroke:#a2142f;stroke-linecap:square;stroke-width:3;"/>
    </g>
    <g id="line2d_29">
     <g>
      <use style="fill:#a2142f;stroke:#a2142f;stroke-linejoin:miter;" x="359.484688" xlink:href="#mf7f45e09ce" y="111.821719"/>
     </g>
    </g>
    <g id="text_15">
     <!-- DOT fp64 -->
     <g transform="translate(386.484688 117.071719)scale(0.15 -0.15)">
      <defs>
       <path d="M 1259 4147 
L 1259 519 
L 2022 519 
Q 2988 519 3436 956 
Q 3884 1394 3884 2338 
Q 3884 3275 3436 3711 
Q 2988 4147 2022 4147 
L 1259 4147 
z
M 628 4666 
L 1925 4666 
Q 3281 4666 3915 4102 
Q 4550 3538 4550 2338 
Q 4550 1131 3912 565 
Q 3275 0 1925 0 
L 628 0 
L 628 4666 
z
" id="DejaVuSans-44" transform="scale(0.015625)"/>
       <path d="M -19 4666 
L 3928 4666 
L 3928 4134 
L 2272 4134 
L 2272 0 
L 1638 0 
L 1638 4134 
L -19 4134 
L -19 4666 
z
" id="DejaVuSans-54" transform="scale(0.015625)"/>
       <path d="M 2375 4863 
L 2375 4384 
L 1825 4384 
Q 1516 4384 1395 4259 
Q 1275 4134 1275 3809 
L 1275 3500 
L 2222 3500 
L 2222 3053 
L 1275 3053 
L 1275 0 
L 697 0 
L 697 3053 
L 147 3053 
L 147 3500 
L 697 3500 
L 697 3744 
Q 697 4328 969 4595 
Q 1241 4863 1831 4863 
L 2375 4863 
z
" id="DejaVuSans-66" transform="scale(0.015625)"/>
       <path d="M 1159 525 
L 1159 -1331 
L 581 -1331 
L 581 3500 
L 1159 3500 
L 1159 2969 
Q 1341 3281 1617 3432 
Q 1894 3584 2278 3584 
Q 2916 3584 3314 3078 
Q 3713 2572 3713 1747 
Q 3713 922 3314 415 
Q 2916 -91 2278 -91 
Q 1894 -91 1617 61 
Q 1341 213 1159 525 
z
M 3116 1747 
Q 3116 2381 2855 2742 
Q 2594 3103 2138 3103 
Q 1681 3103 1420 2742 
Q 1159 2381 1159 1747 
Q 1159 1113 1420 752 
Q 1681 391 2138 391 
Q 2594 391 2855 752 
Q 3116 1113 3116 1747 
z
" id="DejaVuSans-70" transform="scale(0.015625)"/>
       <path d="M 2113 2584 
Q 1688 2584 1439 2293 
Q 1191 2003 1191 1497 
Q 1191 994 1439 701 
Q 1688 409 2113 409 
Q 2538 409 2786 701 
Q 3034 994 3034 1497 
Q 3034 2003 2786 2293 
Q 2538 2584 2113 2584 
z
M 3366 4563 
L 3366 3988 
Q 3128 4100 2886 4159 
Q 2644 4219 2406 4219 
Q 1781 4219 1451 3797 
Q 1122 3375 1075 2522 
Q 1259 2794 1537 2939 
Q 1816 3084 2150 3084 
Q 2853 3084 3261 2657 
Q 3669 2231 3669 1497 
Q 3669 778 3244 343 
Q 2819 -91 2113 -91 
Q 1303 -91 875 529 
Q 447 1150 447 2328 
Q 447 3434 972 4092 
Q 1497 4750 2381 4750 
Q 2619 4750 2861 4703 
Q 3103 4656 3366 4563 
z
" id="DejaVuSans-36" transform="scale(0.015625)"/>
      </defs>
      <use xlink:href="#DejaVuSans-44"/>
      <use x="77.001953" xlink:href="#DejaVuSans-4f"/>
      <use x="155.712891" xlink:href="#DejaVuSans-54"/>
      <use x="216.796875" xlink:href="#DejaVuSans-20"/>
      <use x="248.583984" xlink:href="#DejaVuSans-66"/>
      <use x="283.789062" xlink:href="#DejaVuSans-70"/>
      <use x="347.265625" xlink:href="#DejaVuSans-36"/>
      <use x="410.888672" xlink:href="#DejaVuSans-34"/>
     </g>
    </g>
    <g id="line2d_30">
     <path d="M 344.484688 133.838906 
L 374.484688 133.838906 
" style="fill:none;stroke:#77ac30;stroke-linecap:square;stroke-width:3;"/>
    </g>
    <g id="line2d_31">
     <g>
      <use style="fill:#77ac30;stroke:#77ac30;stroke-linejoin:miter;" x="359.484688" xlink:href="#m796d270dc9" y="133.838906"/>
     </g>
    </g>
    <g id="text_16">
     <!-- DOT fp32 -->
     <g transform="translate(386.484688 139.088906)scale(0.15 -0.15)">
      <use xlink:href="#DejaVuSans-44"/>
      <use x="77.001953" xlink:href="#DejaVuSans-4f"/>
      <use x="155.712891" xlink:href="#DejaVuSans-54"/>
      <use x="216.796875" xlink:href="#DejaVuSans-20"/>
      <use x="248.583984" xlink:href="#DejaVuSans-66"/>
      <use x="283.789062" xlink:href="#DejaVuSans-70"/>
      <use x="347.265625" xlink:href="#DejaVuSans-33"/>
      <use x="410.888672" xlink:href="#DejaVuSans-32"/>
     </g>
    </g>
    <g id="line2d_32">
     <path d="M 344.484688 155.856094 
L 374.484688 155.856094 
" style="fill:none;stroke:#0072bd;stroke-linecap:square;stroke-width:3;"/>
    </g>
    <g id="line2d_33">
     <g>
      <use style="fill:#0072bd;stroke:#0072bd;" x="359.484688" xlink:href="#mb8ee81e63f" y="155.856094"/>
     </g>
    </g>
    <g id="text_17">
     <!-- DOT Accessor&lt;fp64, fp32&gt; -->
     <g transform="translate(386.484688 161.106094)scale(0.15 -0.15)">
      <defs>
       <path d="M 2188 4044 
L 1331 1722 
L 3047 1722 
L 2188 4044 
z
M 1831 4666 
L 2547 4666 
L 4325 0 
L 3669 0 
L 3244 1197 
L 1141 1197 
L 716 0 
L 50 0 
L 1831 4666 
z
" id="DejaVuSans-41" transform="scale(0.015625)"/>
       <path d="M 4684 3150 
L 1459 2003 
L 4684 863 
L 4684 294 
L 678 1747 
L 678 2266 
L 4684 3719 
L 4684 3150 
z
" id="DejaVuSans-3c" transform="scale(0.015625)"/>
       <path d="M 750 794 
L 1409 794 
L 1409 256 
L 897 -744 
L 494 -744 
L 750 256 
L 750 794 
z
" id="DejaVuSans-2c" transform="scale(0.015625)"/>
       <path d="M 678 3150 
L 678 3719 
L 4684 2266 
L 4684 1747 
L 678 294 
L 678 863 
L 3897 2003 
L 678 3150 
z
" id="DejaVuSans-3e" transform="scale(0.015625)"/>
      </defs>
      <use xlink:href="#DejaVuSans-44"/>
      <use x="77.001953" xlink:href="#DejaVuSans-4f"/>
      <use x="155.712891" xlink:href="#DejaVuSans-54"/>
      <use x="216.796875" xlink:href="#DejaVuSans-20"/>
      <use x="248.583984" xlink:href="#DejaVuSans-41"/>
      <use x="315.242188" xlink:href="#DejaVuSans-63"/>
      <use x="370.222656" xlink:href="#DejaVuSans-63"/>
      <use x="425.203125" xlink:href="#DejaVuSans-65"/>
      <use x="486.726562" xlink:href="#DejaVuSans-73"/>
      <use x="538.826172" xlink:href="#DejaVuSans-73"/>
      <use x="590.925781" xlink:href="#DejaVuSans-6f"/>
      <use x="652.107422" xlink:href="#DejaVuSans-72"/>
      <use x="693.220703" xlink:href="#DejaVuSans-3c"/>
      <use x="777.009766" xlink:href="#DejaVuSans-66"/>
      <use x="812.214844" xlink:href="#DejaVuSans-70"/>
      <use x="875.691406" xlink:href="#DejaVuSans-36"/>
      <use x="939.314453" xlink:href="#DejaVuSans-34"/>
      <use x="1002.9375" xlink:href="#DejaVuSans-2c"/>
      <use x="1034.724609" xlink:href="#DejaVuSans-20"/>
      <use x="1066.511719" xlink:href="#DejaVuSans-66"/>
      <use x="1101.716797" xlink:href="#DejaVuSans-70"/>
      <use x="1165.193359" xlink:href="#DejaVuSans-33"/>
      <use x="1228.816406" xlink:href="#DejaVuSans-32"/>
      <use x="1292.439453" xlink:href="#DejaVuSans-3e"/>
     </g>
    </g>
    <g id="line2d_34">
     <path d="M 344.484688 177.873281 
L 374.484688 177.873281 
" style="fill:none;stroke:#d95319;stroke-linecap:square;stroke-width:3;"/>
    </g>
    <g id="line2d_35">
     <g>
      <use style="fill:#d95319;stroke:#d95319;stroke-linejoin:miter;" x="359.484688" xlink:href="#m02522dbeea" y="177.873281"/>
     </g>
    </g>
    <g id="text_18">
     <!-- DOT cuBLAS fp64 -->
     <g transform="translate(386.484688 183.123281)scale(0.15 -0.15)">
      <defs>
       <path d="M 544 1381 
L 544 3500 
L 1119 3500 
L 1119 1403 
Q 1119 906 1312 657 
Q 1506 409 1894 409 
Q 2359 409 2629 706 
Q 2900 1003 2900 1516 
L 2900 3500 
L 3475 3500 
L 3475 0 
L 2900 0 
L 2900 538 
Q 2691 219 2414 64 
Q 2138 -91 1772 -91 
Q 1169 -91 856 284 
Q 544 659 544 1381 
z
M 1991 3584 
L 1991 3584 
z
" id="DejaVuSans-75" transform="scale(0.015625)"/>
       <path d="M 1259 2228 
L 1259 519 
L 2272 519 
Q 2781 519 3026 730 
Q 3272 941 3272 1375 
Q 3272 1813 3026 2020 
Q 2781 2228 2272 2228 
L 1259 2228 
z
M 1259 4147 
L 1259 2741 
L 2194 2741 
Q 2656 2741 2882 2914 
Q 3109 3088 3109 3444 
Q 3109 3797 2882 3972 
Q 2656 4147 2194 4147 
L 1259 4147 
z
M 628 4666 
L 2241 4666 
Q 2963 4666 3353 4366 
Q 3744 4066 3744 3513 
Q 3744 3084 3544 2831 
Q 3344 2578 2956 2516 
Q 3422 2416 3680 2098 
Q 3938 1781 3938 1306 
Q 3938 681 3513 340 
Q 3088 0 2303 0 
L 628 0 
L 628 4666 
z
" id="DejaVuSans-42" transform="scale(0.015625)"/>
       <path d="M 3425 4513 
L 3425 3897 
Q 3066 4069 2747 4153 
Q 2428 4238 2131 4238 
Q 1616 4238 1336 4038 
Q 1056 3838 1056 3469 
Q 1056 3159 1242 3001 
Q 1428 2844 1947 2747 
L 2328 2669 
Q 3034 2534 3370 2195 
Q 3706 1856 3706 1288 
Q 3706 609 3251 259 
Q 2797 -91 1919 -91 
Q 1588 -91 1214 -16 
Q 841 59 441 206 
L 441 856 
Q 825 641 1194 531 
Q 1563 422 1919 422 
Q 2459 422 2753 634 
Q 3047 847 3047 1241 
Q 3047 1584 2836 1778 
Q 2625 1972 2144 2069 
L 1759 2144 
Q 1053 2284 737 2584 
Q 422 2884 422 3419 
Q 422 4038 858 4394 
Q 1294 4750 2059 4750 
Q 2388 4750 2728 4690 
Q 3069 4631 3425 4513 
z
" id="DejaVuSans-53" transform="scale(0.015625)"/>
      </defs>
      <use xlink:href="#DejaVuSans-44"/>
      <use x="77.001953" xlink:href="#DejaVuSans-4f"/>
      <use x="155.712891" xlink:href="#DejaVuSans-54"/>
      <use x="216.796875" xlink:href="#DejaVuSans-20"/>
      <use x="248.583984" xlink:href="#DejaVuSans-63"/>
      <use x="303.564453" xlink:href="#DejaVuSans-75"/>
      <use x="366.943359" xlink:href="#DejaVuSans-42"/>
      <use x="435.546875" xlink:href="#DejaVuSans-4c"/>
      <use x="493.509766" xlink:href="#DejaVuSans-41"/>
      <use x="561.917969" xlink:href="#DejaVuSans-53"/>
      <use x="625.394531" xlink:href="#DejaVuSans-20"/>
      <use x="657.181641" xlink:href="#DejaVuSans-66"/>
      <use x="692.386719" xlink:href="#DejaVuSans-70"/>
      <use x="755.863281" xlink:href="#DejaVuSans-36"/>
      <use x="819.486328" xlink:href="#DejaVuSans-34"/>
     </g>
    </g>
    <g id="line2d_36">
     <path d="M 344.484688 199.890469 
L 374.484688 199.890469 
" style="fill:none;stroke:#7e2f8e;stroke-linecap:square;stroke-width:3;"/>
    </g>
    <g id="line2d_37">
     <g>
      <use style="fill:#7e2f8e;stroke:#7e2f8e;" x="359.484688" xlink:href="#mf95c11803a" y="199.890469"/>
     </g>
    </g>
    <g id="text_19">
     <!-- DOT cuBLAS fp32 -->
     <g transform="translate(386.484688 205.140469)scale(0.15 -0.15)">
      <use xlink:href="#DejaVuSans-44"/>
      <use x="77.001953" xlink:href="#DejaVuSans-4f"/>
      <use x="155.712891" xlink:href="#DejaVuSans-54"/>
      <use x="216.796875" xlink:href="#DejaVuSans-20"/>
      <use x="248.583984" xlink:href="#DejaVuSans-63"/>
      <use x="303.564453" xlink:href="#DejaVuSans-75"/>
      <use x="366.943359" xlink:href="#DejaVuSans-42"/>
      <use x="435.546875" xlink:href="#DejaVuSans-4c"/>
      <use x="493.509766" xlink:href="#DejaVuSans-41"/>
      <use x="561.917969" xlink:href="#DejaVuSans-53"/>
      <use x="625.394531" xlink:href="#DejaVuSans-20"/>
      <use x="657.181641" xlink:href="#DejaVuSans-66"/>
      <use x="692.386719" xlink:href="#DejaVuSans-70"/>
      <use x="755.863281" xlink:href="#DejaVuSans-33"/>
      <use x="819.486328" xlink:href="#DejaVuSans-32"/>
     </g>
    </g>
   </g>
  </g>
 </g>
 <defs>
  <clipPath id="p202af3f426">
   <rect height="221.76" width="558" x="48.422187" y="-0"/>
  </clipPath>
 </defs>
</svg>
